<?xml version="1.0" standalone="no"?><!DOCTYPE svg PUBLIC "-//W3C//DTD SVG 1.1//EN" "http://www.w3.org/Graphics/SVG/1.1/DTD/svg11.dtd"><svg t="1605582076281" class="icon" viewBox="0 0 1024 1024" version="1.1" xmlns="http://www.w3.org/2000/svg" p-id="3823" xmlns:xlink="http://www.w3.org/1999/xlink" width="200" height="200"><defs><style type="text/css"></style></defs><path d="M914.158887 660.086046A282.661116 282.661116 0 0 1 828.013113 814.31137V978.834442a45.165558 45.165558 0 0 1-45.165558 45.165558h-120.441487a45.165558 45.165558 0 0 1-45.165558-45.165558v-57.375313a533.856893 533.856893 0 0 1-112.913894 12.209755 539.592919 539.592919 0 0 1-82.803523-6.353288V978.834442a45.165558 45.165558 0 0 1-45.165558 45.165558h-120.441487a45.165558 45.165558 0 0 1-45.165558-45.165558v-138.50771A312.319832 312.319832 0 0 1 107.682687 707.841095H60.198631a45.165558 45.165558 0 0 1-45.165558-45.165557v-90.331116a45.165558 45.165558 0 0 1 45.165558-45.165558h47.484056a309.534623 309.534623 0 0 1 96.654294-127.141045l-14.16693-128.902502a333.637975 333.637975 0 0 1 94.561623 3.613245 533.540734 533.540734 0 0 1 106.786434 36.132446l-1.023753 2.860485a539.352036 539.352036 0 0 1 44.036419-7.527593 203.24501 203.24501 0 1 1 306.47842 52.301716c91.53553 49.00463 156.031947 125.454864 172.637817 213.858916H933.399415s20.685825-17.584457 15.055186-60.220743c-4.772494-36.132446-13.549667-57.209707-15.055186-75.27593 14.031433-32.474036 73.123038 24.645339 75.275929 90.331116 1.731346 52.903923-40.332843 106.169171-94.516457 132.877071zM270.971234 512.123678a45.165558 45.165558 0 1 0 45.165558 45.165558 45.165558 45.165558 0 0 0-45.165558-45.165558z m175.362805-69.163524a245.685579 245.685579 0 0 1 121.254468-3.824017 208.830484 208.830484 0 0 1 93.613146 51.187632l16.922029-10.53863a241.153968 241.153968 0 0 0-106.154116-57.586086 278.054229 278.054229 0 0 0-131.356497 1.505518zM767.792369 203.492367a158.079452 158.079452 0 1 0-281.697583 98.370585c6.022074-0.210773 12.044149-0.511876 18.23183-0.511877a515.865946 515.865946 0 0 1 189.981391 35.530239A157.823514 157.823514 0 0 0 767.792369 203.492367zM609.712917 301.351075a97.858709 97.858709 0 1 1 97.858709-97.858708 97.858709 97.858709 0 0 1-97.858709 97.858708z m0-150.551859a52.693151 52.693151 0 1 0 52.693151 52.693151 52.693151 52.693151 0 0 0-52.693151-52.693151z" p-id="3824"></path></svg>