<?xml version="1.0" standalone="no"?><!DOCTYPE svg PUBLIC "-//W3C//DTD SVG 1.1//EN" "http://www.w3.org/Graphics/SVG/1.1/DTD/svg11.dtd"><svg class="icon" width="200px" height="200.00px" viewBox="0 0 1024 1024" version="1.1" xmlns="http://www.w3.org/2000/svg"><path d="M941.9 391.3c-25.5-142.2-139.8-253.6-283.5-274.7v274.7h283.5z" fill="#EEB1B3" /><path d="M960.3 406.7H643V98.8l17.7 2.6C811.1 123.5 930.2 238.9 957 388.6l3.3 18.1z m-286.5-30.8h249.1C893.8 253.9 796.7 160 673.8 135v240.9z" fill="#3A4D51" /><path d="M941.9 391.3H275.7c-3.5 19.5-5.4 39.6-5.4 60.2 0 187 151.6 338.5 338.5 338.5 16.9 0 33.4-1.3 49.6-3.7 163.4-24 288.9-164.8 288.9-334.9 0-20.5-1.9-40.6-5.4-60.1z" fill="#F2CA69" /><path d="M608.8 805.4c-195.2 0-353.9-158.8-353.9-353.9 0-20.7 1.9-41.9 5.7-62.9 1.3-7.3 7.7-12.7 15.2-12.7H942c7.5 0 13.9 5.3 15.2 12.7 3.8 21 5.7 42.2 5.7 62.9 0 174.3-129.9 324.8-302.1 350.1-17.4 2.5-34.9 3.8-52 3.8z m-320-398.7c-2.1 15-3.2 30-3.2 44.8 0 178.2 144.9 323.1 323.1 323.1 15.7 0 31.6-1.2 47.4-3.5C813.4 748 931.9 610.6 931.9 451.5c0-14.8-1.1-29.8-3.2-44.8H288.8z" fill="#3A4D51" /><path d="M941.9 391.3H275.7c-3.5 19.5-5.4 39.6-5.4 60.2 0 187 151.6 338.5 338.5 338.5 16.9 0 33.4-1.3 49.6-3.7 163.4-24 288.9-164.8 288.9-334.9 0-20.5-1.9-40.6-5.4-60.1z" fill="#F2CA69" /><path d="M608.8 805.4c-195.2 0-353.9-158.8-353.9-353.9 0-20.7 1.9-41.9 5.7-62.9 1.3-7.3 7.7-12.7 15.2-12.7H942c7.5 0 13.9 5.3 15.2 12.7 3.8 21 5.7 42.2 5.7 62.9 0 174.3-129.9 324.8-302.1 350.1-17.4 2.5-34.9 3.8-52 3.8z m-320-398.7c-2.1 15-3.2 30-3.2 44.8 0 178.2 144.9 323.1 323.1 323.1 15.7 0 31.6-1.2 47.4-3.5C813.4 748 931.9 610.6 931.9 451.5c0-14.8-1.1-29.8-3.2-44.8H288.8z" fill="#3A4D51" /><path d="M941.9 391.3H813.8c3.5 19.5 5.4 39.6 5.4 60.2 0 165-118.1 302.4-274.4 332.4 20.7 4 42.1 6.1 64 6.1 16.9 0 33.4-1.3 49.6-3.7 163.4-24 288.9-164.8 288.9-334.9 0-20.5-1.9-40.6-5.4-60.1z" fill="#EDAB38" /><path d="M398.3 451.5c0-20.6 1.9-40.6 5.4-60.2h-68.9c-3.5 19.5-5.4 39.6-5.4 60.2 0 165.1 118.2 302.5 274.5 332.4-4.8 0.9-9.6 1.8-14.5 2.5-5.4 0.8-10.8 1.3-16.2 1.8 11.7 1.2 23.5 1.9 35.5 1.9 16.9 0 33.4-1.3 49.6-3.7 4.9-0.7 9.7-1.5 14.5-2.5C516.5 754 398.3 616.6 398.3 451.5z" fill="#F2CA69" /><path d="M608.8 805.4c-195.2 0-353.9-158.8-353.9-353.9 0-20.7 1.9-41.9 5.7-62.9 1.3-7.3 7.7-12.7 15.2-12.7H942c7.5 0 13.9 5.3 15.2 12.7 3.8 21 5.7 42.2 5.7 62.9 0 174.3-129.9 324.8-302.1 350.1-17.4 2.5-34.9 3.8-52 3.8z m-320-398.7c-2.1 15-3.2 30-3.2 44.8 0 178.2 144.9 323.1 323.1 323.1 15.7 0 31.6-1.2 47.4-3.5C813.4 748 931.9 610.6 931.9 451.5c0-14.8-1.1-29.8-3.2-44.8H288.8z" fill="#3A4D51" /><path d="M464.3 835.6m-83.9 0a83.9 83.9 0 1 0 167.8 0 83.9 83.9 0 1 0-167.8 0Z" fill="#D1E0E4" /><path d="M464.3 782.5c29.2 0 53 23.8 53 53s-23.8 53-53 53-53-23.8-53-53 23.8-53 53-53m0-30.8c-46.3 0-83.9 37.5-83.9 83.9s37.5 83.9 83.9 83.9 83.9-37.5 83.9-83.9-37.6-83.9-83.9-83.9z" fill="#3A4D51" /><path d="M742.3 835.6m-83.9 0a83.9 83.9 0 1 0 167.8 0 83.9 83.9 0 1 0-167.8 0Z" fill="#D1E0E4" /><path d="M742.3 782.5c29.2 0 53 23.8 53 53s-23.8 53-53 53-53-23.8-53-53c-0.1-29.2 23.7-53 53-53m0-30.8c-46.3 0-83.9 37.5-83.9 83.9s37.5 83.9 83.9 83.9c46.3 0 83.9-37.5 83.9-83.9s-37.6-83.9-83.9-83.9z" fill="#3A4D51" /><path d="M746.2 851c-3 0-6-0.9-8.6-2.6-39.5-26.7-85.7-40.8-133.5-40.8-47.9 0-94 14.1-133.5 40.8-7 4.8-16.6 2.9-21.4-4.1s-2.9-16.6 4.1-21.4c44.6-30.1 96.8-46.1 150.8-46.1 54 0 106.2 15.9 150.8 46.1 7.1 4.8 8.9 14.3 4.1 21.4-3 4.3-7.9 6.7-12.8 6.7z" fill="#3A4D51" /><path d="M64 285.2h175.5l57.6 90.9" fill="#FFFFFF" /><path d="M297.1 391.5c-5.1 0-10.1-2.5-13-7.2L231 300.6H64c-8.5 0-15.4-6.9-15.4-15.4s6.9-15.4 15.4-15.4h175.5c5.3 0 10.2 2.7 13 7.2l57.6 90.9c4.6 7.2 2.4 16.7-4.8 21.3-2.5 1.6-5.4 2.3-8.2 2.3z" fill="#3A4D51" /><path d="M658.4 376.1V100.4" fill="#FFFFFF" /><path d="M658.4 391.5c-8.5 0-15.4-6.9-15.4-15.4V100.4c0-8.5 6.9-15.4 15.4-15.4s15.4 6.9 15.4 15.4v275.7c0 8.5-6.9 15.4-15.4 15.4z" fill="#3A4D51" /><path d="M662.3 376.1l137.8-238.7" fill="#FFFFFF" /><path d="M662.3 391.5c-2.6 0-5.3-0.7-7.7-2.1-7.4-4.3-9.9-13.7-5.6-21.1l137.8-238.8c4.3-7.4 13.7-9.9 21.1-5.6 7.4 4.3 9.9 13.7 5.6 21.1L675.6 383.8c-2.8 5-8 7.7-13.3 7.7z" fill="#3A4D51" /><path d="M658.4 391.8L897.2 254" fill="#FFFFFF" /><path d="M658.4 407.2c-5.3 0-10.5-2.8-13.4-7.7-4.3-7.4-1.7-16.8 5.6-21.1l238.8-137.8c7.4-4.3 16.8-1.7 21.1 5.6 4.3 7.4 1.7 16.8-5.6 21.1L666.1 405.2c-2.4 1.4-5.1 2-7.7 2z" fill="#3A4D51" /><path d="M961.4 422.4H262.5c-12.6 0-23-10.3-23-23v-0.3c0-12.6 10.3-23 23-23h698.9c12.6 0 23 10.3 23 23v0.3c-0.1 12.7-10.4 23-23 23z" fill="#D1E0E4" /><path d="M961.4 437.8H262.5c-21.2 0-38.4-17.2-38.4-38.4 0-21.5 17.2-38.7 38.4-38.7h698.9c21.2 0 38.4 17.2 38.4 38.4 0 21.5-17.3 38.7-38.4 38.7z m-698.9-46.3c-4.1 0-7.6 3.5-7.6 7.6 0 4.4 3.5 7.9 7.6 7.9h698.9c4.1 0 7.6-3.5 7.6-7.6 0-4.4-3.5-7.9-7.6-7.9H262.5z" fill="#3A4D51" /><path d="M394.1 107.8c-13.6-4.7-28.6 0.3-39.3 10.1-10.7-9.8-25.6-14.7-39.3-10.1-20.7 7.1-30.4 33.4-23.3 54 7.1 20.7 62.6 60.9 62.6 60.9s55.5-40.2 62.6-60.9c7.1-20.7-2.7-47-23.3-54z" fill="#EEB1B3" /><path d="M354.8 241.7l-9-6.5c-14-10.1-60.1-44.9-68.1-68.4-10.2-29.7 5.2-64.1 32.9-73.6 14.3-4.9 30.4-2.7 44.3 5.5 13.8-8.2 29.9-10.4 44.3-5.5 27.7 9.5 43.1 43.9 32.9 73.6-8 23.5-54.2 58.3-68.1 68.4l-9.2 6.5z m-28.4-120.3c-2 0-3.9 0.3-5.9 1-11.7 4-18.4 20.8-13.7 34.5 2.9 8.4 25.6 29.4 48 46.6 22.4-17.2 45.1-38.2 48-46.6 2.2-6.5 1.9-14.5-0.9-21.3-1.6-3.8-5.3-10.6-12.8-13.2-8.8-3-18.1 1.6-23.8 6.8l-10.4 9.6-10.4-9.6c-4.6-4.1-11.2-7.8-18.1-7.8z" fill="#3A4D51" /><path d="M185.4 553.1h-98c-8.5 0-15.4-6.9-15.4-15.4s6.9-15.4 15.4-15.4h98c8.5 0 15.4 6.9 15.4 15.4s-6.9 15.4-15.4 15.4zM185.4 625.2H37.8c-8.5 0-15.4-6.9-15.4-15.4s6.9-15.4 15.4-15.4h147.7c8.5 0 15.4 6.9 15.4 15.4s-7 15.4-15.5 15.4z" fill="#3A4D51" /></svg>