<?xml version="1.0" standalone="no"?><!DOCTYPE svg PUBLIC "-//W3C//DTD SVG 1.1//EN" "http://www.w3.org/Graphics/SVG/1.1/DTD/svg11.dtd"><svg class="icon" width="200px" height="200.00px" viewBox="0 0 1024 1024" version="1.1" xmlns="http://www.w3.org/2000/svg"><path d="M886.06 970.5l-3.44-88.1c0.06-0.38 0.12-0.76 0.12-1.16 0-0.74-0.08-1.46-0.24-2.16l-24.52-630.16V52.22c0-0.02-0.02-0.06-0.02-0.08 0-0.46-0.06-0.9-0.12-1.36-0.04-0.2-0.04-0.42-0.08-0.62-0.08-0.38-0.22-0.74-0.34-1.1-0.08-0.26-0.14-0.52-0.24-0.74-0.08-0.18-0.2-0.36-0.28-0.54-0.2-0.4-0.4-0.8-0.66-1.18-0.1-0.14-0.22-0.28-0.34-0.42-0.3-0.38-0.58-0.76-0.92-1.08-0.02-0.02-0.04-0.06-0.06-0.06-0.16-0.16-0.34-0.28-0.5-0.42-0.32-0.26-0.64-0.54-0.98-0.76-0.26-0.18-0.54-0.3-0.8-0.44-0.3-0.16-0.6-0.34-0.92-0.46-0.32-0.12-0.64-0.2-0.96-0.3-0.3-0.08-0.6-0.2-0.9-0.26-0.42-0.06-0.82-0.08-1.22-0.12-0.22 0-0.44-0.06-0.66-0.06H176.02c-0.24 0-0.46 0.06-0.7 0.06-0.4 0.04-0.78 0.06-1.18 0.12-0.3 0.06-0.6 0.18-0.9 0.26-0.32 0.1-0.64 0.18-0.96 0.3-0.32 0.12-0.6 0.3-0.9 0.46-0.28 0.14-0.56 0.26-0.82 0.44-0.34 0.22-0.64 0.48-0.94 0.74-0.18 0.16-0.38 0.26-0.54 0.44l-0.06 0.06c-0.32 0.32-0.6 0.68-0.88 1.02-0.12 0.18-0.28 0.32-0.4 0.48-0.22 0.34-0.38 0.7-0.56 1.06-0.12 0.22-0.26 0.42-0.36 0.66-0.1 0.2-0.14 0.42-0.2 0.62-0.14 0.42-0.3 0.82-0.38 1.24-0.04 0.18-0.04 0.38-0.06 0.58-0.08 0.46-0.14 0.92-0.14 1.38 0 0.02-0.02 0.06-0.02 0.08v196.7L137.92 971.4a9.984 9.984 0 0 0 9.98 10.38h728.24a10.004 10.004 0 0 0 9.92-11.28zM824.4 62.22l-78.82 81.48c-0.2 0.22-0.34 0.44-0.52 0.66-0.2 0.26-0.44 0.52-0.62 0.8s-0.32 0.58-0.48 0.86c-0.14 0.3-0.32 0.58-0.44 0.88-0.12 0.3-0.2 0.62-0.3 0.92-0.08 0.32-0.18 0.62-0.24 0.94-0.08 0.3-0.08 0.62-0.12 0.94-0.02 0.32-0.08 0.64-0.08 0.96 0 0.32 0.06 0.64 0.08 0.94 0.04 0.32 0.04 0.64 0.12 0.96 0.06 0.32 0.16 0.62 0.24 0.94 0.1 0.3 0.18 0.62 0.3 0.92 0.12 0.3 0.3 0.58 0.44 0.88 0.16 0.28 0.3 0.58 0.48 0.84 0.18 0.3 0.42 0.54 0.62 0.82 0.18 0.22 0.32 0.44 0.52 0.66l78.82 81.48H199.6l78.82-81.5c0.18-0.2 0.32-0.42 0.5-0.64 0.22-0.26 0.46-0.52 0.64-0.82 0.18-0.26 0.32-0.56 0.46-0.84 0.16-0.3 0.34-0.58 0.46-0.88 0.12-0.3 0.2-0.62 0.28-0.92 0.1-0.32 0.2-0.62 0.26-0.94 0.06-0.32 0.08-0.62 0.12-0.94 0.02-0.32 0.06-0.64 0.06-0.96 0-0.32-0.04-0.64-0.06-0.96-0.04-0.32-0.06-0.64-0.12-0.94-0.06-0.32-0.16-0.62-0.26-0.94-0.08-0.3-0.16-0.62-0.28-0.92-0.12-0.3-0.3-0.58-0.44-0.88-0.16-0.28-0.3-0.58-0.48-0.86s-0.4-0.52-0.62-0.78c-0.18-0.22-0.32-0.46-0.52-0.68L199.6 62.22h624.8z m13.58 14.72v147.44l-71.3-73.72 71.3-73.72z m-651.96 0l71.3 73.72-71.3 73.72V76.94z m-0.38 182.16h652.72l23.82 612.14H161.82l23.82-612.14zM158.3 961.78l2.74-70.54h701.92l2.74 70.54H158.3z" fill="#23130D" /><path d="M865.7 961.78H158.3l2.74-70.54h701.92z" fill="#E1E1E5" /><path d="M865.7 961.78h-1.04l-1.7-43.88H161.04l-1.7 43.88h-1.04l2.74-70.54h701.92z" fill="#231F20" opacity=".2" /><path d="M837.98 76.94v147.44l-71.3-73.72zM257.32 150.66l-71.3 73.72V76.94z" fill="#EC7063" /><path d="M257.32 150.66l-71.3 73.72v-39l33.58-34.72-33.58-34.72v-39zM766.68 150.66l71.3 73.72v-39L804.4 150.66l33.58-34.72v-39z" fill="#FFFFFF" opacity=".4" /><path d="M745.58 157.62l78.82 81.48H199.6l78.82-81.5c0.18-0.2 0.32-0.42 0.5-0.64 0.22-0.26 0.46-0.52 0.64-0.82 0.18-0.26 0.32-0.56 0.46-0.84 0.16-0.3 0.34-0.58 0.46-0.88 0.12-0.3 0.2-0.62 0.28-0.92 0.1-0.32 0.2-0.62 0.26-0.94 0.06-0.32 0.08-0.62 0.12-0.94 0.02-0.32 0.06-0.64 0.06-0.96 0-0.32-0.04-0.64-0.06-0.96-0.04-0.32-0.06-0.64-0.12-0.94-0.06-0.32-0.16-0.62-0.26-0.94-0.08-0.3-0.16-0.62-0.28-0.92-0.12-0.3-0.3-0.58-0.44-0.88-0.16-0.28-0.3-0.58-0.48-0.86s-0.4-0.52-0.62-0.78c-0.18-0.22-0.32-0.46-0.52-0.68L199.6 62.22h624.8l-78.82 81.48c-0.2 0.22-0.34 0.44-0.52 0.66-0.2 0.26-0.44 0.52-0.62 0.8s-0.32 0.58-0.48 0.86c-0.14 0.3-0.32 0.58-0.44 0.88-0.12 0.3-0.2 0.62-0.3 0.92-0.08 0.32-0.18 0.62-0.24 0.94-0.08 0.3-0.08 0.62-0.12 0.94-0.02 0.32-0.08 0.64-0.08 0.96 0 0.32 0.06 0.64 0.08 0.94 0.04 0.32 0.04 0.64 0.12 0.96 0.06 0.32 0.16 0.62 0.24 0.94 0.1 0.3 0.18 0.62 0.3 0.92 0.12 0.3 0.3 0.58 0.44 0.88 0.16 0.28 0.3 0.58 0.48 0.84 0.18 0.3 0.42 0.54 0.62 0.82 0.18 0.22 0.32 0.44 0.52 0.66z" fill="#E1E1E5" /><path d="M745.58 157.62l78.82 81.48H199.6l78.82-81.5c0.18-0.2 0.32-0.42 0.5-0.64 0.22-0.26 0.46-0.52 0.64-0.82 0.18-0.26 0.32-0.56 0.46-0.84 0.16-0.3 0.34-0.58 0.46-0.88 0.12-0.3 0.2-0.62 0.28-0.92 0.1-0.32 0.2-0.62 0.26-0.94 0.06-0.32 0.08-0.62 0.12-0.94 0.02-0.32 0.06-0.64 0.06-0.96 0-0.32-0.04-0.64-0.06-0.96-0.04-0.32-0.06-0.64-0.12-0.94-0.06-0.32-0.16-0.62-0.26-0.94-0.08-0.3-0.16-0.62-0.28-0.92-0.12-0.3-0.3-0.58-0.44-0.88-0.16-0.28-0.3-0.58-0.48-0.86s-0.4-0.52-0.62-0.78c-0.18-0.22-0.32-0.46-0.52-0.68L199.6 62.22h624.8l-78.82 81.48c-0.2 0.22-0.34 0.44-0.52 0.66-0.2 0.26-0.44 0.52-0.62 0.8s-0.32 0.58-0.48 0.86c-0.14 0.3-0.32 0.58-0.44 0.88-0.12 0.3-0.2 0.62-0.3 0.92-0.08 0.32-0.18 0.62-0.24 0.94-0.08 0.3-0.08 0.62-0.12 0.94-0.02 0.32-0.08 0.64-0.08 0.96 0 0.32 0.06 0.64 0.08 0.94 0.04 0.32 0.04 0.64 0.12 0.96 0.06 0.32 0.16 0.62 0.24 0.94 0.1 0.3 0.18 0.62 0.3 0.92 0.12 0.3 0.3 0.58 0.44 0.88 0.16 0.28 0.3 0.58 0.48 0.84 0.18 0.3 0.42 0.54 0.62 0.82 0.18 0.22 0.32 0.44 0.52 0.66z" fill="#E1E1E5" /><path d="M318.88 150.66c0 0.32-0.04 0.64-0.06 0.96-0.04 0.32-0.06 0.62-0.12 0.94-0.06 0.32-0.16 0.62-0.26 0.94-0.08 0.3-0.16 0.62-0.28 0.92-0.12 0.3-0.3 0.58-0.46 0.88-0.14 0.28-0.28 0.58-0.46 0.84-0.18 0.3-0.42 0.56-0.64 0.82-0.18 0.22-0.32 0.44-0.5 0.64l-78.82 81.5H199.6l78.82-81.5c0.18-0.2 0.32-0.42 0.5-0.64 0.22-0.26 0.46-0.52 0.64-0.82 0.18-0.26 0.32-0.56 0.46-0.84 0.16-0.3 0.34-0.58 0.46-0.88 0.12-0.3 0.2-0.62 0.28-0.92 0.1-0.32 0.2-0.62 0.26-0.94 0.06-0.32 0.08-0.62 0.12-0.94 0.02-0.32 0.06-0.64 0.06-0.96 0-0.32-0.04-0.64-0.06-0.96-0.04-0.32-0.06-0.64-0.12-0.94-0.06-0.32-0.16-0.62-0.26-0.94-0.08-0.3-0.16-0.62-0.28-0.92-0.12-0.3-0.3-0.58-0.44-0.88-0.16-0.28-0.3-0.58-0.48-0.86s-0.4-0.52-0.62-0.78c-0.18-0.22-0.32-0.46-0.52-0.68L199.6 62.22h37.68l78.82 81.48c0.2 0.22 0.34 0.46 0.52 0.68 0.22 0.26 0.44 0.5 0.62 0.78s0.32 0.58 0.48 0.86c0.14 0.3 0.32 0.58 0.44 0.88 0.12 0.3 0.2 0.62 0.28 0.92 0.1 0.32 0.2 0.62 0.26 0.94 0.06 0.3 0.08 0.62 0.12 0.94 0.02 0.32 0.06 0.64 0.06 0.96zM745.72 157.62l78.82 81.48h-37.68l-78.82-81.48c-0.2-0.22-0.34-0.44-0.52-0.66-0.2-0.28-0.44-0.52-0.62-0.82-0.18-0.26-0.32-0.56-0.48-0.84-0.14-0.3-0.32-0.58-0.44-0.88-0.12-0.3-0.2-0.62-0.3-0.92-0.08-0.32-0.18-0.62-0.24-0.94-0.08-0.32-0.08-0.64-0.12-0.96-0.02-0.3-0.08-0.62-0.08-0.94 0-0.32 0.06-0.64 0.08-0.96 0.04-0.32 0.04-0.64 0.12-0.94 0.06-0.32 0.16-0.62 0.24-0.94 0.1-0.3 0.18-0.62 0.3-0.92 0.12-0.3 0.3-0.58 0.44-0.88 0.16-0.28 0.3-0.58 0.48-0.86s0.42-0.54 0.62-0.8c0.18-0.22 0.32-0.44 0.52-0.66l78.82-81.48h37.68l-78.82 81.48c-0.2 0.22-0.34 0.44-0.52 0.66-0.2 0.26-0.44 0.52-0.62 0.8s-0.32 0.58-0.48 0.86c-0.14 0.3-0.32 0.58-0.44 0.88-0.12 0.3-0.2 0.62-0.3 0.92-0.08 0.32-0.18 0.62-0.24 0.94-0.08 0.3-0.08 0.62-0.12 0.94-0.02 0.32-0.08 0.64-0.08 0.96 0 0.32 0.06 0.64 0.08 0.94 0.04 0.32 0.04 0.64 0.12 0.96 0.06 0.32 0.16 0.62 0.24 0.94 0.1 0.3 0.18 0.62 0.3 0.92 0.12 0.3 0.3 0.58 0.44 0.88 0.16 0.28 0.3 0.58 0.48 0.84 0.18 0.3 0.42 0.54 0.62 0.82 0.18 0.22 0.32 0.44 0.52 0.66z" fill="#231F20" opacity=".2" /><path d="M855.2 691.86l-15.16-389.58-1.68-43.18H185.64l-1.68 43.18-15.16 389.58-6.98 179.38h700.36l-6.98-179.38z m-136.68-273.74a54.312 54.312 0 0 1-29.62 16.32v62.5c0 6.52-0.36 12.96-1.06 19.3a174.284 174.284 0 0 1-15.5 55.36 174.696 174.696 0 0 1-15.16 26.3 176.774 176.774 0 0 1-15.5 19.2 167.832 167.832 0 0 1-15.16 14.54 171.542 171.542 0 0 1-15.52 11.82 173.9 173.9 0 0 1-15.16 9.22c-5.02 2.72-10.2 5.2-15.5 7.42-4.94 2.08-10 3.94-15.16 5.56-5.06 1.62-10.24 3-15.5 4.12-4.98 1.1-10.04 1.98-15.16 2.64-5.1 0.64-10.28 1.08-15.52 1.26-2.32 0.12-4.66 0.16-7 0.16s-4.68-0.04-7-0.16c-5.24-0.18-10.4-0.62-15.52-1.26-5.12-0.66-10.18-1.54-15.16-2.64-5.26-1.12-10.42-2.5-15.5-4.1-5.16-1.64-10.22-3.5-15.16-5.58a172.23 172.23 0 0 1-15.5-7.42 175.52 175.52 0 0 1-30.68-21.04c-5.34-4.54-10.42-9.4-15.16-14.54-5.62-6.02-10.8-12.44-15.5-19.22a173.974 173.974 0 0 1-15.16-26.3 174.616 174.616 0 0 1-15.5-55.48c-0.7-6.28-1.04-12.66-1.04-19.12 0-0.02-0.02-0.02-0.02-0.04v-62.5a54.312 54.312 0 0 1-29.62-16.32c-9.06-9.7-14.62-22.7-14.62-36.98 0-14.3 5.56-27.3 14.62-37a53.52 53.52 0 0 1 15.52-11.56c4.7-2.36 9.8-4.04 15.16-4.94 2.9-0.48 5.9-0.74 8.94-0.74 2.22 0 4.42 0.14 6.56 0.4 5.34 0.64 10.42 2.06 15.16 4.14 5.76 2.52 11 6.02 15.5 10.28 7.2 6.78 12.52 15.48 15.16 25.3 1.24 4.5 1.88 9.24 1.88 14.12s-0.64 9.6-1.88 14.1a53.996 53.996 0 0 1-15.16 25.3 53.65 53.65 0 0 1-15.5 10.26c-3.7 1.64-7.64 2.88-11.72 3.64v62.48l0.02 0.02c0 21.02 4.16 41.08 11.7 59.42 4.16 10.16 9.36 19.8 15.5 28.76 4.54 6.7 9.62 13.04 15.16 18.94 4.84 5.18 10.02 10.02 15.52 14.52 4.82 3.92 9.88 7.58 15.16 10.92a154.224 154.224 0 0 0 30.66 15.04c5.04 1.84 10.22 3.42 15.5 4.72 4.96 1.24 10.02 2.22 15.16 2.96 5.1 0.74 10.28 1.24 15.52 1.46 2.32 0.1 4.66 0.16 7 0.16s4.68-0.06 7-0.16c5.24-0.22 10.42-0.72 15.52-1.46 5.14-0.74 10.2-1.72 15.16-2.96 5.28-1.3 10.46-2.88 15.5-4.72a154.224 154.224 0 0 0 30.66-15.04c5.28-3.34 10.34-7 15.16-10.92 5.5-4.5 10.7-9.34 15.52-14.52a155.12 155.12 0 0 0 15.16-18.92c6.14-8.96 11.34-18.58 15.5-28.74 7.56-18.34 11.72-38.42 11.72-59.46v-62.5c-4.08-0.76-8.02-2-11.72-3.64-5.76-2.5-11-6-15.5-10.26-7.2-6.78-12.52-15.48-15.16-25.3-1.24-4.5-1.88-9.22-1.88-14.1s0.64-9.62 1.88-14.12c2.64-9.82 7.96-18.52 15.16-25.3 4.5-4.26 9.74-7.76 15.5-10.28 4.74-2.08 9.82-3.5 15.16-4.14 2.14-0.26 4.34-0.4 6.56-0.4 3.04 0 6.04 0.26 8.94 0.74 5.36 0.9 10.46 2.58 15.16 4.94a53.52 53.52 0 0 1 15.52 11.56c9.06 9.7 14.62 22.7 14.62 37 0 14.28-5.56 27.28-14.62 36.98z" fill="#F9C139" /><path d="M855.2 691.86l-15.16-389.58-1.68-43.18H185.64l-1.68 43.18-15.16 389.58-6.98 179.38h700.36l-6.98-179.38zM172.216 861.24l6.576-168.992 15.16-389.58 1.306-33.568h633.484l1.306 33.568 15.16 389.58 6.576 168.992H172.216z" opacity=".2" /><path d="M707.488 323.644a63.54 63.54 0 0 0-18.014-5.87 64.946 64.946 0 0 0-10.572-0.874c-2.57 0-5.182 0.16-7.75 0.472a63.516 63.516 0 0 0-17.978 4.908 63.876 63.876 0 0 0-18.348 12.162 63.954 63.954 0 0 0-17.946 29.924 63.142 63.142 0 0 0-2.24 16.776c0 5.726 0.754 11.364 2.222 16.696a63.972 63.972 0 0 0 17.942 29.966 63.316 63.316 0 0 0 18.322 12.14c1.888 0.838 3.816 1.58 5.772 2.226v54.77c0 19.274-3.69 37.998-10.974 55.67a144.482 144.482 0 0 1-14.512 26.902 145.78 145.78 0 0 1-14.214 17.734 147.594 147.594 0 0 1-14.508 13.574 148.08 148.08 0 0 1-14.232 10.25 144.772 144.772 0 0 1-14.472 8.086 146.506 146.506 0 0 1-14.234 5.988 139.876 139.876 0 0 1-14.496 4.412 142.45 142.45 0 0 1-14.17 2.766 143.316 143.316 0 0 1-14.514 1.366c-2.354 0.102-4.504 0.15-6.57 0.15s-4.216-0.05-6.58-0.152c-4.758-0.2-9.638-0.66-14.514-1.366a142.536 142.536 0 0 1-14.194-2.772 140.108 140.108 0 0 1-14.512-4.422 145.984 145.984 0 0 1-14.162-5.96 144.748 144.748 0 0 1-14.532-8.12 147.924 147.924 0 0 1-14.174-10.208 149.926 149.926 0 0 1-14.562-13.626 144.006 144.006 0 0 1-14.202-17.748 144.52 144.52 0 0 1-14.5-26.91c-7.266-17.672-10.948-36.384-10.948-55.618l-0.02-4.178v-50.592c1.942-0.64 3.848-1.376 5.702-2.198a63.372 63.372 0 0 0 18.374-12.154 63.954 63.954 0 0 0 17.946-29.924 63.072 63.072 0 0 0 2.24-16.756c0-5.74-0.754-11.384-2.222-16.716a63.972 63.972 0 0 0-17.942-29.966 63.928 63.928 0 0 0-18.356-12.176 63.554 63.554 0 0 0-17.972-4.91 64.616 64.616 0 0 0-7.766-0.474 65.02 65.02 0 0 0-10.596 0.878 63.274 63.274 0 0 0-17.914 5.828 63.304 63.304 0 0 0-18.418 13.708c-11.164 11.952-17.312 27.516-17.312 43.826 0 16.296 6.148 31.854 17.306 43.8a64.12 64.12 0 0 0 18.362 13.704 63.274 63.274 0 0 0 8.572 3.526v54.768l0.01 4.162 0.056 0.056c0.12 5.442 0.472 10.816 1.05 16.006a184.336 184.336 0 0 0 16.372 58.626 184.248 184.248 0 0 0 16.012 27.786 180.84 180.84 0 0 0 16.368 20.302 183.83 183.83 0 0 0 16.016 15.364 186.332 186.332 0 0 0 16.414 12.52 189.164 189.164 0 0 0 15.998 9.708 182.602 182.602 0 0 0 16.384 7.844 189.202 189.202 0 0 0 16.036 5.902 178.708 178.708 0 0 0 16.346 4.326 183.866 183.866 0 0 0 16.076 2.798c5.664 0.708 11.008 1.142 16.33 1.328 2.23 0.114 4.662 0.168 7.43 0.168s5.2-0.056 7.43-0.168a183.094 183.094 0 0 0 16.368-1.334 182.7 182.7 0 0 0 15.964-2.778 170.932 170.932 0 0 0 16.412-4.36 181.126 181.126 0 0 0 16.028-5.878 184.568 184.568 0 0 0 32.386-17.572 182.052 182.052 0 0 0 16.392-12.48 177.926 177.926 0 0 0 16.022-15.362 187.444 187.444 0 0 0 16.378-20.286 185.15 185.15 0 0 0 16.014-27.778 184.104 184.104 0 0 0 16.386-58.51c0.744-6.734 1.12-13.596 1.12-20.398v-54.768a63.396 63.396 0 0 0 8.56-3.52 64.12 64.12 0 0 0 18.368-13.704c11.164-11.952 17.312-27.51 17.312-43.806a64.002 64.002 0 0 0-17.306-43.82c-5.328-5.692-11.526-10.308-18.35-13.66z m11.032 94.476a54.312 54.312 0 0 1-29.62 16.32v62.5c0 6.52-0.36 12.96-1.06 19.3a174.284 174.284 0 0 1-15.5 55.36 174.696 174.696 0 0 1-15.16 26.3 176.774 176.774 0 0 1-15.5 19.2 167.832 167.832 0 0 1-15.16 14.54 171.542 171.542 0 0 1-15.52 11.82 173.9 173.9 0 0 1-15.16 9.22c-5.02 2.72-10.2 5.2-15.5 7.42-4.94 2.08-10 3.94-15.16 5.56-5.06 1.62-10.24 3-15.5 4.12-4.98 1.1-10.04 1.98-15.16 2.64-5.1 0.64-10.28 1.08-15.52 1.26-2.32 0.12-4.66 0.16-7 0.16s-4.68-0.04-7-0.16c-5.24-0.18-10.4-0.62-15.52-1.26-5.12-0.66-10.18-1.54-15.16-2.64-5.26-1.12-10.42-2.5-15.5-4.1-5.16-1.64-10.22-3.5-15.16-5.58a172.23 172.23 0 0 1-15.5-7.42 175.52 175.52 0 0 1-30.68-21.04c-5.34-4.54-10.42-9.4-15.16-14.54-5.62-6.02-10.8-12.44-15.5-19.22a173.974 173.974 0 0 1-15.16-26.3 174.616 174.616 0 0 1-15.5-55.48c-0.7-6.28-1.04-12.66-1.04-19.12 0-0.02-0.02-0.02-0.02-0.04v-62.5a54.312 54.312 0 0 1-29.62-16.32c-9.06-9.7-14.62-22.7-14.62-36.98 0-14.3 5.56-27.3 14.62-37a53.52 53.52 0 0 1 15.52-11.56c4.7-2.36 9.8-4.04 15.16-4.94 2.9-0.48 5.9-0.74 8.94-0.74 2.22 0 4.42 0.14 6.56 0.4 5.34 0.64 10.42 2.06 15.16 4.14 5.76 2.52 11 6.02 15.5 10.28 7.2 6.78 12.52 15.48 15.16 25.3 1.24 4.5 1.88 9.24 1.88 14.12 0 4.88-0.64 9.6-1.88 14.1a53.996 53.996 0 0 1-15.16 25.3 53.65 53.65 0 0 1-15.5 10.26c-3.7 1.64-7.64 2.88-11.72 3.64v62.48l0.02 0.02c0 21.02 4.16 41.08 11.7 59.42 4.16 10.16 9.36 19.8 15.5 28.76 4.54 6.7 9.62 13.04 15.16 18.94 4.84 5.18 10.02 10.02 15.52 14.52 4.82 3.92 9.88 7.58 15.16 10.92a154.224 154.224 0 0 0 30.66 15.04c5.04 1.84 10.22 3.42 15.5 4.72 4.96 1.24 10.02 2.22 15.16 2.96 5.1 0.74 10.28 1.24 15.52 1.46 2.32 0.1 4.66 0.16 7 0.16s4.68-0.06 7-0.16c5.24-0.22 10.42-0.72 15.52-1.46 5.14-0.74 10.2-1.72 15.16-2.96 5.28-1.3 10.46-2.88 15.5-4.72a154.224 154.224 0 0 0 30.66-15.04c5.28-3.34 10.34-7 15.16-10.92 5.5-4.5 10.7-9.34 15.52-14.52a155.12 155.12 0 0 0 15.16-18.92c6.14-8.96 11.34-18.58 15.5-28.74 7.56-18.34 11.72-38.42 11.72-59.46v-62.5c-4.08-0.76-8.02-2-11.72-3.64-5.76-2.5-11-6-15.5-10.26-7.2-6.78-12.52-15.48-15.16-25.3-1.24-4.5-1.88-9.22-1.88-14.1 0-4.88 0.64-9.62 1.88-14.12 2.64-9.82 7.96-18.52 15.16-25.3 4.5-4.26 9.74-7.76 15.5-10.28 4.74-2.08 9.82-3.5 15.16-4.14 2.14-0.26 4.34-0.4 6.56-0.4 3.04 0 6.04 0.26 8.94 0.74 5.36 0.9 10.46 2.58 15.16 4.94a53.52 53.52 0 0 1 15.52 11.56c9.06 9.7 14.62 22.7 14.62 37 0 14.28-5.56 27.28-14.62 36.98z" opacity=".2" /><path d="M678.9 326.9c-29.92 0-54.26 24.32-54.26 54.24 0 26.48 19.1 48.58 44.26 53.3v62.5c0 86.52-70.4 156.9-156.9 156.9s-156.88-70.38-156.88-156.9l-0.02-0.02v-62.48c25.16-4.72 44.26-26.82 44.26-53.3 0-29.92-24.34-54.24-54.26-54.24-29.9 0-54.24 24.32-54.24 54.24 0 26.48 19.1 48.58 44.24 53.3v62.5c0 0.02 0.02 0.02 0.02 0.04 0.02 97.52 79.36 176.86 176.88 176.86 97.54 0 176.9-79.36 176.9-176.9v-62.5c25.14-4.72 44.24-26.82 44.24-53.3 0-29.92-24.34-54.24-54.24-54.24z m-333.8 44.24c-5.52 0-10 4.48-10 10v32.74c-14-4.3-24.24-17.34-24.24-32.74 0-18.88 15.36-34.24 34.24-34.24 18.9 0 34.26 15.36 34.26 34.24 0 15.4-10.24 28.44-24.26 32.74v-32.74c0-5.52-4.46-10-10-10z m343.8 42.74v-32.74c0-5.52-4.48-10-10-10-5.54 0-10 4.48-10 10v32.74c-14.02-4.3-24.26-17.34-24.26-32.74 0-18.88 15.36-34.24 34.26-34.24 18.88 0 34.24 15.36 34.24 34.24 0 15.4-10.24 28.44-24.24 32.74z" fill="#23130D" /><path d="M379.36 381.14c0 15.4-10.24 28.44-24.26 32.74v-32.74c0-5.52-4.46-10-10-10-5.52 0-10 4.48-10 10v32.74c-14-4.3-24.24-17.34-24.24-32.74 0-18.88 15.36-34.24 34.24-34.24 18.9 0 34.26 15.36 34.26 34.24zM713.14 381.14c0 15.4-10.24 28.44-24.24 32.74v-32.74c0-5.52-4.48-10-10-10-5.54 0-10 4.48-10 10v32.74c-14.02-4.3-24.26-17.34-24.26-32.74 0-18.88 15.36-34.24 34.26-34.24 18.88 0 34.24 15.36 34.24 34.24z" fill="#E1E1E5" /><path d="M168.8 691.86v179.38h-6.98zM199.48 259.1v612.14h-15.52V302.28l1.68-43.18zM214.64 259.1h15.5v612.14h-15.5zM245.3 259.1h15.5v612.14h-15.5z" fill="#FFFFFF" opacity=".4" /><path d="M274.82 259.1h15.5v612.14h-15.5zM321 259.1v73.48a53.52 53.52 0 0 0-15.52 11.56v-85.04h15.52zM321 429.7v441.54h-15.52V418.12c4.42 4.74 9.66 8.66 15.52 11.58zM351.66 259.1v68.2c-2.14-0.26-4.34-0.4-6.56-0.4-3.04 0-6.04 0.26-8.94 0.74v-68.54h15.5zM351.66 571.58v299.66h-15.5V516.1a174.616 174.616 0 0 0 15.5 55.48zM382.32 259.1v82.62a54.122 54.122 0 0 0-15.5-10.28v-72.34h15.5zM382.32 420.54v164.58c-6.14-8.96-11.34-18.6-15.5-28.76V430.8c5.76-2.5 11-6 15.5-10.26zM382.32 617.1v254.14h-15.5V597.88c4.7 6.78 9.88 13.2 15.5 19.22zM413 259.1v359.48a159.092 159.092 0 0 1-15.52-14.52V259.1h15.52zM413 643.48v227.76h-15.52v-239.6a175.52 175.52 0 0 0 15.52 11.84zM443.66 259.1v379.06c-5.34-2.6-10.52-5.48-15.5-8.66v-370.4h15.5zM443.66 660.1v211.14h-15.5V652.68c5.02 2.72 10.2 5.2 15.5 7.42zM474.32 259.1v390.16c-5.28-1.3-10.46-2.88-15.5-4.72V259.1h15.5zM474.32 669.78v201.46h-15.5V665.68c5.08 1.6 10.24 2.98 15.5 4.1zM505 259.1v394.58c-5.24-0.22-10.42-0.72-15.52-1.46V259.1h15.52zM505 673.68v197.56h-15.52v-198.82c5.12 0.64 10.28 1.08 15.52 1.26z" fill="#FFFFFF" opacity=".4" /><path d="M534.52 259.1v393.12c-5.1 0.74-10.28 1.24-15.52 1.46V259.1h15.52zM534.52 672.42v198.82h-15.52v-197.56c5.24-0.18 10.42-0.62 15.52-1.26zM565.18 259.1v385.44c-5.04 1.84-10.22 3.42-15.5 4.72V259.1h15.5zM565.18 665.66v205.58h-15.5V669.78c5.26-1.12 10.44-2.5 15.5-4.12zM595.84 259.1v370.4a154.224 154.224 0 0 1-15.5 8.66V259.1h15.5zM595.84 652.68v218.56h-15.5V660.1c5.3-2.22 10.48-4.7 15.5-7.42zM626.52 631.64v239.6h-15.52V643.46c5.4-3.64 10.58-7.6 15.52-11.82zM626.52 259.1v344.96a156.836 156.836 0 0 1-15.52 14.52V259.1h15.52zM657.18 259.1v72.34c-5.76 2.52-11 6.02-15.5 10.28v-82.62h15.5zM641.68 420.54c4.5 4.26 9.74 7.76 15.5 10.26v125.6a154.136 154.136 0 0 1-15.5 28.74v-164.6zM657.18 597.9v273.34h-15.5V617.1c5.6-6.02 10.78-12.44 15.5-19.2zM687.84 259.1v68.54a54.84 54.84 0 0 0-8.94-0.74c-2.22 0-4.42 0.14-6.56 0.4v-68.2h15.5zM687.84 516.24v355h-15.5V571.6a174.284 174.284 0 0 0 15.5-55.36zM718.52 259.1v85.04a53.52 53.52 0 0 0-15.52-11.56v-73.48h15.52zM703 429.7c5.86-2.92 11.1-6.84 15.52-11.58v453.12h-15.52V429.7zM733.68 259.1h15.5v612.14h-15.5z" fill="#FFFFFF" opacity=".4" /><path d="M763.2 259.1h15.5v612.14h-15.5zM793.86 259.1h15.5v612.14h-15.5zM840.04 302.28v568.96h-15.52V259.1h13.84zM862.18 871.24h-6.98v-179.38z" fill="#FFFFFF" opacity=".4" /></svg>