<?xml version="1.0" standalone="no"?><!DOCTYPE svg PUBLIC "-//W3C//DTD SVG 1.1//EN" "http://www.w3.org/Graphics/SVG/1.1/DTD/svg11.dtd"><svg class="icon" width="200px" height="200.00px" viewBox="0 0 1024 1024" version="1.1" xmlns="http://www.w3.org/2000/svg"><path d="M74.042079 268.610309h875.918135v708.449375H74.042079z" fill="#F4E9DF" /><path d="M427.793327 631.617105h168.413346v287.206231h-168.413346z" fill="#CEA68A" /><path d="M439.256724 643.080501h145.486552v264.281731h-145.486552z" fill="#2D4151" /><path d="M717.230336 631.617105h168.413345v287.206231h-168.413345z" fill="#CEA68A" /><path d="M728.693733 643.080501h145.486551v264.281731h-145.486551z" fill="#2D4151" /><path d="M138.358612 631.617105h168.413345v287.206231H138.358612z" fill="#CEA68A" /><path d="M149.819716 643.080501h145.486551v264.281731H149.819716z" fill="#2D4151" /><path d="M968.464429 253.267699H55.535571l-5.238772-23.256939L512.001146 10.874178l461.702055 219.136582z" fill="#E2C8B3" /><path d="M74.042079 393.050065h875.918135v26.01274H74.042079z" fill="#DBCEA9" /><path d="M951.464212 253.267699H72.535788L512.001146 44.693491z" fill="#CEA68A" /><path d="M245.557419 214.292151l266.441435-126.455021 266.443727 126.455021zM249.062926 435.123023h89.414493V904.301505h-89.414493z" fill="#E2C8B3" /><path d="M268.5507 887.49158a6.114576 6.114576 0 0 1-6.114576-6.114575V458.049817a6.114576 6.114576 0 1 1 12.229152 0V881.374712a6.114576 6.114576 0 0 1-6.114576 6.116868zM293.770172 887.49158a6.114576 6.114576 0 0 1-6.114575-6.114575V458.049817a6.114576 6.114576 0 1 1 12.229151 0V881.374712a6.114576 6.114576 0 0 1-6.114576 6.116868zM318.989645 887.49158a6.114576 6.114576 0 0 1-6.114576-6.114575V458.049817a6.114576 6.114576 0 1 1 12.229152 0V881.374712a6.114576 6.114576 0 0 1-6.114576 6.116868z" fill="#CEA68A" /><path d="M394.549477 435.123023h89.414494V904.301505h-89.414494z" fill="#E2C8B3" /><path d="M414.037252 887.49158a6.114576 6.114576 0 0 1-6.114576-6.114575V458.049817a6.114576 6.114576 0 1 1 12.229151 0V881.374712a6.114576 6.114576 0 0 1-6.114575 6.116868zM439.256724 887.49158a6.114576 6.114576 0 0 1-6.114576-6.114575V458.049817a6.114576 6.114576 0 1 1 12.229152 0V881.374712a6.114576 6.114576 0 0 1-6.114576 6.116868zM464.476197 887.49158a6.114576 6.114576 0 0 1-6.114576-6.114575V458.049817a6.114576 6.114576 0 1 1 12.229151 0V881.374712a6.114576 6.114576 0 0 1-6.114575 6.116868z" fill="#CEA68A" /><path d="M551.545279 904.303798H57.227569v43.159688h909.544862v-43.159688zM540.036029 435.123023h89.414494V904.301505h-89.414494z" fill="#E2C8B3" /><path d="M559.523803 887.49158a6.114576 6.114576 0 0 1-6.114575-6.114575V458.049817a6.114576 6.114576 0 1 1 12.229151 0V881.374712a6.114576 6.114576 0 0 1-6.114576 6.116868zM584.743276 887.49158a6.114576 6.114576 0 0 1-6.114576-6.114575V458.049817a6.114576 6.114576 0 1 1 12.229152 0V881.374712a6.114576 6.114576 0 0 1-6.114576 6.116868zM609.962748 887.49158a6.114576 6.114576 0 0 1-6.114575-6.114575V458.049817a6.114576 6.114576 0 1 1 12.229151 0V881.374712a6.114576 6.114576 0 0 1-6.114576 6.116868z" fill="#CEA68A" /><path d="M103.578666 435.123023h89.414494V904.301505h-89.414494z" fill="#E2C8B3" /><path d="M123.066441 887.49158a6.114576 6.114576 0 0 1-6.114576-6.114575V458.049817a6.114576 6.114576 0 1 1 12.229151 0V881.374712a6.116868 6.116868 0 0 1-6.114575 6.116868zM148.285913 887.49158a6.114576 6.114576 0 0 1-6.114576-6.114575V458.049817a6.114576 6.114576 0 1 1 12.229152 0V881.374712a6.116868 6.116868 0 0 1-6.114576 6.116868zM173.505386 887.49158a6.114576 6.114576 0 0 1-6.114576-6.114575V458.049817a6.114576 6.114576 0 1 1 12.229152 0V881.374712a6.116868 6.116868 0 0 1-6.114576 6.116868z" fill="#CEA68A" /><path d="M28.31459 940.986667h967.37082v47.745047H28.31459z" fill="#DDB69B" /><path d="M0 977.057391h1024v36.070724H0z" fill="#CEA68A" /><path d="M685.522581 435.123023h89.414493V904.301505h-89.414493z" fill="#E2C8B3" /><path d="M755.4493 887.49158a6.114576 6.114576 0 0 0 6.114576-6.114575V458.049817a6.114576 6.114576 0 1 0-12.229152 0V881.374712a6.114576 6.114576 0 0 0 6.114576 6.116868zM730.229828 887.49158a6.114576 6.114576 0 0 0 6.114575-6.114575V458.049817a6.114576 6.114576 0 1 0-12.229151 0V881.374712a6.114576 6.114576 0 0 0 6.114576 6.116868zM705.010355 887.49158a6.114576 6.114576 0 0 0 6.114576-6.114575V458.049817a6.114576 6.114576 0 1 0-12.229152 0V881.374712a6.114576 6.114576 0 0 0 6.114576 6.116868z" fill="#CEA68A" /><path d="M831.00684 435.123023h89.414494V904.301505h-89.414494z" fill="#E2C8B3" /><path d="M900.933559 887.49158a6.114576 6.114576 0 0 0 6.114576-6.114575V458.049817a6.114576 6.114576 0 1 0-12.229151 0V881.374712a6.116868 6.116868 0 0 0 6.114575 6.116868zM875.714087 887.49158a6.114576 6.114576 0 0 0 6.114576-6.114575V458.049817a6.114576 6.114576 0 1 0-12.229152 0V881.374712a6.116868 6.116868 0 0 0 6.114576 6.116868zM850.494614 887.49158a6.114576 6.114576 0 0 0 6.114576-6.114575V458.049817a6.114576 6.114576 0 1 0-12.229152 0V881.374712a6.116868 6.116868 0 0 0 6.114576 6.116868z" fill="#CEA68A" /><path d="M74.042079 296.122461h875.918135v26.01274H74.042079z" fill="#CEA68A" /><path d="M57.227569 322.132908v112.990115h909.544862v-112.990115z" fill="#DDB69B" /><path d="M960.593661 253.267699H64.603118l-14.306319-23.256939v66.109409h923.406402v-66.109409z" fill="#E2C8B3" /><path d="M95.043021 878.463009H201.526512v25.843082H95.043021z" fill="#DDB69B" /><path d="M95.043021 435.123023H201.526512v25.843082H95.043021z" fill="#CEA68A" /><path d="M240.529573 878.463009h106.483491v25.843082h-106.483491z" fill="#DDB69B" /><path d="M240.529573 435.123023h106.483491v25.843082h-106.483491z" fill="#CEA68A" /><path d="M386.016125 878.463009h106.483491v25.843082h-106.483491z" fill="#DDB69B" /><path d="M386.016125 435.123023h106.483491v25.843082h-106.483491z" fill="#CEA68A" /><path d="M531.502677 878.463009h106.483491v25.843082h-106.483491z" fill="#DDB69B" /><path d="M531.502677 435.123023h106.483491v25.843082h-106.483491z" fill="#CEA68A" /><path d="M676.986936 878.463009h106.483491v25.843082h-106.483491z" fill="#DDB69B" /><path d="M676.986936 435.123023h106.483491v25.843082h-106.483491z" fill="#CEA68A" /><path d="M822.473488 878.463009h106.483491v25.843082h-106.483491z" fill="#DDB69B" /><path d="M822.473488 435.123023h106.483491v25.843082h-106.483491z" fill="#CEA68A" /><path d="M371.941367 345.788773c15.216513 0 23.885133 6.066429 23.885133 16.372024 0 6.4516-3.466531 11.268519-8.187158 13.290662v0.577755c5.779845 1.829558 11.749982 7.22194 11.749981 16.372023 0 11.364811-9.053791 18.297874-24.077718 18.297873h-33.709264v-9.342668h6.259015v-46.229586h-6.259015v-9.342668h30.339026v0.004585z m-9.244084 27.255372h6.547893c8.28345 0 12.327737-3.562824 12.327736-9.246375 0-5.779845-4.044286-8.668621-12.327736-8.668621h-6.547893v17.914996z m0 28.31459h8.957499c8.861206 0 12.520322-3.562824 12.520321-9.631546s-3.659116-10.113008-12.520321-10.113008h-8.957499v19.744554zM469.008824 345.788773l22.24816 55.569962h5.298382v9.342668h-29.662685v-9.342668h8.476035l-3.562824-9.053791H447.049541l-3.466531 9.053791h8.476035v9.342668h-27.640541v-9.342668h5.296089l17.816411-46.133293h-8.476036v-9.438961l29.953856 0.002292z m-11.075934 17.238656l-7.60711 20.41631h18.105288l-7.89828-20.41631-0.962925-3.950286h-0.577755l-1.059218 3.950286zM521.575375 401.358735h6.259015v-46.229586h-6.259015v-9.342668h21.09265l28.410882 44.108857 0.481463-0.096292-0.866633-6.06643v-28.603467h-7.703403v-9.342668h26.77391v9.342668h-6.355307v55.569961h-14.638758l-28.60576-44.012564-0.481463 0.192585 0.866633 6.066429v28.410882h7.609403v9.342668h-26.581324v-9.340375h-0.002293zM643.775183 345.788773v9.342669h-6.162722v46.229586h6.83677v9.342668h-27.92942v-9.342668h6.259015v-46.229586h-6.259015v-9.342669h27.255372z m37.75355 0v9.342669h-6.547892l-17.04607 21.285235 11.557396 17.04607c3.372531 4.913212 7.609403 7.89828 11.653689 7.898281h1.251803v9.342668a30.309221 30.309221 0 0 1-7.031648 0.77034c-8.088573 0-14.446172-2.696191-20.320016-11.557396l-14.34988-21.766698 15.794268-20.416309 2.503605-2.118436-0.192585-0.481463h-6.740477v-9.342668l29.467807-0.002293z" fill="#9B6948" /></svg>