<?xml version="1.0" standalone="no"?><!DOCTYPE svg PUBLIC "-//W3C//DTD SVG 1.1//EN" "http://www.w3.org/Graphics/SVG/1.1/DTD/svg11.dtd"><svg t="1606111559440" class="icon" viewBox="0 0 1024 1024" version="1.1" xmlns="http://www.w3.org/2000/svg" p-id="26492" xmlns:xlink="http://www.w3.org/1999/xlink" width="200" height="200"><defs><style type="text/css"></style></defs><path d="M984.615385 630.153846v177.230769a59.076923 59.076923 0 0 1-59.076923 59.076923H98.461538a59.076923 59.076923 0 0 1-59.076923-59.076923v-177.230769a118.153846 118.153846 0 1 0 0-236.307692v-177.230769a59.076923 59.076923 0 0 1 59.076923-59.076923h827.076924a59.076923 59.076923 0 0 1 59.076923 59.076923v177.230769a118.153846 118.153846 0 1 0 0 236.307692z m-315.667693-153.6a28.632615 28.632615 0 0 0-0.886154-2.875077c-0.275692-0.886154-0.472615-1.811692-0.827076-2.678154 0-0.216615-0.216615-0.393846-0.315077-0.590769A29.538462 29.538462 0 0 0 640 452.923077h-66.363077l67.643077-67.643077a29.656615 29.656615 0 1 0-41.944615-41.944615l-77.193847 77.193846-77.193846-77.193846a29.656615 29.656615 0 0 0-41.944615 41.944615L470.646154 452.923077h-66.953846a29.538462 29.538462 0 1 0 0 59.076923H492.307692v59.076923h-68.923077a29.676308 29.676308 0 0 0-5.612307 0.571077h-0.354462a29.065846 29.065846 0 0 0-3.465846 1.083077c-0.689231 0.236308-1.417846 0.374154-2.087385 0.649846s-0.787692 0.452923-1.20123 0.649846a29.341538 29.341538 0 0 0-3.820308 2.067693A29.538462 29.538462 0 0 0 423.384615 630.153846H492.307692v68.923077a29.538462 29.538462 0 0 0 29.538462 29.538462 29.302154 29.302154 0 0 0 3.938461-0.393847c0.669538 0 1.358769 0 1.969231-0.196923a28.809846 28.809846 0 0 0 2.756923-0.846769c0.925538-0.295385 1.969231-0.492308 2.796308-0.866461 0.531692-0.216615 0.984615-0.551385 1.496615-0.807385a29.696 29.696 0 0 0 3.524923-1.969231c0.669538-0.452923 1.220923-1.024 1.851077-1.516307a29.892923 29.892923 0 0 0 2.520616-2.087385A29.538462 29.538462 0 0 0 551.384615 699.076923V630.153846h68.923077a29.538462 29.538462 0 0 0 0-59.076923H551.384615v-59.076923h88.615385a29.538462 29.538462 0 0 0 28.947692-35.446154z" fill="#FFC061" p-id="26493"></path></svg>