<?xml version="1.0" standalone="no"?><!DOCTYPE svg PUBLIC "-//W3C//DTD SVG 1.1//EN" "http://www.w3.org/Graphics/SVG/1.1/DTD/svg11.dtd"><svg t="1607584748760" class="icon" viewBox="0 0 1024 1024" version="1.1" xmlns="http://www.w3.org/2000/svg" p-id="159452" xmlns:xlink="http://www.w3.org/1999/xlink" width="200" height="200"><defs><style type="text/css"></style></defs><path d="M794.6 177.3h39.6v-39.6c0-7.3 5.9-13.2 13.2-13.2 7.3 0 13.2 5.9 13.2 13.2v39.6h39.6c7.3 0 13.2 5.9 13.2 13.2 0 7.3-5.9 13.2-13.2 13.2h-39.6v39.6c0 7.3-5.9 13.2-13.2 13.2-7.3 0-13.2-5.9-13.2-13.2v-39.6h-39.6c-7.3 0-13.2-5.9-13.2-13.2 0-7.3 5.9-13.2 13.2-13.2z" fill="#F25C79" p-id="159453"></path><path d="M887.4 324.6c6-6 15.8-6 21.8 0l4.7 4.7 4.7-4.7c6-6 15.8-6 21.8 0s6 15.8 0 21.8L924.8 362c-6 6-15.8 6-21.8 0l-15.6-15.6c-6-6-6-15.8 0-21.8z" fill="#F25C79" opacity=".47" p-id="159454"></path><path d="M175.7 901.1c1.3-11.8 12.1-20.4 23.9-19l9.2 1 1-9.2c1.3-11.8 12.1-20.4 23.9-19s20.4 12.1 19 23.9l-3.5 30.7c-1.3 11.8-12.1 20.4-23.9 19l-30.7-3.5c-11.6-1.3-20.2-12.1-18.9-23.9z" fill="#F25C79" p-id="159455"></path><path d="M623.5 130.9c0-18.2 14.8-33 33-33s33 14.8 33 33-14.8 33-33 33-33-14.8-33-33z m13.2 0c0 10.9 8.9 19.8 19.8 19.8s19.8-8.9 19.8-19.8-8.9-19.8-19.8-19.8c-11 0-19.8 8.9-19.8 19.8z" fill="#F25C79" opacity=".47" p-id="159456"></path><path d="M100.9 876.7c-7.3 0-13.2-5.9-13.2-13.2v-482c0-7.3 5.9-13.2 13.2-13.2s13.2 5.9 13.2 13.2v482c0 7.3-5.9 13.2-13.2 13.2zM100.9 341.5c-7.3 0-13.2-5.9-13.2-13.2v-37.7c0-7.3 5.9-13.2 13.2-13.2s13.2 5.9 13.2 13.2v37.7c0 7.3-5.9 13.2-13.2 13.2zM100.9 249.7c-7.3 0-13.2-5.9-13.2-13.2v-72.6c0-7.3 5.9-13.2 13.2-13.2s13.2 5.9 13.2 13.2v72.6c0 7.3-5.9 13.2-13.2 13.2z" p-id="159457"></path><path d="M827 757.9H153.7v-156c0-1.3 1.1-2.4 2.4-2.4H827v158.4z" fill="#F25C79" opacity=".47" p-id="159458"></path><path d="M153.7 705.1h673.2v52.8H153.7z" fill="#F25C79" opacity=".57" p-id="159459"></path><path d="M827 876.7c-7.3 0-13.2-5.9-13.2-13.2V586.3c0-7.3-5.9-13.2-13.2-13.2H114.1c-7.3 0-13.2-5.9-13.2-13.2s5.9-13.2 13.2-13.2h686.4c21.8 0 39.6 17.8 39.6 39.6v277.2c0.1 7.3-5.8 13.2-13.1 13.2z" p-id="159460"></path><path d="M259.3 414.7m-59.4 0a59.4 59.4 0 1 0 118.8 0 59.4 59.4 0 1 0-118.8 0Z" fill="#F25C79" p-id="159461"></path><path d="M815.8 467.5H442.1c-1.3 0-2.4-1.1-2.4-2.4V337.9c0-1.3 1.1-2.4 2.4-2.4h373.8c1.3 0 2.4 1.1 2.4 2.4v127.2c0 1.3-1.1 2.4-2.5 2.4z" fill="#F25C79" opacity=".47" p-id="159462"></path><path d="M537.1 454.4h-40.2c-21.8 0-39.6-17.8-39.6-39.6v-20c0-7.3 5.9-13.2 13.2-13.2 7.3 0 13.2 5.9 13.2 13.2v20c0 7.3 5.9 13.2 13.2 13.2h40.2c7.3 0 13.2 5.9 13.2 13.2 0 7.3-5.9 13.2-13.2 13.2z" fill="#FFFFFF" p-id="159463"></path><path d="M246.1 513.7c-51 0-92.4-41.5-92.4-92.4s41.5-92.4 92.4-92.4 92.4 41.5 92.4 92.4-41.4 92.4-92.4 92.4z m0-158.4c-36.4 0-66 29.6-66 66s29.6 66 66 66 66-29.6 66-66-29.6-66-66-66zM787.4 513.7H417.7c-21.8 0-39.6-17.8-39.6-39.6V368.5c0-21.8 17.8-39.6 39.6-39.6h369.6c21.8 0 39.6 17.8 39.6 39.6v105.6c0.1 21.8-17.7 39.6-39.5 39.6zM417.7 355.3c-7.3 0-13.2 5.9-13.2 13.2v105.6c0 7.3 5.9 13.2 13.2 13.2h369.6c7.3 0 13.2-5.9 13.2-13.2V368.5c0-7.3-5.9-13.2-13.2-13.2H417.7zM840.2 771.1H87.7V625.9h752.5v145.2z m-726.1-26.4h699.6v-92.4H114.1v92.4z" p-id="159464"></path></svg>