<?xml version="1.0" standalone="no"?><!DOCTYPE svg PUBLIC "-//W3C//DTD SVG 1.1//EN" "http://www.w3.org/Graphics/SVG/1.1/DTD/svg11.dtd"><svg class="icon" width="200px" height="172.83px" viewBox="0 0 1185 1024" version="1.1" xmlns="http://www.w3.org/2000/svg"><path d="M342.646154 563.2H267.815385C118.153846 563.2 0 441.107692 0 295.384615V200.861538c0-63.015385 51.2-110.276923 110.276923-110.276923h232.369231c94.523077 0 169.353846 74.830769 169.353846 169.353847V393.846154c0 90.584615-74.830769 169.353846-169.353846 169.353846z m-232.369231-393.846154c-15.753846 0-31.507692 11.815385-31.507692 31.507692v94.523077c0 102.4 82.707692 189.046154 189.046154 189.046154h74.830769c51.2 0 90.584615-39.384615 90.584615-90.584615V259.938462c0-51.2-39.384615-90.584615-90.584615-90.584616H110.276923zM917.661538 563.2h-74.830769c-94.523077 0-169.353846-74.830769-169.353846-169.353846V259.938462c0-94.523077 74.830769-169.353846 169.353846-169.353847h232.369231c63.015385 0 110.276923 51.2 110.276923 110.276923v94.523077c-3.938462 145.723077-122.092308 267.815385-267.815385 267.815385z m-78.76923-393.846154c-51.2 0-90.584615 39.384615-90.584616 90.584616V393.846154c0 51.2 39.384615 90.584615 90.584616 90.584615h74.830769c102.4 0 189.046154-82.707692 189.046154-189.046154V200.861538c0-15.753846-15.753846-31.507692-31.507693-31.507692h-232.36923z" fill="#FFB65E" /><path d="M590.769231 838.892308c-216.615385 0-393.846154-177.230769-393.846154-393.846154V86.646154C196.923077 43.323077 232.369231 11.815385 271.753846 11.815385H905.846154c43.323077 0 74.830769 35.446154 74.830769 74.830769v358.4c3.938462 216.615385-173.292308 393.846154-389.907692 393.846154z" fill="#FFDE77" /><path d="M531.692308 641.969231h118.153846v275.692307h-118.153846zM374.153846 1016.123077c0-55.138462 43.323077-98.461538 98.461539-98.461539h236.307692c55.138462 0 98.461538 43.323077 98.461538 98.461539h-433.230769z" fill="#FFDE77" /><path d="M610.461538 169.353846l55.138462 114.215385c3.938462 7.876923 7.876923 11.815385 15.753846 11.815384l126.030769 19.692308c19.692308 0 27.569231 23.630769 11.815385 35.446154l-90.584615 90.584615c-3.938462 3.938462-7.876923 11.815385-7.876923 19.692308l19.692307 126.030769c3.938462 15.753846-15.753846 31.507692-31.507692 23.630769L594.707692 551.384615c-7.876923-3.938462-11.815385-3.938462-19.692307 0l-114.215385 59.076923c-15.753846 7.876923-35.446154-3.938462-31.507692-23.630769l19.692307-126.030769c0-7.876923 0-15.753846-7.876923-19.692308l-78.76923-90.584615c-15.753846-11.815385-7.876923-35.446154 11.815384-35.446154l126.030769-19.692308c7.876923 0 11.815385-3.938462 15.753847-11.815384l55.138461-114.215385c7.876923-15.753846 31.507692-15.753846 39.384615 0z" fill="#FFB65E" /></svg>