<?xml version="1.0" standalone="no"?><!DOCTYPE svg PUBLIC "-//W3C//DTD SVG 1.1//EN" "http://www.w3.org/Graphics/SVG/1.1/DTD/svg11.dtd"><svg t="1607579803578" class="icon" viewBox="0 0 1024 1024" version="1.1" xmlns="http://www.w3.org/2000/svg" p-id="13720" xmlns:xlink="http://www.w3.org/1999/xlink" width="200" height="200"><defs><style type="text/css"></style></defs><path d="M123.46368 728.24832A41.59488 41.59488 0 0 0 81.92 769.792 41.59488 41.59488 0 0 0 123.46368 811.33568h777.08288A41.58464 41.58464 0 0 0 942.08 769.792a41.58464 41.58464 0 0 0-41.53344-41.54368H123.46368zM900.54656 842.05568H123.46368A72.3456 72.3456 0 0 1 51.2 769.792 72.3456 72.3456 0 0 1 123.46368 697.52832h777.08288C940.38016 697.52832 972.8 729.94816 972.8 769.792 972.8 809.63584 940.38016 842.05568 900.54656 842.05568z" fill="#1C1C1C" p-id="13721"></path><path d="M879.65696 723.77344l-30.5664-3.01056c1.4336-14.58176 2.17088-29.0304 2.17088-42.9056 0-211.31264-152.19712-383.21152-339.2512-383.21152-187.07456 0-339.27168 171.89888-339.27168 383.20128 0 13.88544 0.72704 28.33408 2.17088 42.91584l-30.57664 3.01056a473.33376 473.33376 0 0 1-2.31424-45.9264c0-228.22912 165.96992-413.92128 369.98144-413.92128 204.01152 0 369.98144 185.69216 369.98144 413.92128 0 14.8992-0.78848 30.35136-2.32448 45.9264" fill="#1C1C1C" p-id="13722"></path><path d="M798.3104 680.7552a368.128 368.128 0 0 0 1.8432-36.096c0-178.86208-129.024-323.85024-288.1536-323.85024-159.13984 0-288.1536 144.9984-288.1536 323.85024 0 12.20608 0.6656 24.23808 1.83296 36.096" fill="#FF9378" p-id="13723"></path><path d="M583.23968 255.55968h-30.72a40.57088 40.57088 0 0 0-40.52992-40.51968 40.56064 40.56064 0 0 0-40.50944 40.51968h-30.72C440.76032 216.27904 472.71936 184.32 511.98976 184.32a71.3216 71.3216 0 0 1 71.24992 71.23968" fill="#1C1C1C" p-id="13724"></path></svg>