<?xml version="1.0" standalone="no"?><!DOCTYPE svg PUBLIC "-//W3C//DTD SVG 1.1//EN" "http://www.w3.org/Graphics/SVG/1.1/DTD/svg11.dtd"><svg t="1607580115651" class="icon" viewBox="0 0 1024 1024" version="1.1" xmlns="http://www.w3.org/2000/svg" p-id="28287" xmlns:xlink="http://www.w3.org/1999/xlink" width="200" height="200"><defs><style type="text/css"></style></defs><path d="M686.205246 211.409455a352.615434 352.615434 0 0 1 118.212525 78.100686C868.24064 353.33301 907.690499 441.455192 907.690499 538.802424v241.322667c0 46.126545-37.368242 83.489616-83.494788 83.489616H286.064317c-46.095515 0-83.494788-37.363071-83.494788-83.489616V538.802424c0-194.695758 157.864081-352.561131 352.559838-352.561131 46.328242 0.001293 90.57099 8.930263 131.075879 25.168162z m-289.267071 175.55006" fill="#FFB578" p-id="28288"></path><path d="M726.821327 330.77398a24.016162 24.016162 0 0 1 7.045172 17.030464c0 6.379313-2.535434 12.489697-7.04 17.000728a24.054949 24.054949 0 0 1-16.999435 7.04 24.13899 24.13899 0 0 1-17.030464-7.045172 23.924364 23.924364 0 0 1-7.045172-16.995556c0-6.645657 2.681535-12.661657 7.045172-17.030464a24.012283 24.012283 0 0 1 17.030464-7.045172c6.645657 0 12.661657 2.681535 16.994263 7.045172z m-376.004525 0c8.944485 9.470707 8.737616 24.339394-0.474505 33.551515s-24.080808 9.41899-33.550223 0.474505a23.899798 23.899798 0 0 1-7.041293-16.995556c0-6.645657 2.677657-12.661657 7.041293-17.030464a23.870061 23.870061 0 0 1 16.994263-7.045172 24.005818 24.005818 0 0 1 17.030465 7.045172z m0 0" fill="#8B87C1" p-id="28289"></path><path d="M333.791509 394.991192a46.868687 46.868687 0 0 1-33.364041-13.827879 46.885495 46.885495 0 0 1-13.822707-33.36404c0-12.615111 4.909253-24.484202 13.822707-33.393778a46.718707 46.718707 0 0 1 33.364041-13.822707 46.934626 46.934626 0 0 1 33.393777 13.817535 46.929455 46.929455 0 0 1 13.827879 33.39895c-0.003879 26.025374-21.185939 47.191919-47.221656 47.191919z m0 0" fill="#333333" p-id="28290"></path><path d="M333.791509 346.88c-0.182303 0-0.394343 0.020687-0.56501 0.20299-0.293495 0.28703-0.323232 0.509414-0.323233 0.721454 0 0.192646 0.019394 0.384 0.257293 0.627071a0.857212 0.857212 0 0 0 0.63095 0.272808 0.930909 0.930909 0 0 0 0.929616-0.899879 0.876606 0.876606 0 0 0-0.272808-0.665858 0.846869 0.846869 0 0 0-0.656808-0.258586z m376.035555 48.111192a47.096242 47.096242 0 0 1-33.338182-13.756768 46.933333 46.933333 0 0 1-13.883474-33.42998c0-12.616404 4.909253-24.484202 13.822707-33.393777a46.933333 46.933333 0 0 1 33.398949-13.822707c12.661657 0 24.530747 4.928646 33.419637 13.883474a46.837657 46.837657 0 0 1 13.763232 33.338182c0.003879 26.01503-21.162667 47.181576-47.182869 47.181576z m0 0" fill="#333333" p-id="28291"></path><path d="M709.827064 346.88a0.855919 0.855919 0 0 0-0.667151 0.267636 0.833939 0.833939 0 0 0-0.257293 0.66198 0.788687 0.788687 0 0 0 0.257293 0.627071c0.272808 0.272808 0.55596 0.272808 0.667151 0.272808a0.897293 0.897293 0 0 0 0.893414-0.899879 0.855919 0.855919 0 0 0-0.262464-0.665858 0.806788 0.806788 0 0 0-0.63095-0.263758z m0 0" fill="#4F46A3" p-id="28292"></path><path d="M669.104963 519.405899c12.762505 0 23.140848 10.383515 23.140849 23.14602 0 12.812929-10.378343 23.142141-23.140849 23.142142-9.267717 0-18.37899-0.742141-27.27305-2.22901v52.641616c0 64.612848-52.535596 117.145859-117.145859 117.145858-31.299232 0-60.741818-12.180687-82.828929-34.318222-22.136242-22.136242-34.313051-51.529697-34.313051-82.828929v-53.64493a169.081535 169.081535 0 0 1-32.995555 3.232324 23.096889 23.096889 0 0 1-23.140849-23.142142c0-12.762505 10.322747-23.14602 23.140849-23.14602 67.682263 0 122.808889-55.076202 122.808889-122.807596a23.091717 23.091717 0 0 1 23.090424-23.142141c0.530101 0 0.954182 0.10602 1.484283 0.10602 0.368485 0 0.792566-0.10602 1.216646-0.10602 12.762505 0 23.140848 10.378343 23.140849 23.142141 0.001293 67.732687 55.077495 122.808889 122.815353 122.808889z m-73.561212 96.702061v-67.258182a170.596848 170.596848 0 0 1-47.716848-34.525091v109.090909c0 12.762505-10.378343 23.147313-23.140849 23.147313-12.763798 0-23.140848-10.384808-23.140848-23.147313v-109.090909c-13.454222 15.252687-29.605495 21.924202-47.661253 31.560404v70.222869c0 18.959515 7.358061 36.703677 20.706263 50.10101 13.394747 13.398626 31.136323 20.759273 50.097131 20.759272 39.08396-0.001293 70.856404-31.77503 70.856404-70.860282z m0 0" fill="#333333" p-id="28293"></path><path d="M946.316761 96.835232a23.131798 23.131798 0 0 0-17.692444-23.571394c-102.944323-25.433212-209.009778 1.551515-286.903596 72.263111a374.03798 374.03798 0 0 0-125.661091-21.585454c-45.89899-0.040081-91.410101 8.37301-134.26295 24.822949-79.919838-68.787717-187.035152-92.894384-289.515313-64.384-0.373657 0.10602-0.696889 0.293495-1.05503 0.413738a23.195152 23.195152 0 0 0-10.939475 7.712323 23.069737 23.069737 0 0 0-4.061091 8.172606c-0.10602 0.378828-0.283152 0.726626-0.368485 1.12097-22.525414 104.206222 7.948929 209.944566 81.590303 285.716687a374.269414 374.269414 0 0 0-17.100282 112.13705v354.147556c0 58.797253 47.833212 106.639515 106.640808 106.639515h538.131394c58.802424 0 106.640808-47.843556 106.640808-106.639515V499.653818a376.32 376.32 0 0 0-19.105616-118.530586c70.389657-77.030141 97.793293-181.98497 73.66206-284.288zM902.842014 115.077172c15.989657 77.480081-2.333737 156.147071-50.029899 217.793939a376.11701 376.11701 0 0 0-71.085253-98.874182 373.91903 373.91903 0 0 0-92.595717-67.894303c60.564687-46.919111 137.574141-65.510141 213.710869-51.025454zM118.483872 125.613253c76.161293-17.035636 154.206384-0.616727 216.423435 44.979717A378.360242 378.360242 0 0 0 176.361852 339.315071C127.034014 279.855838 105.928236 202.779152 118.483872 125.613253z m726.984404 728.186828c0 33.270949-27.071354 60.343596-60.343596 60.343596H246.988115c-33.272242 0-60.348768-27.071354-60.348768-60.343596v-25.001374a106.003394 106.003394 0 0 0 60.348768 18.814707h538.131394a105.965899 105.965899 0 0 0 60.343596-18.814707v25.001374h0.005171z m0-158.626909v45.792969c0 33.273535-27.071354 60.343596-60.343596 60.343596H246.988115c-33.272242 0-60.348768-27.070061-60.348768-60.343596V499.648646c0-181.642343 147.777939-329.409939 329.415111-329.409939a327.765333 327.765333 0 0 1 120.944485 22.930101c0.848162 0.403394 1.71701 0.73697 2.611717 1.035636a327.585616 327.585616 0 0 1 109.368889 72.519112c62.227394 62.217051 96.49002 144.93996 96.49002 232.919919v195.529697z m0 0" fill="#333333" p-id="28294"></path></svg>