<?xml version="1.0" standalone="no"?><!DOCTYPE svg PUBLIC "-//W3C//DTD SVG 1.1//EN" "http://www.w3.org/Graphics/SVG/1.1/DTD/svg11.dtd"><svg class="icon" width="200px" height="200.00px" viewBox="0 0 1024 1024" version="1.1" xmlns="http://www.w3.org/2000/svg"><path d="M701.3 216.7c19.4 13.8 28.9 45 45.9 100.8C768 385.3 869.9 716.4 890 781.8c1.9 6.3-1.4 13.1-7.5 15.4l-101.6 38.6c-6.3 2.4-13.3-0.6-15.9-6.7L644.4 552.5s9.2-333.3 56.9-335.8z" fill="#B4DDFF" /><path d="M776.5 841.1c-6.6 0-12.8-3.8-15.6-10.2L640.3 554.3c-0.3-0.6-0.4-1.3-0.4-1.9 0-0.8 2.4-84.4 10.6-167.3C665.7 231.7 686.6 213 701 212.2c1-0.1 2 0.2 2.8 0.8 20.5 14.6 30 45.5 47.2 101.6l0.5 1.5c22.2 72.5 137.9 448.4 142.8 464.3 2.6 8.6-1.9 17.8-10.2 20.9L782.5 840c-2 0.7-4 1.1-6 1.1zM648.9 551.6l120.2 275.6c1.7 3.9 6.2 5.8 10.2 4.3L880.9 793c4-1.5 6.1-5.8 4.8-9.9-4.9-16-120.7-391.9-142.8-464.3l-0.5-1.5c-16.2-52.8-25.2-82.5-42.3-95.8-7.4 2.3-26.7 22.9-40.7 164.5-7.6 77.6-10.2 155.9-10.5 165.6z" fill="#525476" /><path d="M444.6 536.2l8 343.1 281.6-3.7c8.6-0.1 14.5-8.6 11.7-16.7-14.5-41.7-50.2-162.2-57.2-355.9-3.6-99.8 12.7-286.3 12.7-286.3s-28.7-17.6-48.5-27.3c-18.3-9-36.4-15.4-36.4-15.4L444.6 536.2z" fill="#B4DDFF" /><path d="M452.6 883.8c-2.4 0-4.4-1.9-4.5-4.4l-8-343.1c0-0.7 0.1-1.4 0.4-2l171.8-362.2c1-2.1 3.4-3.1 5.6-2.3 0.7 0.3 18.5 6.6 36.8 15.6 19.8 9.7 47.7 26.8 48.9 27.5 1.5 0.9 2.3 2.5 2.1 4.2-0.2 1.9-16.2 187.4-12.6 285.8 7 192.4 42.2 312 57 354.5 1.8 5.2 1 10.9-2.1 15.4-3.2 4.5-8.2 7.2-13.7 7.3l-281.7 3.7z m-3.5-346.6l7.9 337.5 277.1-3.6c2.6 0 5-1.3 6.5-3.4 1.5-2.1 1.9-4.8 1-7.3-14.9-42.9-50.5-163.6-57.5-357.2-3.3-92.2 10.4-260.4 12.4-284.1-7.3-4.4-29.6-17.8-45.8-25.7-12.9-6.3-25.9-11.4-32.1-13.8L449.1 537.2z" fill="#525476" /><path d="M563.3 138.4c11.3 8.8 20.9 30.9 10.4 77.3-10.4 46.4-54.3 149.9-77.1 201.1s-52.1 119.4-52.1 119.4 46.9-43.2 97-102.8S644.4 298 644.4 298l-63.9-7.5 35.7-11.3 6.6-93.9c0.5-7.7-3.4-15-10.1-18.8l-49.4-28.1z" fill="#FFEB9A" /><path d="M444.6 540.7c-0.9 0-1.8-0.3-2.6-0.8-1.7-1.2-2.4-3.5-1.5-5.5 0.3-0.7 29.6-68.7 52.1-119.4 29.7-66.7 67.6-159.3 76.8-200.3 11.4-50.6-2.4-67.7-8.8-72.8-1.9-1.5-2.3-4.1-1-6.1s3.9-2.6 6-1.4l49.4 28.1c8.2 4.6 13 13.7 12.3 23.1l-6.6 93.9c-0.1 1.8-1.4 3.4-3.1 4l-15.7 5 43.1 5.1c1.6 0.2 2.9 1.2 3.6 2.6 0.7 1.4 0.5 3.1-0.4 4.4-0.5 0.8-53.3 76.7-103 135.7-49.8 59.1-96.9 102.8-97.4 103.2-1 0.8-2.1 1.2-3.2 1.2z m133.6-388.6c4.9 12.8 7.1 32.9-0.1 64.6-12.1 53.7-66.6 177.7-77.4 202-14.9 33.5-32.7 74.6-43.2 98.8 18-17.7 48.7-49.1 80.6-87 41.2-49 84.6-109.6 98.2-128.9l-56.4-6.6c-2.1-0.2-3.8-1.9-4-4-0.2-2.1 1.1-4.1 3.1-4.7l32.8-10.4 6.4-90.8c0.4-5.9-2.6-11.7-7.8-14.6l-32.2-18.4z m38 127.1z" fill="#525476" /><path d="M322.7 216.7c-19.4 13.8-28.9 45-45.9 100.8C256 385.3 154.1 716.4 134 781.8c-1.9 6.3 1.4 13.1 7.5 15.4l101.6 38.6c6.3 2.4 13.3-0.6 15.9-6.7l120.6-276.5c0-0.1-9.2-333.4-56.9-335.9z" fill="#FFFFFF" /><path d="M247.5 841.1c-2 0-4.1-0.4-6.1-1.1l-101.6-38.6c-8.4-3.2-12.9-12.4-10.2-20.9 1.2-3.9 120.2-390.6 142.8-464.3l0.5-1.5c17.2-56.1 26.7-87.1 47.2-101.6 0.8-0.6 1.8-0.9 2.8-0.8 14.4 0.8 35.4 19.5 50.5 172.9C381.6 468 384 551.6 384 552.5c0 0.7-0.1 1.3-0.4 1.9L263.1 830.8c-2.8 6.4-9 10.3-15.6 10.3z m76.4-619.7c-17.1 13.3-26.2 43.1-42.3 95.8l-0.5 1.5C258.5 392.5 139.5 779.1 138.3 783c-1.2 4 0.9 8.4 4.8 9.9l101.6 38.6c4 1.5 8.5-0.4 10.2-4.3l120.2-275.6c-0.3-9.7-2.9-88.1-10.5-165.7-14.1-141.6-33.3-162.1-40.7-164.5z" fill="#525476" /><path d="M376.3 550S358 297.1 324.9 229.6c-8 17.2-15.3 40.9-25 72.7-15 49.1-57.9 239.8-96.2 364.2-18.1 58.9 4.8 118.8 57.4 147.7L376.3 550z" fill="#B4DDFF" /><path d="M579.4 536.2L572 864.4c-0.3 14.3-12.4 25.6-26.8 24.9l-256.1-13c-8.4-0.4-14-8.8-11.2-16.7 14.4-41.1 50.4-161.8 57.5-356.5 3.6-99.8-12.7-286.3-12.7-286.3s28.7-17.6 48.5-27.3c18.3-9 36.4-15.4 36.4-15.4l171.8 362.1z" fill="#FFFFFF" /><path d="M546.6 893.8H545l-256.1-13c-5.4-0.3-10.3-3-13.3-7.5s-3.7-10-1.9-15.1c14.9-42.5 50.2-162.2 57.2-355.2 3.6-98.3-12.5-283.9-12.6-285.8-0.1-1.7 0.7-3.3 2.1-4.2 1.2-0.7 29.1-17.8 48.9-27.5 18.3-9 36.1-15.3 36.8-15.6 2.2-0.8 4.6 0.2 5.6 2.3l171.8 362.2c0.3 0.6 0.5 1.3 0.4 2l-7.4 328.2c-0.2 8.2-3.6 15.7-9.6 21.3-5.6 5-12.7 7.9-20.3 7.9zM327.4 219.1c2 23.7 15.8 191.9 12.4 284.1-7 194.2-42.7 315-57.7 357.8-0.8 2.4-0.5 5 0.9 7.1 1.4 2.1 3.7 3.4 6.3 3.5l256.1 13c5.7 0.3 11.2-1.7 15.3-5.6 4.2-3.9 6.6-9.2 6.7-14.9l7.4-327.1-169.5-357.4c-6.2 2.4-19.2 7.4-32.1 13.8-16.1 7.9-38.5 21.3-45.8 25.7z" fill="#525476" /><path d="M574.7 536.4l-6.8 327.2c-0.3 13.8-10.9 21.9-22.2 21.5l-220.5-11.2c-8.1-0.4-13.4-9.9-10.8-17.5 13.8-39.6 48.5-136.4 55.3-323.9 3.5-96.1-24-325.2-24-325.2s25.6-15.6 51.5-25.5c18.3-7 30.6-12.9 30.6-12.9l146.9 367.5z" fill="#B4DDFF" /><path d="M460.7 138.4c-11.3 8.8-20.9 30.9-10.4 77.3 10.4 46.4 54.3 149.9 77.1 201.1 22.8 51.3 52.1 119.4 52.1 119.4s-46.9-43.2-97-102.8S379.6 298 379.6 298l63.9-7.5-35.7-11.3-6.6-93.9c-0.5-7.7 3.4-15 10.1-18.8l49.4-28.1z" fill="#FFEB9A" /><path d="M579.4 540.7c-1.1 0-2.2-0.4-3.1-1.2-0.5-0.4-47.7-44.1-97.4-103.2-49.7-59-102.5-135-103-135.7-0.9-1.3-1.1-3-0.4-4.4 0.6-1.4 2-2.4 3.6-2.6l43.1-5.1-15.7-5c-1.8-0.6-3-2.1-3.1-4l-6.6-93.9c-0.7-9.4 4.2-18.4 12.3-23.1l49.4-28.1c2.1-1.2 4.7-0.5 6 1.4s0.9 4.6-1 6.1c-6.4 5-20.2 22.1-8.8 72.8 9.2 41 47.2 133.5 76.8 200.3 22.5 50.7 51.8 118.7 52.1 119.4 0.8 2 0.2 4.2-1.5 5.5-0.9 0.5-1.8 0.8-2.7 0.8zM387.6 301.6c13.6 19.3 57 80 98.2 128.9 31.8 37.8 62.6 69.3 80.6 87-10.5-24.2-28.3-65.3-43.2-98.8-10.8-24.3-65.3-148.2-77.4-202-7.1-31.7-5-51.9-0.1-64.6l-32.3 18.4c-5.2 2.9-8.2 8.7-7.8 14.6l6.4 90.8 32.8 10.4c2 0.6 3.3 2.6 3.1 4.7-0.2 2.1-1.8 3.8-4 4l-56.3 6.6z" fill="#525476" /><path d="M448.3 675.1m-15 0a15 15 0 1 0 30 0 15 15 0 1 0-30 0Z" fill="#525476" /><path d="M563.3 142.9c-0.4 0-0.8 0-1.1-0.1-0.1 0-13.9-3.5-45.8-3.5-32.1 0-54.8 3.6-55.1 3.6-2.4 0.4-4.8-1.3-5.2-3.7-0.4-2.5 1.3-4.8 3.7-5.2 0.9-0.2 23.6-3.7 56.5-3.7 33.2 0 47.5 3.6 48 3.8 2.4 0.6 3.8 3.1 3.2 5.5-0.3 2-2.2 3.3-4.2 3.3z" fill="#525476" /><path d="M578.2 179.7c-0.2 0-0.5 0-0.7-0.1-0.1 0-15.3-2.4-61-2.4-54.4 0-69.7 2.4-69.9 2.4-2.4 0.4-4.8-1.3-5.2-3.7s1.3-4.8 3.7-5.2c0.6-0.1 15.8-2.5 71.3-2.5 46.7 0 61.9 2.4 62.5 2.5 2.4 0.4 4.1 2.7 3.7 5.2-0.3 2.3-2.2 3.8-4.4 3.8z" fill="#525476" /><path d="M399.7 722h-85.9c-2.5 0-4.5-2-4.5-4.5s2-4.5 4.5-4.5h85.9c2.5 0 4.5 2 4.5 4.5s-2.1 4.5-4.5 4.5z" fill="#525476" /><path d="M710.6 722h-85.9c-2.5 0-4.5-2-4.5-4.5s2-4.5 4.5-4.5h85.9c2.5 0 4.5 2 4.5 4.5s-2.1 4.5-4.5 4.5z" fill="#525476" /><path d="M538 675.1m-15 0a15 15 0 1 0 30 0 15 15 0 1 0-30 0Z" fill="#525476" /><path d="M448.3 541.2m-15 0a15 15 0 1 0 30 0 15 15 0 1 0-30 0Z" fill="#525476" /><path d="M538 541.2m-15 0a15 15 0 1 0 30 0 15 15 0 1 0-30 0Z" fill="#525476" /></svg>