<?xml version="1.0" standalone="no"?><!DOCTYPE svg PUBLIC "-//W3C//DTD SVG 1.1//EN" "http://www.w3.org/Graphics/SVG/1.1/DTD/svg11.dtd"><svg t="1607583216122" class="icon" viewBox="0 0 1024 1024" version="1.1" xmlns="http://www.w3.org/2000/svg" p-id="82702" xmlns:xlink="http://www.w3.org/1999/xlink" width="200" height="200"><defs><style type="text/css"></style></defs><path d="M944.4 448.9h-35.5V281.5c0-16.5-10.4-31.9-26.4-36.2-24.1-6.5-46 11.8-46 34.9v168.7h-649V281.5c0-16.5-10.4-31.9-26.4-36.2-24.1-6.5-46 11.8-46 34.9v168.7H79.6c-8.5 0-15.5 7-15.5 15.5v81c0 8.5 7 15.5 15.5 15.5h26.8v84.2c0 74.2 60.7 134.9 134.9 134.9h114.6c74.2 0 134.9-60.7 134.9-134.9v-20.7c0-4.3 3.5-7.7 7.7-7.7h26.9c4.3 0 7.7 3.5 7.7 7.7v20.7c0 74.2 60.7 134.9 134.9 134.9h114.6c74.2 0 134.9-60.7 134.9-134.9v-84.2h26.8c8.5 0 15.5-7 15.5-15.5v-81c0.1-8.6-6.9-15.5-15.4-15.5z" fill="#E5E6E6" p-id="82703"></path><path d="M349.4 720.9H247c-47.7 0-86.8-39-86.8-86.8V555c0-33.4 27.3-60.7 60.7-60.7h154.4c33.4 0 60.7 27.3 60.7 60.7v79.2c0.1 47.7-38.9 86.7-86.6 86.7z" fill="#FF5C7A" p-id="82704"></path><path d="M674.6 720.9H777c47.7 0 86.8-39 86.8-86.8V555c0-33.4-27.3-60.7-60.7-60.7H648.6c-33.4 0-60.7 27.3-60.7 60.7v79.2c0 47.7 39 86.7 86.7 86.7z" fill="#2CBAE5" p-id="82705"></path></svg>