<?xml version="1.0" standalone="no"?><!DOCTYPE svg PUBLIC "-//W3C//DTD SVG 1.1//EN" "http://www.w3.org/Graphics/SVG/1.1/DTD/svg11.dtd"><svg t="1607584193421" class="icon" viewBox="0 0 1139 1024" version="1.1" xmlns="http://www.w3.org/2000/svg" p-id="137594" xmlns:xlink="http://www.w3.org/1999/xlink" width="222.4609375" height="200"><defs><style type="text/css"></style></defs><path d="M864.751377 364.462165a216.390295 216.390295 0 0 0 165.372856-76.584002 512.950851 512.950851 0 0 0-337.050587-272.844966A216.853038 216.853038 0 0 0 864.751377 364.462165z" fill="#DFE0F8" p-id="137595"></path><path d="M1081.662258 511.961563a509.827334 509.827334 0 0 0-51.538025-224.0834 216.853038 216.853038 0 0 1-337.050587-272.844966A512.14105 512.14105 0 0 0 96.077059 706.371555a355.791687 355.791687 0 0 1 645.468938 287.941964A512.083207 512.083207 0 0 0 1081.662258 511.961563z" fill="#EFEEFE" p-id="137596"></path><path d="M402.008165 532.206579a355.502473 355.502473 0 0 0-305.931106 174.164976 512.430264 512.430264 0 0 0 645.468938 287.941964A355.965216 355.965216 0 0 0 402.008165 532.206579z" fill="#DFE0F8" p-id="137597"></path><path d="M954.407875 202.50204a75.195772 75.195772 0 1 1 75.195772-75.195772 75.195772 75.195772 0 0 1-75.195772 75.195772z" fill="#FFFFFF" p-id="137598"></path><path d="M954.407875 81.031947a46.274321 46.274321 0 1 1-46.274321 46.274321 46.274321 46.274321 0 0 1 46.274321-46.274321m0-57.842901a104.117223 104.117223 0 1 0 104.117223 104.117222 104.117223 104.117223 0 0 0-104.117223-104.117222z" fill="#FFBB00" p-id="137599"></path><path d="M86.764352 462.795097a63.627192 63.627192 0 1 1 63.627192-63.627192 63.627192 63.627192 0 0 1-63.627192 63.627192z" fill="#FFFFFF" p-id="137600"></path><path d="M86.764352 358.677874a40.490031 40.490031 0 1 1-40.490031 40.490031 40.490031 40.490031 0 0 1 40.490031-40.490031m0-46.274321a86.764352 86.764352 0 1 0 86.764353 86.764352 86.764352 86.764352 0 0 0-86.764353-86.764352z" fill="#FFBB00" p-id="137601"></path><path d="M1072.985823 671.029543a49.166466 49.166466 0 1 1 49.166466-49.166467 49.224309 49.224309 0 0 1-49.166466 49.166467z" fill="#FFFFFF" p-id="137602"></path><path d="M1072.985823 590.04948a31.813596 31.813596 0 1 1-31.813596 31.813596 31.871439 31.871439 0 0 1 31.813596-31.813596m0-34.70574a66.519337 66.519337 0 1 0 66.519337 66.519336A66.519337 66.519337 0 0 0 1072.985823 555.34374z" fill="#FFBB00" p-id="137603"></path><path d="M676.761948 881.346332a83.235935 83.235935 0 0 1-82.368292 71.378141H570.331009a83.235935 83.235935 0 0 1-82.426135-71.378141H439.606051a118.925005 118.925005 0 0 1-119.040691-118.925005V453.193175A71.37814 71.37814 0 0 1 391.943501 381.815035h380.548449a71.37814 71.37814 0 0 1 71.37814 71.37814v309.228152a118.925005 118.925005 0 0 1-118.925005 118.925005z" fill="#5972C6" p-id="137604"></path><path d="M570.331009 691.043186a35.68907 35.68907 0 0 0-35.68907 35.689071v142.698438a35.68907 35.68907 0 0 0 35.68907 35.68907h23.773432a35.68907 35.68907 0 0 0 35.689071-35.68907v-142.698438a35.68907 35.68907 0 0 0-35.689071-35.689071z" fill="#D2D9F0" p-id="137605"></path><path d="M843.87009 239.17444h-133.906317A95.151573 95.151573 0 0 0 617.820031 167.796299H546.499733a95.151573 95.151573 0 0 0-92.143742 71.378141H320.56536a23.773433 23.773433 0 0 0 0 47.546865h133.790631A95.209416 95.209416 0 0 0 546.499733 358.099445h71.378141a95.151573 95.151573 0 0 0 92.143742-71.37814h133.906317a23.773433 23.773433 0 0 0 0-47.546865z m-185.097285 47.546865a47.546865 47.546865 0 0 1-41.184146 23.773432H546.499733a47.546865 47.546865 0 1 1 0-95.151573h71.378141a47.546865 47.546865 0 0 1 41.184146 71.378141z" fill="#5972C6" p-id="137606"></path><path d="M475.179436 572.118181A35.68907 35.68907 0 1 0 439.606051 536.486954a35.68907 35.68907 0 0 0 35.689071 35.68907zM689.256014 572.118181a35.68907 35.68907 0 1 0-35.631227-35.631227 35.68907 35.68907 0 0 0 35.68907 35.68907z" fill="#D2D9F0" p-id="137607"></path></svg>