<?xml version="1.0" standalone="no"?><!DOCTYPE svg PUBLIC "-//W3C//DTD SVG 1.1//EN" "http://www.w3.org/Graphics/SVG/1.1/DTD/svg11.dtd"><svg t="1607582582101" class="icon" viewBox="0 0 1024 1024" version="1.1" xmlns="http://www.w3.org/2000/svg" p-id="66013" xmlns:xlink="http://www.w3.org/1999/xlink" width="200" height="200"><defs><style type="text/css"></style></defs><path d="M294.3 578.2h50v212h-50z" fill="#233E49" p-id="66014"></path><path d="M163.3 321.2h312c55.2 0 100 44.8 100 100v184c0 55.2-44.8 100-100 100h-312c-55.2 0-100-44.8-100-100v-184c0-55.2 44.8-100 100-100z" fill="#FFFFFF" p-id="66015"></path><path d="M163.3 321.2h312c55.2 0 78 43.4 78 84.7l22 127.6c0 41.3-44.8 74.7-100 74.7h-312c-55.2 0-100-33.5-100-74.7l21-125.4c19-46.2 23.8-86.9 79-86.9z" fill="#3AD0FA" p-id="66016"></path><path d="M106.3 625.7c-9.7 0-17.5-7.8-17.5-17.5s7.8-17.5 17.5-17.5h68.5c9.7 0 17.5 7.8 17.5 17.5s-7.8 17.5-17.5 17.5h-68.5z m169.5 0c-9.7 0-17.5-7.8-17.5-17.5s7.8-17.5 17.5-17.5h269.5c9.7 0 17.5 7.8 17.5 17.5s-7.8 17.5-17.5 17.5H275.8z" fill="#233E49" p-id="66017"></path><path d="M163.3 361.2c-33.1 0-60 26.9-60 60v184c0 33.1 26.9 60 60 60h312c33.1 0 60-26.9 60-60v-184c0-33.1-26.9-60-60-60h-312z m0-40h312c55.2 0 100 44.8 100 100v184c0 55.2-44.8 100-100 100h-312c-55.2 0-100-44.8-100-100v-184c0-55.2 44.8-100 100-100z" fill="#233E49" p-id="66018"></path><path d="M226.8 607.7m-22.5 0a22.5 22.5 0 1 0 45 0 22.5 22.5 0 1 0-45 0Z" fill="#233E49" p-id="66019"></path><path d="M241.3 793.2h158c44.7 0 81 36.3 81 81h-320c0-44.7 36.3-81 81-81z" fill="#EEC130" p-id="66020"></path><path d="M172.3 867.2h294v-17c0-23.7-19.3-43-43-43h-208c-23.7 0-43 19.3-43 43v17z m324-17v47h-354v-47c0-40.3 32.7-73 73-73h208c40.4 0 73 32.7 73 73z" fill="#233E49" p-id="66021"></path><path d="M242.3 849.7c-6.9 0-12.5-5.6-12.5-12.5s5.6-12.5 12.5-12.5h154.5c6.9 0 12.5 5.6 12.5 12.5s-5.6 12.5-12.5 12.5H242.3z" fill="#FFFFFF" p-id="66022"></path><path d="M679.3 430.2h240c22.1 0 40 10.9 40 24.4v380.2c0 13.5-17.9 24.4-40 24.4h-240c-22.1 0-40-10.9-40-24.4V454.6c0-13.5 17.9-24.4 40-24.4z" fill="#ECF0F0" p-id="66023"></path><path d="M679.3 230.2h240c22.1 0 40 5.1 40 11.4v177.3c0 6.3-17.9 11.4-40 11.4h-240c-22.1 0-40-5.1-40-11.4V241.6c0-6.3 17.9-11.4 40-11.4z" fill="#3AD0FA" p-id="66024"></path><path d="M679.3 253.2v584c0 11 9 20 20 20h200c11 0 20-9 20-20v-584c0-11-9-20-20-20h-200c-11 0-20 9-20 20z m0-60h240c22.1 0 40 17.9 40 40v624c0 22.1-17.9 40-40 40h-240c-22.1 0-40-17.9-40-40v-624c0-22.1 17.9-40 40-40z" fill="#233E49" p-id="66025"></path><path d="M844.3 755.7c0 24.8-19.7 44.5-44.5 44.5s-44.5-19.7-44.5-44.5 19.7-44.5 44.5-44.5 44.5 19.7 44.5 44.5" fill="#F4CC02" p-id="66026"></path><path d="M799.3 812.2c-31.7 0-57-25.1-57-56.5s25.3-56.5 57-56.5 57 25.1 57 56.5-25.3 56.5-57 56.5z m0-87.9c-17.7 0-31.7 13.8-31.7 31.4s13.9 31.4 31.7 31.4 31.7-13.8 31.7-31.4-13.9-31.4-31.7-31.4z" fill="#233E49" p-id="66027"></path><path d="M787.3 756.2c0 2.8-2.2 5-5 5s-5-2.2-5-5c0-12.8 10.2-23 23-23s23 10.2 23 23c0 2.8-2.2 5-5 5s-5-2.2-5-5c0-7.3-5.7-13-13-13s-13 5.8-13 13z" fill="#FFFFFF" p-id="66028"></path><path d="M817.3 668.7c0 9.7-7.8 17.5-17.5 17.5s-17.5-7.8-17.5-17.5v-110c0-9.7 7.8-17.5 17.5-17.5s17.5 7.8 17.5 17.5v110zM675.8 350.2c-9.7 0-17.5-7.8-17.5-17.5s7.8-17.5 17.5-17.5h247c9.7 0 17.5 7.8 17.5 17.5s-7.8 17.5-17.5 17.5h-247zM675.8 449.2c-9.7 0-17.5-7.8-17.5-17.5s7.8-17.5 17.5-17.5h247c9.7 0 17.5 7.8 17.5 17.5s-7.8 17.5-17.5 17.5h-247zM722.3 288.7c-6.9 0-12.5-5.6-12.5-12.5s5.6-12.5 12.5-12.5h154.5c6.9 0 12.5 5.6 12.5 12.5s-5.6 12.5-12.5 12.5H722.3zM722.3 398.7c-6.9 0-12.5-5.6-12.5-12.5s5.6-12.5 12.5-12.5h69c6.9 0 12.5 5.6 12.5 12.5s-5.6 12.5-12.5 12.5h-69z m111 0c-6.9 0-12.5-5.6-12.5-12.5s5.6-12.5 12.5-12.5h43.5c6.9 0 12.5 5.6 12.5 12.5s-5.6 12.5-12.5 12.5h-43.5z" fill="#233E49" p-id="66029"></path><path d="M266.2 538.9c-4.9 4.9-12.8 4.9-17.7 0-4.9-4.9-4.9-12.8 0-17.7l125.8-125.8c4.9-4.9 12.8-4.9 17.7 0 4.9 4.9 4.9 12.8 0 17.7L266.2 538.9z" fill="#FFFFFF" p-id="66030"></path><path d="M238.2 486.3c-4.9 4.9-12.8 4.9-17.7 0-4.9-4.9-4.9-12.8 0-17.7l92.2-92.2c4.9-4.9 12.8-4.9 17.7 0s4.9 12.8 0 17.7l-92.2 92.2z" fill="#FFFFFF" p-id="66031"></path><path d="M348.2 534.2c-4.9 4.9-12.8 4.9-17.7 0-4.9-4.9-4.9-12.8 0-17.7l69.1-69.1c4.9-4.9 12.8-4.9 17.7 0 4.9 4.9 4.9 12.8 0 17.7l-69.1 69.1z" fill="#FFFFFF" p-id="66032"></path><path d="M420.3 303.2h54v27h-54z" fill="#233E49" p-id="66033"></path><path d="M447.8 307.7m-38.5 0a38.5 38.5 0 1 0 77 0 38.5 38.5 0 1 0-77 0Z" fill="#FFFFFF" p-id="66034"></path><path d="M447.3 343.2c19.3 0 35-15.7 35-35s-15.7-35-35-35-35 15.7-35 35 15.7 35 35 35z m0 16c-28.2 0-51-22.8-51-51s22.8-51 51-51 51 22.8 51 51-22.8 51-51 51z" fill="#233E49" p-id="66035"></path><path d="M447.3 308.2m-21.1 0a21.1 21.1 0 1 0 42.2 0 21.1 21.1 0 1 0-42.2 0Z" fill="#F4CC02" p-id="66036"></path><path d="M447.5 336.7c-3.9 0-7-3.1-7-7s3.1-7 7-7c7.9 0 14.3-6.4 14.3-14.3s-6.4-14.3-14.3-14.3-14.3 6.4-14.3 14.3c0 2.7 0.7 5.2 2.1 7.4 2 3.3 0.9 7.6-2.4 9.6s-7.6 0.9-9.6-2.4c-2.7-4.4-4.1-9.4-4.1-14.6 0-15.6 12.7-28.3 28.3-28.3s28.3 12.7 28.3 28.3-12.6 28.3-28.3 28.3z" fill="#233E49" p-id="66037"></path><path d="M314.8 722.2c0-2.8 2.2-5 5-5s5 2.2 5 5v39.5c0 2.8-2.2 5-5 5s-5-2.2-5-5v-39.5z" fill="#A2B7D3" p-id="66038"></path></svg>