<?xml version="1.0" standalone="no"?><!DOCTYPE svg PUBLIC "-//W3C//DTD SVG 1.1//EN" "http://www.w3.org/Graphics/SVG/1.1/DTD/svg11.dtd"><svg class="icon" width="200px" height="200.00px" viewBox="0 0 1024 1024" version="1.1" xmlns="http://www.w3.org/2000/svg"><path d="M983.28 389.38h-31.56c-1.52-3.3-3.54-6.32-6.06-8.84-4.92-4.92-11.26-7.64-17.86-7.64-10.34 0-19.34 6.68-23.9 16.48H636.8l0.04-36.24-0.02-27.04a50.48 50.48 0 0 0-13.94-36.1 50.444 50.444 0 0 0-35.5-15.76c-13.6-0.34-26.42 4.62-36.24 13.96a52.614 52.614 0 0 0-6.1 6.96c-8.98-12.32-23.36-20.5-39.76-20.92-13.54-0.34-26.4 4.62-36.22 13.96a52.292 52.292 0 0 0-6.08 6.94c-1.32-1.78-2.74-3.5-4.28-5.14-9.34-9.82-21.94-15.42-35.5-15.76-13.54-0.32-26.42 4.62-36.24 13.96-2.52 2.4-4.74 5-6.68 7.78-8.72-11.44-22.22-18.98-37.52-19.38-12.92-0.34-25.24 4.44-34.7 13.42-9.7 9.24-15.24 21.78-15.58 35.28l-0.52 20.76v0.26l-0.06 6.8v0.4l-0.02 0.58v0.02l-0.2 35.26H108.78c-0.3 0-0.58 0.06-0.88 0.08-0.3 0.04-0.6 0.04-0.88 0.1-0.42 0.06-0.8 0.2-1.2 0.32-0.22 0.06-0.46 0.12-0.68 0.2-0.46 0.18-0.88 0.42-1.3 0.66-0.12 0.06-0.26 0.1-0.38 0.18l-0.2 0.14c-0.04 0.02-0.06 0.02-0.08 0.04l-67.8 42.82c-0.06 0.04-0.1 0.08-0.16 0.12-0.32 0.2-0.6 0.46-0.9 0.7-0.22 0.18-0.46 0.36-0.66 0.56-0.22 0.22-0.4 0.46-0.6 0.7-0.24 0.28-0.48 0.56-0.68 0.86l-0.12 0.18c-0.12 0.18-0.2 0.38-0.3 0.58-0.18 0.32-0.34 0.64-0.48 0.98-0.14 0.3-0.22 0.6-0.3 0.92-0.1 0.3-0.2 0.6-0.26 0.92-0.06 0.34-0.1 0.66-0.12 0.98a7.658 7.658 0 0 0 0 1.9c0.02 0.32 0.06 0.64 0.12 0.98 0.06 0.32 0.16 0.62 0.26 0.92 0.08 0.32 0.16 0.62 0.3 0.92 0.14 0.34 0.3 0.66 0.48 0.98 0.12 0.2 0.18 0.4 0.3 0.58 0.04 0.08 0.1 0.14 0.16 0.22 0.08 0.12 0.18 0.24 0.26 0.38 0.3 0.4 0.62 0.78 0.96 1.12 0.08 0.08 0.12 0.14 0.2 0.2 0.44 0.42 0.9 0.78 1.4 1.1 0.06 0.04 0.08 0.08 0.14 0.1l68.08 43c0.44 0.28 0.92 0.52 1.4 0.72a0.6 0.6 0 0 0 0.2 0.08c0.5 0.2 1 0.36 1.52 0.48 0.12 0.02 0.24 0.04 0.36 0.08 0.62 0.1 1.22 0.18 1.84 0.18h182.3l-0.06 11.1-1.7 93.06c-0.42 17.32 6.1 35.46 17.24 49.48-2.72 1.8-5.26 3.86-7.6 6.22-8.8 8.9-13.6 20.7-13.52 33.18 0.12 22.32 16.02 41.02 37.04 45.52v201.54c0 5.52 4.48 10 10 10H585.8c5.52 0 10-4.48 10-10V732.94c22.5-3.5 39.72-23.06 39.6-46.52-0.1-15.52-7.8-29.26-19.56-37.74l23.02-24.54c8.92-8.48 77.7-75.04 81.08-116.04 0.02-0.28 0.02-0.54 0.02-0.82v-11.92h183.92a31.42 31.42 0 0 0 4.1 6.64c5.08 6.26 12.3 9.84 19.82 9.84h0.02c10.34 0 19.34-6.68 23.9-16.48h31.56c2.66 0 5.2-1.06 7.08-2.92 1.88-1.88 2.92-4.42 2.92-7.08v-85.98c0-5.52-4.48-10-10-10zM98.78 467.22l-39.34-24.84 39.34-24.86v49.7z m192.68-36.9H144.84c-5.52 0-10 4.48-10 10s4.48 10 10 10h146.5l-0.14 25.04H118.78v-65.98h172.8l-0.12 20.94zM575.8 925.46H342.48v-190.56l233.32-1.32v191.88z m12.94-211.96l-256.32 1.46h-0.16c-14.7 0-26.74-11.96-26.82-26.66-0.04-7.16 2.7-13.92 7.74-19a26.66 26.66 0 0 1 18.94-7.98l256.48-1.44c14.7 0 26.72 11.96 26.8 26.66 0.08 14.78-11.88 26.88-26.66 26.96z m111.22-206.66c-2.78 28.72-55.08 84.02-75.08 103l-0.42 0.42-28.34 30.22c-2.44-0.4-4.96-0.6-7.52-0.6l-256.6 1.44c-1.76 0.02-3.5 0.14-5.22 0.34-10.92-10.72-17.82-26.9-17.46-41.7l1.7-93.26 0.88-152.5v-0.72l0.06-6.98v-0.06l0.52-20.64c0.2-8.16 3.52-15.72 9.36-21.28 5.58-5.3 12.82-8.14 20.4-7.92 16.02 0.42 28.72 14.2 28.32 30.72v0.26l0.02 25.34v1.28c0 5.52 4.48 10 10 10 2.76 0 5.26-1.12 7.06-2.94 1.82-1.8 2.94-4.3 2.94-7.08v-1.08l0.08-7.8v-0.08l0.54-21.02c0.2-8.2 3.6-15.84 9.54-21.5 5.96-5.66 13.76-8.68 21.96-8.46 8.2 0.2 15.84 3.6 21.5 9.54 5.66 5.96 8.66 13.76 8.46 21.96v27.4c0 0.32 0.06 0.6 0.1 0.9 0.02 0.36 0.04 0.72 0.1 1.06 0.08 0.38 0.22 0.74 0.34 1.1 0.08 0.26 0.12 0.52 0.24 0.76 0.16 0.42 0.4 0.8 0.62 1.18 0.1 0.18 0.16 0.36 0.28 0.52 0.28 0.42 0.6 0.8 0.94 1.18 0.1 0.1 0.16 0.2 0.26 0.3 0.38 0.4 0.82 0.74 1.26 1.06 0.08 0.06 0.12 0.12 0.2 0.16 0.5 0.36 1.04 0.64 1.6 0.9 0.02 0 0.04 0.02 0.08 0.04 1.22 0.54 2.56 0.84 3.98 0.84h0.02c4.08 0 7.56-2.46 9.12-5.96 0.02-0.04 0.04-0.06 0.04-0.1 0.2-0.46 0.34-0.96 0.48-1.46 0.04-0.14 0.1-0.26 0.12-0.4 0.1-0.44 0.12-0.88 0.14-1.32 0.02-0.22 0.08-0.44 0.08-0.66v-0.08V352.96l0.08-7.66v-0.08l0.54-21.02c0.22-8.2 3.6-15.84 9.56-21.5 5.96-5.66 13.74-8.68 21.94-8.46 16.94 0.42 30.38 14.56 29.96 31.5v0.26l0.02 26.5v0.52c-0.02 0.02 0 0.04 0 0.06v0.06c0 0.14 0.04 0.28 0.04 0.44 0.02 0.52 0.06 1.04 0.16 1.54 0.04 0.2 0.12 0.4 0.18 0.6 0.12 0.44 0.22 0.86 0.38 1.26 0.12 0.26 0.26 0.48 0.4 0.74 0.16 0.32 0.32 0.66 0.52 0.96 0.18 0.28 0.42 0.52 0.64 0.78 0.18 0.24 0.36 0.48 0.56 0.7 0.28 0.28 0.62 0.52 0.94 0.78 0.18 0.14 0.34 0.3 0.52 0.44 0.4 0.26 0.82 0.48 1.26 0.7 0.14 0.06 0.28 0.16 0.42 0.22 0.5 0.22 1.04 0.38 1.58 0.52 0.1 0.02 0.18 0.06 0.28 0.08 0.6 0.14 1.24 0.2 1.86 0.22h0.16c0.02 0 0.06 0.02 0.1 0.02 0.3 0 0.6-0.06 0.9-0.1a9.74 9.74 0 0 0 7.38-4.32c0.02-0.02 0.04-0.04 0.04-0.06 0.34-0.5 0.64-1.04 0.86-1.6 0.18-0.38 0.28-0.8 0.4-1.2 0.06-0.22 0.14-0.42 0.2-0.64 0.1-0.5 0.14-1.04 0.16-1.56l0.06-0.42v-0.06-0.48l0.08-7.4v-0.08l0.54-21.02c0.2-8.2 3.6-15.84 9.54-21.5 5.96-5.66 13.66-8.68 21.96-8.46 8.2 0.2 15.84 3.6 21.5 9.54a30.5 30.5 0 0 1 8.44 21.96v0.26l0.02 27.12-0.14 132.16v0.14l-0.06 62.64c0 5.52 4.46 10 10 10 2.76 0 5.26-1.12 7.08-2.92 1.8-1.8 2.92-4.3 2.92-7.06l0.06-52.72h63.26v11.48z m10.12-31.48c-0.04 0-0.08-0.02-0.12-0.02-0.02 0-0.06 0.02-0.1 0.02h-73.14l0.02-25.04h241.68c5.52 0 10-4.48 10-10s-4.48-10-10-10H636.76l0.02-20.94h263.94l0.02 65.98h-190.66z m224.8 5.5c0 0.78-0.06 1.56-0.16 2.28-0.04 0.14-0.06 0.28-0.1 0.42-0.86 4.98-3.96 8.28-6.8 8.28v10l-0.02-10c-2 0-3.56-1.54-4.3-2.46-1.76-2.14-2.76-5.26-2.76-8.54l-0.02-76.94c0-0.86 0.08-1.7 0.2-2.48 0.02-0.02 0.02-0.04 0.02-0.04 0.82-5.1 3.98-8.48 6.86-8.48 1.6 0 2.9 0.96 3.7 1.78 1.56 1.54 2.64 3.8 3.1 6.32 0.04 0.18 0.06 0.38 0.1 0.56 0.12 0.76 0.18 1.54 0.18 2.32v76.98z m38.4-5.5h-18.4v-65.98h18.4v65.98z" fill="#23130D" /><path d="M934.88 403.88v76.98c0 0.78-0.06 1.56-0.16 2.28-0.04 0.14-0.06 0.28-0.1 0.42-0.86 4.98-3.96 8.28-6.8 8.28v10l-0.02-10c-2 0-3.56-1.54-4.3-2.46-1.76-2.14-2.76-5.26-2.76-8.54l-0.02-76.94c0-0.86 0.08-1.7 0.2-2.48 0.02-0.02 0.02-0.04 0.02-0.04 0.82-5.1 3.98-8.48 6.86-8.48 1.6 0 2.9 0.96 3.7 1.78 1.56 1.54 2.64 3.8 3.1 6.32 0.04 0.18 0.06 0.38 0.1 0.56 0.12 0.76 0.18 1.54 0.18 2.32z" fill="#E1E1E5" /><path d="M954.88 409.38h18.4v65.98h-18.4z" fill="#EC7063" /><path d="M954.88 447.37h18.4v27.99h-18.4z" opacity=".2" /><path d="M900.74 475.36h-190.66c-0.04 0-0.08-0.02-0.12-0.02-0.02 0-0.06 0.02-0.1 0.02h-73.14l0.02-25.04h241.68c5.52 0 10-4.48 10-10s-4.48-10-10-10H636.76l0.02-20.94h263.94l0.02 65.98z" fill="#F9C139" /><path d="M98.78 417.52v49.7l-39.34-24.84z" fill="#E1E1E5" /><path d="M98.78 450.32v16.9l-39.34-24.84 13.38-8.46z" opacity=".2" /><path d="M134.84 440.32c0 5.52 4.48 10 10 10h146.5l-0.14 25.04H118.78v-65.98h172.8l-0.12 20.94H144.84c-5.52 0-10 4.48-10 10z" fill="#F9C139" /><path d="M575.8 733.58v191.88H342.48v-190.56z" fill="#3594BF" /><path d="M377 733.58v191.88h-34.52v-190.56z" fill="#FFFFFF" opacity=".4" /><path d="M575.8 733.58v191.88h-34.52v-190.56z" opacity=".2" /><path d="M615.4 686.54c0.08 14.78-11.88 26.88-26.66 26.96l-256.32 1.46h-0.16c-14.7 0-26.74-11.96-26.82-26.66-0.04-7.16 2.7-13.92 7.74-19a26.66 26.66 0 0 1 18.94-7.98l256.48-1.44c14.7 0 26.72 11.96 26.8 26.66z" fill="#E1E1E5" /><path d="M615.4 686.54c0.02 4.18-0.92 8.14-2.6 11.68-4.3-9.06-13.54-15.34-24.2-15.34l-256.48 1.44a26.66 26.66 0 0 0-18.94 7.98 26.36 26.36 0 0 0-5.14 7.32c-1.64-3.44-2.58-7.28-2.6-11.32-0.04-7.16 2.7-13.92 7.74-19a26.66 26.66 0 0 1 18.94-7.98l256.48-1.44c14.7 0 26.72 11.96 26.8 26.66z" opacity=".2" /><path d="M699.96 495.36v11.48c-2.78 28.72-55.08 84.02-75.08 103l-0.42 0.42-28.34 30.22c-2.44-0.4-4.96-0.6-7.52-0.6l-256.6 1.44c-1.76 0.02-3.5 0.14-5.22 0.34-10.92-10.72-17.82-26.9-17.46-41.7l1.7-93.26 0.88-152.5v-0.72l0.06-6.98v-0.06l0.1-3.94 0.42-16.7c0.2-8.16 3.52-15.72 9.36-21.28 5.58-5.3 12.82-8.14 20.4-7.92 16.02 0.42 28.72 14.2 28.32 30.72v9.02l0.02 16.58v1.28c0 5.52 4.48 10 10 10 2.76 0 5.26-1.12 7.06-2.94 1.82-1.8 2.94-4.3 2.94-7.08v-1.08l0.08-7.8v-0.08l0.08-2.74 0.46-18.28c0.2-8.2 3.6-15.84 9.54-21.5 5.96-5.66 13.76-8.68 21.96-8.46 8.2 0.2 15.84 3.6 21.5 9.54 5.66 5.96 8.66 13.76 8.46 21.96v27.4c0 0.32 0.06 0.6 0.1 0.9 0.02 0.36 0.04 0.72 0.1 1.06 0.08 0.38 0.22 0.74 0.34 1.1 0.08 0.26 0.12 0.52 0.24 0.76 0.16 0.42 0.4 0.8 0.62 1.18 0.1 0.18 0.16 0.36 0.28 0.52 0.28 0.42 0.6 0.8 0.94 1.18 0.1 0.1 0.16 0.2 0.26 0.3 0.38 0.4 0.82 0.74 1.26 1.06 0.08 0.06 0.12 0.12 0.2 0.16 0.5 0.36 1.04 0.64 1.6 0.9 0.02 0 0.04 0.02 0.08 0.04 1.22 0.54 2.56 0.84 3.98 0.84h0.02c4.08 0 7.56-2.46 9.12-5.96 0.02-0.04 0.04-0.06 0.04-0.1 0.2-0.46 0.34-0.96 0.48-1.46 0.04-0.14 0.1-0.26 0.12-0.4 0.1-0.44 0.12-0.88 0.14-1.32 0.02-0.22 0.08-0.44 0.08-0.66v-0.08V352.96l0.08-7.66v-0.08l0.02-0.54 0.52-20.48c0.22-8.2 3.6-15.84 9.56-21.5 5.96-5.66 13.74-8.68 21.94-8.46 16.94 0.42 30.38 14.56 29.96 31.5v0.26l0.02 14.76v12.26c-0.02 0.02 0 0.04 0 0.06v0.06c0 0.14 0.04 0.28 0.04 0.44 0.02 0.52 0.06 1.04 0.16 1.54 0.04 0.2 0.12 0.4 0.18 0.6 0.12 0.44 0.22 0.86 0.38 1.26 0.12 0.26 0.26 0.48 0.4 0.74 0.16 0.32 0.32 0.66 0.52 0.96 0.18 0.28 0.42 0.52 0.64 0.78 0.18 0.24 0.36 0.48 0.56 0.7 0.28 0.28 0.62 0.52 0.94 0.78 0.18 0.14 0.34 0.3 0.52 0.44 0.4 0.26 0.82 0.48 1.26 0.7 0.14 0.06 0.28 0.16 0.42 0.22 0.5 0.22 1.04 0.38 1.58 0.52 0.1 0.02 0.18 0.06 0.28 0.08 0.6 0.14 1.24 0.2 1.86 0.22h0.16c0.02 0 0.06 0.02 0.1 0.02 0.3 0 0.6-0.06 0.9-0.1a9.74 9.74 0 0 0 7.38-4.32c0.02-0.02 0.04-0.04 0.04-0.06 0.34-0.5 0.64-1.04 0.86-1.6 0.18-0.38 0.28-0.8 0.4-1.2 0.06-0.22 0.14-0.42 0.2-0.64 0.1-0.5 0.14-1.04 0.16-1.56l0.06-0.42v-0.06-0.48l0.08-7.4v-0.08l0.06-2.46 0.48-18.56c0.2-8.2 3.6-15.84 9.54-21.5 5.96-5.66 13.66-8.68 21.96-8.46 8.2 0.2 15.84 3.6 21.5 9.54a30.5 30.5 0 0 1 8.44 21.96v0.26l0.02 16.36v10.76l-0.14 132.16v0.14l-0.06 62.64c0 5.52 4.46 10 10 10 2.76 0 5.26-1.12 7.08-2.92 1.8-1.8 2.92-4.3 2.92-7.06l0.06-52.72h63.26z" fill="#F8D3C9" /><path d="M699.96 495.36v11.48c-2.78 28.72-55.08 84.02-75.08 103l-0.42 0.42-28.34 30.22c-2.44-0.4-4.96-0.6-7.52-0.6l-256.6 1.44c-1.76 0.02-3.5 0.14-5.22 0.34-10.92-10.72-17.82-26.9-17.46-41.7l0.5-27.38c1.8 12.32 8.04 24.74 16.96 33.5 1.72-0.2 3.46-0.32 5.22-0.34l256.6-1.44c2.56 0 5.08 0.2 7.52 0.6l28.34-30.22 0.42-0.42c15.26-14.48 49.3-50.08 65.82-78.9h9.26z" opacity=".2" /><path d="M462.664 148.74a10 10 0 0 0 10-10V88.548a10 10 0 0 0-20 0V138.74a10 10 0 0 0 10 10zM322.996 178.844a9.998 9.998 0 0 0 13.66 3.66 10 10 0 0 0 3.66-13.66l-25.094-43.458a10 10 0 1 0-17.32 10l25.094 43.458zM187.282 253.314l43.466 25.094a9.998 9.998 0 0 0 13.66-3.66 9.998 9.998 0 0 0-3.66-13.66l-43.466-25.094a10 10 0 1 0-10 17.32zM689.58 279.75c1.696 0 3.414-0.432 4.99-1.34l43.474-25.094a9.998 9.998 0 0 0 3.66-13.66 10 10 0 0 0-13.66-3.662l-43.474 25.094a9.998 9.998 0 0 0 5.01 18.662zM588.664 182.502a9.992 9.992 0 0 0 13.66-3.658l25.108-43.464a10 10 0 1 0-17.316-10.004L585.008 168.84a9.998 9.998 0 0 0 3.656 13.662z" fill="#23130D" /><path d="M266.34 450.32h25l-0.14 25.04h-24.86zM291.58 409.38l-0.12 20.94h-25.12v-20.94zM636.72 450.32h25l-0.14 25.04h-24.86zM661.96 409.38l-0.12 20.94h-25.12v-20.94z" opacity=".2" /><path d="M370.56 327.32v9.02c-6.58-10.2-16.5-16.68-27.56-16.68-13.16 0-24.68 9.16-30.94 22.84l0.42-16.7c0.2-8.16 3.52-15.72 9.36-21.28 5.58-5.3 12.82-8.14 20.4-7.92 16.02 0.42 28.72 14.2 28.32 30.72zM452.66 325.74v16.9c-6.24-13.76-17.8-22.98-31-22.98-13.16 0-24.68 9.16-30.92 22.82l0.46-18.28c0.2-8.2 3.6-15.84 9.54-21.5 5.96-5.66 13.76-8.68 21.96-8.46 8.2 0.2 15.84 3.6 21.5 9.54 5.66 5.96 8.66 13.76 8.46 21.96zM534.76 340.76c-6.44-12.7-17.54-21.1-30.12-21.1-13.84 0-25.88 10.14-31.88 25.02l0.52-20.48c0.22-8.2 3.6-15.84 9.56-21.5 5.96-5.66 13.74-8.68 21.94-8.46 16.94 0.42 30.38 14.56 29.96 31.5v0.26l0.02 14.76zM616.84 342.36c-6.28-13.6-17.78-22.7-30.88-22.7-13.24 0-24.82 9.28-31.06 23.1l0.48-18.56c0.2-8.2 3.6-15.84 9.54-21.5 5.96-5.66 13.66-8.68 21.96-8.46 8.2 0.2 15.84 3.6 21.5 9.54a30.5 30.5 0 0 1 8.44 21.96v0.26l0.02 16.36z" fill="#FFFFFF" opacity=".6" /></svg>