<?xml version="1.0" standalone="no"?><!DOCTYPE svg PUBLIC "-//W3C//DTD SVG 1.1//EN" "http://www.w3.org/Graphics/SVG/1.1/DTD/svg11.dtd"><svg class="icon" width="200px" height="200.00px" viewBox="0 0 1024 1024" version="1.1" xmlns="http://www.w3.org/2000/svg"><path d="M512 341.333333m-201.69697 0a201.69697 201.69697 0 1 0 403.39394 0 201.69697 201.69697 0 1 0-403.39394 0Z" fill="#F8D02D" /><path d="M562.176 913.206303H457.69697a17.935515 17.935515 0 0 1-17.873455-17.873455c0-9.836606 8.036848-17.873455 17.873455-17.873454h104.47903a17.873455 17.873455 0 1 1 0 35.746909z m36.817455-61.036606h-178.11394a17.935515 17.935515 0 0 1-17.873454-17.88897c0-9.821091 8.036848-17.873455 17.873454-17.873454h178.11394c9.836606 0 17.873455 8.052364 17.873454 17.873454 0 9.836606-8.036848 17.88897-17.873454 17.88897z m0-64.077576h-178.11394a17.92 17.92 0 0 1-17.873454-17.888969c0-9.821091 8.036848-17.873455 17.873454-17.873455h178.11394c9.836606 0 17.873455 8.052364 17.873454 17.873455 0 9.836606-8.036848 17.873455-17.873454 17.873454zM439.544242 673.233455h143.111758l3.459879-37.577697a156.19103 156.19103 0 0 1 26.68606-73.883152l0.248243-0.418909c27.275636-37.391515 97.947152-145.904485 97.947151-198.252606 0-53.356606-20.790303-103.594667-58.523151-141.34303a198.966303 198.966303 0 0 0-141.420606-58.492122c-53.372121 0-103.594667 20.759273-141.343031 58.492122a198.62497 198.62497 0 0 0-58.507636 141.34303c0 52.348121 70.671515 160.845576 97.947152 198.252606a155.306667 155.306667 0 0 1 26.934303 74.302061l3.459878 37.577697z m163.560728 50.672484H419.002182a17.873455 17.873455 0 0 1-17.795879-16.275394l-5.08897-56.040727a128.698182 128.698182 0 0 0-21.984969-61.036606 1080.971636 1080.971636 0 0 1-54.427152-83.921454C282.530909 442.926545 263.757576 393.588364 263.757576 359.889455c0-66.032485 25.739636-128.155152 72.486788-174.902303A245.449697 245.449697 0 0 1 511.053576 112.60897c66.048 0 128.155152 25.739636 174.902303 72.471272a245.76 245.76 0 0 1 72.486788 174.902303c0 33.698909-18.866424 83.037091-55.947637 146.757819a1080.071758 1080.071758 0 0 1-54.442666 83.921454 128.403394 128.403394 0 0 0-21.98497 61.036606l-5.08897 56.040728a18.013091 18.013091 0 0 1-17.873454 16.182303z" fill="#444444" /><path d="M588.893091 263.64897c-6.966303-6.981818-18.307879-6.981818-25.289697 0l-52.363636 52.379151-51.044849-51.044848c-6.966303-6.966303-18.307879-6.966303-25.289697 0-6.981818 6.981818-6.981818 18.323394 0 25.289697l47.010909 47.010909h-26.639515c-9.821091 0-17.873455 8.052364-17.873454 17.888969 0 9.821091 8.052364 17.873455 17.873454 17.873455h38.260364v45.490424h-38.260364c-9.821091 0-17.873455 8.036848-17.873454 17.873455 0 9.821091 8.052364 17.873455 17.873454 17.873454h38.260364v58.352485c0 9.836606 8.036848 17.873455 17.873454 17.873455 9.836606 0 17.873455-8.036848 17.873455-17.873455V454.283636h38.260363c9.821091 0 17.873455-8.052364 17.873455-17.873454 0-9.836606-8.052364-17.873455-17.873455-17.873455h-38.260363v-45.490424h38.260363c9.821091 0 17.873455-8.052364 17.873455-17.873455 0-9.836606-8.052364-17.873455-17.873455-17.873454h-26.903272l48.345212-48.360727c6.981818-6.981818 6.981818-18.307879-0.093091-25.289697" fill="#444444" /></svg>