<?xml version="1.0" standalone="no"?><!DOCTYPE svg PUBLIC "-//W3C//DTD SVG 1.1//EN" "http://www.w3.org/Graphics/SVG/1.1/DTD/svg11.dtd"><svg t="1607580238079" class="icon" viewBox="0 0 1024 1024" version="1.1" xmlns="http://www.w3.org/2000/svg" p-id="34454" xmlns:xlink="http://www.w3.org/1999/xlink" width="200" height="200"><defs><style type="text/css"></style></defs><path d="M64.512 512c0 247.637333 200.704 448.341333 448.341333 448.341333S961.194667 759.637333 961.194667 512 760.490667 63.658667 512.853333 63.658667C265.216 63.488 64.512 264.362667 64.512 512z m0 0" fill="#FFD96B" p-id="34455"></path><path d="M829.952 195.072L195.925333 829.269333c175.104 174.933333 458.922667 174.933333 633.856-0.170666 175.104-175.104 175.274667-458.922667 0.170667-634.026667z m0 0" fill="#FDC223" p-id="34456"></path><path d="M186.88 512c0 180.053333 145.92 325.973333 325.973333 325.973333s325.973333-145.92 325.973334-325.973333-145.92-325.973333-325.973334-325.973333-325.973333 145.92-325.973333 325.973333z m0 0" fill="#F9AB10" p-id="34457"></path><path d="M736.256 275.114667c-127.658667-120.661333-328.874667-118.784-453.973333 6.314666-124.928 125.098667-126.976 326.314667-6.314667 453.973334l460.288-460.288z m0 0" fill="#F9B721" p-id="34458"></path><path d="M484.864 604.16h-80.213333v-47.786667h80.213333v-25.941333h-80.213333v-47.786667h56.490666l-67.242666-136.533333h66.730666l43.178667 92.16c5.461333 11.434667 9.386667 21.674667 11.776 30.549333 2.730667-9.557333 6.656-19.797333 11.776-30.549333l44.202667-92.16H638.293333l-68.096 136.533333h57.344v47.786667H546.133333V556.373333h81.408v47.786667H546.133333v101.205333h-60.757333l-0.512-101.205333z m0 0" fill="#D3830D" p-id="34459"></path><path d="M573.610667 474.624L444.074667 604.16h40.789333v101.205333h60.928V604.16h81.408v-47.786667h-81.408v-25.941333h81.408v-47.786667h-57.344l3.754667-8.021333z m0 0" fill="#BF790A" p-id="34460"></path></svg>