<?xml version="1.0" standalone="no"?><!DOCTYPE svg PUBLIC "-//W3C//DTD SVG 1.1//EN" "http://www.w3.org/Graphics/SVG/1.1/DTD/svg11.dtd"><svg t="1606111687978" class="icon" viewBox="0 0 1024 1024" version="1.1" xmlns="http://www.w3.org/2000/svg" p-id="26636" xmlns:xlink="http://www.w3.org/1999/xlink" width="200" height="200"><defs><style type="text/css"></style></defs><path d="M765.470118 651.023059c5.059765 0.692706 9.637647 1.204706 13.974588 1.204706h44.574118c4.336941 0 7.951059 1.686588 11.083294 5.300706 3.132235 3.614118 4.547765 6.987294 4.547764 10.601411v32.045177c0 6.264471-4.547765 9.155765-13.010823 9.155765H749.327059a17.950118 17.950118 0 0 0-9.878588 2.921411c-3.132235 1.686588-4.547765 4.336941-4.547765 7.951059s0 7.228235 0.481882 11.083294c0.481882 4.096 0.692706 7.469176 0.692706 10.11953 0 5.300706 4.577882 6.957176 13.251765 5.300706h76.137412c8.673882 0 13.010824 3.855059 13.010823 12.047058v29.394824c0 8.673882-6.264471 13.221647-18.55247 13.221647h-17.076706c-6.776471 0-13.733647 0.271059-21.443765 0.512-7.228235 0.722824-14.245647 0.722824-20.269177 0.722823h-11.806117c-7.710118 0-11.806118 4.547765-11.806118 13.462589v53.278117c0 4.547765-3.614118 6.746353-10.631529 6.746353h-41.923765c-11.324235 0-17.106824-4.818824-17.106823-14.45647l0.722823-22.889412c0.692706-11.565176 0.240941-19.486118-0.722823-24.094118a21.895529 21.895529 0 0 0-1.204706-8.673882c-0.692706-1.204706-3.373176-1.897412-7.951059-1.897412h-78.546824c-11.324235 0-17.076706-5.571765-17.076706-17.347765 0-2.409412-0.271059-5.782588-1.204705-9.878588a28.521412 28.521412 0 0 1 0-12.769882c0.933647-4.367059 2.168471-8.192 3.855058-12.047059 1.897412-3.373176 5.300706-4.818824 10.360471-3.855059h87.943529c1.686588 0 2.409412-2.168471 2.409412-6.746353v-25.298823c0-4.577882-5.059765-6.776471-15.420235-6.776471h-76.137412c-3.614118 0-6.505412 0-9.155765-0.481882-2.650353-0.512-3.855059-2.921412-3.855058-7.228235v-16.384c0-6.746353-0.512-12.047059-1.475765-15.902118a11.203765 11.203765 0 0 1 3.885176-13.010824c4.547765-3.855059 10.119529-5.300706 17.076706-5.300706 6.987294 0.692706 14.697412 0.963765 23.160471 0.481883 8.161882-0.481882 14.697412-0.481882 19.034353-0.481883h15.420235c5.330824 0 7.228235-1.927529 5.330824-5.330823a1576.478118 1576.478118 0 0 1-15.450353-19.968c-8.914824-12.047059-18.070588-23.853176-27.708236-36.141177a1305.479529 1305.479529 0 0 0-39.273411-49.392941c-6.023529-9.637647-4.818824-17.829647 3.855058-23.853176 4.336941-2.650353 8.914824-6.023529 13.733647-10.11953 4.818824-4.096 10.360471-7.951059 16.624942-11.294117 8.432941-5.300706 16.865882-0.481882 24.545882 14.45647 2.921412 3.855059 7.740235 10.119529 15.209412 19.516236s15.179294 19.034353 22.889411 29.876706 15.420235 20.510118 22.40753 28.672c6.957176 8.432941 10.842353 13.733647 11.806118 15.420235 1.716706 3.614118 5.059765 5.782588 9.637647 6.77647 5.059765 0.933647 8.402824-0.722824 10.119529-4.126117 0.692706-1.897412 4.336941-7.198118 11.083294-16.865883 6.505412-9.155765 13.733647-19.486118 21.443765-31.081411 7.951059-11.565176 15.420235-22.407529 22.407529-32.768 6.957176-10.119529 11.324235-16.624941 13.221647-19.275294 4.367059-6.264471 8.192-10.119529 10.842353-11.806118 3.132235-1.927529 8.192-1.445647 15.420236 1.204706 4.367059 1.686588 9.155765 4.336941 14.215529 7.951059 5.330824 3.614118 8.944941 6.264471 10.390588 8.161882 9.607529 9.637647 12.528941 18.070588 7.951059 25.057882-1.686588 2.891294-6.505412 9.426824-14.215529 20.239059-8.192 10.631529-16.655059 21.714824-25.780706 33.972706-9.155765 11.836235-17.317647 23.160471-24.786824 34.002824-7.469176 10.601412-11.595294 16.865882-12.528941 18.522352-2.439529 4.306824-1.475765 6.957176 3.102118 8.161883zM699.934118 397.552941c-162.394353 0-293.948235 131.072-293.948236 292.984471s131.553882 293.014588 293.948236 293.014588c162.394353 0 293.948235-131.102118 293.948235-293.014588S862.328471 397.552941 699.934118 397.552941zM392.011294 30.117647C192.271059 30.117647 30.117647 110.351059 30.117647 209.136941c0 98.755765 162.153412 178.989176 361.893647 178.989177 199.981176 0 362.134588-80.233412 362.134588-178.989177C754.145882 110.351059 591.992471 30.117647 392.011294 30.117647z" fill="#1296db" p-id="26637"></path><path d="M506.217412 434.176a718.486588 718.486588 0 0 1-114.206118 9.155765c-172.272941 0-316.114824-59.512471-352.737882-139.264A95.894588 95.894588 0 0 0 30.117647 343.823059c0 98.785882 162.153412 179.019294 361.893647 179.019294 9.878588 0 19.275294-0.481882 28.912941-0.722824a312.139294 312.139294 0 0 1 85.293177-87.943529zM744.026353 384.783059c6.264471-13.251765 9.878588-26.985412 9.878588-40.96 0-13.733647-3.373176-26.985412-9.155765-39.755294-13.040941 28.190118-39.755294 53.970824-76.378352 75.414588 5.059765-0.240941 10.119529-0.722824 15.420235-0.722824 20.751059 0 40.719059 2.168471 60.235294 6.02353z" fill="#1296db" p-id="26638"></path><path d="M392.011294 561.152c-172.272941 0-316.114824-59.753412-352.737882-139.264A95.683765 95.683765 0 0 0 30.117647 461.402353c0 96.135529 152.997647 174.200471 345.027765 178.778353 4.577882-27.949176 12.769882-54.452706 24.335059-79.269647l-7.469177 0.240941z" fill="#1296db" p-id="26639"></path><path d="M371.531294 678.490353c-163.117176-4.577882-297.080471-62.403765-332.257882-139.023059A97.641412 97.641412 0 0 0 30.117647 579.222588c0 96.587294 154.925176 175.134118 348.400941 178.778353-4.818824-21.684706-7.469176-44.333176-7.469176-67.463529 0-4.096 0.240941-8.192 0.481882-12.047059z" fill="#1296db" p-id="26640"></path><path d="M39.273412 657.287529A95.924706 95.924706 0 0 0 30.117647 697.072941c0 98.755765 162.153412 178.989176 361.893647 178.989177 13.492706 0 26.744471-0.481882 39.755294-1.204706a316.837647 316.837647 0 0 1-41.682823-78.305883c-171.309176-0.481882-314.187294-59.753412-350.810353-139.264z" fill="#1296db" p-id="26641"></path><path d="M463.329882 910.757647c-23.130353 2.409412-46.742588 3.614118-71.318588 3.614118-172.272941 0-316.114824-59.542588-352.737882-139.264A95.894588 95.894588 0 0 0 30.117647 814.863059C30.117647 913.648941 192.271059 993.882353 392.011294 993.882353c59.030588 0 114.447059-6.987294 163.599059-19.516235a306.567529 306.567529 0 0 1-92.280471-63.608471z" fill="#1296db" p-id="26642"></path></svg>