<?xml version="1.0" standalone="no"?><!DOCTYPE svg PUBLIC "-//W3C//DTD SVG 1.1//EN" "http://www.w3.org/Graphics/SVG/1.1/DTD/svg11.dtd"><svg class="icon" width="200px" height="200.00px" viewBox="0 0 1024 1024" version="1.1" xmlns="http://www.w3.org/2000/svg"><path d="M936.6 611.8c0-27.6-22.4-50-50-50H162.4c-27.6 0-50 22.4-50 50v50h824.2v-50z" fill="#465A63" /><path d="M886.6 562h-75c27.6 0 50 22.4 50 50v50h75v-50c0-27.6-22.4-50-50-50z" fill="#3D4F57" /><path d="M237.2 562H162.4c-27.6 0-50 22.4-50 50v50h75v-50c0-27.6 22.2-50 49.8-50z" fill="#5A7480" /><path d="M961.628 661.828v50h-899.2v-50z" fill="#ECEFF1" /><path d="M961.516 686.916v25h-899.2v-25z" fill="#D0D5D9" /><path d="M786.8 362.2h50v474.6h-50z" fill="#ECEFF1" /><path d="M811.8 362.2h25v474.6h-25z" fill="#D0D5D9" /><path d="M917.862 836.642v75h-212.4v-75z" fill="#465A63" /><path d="M917.912 836.792v75h-56.2v-75z" fill="#3D4F57" /><path d="M761.812 836.692v75h-56.2v-75z" fill="#5A7480" /><path d="M811.8 262.2m-149.8 0a149.8 149.8 0 1 0 299.6 0 149.8 149.8 0 1 0-299.6 0Z" fill="#EC5353" /><path d="M811.8 112.4c-13 0-25.4 1.6-37.4 4.8 64.6 16.6 112.4 75.4 112.4 145.2 0 69.8-47.8 128.4-112.4 145.2 12 3 24.6 4.8 37.4 4.8 82.8 0 149.8-67 149.8-149.8s-67.2-150.2-149.8-150.2z" fill="#D14545" /><path d="M226.8 711.8l-33.2 137.4h50l33.2-137.4z" fill="#ECEFF1" /><path d="M214.8 761.8h49.8l12.2-50h-50z" fill="#D0D5D9" /><path d="M324.69 836.604v75h-212.4v-75z" fill="#465A63" /><path d="M324.74 836.754v75h-56.2v-75z" fill="#3D4F57" /><path d="M168.64 836.654v75h-56.2v-75z" fill="#5A7480" /><path d="M811.8 262.2m-75 0a75 75 0 1 0 150 0 75 75 0 1 0-150 0Z" fill="#79909B" /><path d="M811.8 187.4c-8.8 0-17.2 1.6-25 4.2 29 10.2 50 38 50 70.6s-20.8 60.4-50 70.6c7.8 2.8 16.2 4.2 25 4.2 41.4 0 75-33.6 75-75-0.2-41.2-33.8-74.6-75-74.6z" fill="#547F94" /><path d="M811.8 262.2m-25 0a25 25 0 1 0 50 0 25 25 0 1 0-50 0Z" fill="#ECEFF1" /><path d="M899.2 262.2c0-48.2-39.2-87.4-87.4-87.4s-87.4 39.2-87.4 87.4 39.2 87.4 87.4 87.4 87.4-39.2 87.4-87.4z m-150 0c0-34.4 28-62.4 62.4-62.4s62.4 28 62.4 62.4-28 62.4-62.4 62.4-62.4-28-62.4-62.4z" fill="#17171D" /><path d="M849.2 262.2c0-20.6-16.8-37.4-37.4-37.4s-37.4 16.8-37.4 37.4c0 20.6 16.8 37.4 37.4 37.4s37.4-16.6 37.4-37.4z m-50 0c0-6.8 5.6-12.4 12.4-12.4 6.8 0 12.4 5.6 12.4 12.4 0 6.8-5.6 12.4-12.4 12.4-6.8 0.2-12.4-5.4-12.4-12.4zM162.4 605.6H137.4c-3.4 0-6.2 2.8-6.2 6.2s2.8 6.2 6.2 6.2h25c3.4 0 6.2-2.8 6.2-6.2s-2.8-6.2-6.2-6.2z" fill="#17171D" /><path d="M961.6 649.4h-12.4V612c0-34.4-28-62.4-62.4-62.4h-37.4v-129.2c71.6-17 124.8-81.4 124.8-158 0-89.6-72.8-162.4-162.4-162.4s-162.4 72.8-162.4 162.4c0 76.6 53.4 141 124.8 158v129.2h-612c-34.4 0-62.4 28-62.4 62.4v37.4H62.4c-6.8 0-12.4 5.6-12.4 12.4v50c0 6.8 5.6 12.4 12.4 12.4h148.4l-24.2 100H112.4c-6.8 0-12.4 5.6-12.4 12.4v75c0 6.8 5.6 12.4 12.4 12.4h212.4c6.8 0 12.4-5.6 12.4-12.4v-75c0-6.8-5.6-12.4-12.4-12.4h-62.2l24.2-100h487.6v100h-68.6c-6.8 0-12.4 5.6-12.4 12.4v75c0 6.8 5.6 12.4 12.4 12.4h212.4c6.8 0 12.4-5.6 12.4-12.4v-75c0-6.8-5.6-12.4-12.4-12.4h-68.6v-100H962c6.8 0 12.4-5.6 12.4-12.4v-50c-0.4-6.8-6-12.4-12.8-12.4z m-75-75c20.6 0 37.4 16.8 37.4 37.4v37.4h-75V618h37.4c3.4 0 6.2-2.8 6.2-6.2 0-3.4-2.8-6.2-6.2-6.2h-37.4v-31.2h37.6zM674.4 262.2c0-75.8 61.6-137.4 137.4-137.4s137.4 61.6 137.4 137.4-61.6 137.4-137.4 137.4-137.4-61.6-137.4-137.4z m137.4 162.4c4.2 0 8.4-0.2 12.4-0.6v400.2h-25V424c4.2 0.4 8.4 0.6 12.6 0.6zM124.8 611.8c0-20.6 16.8-37.4 37.4-37.4h612v31.2h-562c-3.4 0-6.2 2.8-6.2 6.2 0 3.4 2.8 6.2 6.2 6.2h562v31.2H124.8v-37.4z m187.4 237.4v50H124.8v-50h187.4z m-99.8-25l24.2-100h24.2l-24.2 100h-24.2z m64.4-124.8H75v-25H774.2v25H276.8z m628.6 149.8v50H718v-50h187.4z m43.6-149.8h-100v-25H948.8v25z" fill="#17171D" /></svg>