<?xml version="1.0" standalone="no"?><!DOCTYPE svg PUBLIC "-//W3C//DTD SVG 1.1//EN" "http://www.w3.org/Graphics/SVG/1.1/DTD/svg11.dtd"><svg class="icon" width="200px" height="200.00px" viewBox="0 0 1024 1024" version="1.1" xmlns="http://www.w3.org/2000/svg"><path d="M484.010667 273.066667a216.917333 216.917333 0 0 1-153.6-64.170667 216.917333 216.917333 0 0 1-63.488-172.373333h18.090666A219.306667 219.306667 0 0 1 501.930667 273.066667h-17.92z" fill="#80A551" /><path d="M512 313.173333a7.509333 7.509333 0 0 1-7.509333-7.509333c0-1.024 1.194667-102.4 102.4-128a7.509333 7.509333 0 1 1 3.584 14.677333 119.466667 119.466667 0 0 0-90.794667 113.493334 7.509333 7.509333 0 0 1-7.68 7.338666z" fill="#231F20" /><path d="M434.688 103.424a208.042667 208.042667 0 0 0-151.552-62.976h-12.8v17.066667a219.306667 219.306667 0 0 0 83.626667 84.138666 183.637333 183.637333 0 0 0 119.466666 12.288 218.282667 218.282667 0 0 0-38.741333-50.517333z" fill="#C4DBA2" /><path d="M284.16 43.52A211.797333 211.797333 0 0 1 494.933333 265.557333h-10.922666a209.408 209.408 0 0 1-148.992-62.122666A209.578667 209.578667 0 0 1 273.066667 43.861333h10.922666m0-15.018666a222.72 222.72 0 0 0-24.917333 1.365333A225.109333 225.109333 0 0 0 324.266667 214.357333a225.450667 225.450667 0 0 0 159.744 66.389334 222.890667 222.890667 0 0 0 24.917333-1.365334 226.816 226.816 0 0 0-224.768-250.88z" fill="#231F20" /><path d="M512 288.938667a7.509333 7.509333 0 0 1-5.290667-2.218667l-72.362666-72.362667a7.509333 7.509333 0 0 1 10.752-10.752l72.362666 72.362667a7.509333 7.509333 0 0 1-5.290666 12.8zM415.744 192.341333a7.509333 7.509333 0 0 1-5.290667-2.218666l-24.234666-24.064a7.509333 7.509333 0 0 1 10.752-10.752l24.234666 24.064a7.509333 7.509333 0 0 1-5.290666 12.8z" fill="#231F20" /><path d="M448.512 948.224C278.869333 948.224 164.864 768 164.864 600.405333c0-68.266667 12.970667-292.010667 179.2-292.010666h2.901333c17.066667 0 46.08 2.389333 76.629334 4.608 36.010667 2.56 73.386667 5.290667 95.914666 5.290666s55.296-2.389333 87.722667-4.778666 61.610667-4.437333 80.384-4.437334c162.304 0 186.538667 182.613333 186.538667 291.669334 0 172.885333-87.04 347.306667-281.6 347.306666a160.085333 160.085333 0 0 1-34.133334-5.12 178.858667 178.858667 0 0 0-38.912-5.632 164.693333 164.693333 0 0 0-37.888 5.802667 146.773333 146.773333 0 0 1-33.109333 5.12z" fill="#E54C3C" /><path d="M344.064 315.904h2.730667c17.066667 0 45.909333 2.389333 76.117333 4.437333 36.181333 2.56 73.557333 5.290667 96.597333 5.290667s55.637333-2.389333 88.234667-4.778667 61.44-4.437333 79.872-4.437333c155.818667 0 179.029333 178.005333 179.029333 283.989333 0 169.130667-85.333333 339.797333-274.090666 339.797334a154.965333 154.965333 0 0 1-32.597334-4.949334 184.490667 184.490667 0 0 0-40.448-5.802666 170.666667 170.666667 0 0 0-39.594666 5.973333 141.482667 141.482667 0 0 1-31.402667 5.12c-74.752 0-144.896-37.546667-197.461333-105.813333a390.826667 390.826667 0 0 1-78.506667-234.325334c0-82.432 14.165333-152.064 40.789333-201.728 29.696-54.954667 73.728-82.773333 130.730667-82.773333m0-15.018667c-135.168 0-186.709333 142.848-186.709333 299.52C157.354667 776.192 278.016 955.733333 448.512 955.733333c23.381333 0 46.762667-11.093333 70.997333-11.093333s48.981333 10.752 73.045334 10.752c199.68 0 289.28-179.882667 289.28-354.816 0-158.037333-49.322667-299.178667-194.048-299.178667-38.741333 0-126.122667 9.386667-168.106667 9.386667s-134.314667-9.216-172.544-9.728z" fill="#231F20" /><path d="M841.045333 430.421333v32.768c0 198.314667-77.141333 397.994667-245.418666 477.866667C783.36 938.666667 867.328 768 867.328 600.405333a495.786667 495.786667 0 0 0-26.282667-169.984z" fill="#BF3D34" /><path d="M423.082667 319.829333c-30.378667-2.218667-59.050667-4.266667-76.288-4.437333h-2.730667c-57.344 0-101.546667 27.989333-131.242667 83.114667-26.794667 49.664-40.96 119.466667-40.96 201.898666a391.509333 391.509333 0 0 0 78.677334 234.666667 307.2 307.2 0 0 0 48.298666 50.176 449.536 449.536 0 0 1-68.266666-238.08c0-94.037333 16.042667-173.568 46.592-230.058667 34.133333-62.805333 84.138667-94.72 149.504-94.72h3.242666z" fill="#D68E1A" /><path d="M651.434667 492.885333m-107.690667 0a107.690667 107.690667 0 1 0 215.381333 0 107.690667 107.690667 0 1 0-215.381333 0Z" fill="#D68E1A" /><path d="M651.434667 444.586667m-59.392 0a59.392 59.392 0 1 0 118.784 0 59.392 59.392 0 1 0-118.784 0Z" fill="#E2B574" /><path d="M643.242667 851.626667a7.509333 7.509333 0 0 1-2.901334-14.506667s52.906667-24.064 99.669334-112.64a7.509333 7.509333 0 0 1 13.312 6.997333c-49.664 94.037333-104.789333 118.442667-107.008 119.466667a7.509333 7.509333 0 0 1-3.072 0.682667z" fill="#EFA6A0" /><path d="M322.730667 510.464h-1.024a7.509333 7.509333 0 0 1-6.485334-8.362667c13.482667-105.472 56.490667-147.626667 58.197334-149.333333a7.509333 7.509333 0 0 1 10.410666 10.922667s-41.130667 40.96-53.76 140.458666a7.509333 7.509333 0 0 1-7.338666 6.314667zM317.781333 582.656a7.509333 7.509333 0 0 1-7.509333-6.997333 129.877333 129.877333 0 0 1 1.706667-36.181334 7.509333 7.509333 0 0 1 14.677333 3.413334 117.930667 117.930667 0 0 0-1.365333 31.744 7.509333 7.509333 0 0 1-6.997334 8.021333z" fill="#231F20" /><path d="M441.002667 418.474667m-11.946667 0a11.946667 11.946667 0 1 0 23.893333 0 11.946667 11.946667 0 1 0-23.893333 0Z" fill="#EFA6A0" /><path d="M403.114667 456.362667m-11.776 0a11.776 11.776 0 1 0 23.552 0 11.776 11.776 0 1 0-23.552 0Z" fill="#EFA6A0" /><path d="M477.354667 384.853333m-9.728 0a9.728 9.728 0 1 0 19.456 0 9.728 9.728 0 1 0-19.456 0Z" fill="#EFA6A0" /><path d="M424.789333 375.296m-9.728 0a9.728 9.728 0 1 0 19.456 0 9.728 9.728 0 1 0-19.456 0Z" fill="#EFA6A0" /><path d="M480.768 501.077333m-8.192 0a8.192 8.192 0 1 0 16.384 0 8.192 8.192 0 1 0-16.384 0Z" fill="#EFA6A0" /><path d="M397.312 529.749333m-5.973333 0a5.973333 5.973333 0 1 0 11.946666 0 5.973333 5.973333 0 1 0-11.946666 0Z" fill="#EFA6A0" /><path d="M492.885333 450.389333m-5.973333 0a5.973333 5.973333 0 1 0 11.946667 0 5.973333 5.973333 0 1 0-11.946667 0Z" fill="#EFA6A0" /><path d="M362.837333 663.722667m-12.117333 0a12.117333 12.117333 0 1 0 24.234667 0 12.117333 12.117333 0 1 0-24.234667 0Z" fill="#EFA6A0" /><path d="M409.429333 611.84m-5.973333 0a5.973333 5.973333 0 1 0 11.946667 0 5.973333 5.973333 0 1 0-11.946667 0Z" fill="#EFA6A0" /><path d="M362.837333 596.138667m-12.117333 0a12.117333 12.117333 0 1 0 24.234667 0 12.117333 12.117333 0 1 0-24.234667 0Z" fill="#EFA6A0" /><path d="M711.908185 661.582488m-1.90201 6.02141a6.314667 6.314667 0 1 0 3.80402-12.04282 6.314667 6.314667 0 1 0-3.80402 12.04282Z" fill="#231F20" /><path d="M638.772785 733.378519m-2.930123 9.276225a9.728 9.728 0 1 0 5.860247-18.552451 9.728 9.728 0 1 0-5.860247 18.552451Z" fill="#231F20" /><path d="M783.727744 653.217587m-2.928505 9.276737a9.728 9.728 0 1 0 5.857009-18.553474 9.728 9.728 0 1 0-5.857009 18.553474Z" fill="#231F20" /><path d="M794.573047 606.582217m-2.928504 9.276737a9.728 9.728 0 1 0 5.857009-18.553474 9.728 9.728 0 1 0-5.857009 18.553474Z" fill="#231F20" /><path d="M744.930316 794.13375m-2.468836 7.811127a8.192 8.192 0 1 0 4.937671-15.622255 8.192 8.192 0 1 0-4.937671 15.622255Z" fill="#231F20" /><path d="M765.43677 738.401992m-1.799199 5.695928a5.973333 5.973333 0 1 0 3.598397-11.391856 5.973333 5.973333 0 1 0-3.598397 11.391856Z" fill="#231F20" /><path d="M807.967441 691.618362m-1.798205 5.696242a5.973333 5.973333 0 1 0 3.596409-11.392484 5.973333 5.973333 0 1 0-3.596409 11.392484Z" fill="#231F20" /><path d="M619.615409 870.530193m-3.649803 11.554596a12.117333 12.117333 0 1 0 7.299606-23.109193 12.117333 12.117333 0 1 0-7.299606 23.109193Z" fill="#231F20" /><path d="M694.174016 842.066096m-1.798204 5.696242a5.973333 5.973333 0 1 0 3.596409-11.392483 5.973333 5.973333 0 1 0-3.596409 11.392483Z" fill="#231F20" /><path d="M705.206593 740.709607m-3.649803 11.554597a12.117333 12.117333 0 1 0 7.299606-23.109193 12.117333 12.117333 0 1 0-7.299606 23.109193Z" fill="#231F20" /></svg>