<?xml version="1.0" standalone="no"?><!DOCTYPE svg PUBLIC "-//W3C//DTD SVG 1.1//EN" "http://www.w3.org/Graphics/SVG/1.1/DTD/svg11.dtd"><svg class="icon" width="200px" height="156.34px" viewBox="0 0 1310 1024" version="1.1" xmlns="http://www.w3.org/2000/svg"><path d="M238.4384 130.3552c-0.03072-31.13984 22.53824-63.97952 66.73408-89.63072 80.75264-46.848 202.88512-51.93728 272.81408-11.3664 31.3344 18.18624 46.81728 42.46528 47.14496 67.93216h0.01024v79.01184h-0.0512c0.01024 0.26624-0.01024 0.52224-0.01024 0.77824h0.06144V254.85312h-0.0512c0.01024 0.26624-0.01024 0.52224-0.01024 0.77824h0.06144v40.36608h-0.0512c0.02048 0.62464-0.03072 1.24928-0.03072 1.87392l0.08192-0.01024v40.36608h-0.0512c0.88064 31.6416-21.69856 65.19808-66.69312 91.31008-80.7424 46.848-202.88512 51.93728-272.80384 11.3664-32.43008-18.82112-47.7184-44.16512-46.97088-70.59456l0.03072-39.41376c-0.01024-0.93184-0.0512-1.87392-0.03072-2.816l0.02048-39.41376c0-0.57344-0.03072-1.14688-0.02048-1.73056v-39.40352l0.02048-37.41696c0-0.57344-0.03072-1.14688-0.02048-1.7408l-0.23552-38.61504v-39.41376h0.0512z" fill="#DCA700" /><path d="M285.5936 278.96832c69.91872 40.58112 192.06144 35.49184 272.7936-11.3664 44.6464-25.88672 67.1744-59.11552 66.69312-90.5216h0.06144v40.36608h-0.0512c0.88064 31.63136-21.69856 65.19808-66.69312 91.29984-80.7424 46.848-202.88512 51.93728-272.80384 11.3664-32.43008-18.81088-47.7184-44.16512-46.97088-70.59456l0.02048-39.39328c-0.04096 25.8048 15.23712 50.44224 46.9504 68.84352z" fill="#CC8200" /><path d="M285.5936 357.5296c69.91872 40.57088 192.06144 35.4816 272.7936-11.3664 44.6464-25.9072 67.1744-59.12576 66.69312-90.5216l0.06144-0.01024v40.36608h-0.0512c0.88064 31.6416-21.69856 65.19808-66.69312 91.31008-80.7424 46.848-202.88512 51.93728-272.80384 11.3664-32.43008-18.82112-47.7184-44.16512-46.97088-70.59456l0.02048-39.39328c-0.04096 25.79456 15.23712 50.44224 46.9504 68.84352z" fill="#CC8200" /><path d="M305.17248 40.72448c-80.73216 46.85824-89.4976 117.72928-19.57888 158.30016 69.91872 40.57088 192.06144 35.4816 272.7936-11.3664 80.75264-46.848 89.51808-117.71904 19.58912-158.28992-69.91872-40.58112-192.0512-35.49184-272.7936 11.3664z" fill="#DCA700" /><path d="M625.13152 97.28c0.4096 31.36512-22.17984 64.53248-66.73408 90.37824-80.7424 46.848-202.88512 51.93728-272.80384 11.3664-31.6416-18.37056-47.12448-42.93632-47.1552-68.67968h-0.0512v39.41376s1.19808 43.23328 47.2064 70.56384c69.49888 41.29792 192.06144 35.49184 272.7936-11.3664 45.0048-26.112 67.584-59.66848 66.70336-91.29984h0.0512V97.29024h-0.01024z" fill="#CC8200" /><path d="M327.65952 53.78048c-66.39616 38.52288-73.60512 96.80896-16.10752 130.18112 57.50784 33.36192 157.952 29.184 224.3584-9.34912 66.39616-38.53312 73.61536-96.80896 16.10752-130.18112-57.50784-33.37216-157.952-29.184-224.3584 9.34912z" fill="#FFD800" /><path d="M345.51808 96.84992c-10.31168 29.81888 37.40672 52.87936 58.30656 60.59008 27.14624 10.01472 57.1392 12.288 84.03968-0.02048l18.21696 10.56768 17.17248-9.96352-18.26816-10.5984c7.0656-5.20192 12.288-10.752 15.58528-16.66048l-29.3376-17.01888a58.64448 58.64448 0 0 1-14.51008 17.27488l-73.95328-42.9056c7.90528-3.072 16.65024-4.7616 24.95488-6.1952L409.6 60.7232c-13.43488 2.27328-25.2928 5.8368-35.6352 10.68032l-16.896-9.80992-17.16224 9.96352 17.27488 10.02496c-5.85728 4.74112-9.7792 9.82016-11.66336 15.2576-2.7136 7.87456 1.88416-5.43744 0 0z m41.7792 2.22208l70.13376 40.68352c-15.68768 2.73408-80.9984-15.81056-70.12352-40.68352z" fill="#DCA700" /><path d="M1310.72 346.28608v169.8816l-873.80992 505.856L0 768.8192V599.808L873.80992 92.7744 1310.72 346.28608" fill="#007A6E" /><path d="M1310.72 346.28608v169.8816l-873.80992 505.856V853.61664z" fill="#009F5E" /><path d="M436.8896 887.36768L1310.72 380.13952v33.86368L436.8896 921.38496 0.6144 668.23168v-33.85344z" fill="#00917F" /><path d="M437.05344 954.79808L1310.72 447.85664v33.85344L437.05344 988.81536 0 735.5392v-33.82272z" fill="#00917F" /><path d="M1310.72 380.13952v33.86368L436.8896 921.38496v-34.01728zM1310.72 447.85664v33.85344L437.05344 988.81536v-34.01728z" fill="#00AC65" /><path d="M160.04096 692.77696L0 599.79776 873.80992 92.7744 1310.72 346.28608 436.91008 853.61664z" fill="#00C169" /><path d="M83.58912 599.92064l353.792 204.88192 790.12864-458.51648-353.64864-205.03552z" fill="#FFE6C6" /><path d="M1145.0368 346.28608l-270.88896-157.184-706.47808 410.81856 270.16192 156.42624z" fill="#00AC65" /><path d="M582.54336 261.7856l436.89984 253.61408v169.39008L728.7808 852.97152V684.15488L291.51232 430.65344z" fill="#E5AC91" /><path d="M582.54336 261.7856l436.89984 253.61408-290.6624 168.7552-437.26848-253.50144z" fill="#FFD6A0" /><path d="M728.7808 684.15488v168.81664l290.6624-168.18176V515.39968z" fill="#E5AC91" /><path d="M330.56768 407.99232l213.2992-123.76064 436.76672 253.5936L767.68256 661.504z" fill="#FFE6C6" /><path d="M980.6336 537.82528v169.44128l-212.96128 123.2896 0.01024-169.04192z" fill="#FFCBA1" /><path d="M840.7552 213.00224c24.99584 14.51008 62.8224 16.0768 84.48 3.52256 21.64736-12.56448 18.944-34.5088-6.07232-49.01888-24.99584-14.51008-62.8224-16.0768-84.48-3.52256-21.64736 12.56448-18.93376 34.5088 6.07232 49.01888zM865.41312 339.63008c14.47936 8.3968 36.39296 9.3184 48.92672 2.03776 12.544-7.28064 10.97728-19.98848-3.51232-28.39552-14.47936-8.3968-36.38272-9.3184-48.92672-2.03776-12.544 7.2704-10.96704 19.98848 3.51232 28.39552zM380.43648 620.4416c14.47936 8.40704 36.39296 9.3184 48.93696 2.048 12.53376-7.2704 10.9568-19.98848-3.51232-28.39552-14.4896-8.3968-36.39296-9.3184-48.93696-2.03776-12.544 7.2704-10.96704 19.98848 3.51232 28.39552zM131.4304 625.152c24.99584 14.52032 62.8224 16.08704 84.48 3.52256 21.64736-12.55424 18.93376-34.5088-6.07232-49.00864-25.00608-14.51008-62.8224-16.08704-84.48-3.52256-21.6576 12.56448-18.944 34.5088 6.06208 49.01888zM1103.22688 365.62944c25.00608 14.51008 62.8224 16.0768 84.48 3.52256 21.6576-12.56448 18.944-34.5088-6.06208-49.01888-25.00608-14.51008-62.8224-16.0768-84.48-3.52256-21.6576 12.56448-18.944 34.5088 6.06208 49.01888zM392.58112 777.91232c24.99584 14.51008 62.8224 16.0768 84.48 3.52256 21.64736-12.56448 18.944-34.5088-6.07232-49.01888-24.99584-14.51008-62.8224-16.08704-84.48-3.52256-21.64736 12.56448-18.93376 34.5088 6.07232 49.01888z" fill="#FFE6C6" /><path d="M888.12544 542.53568L534.272 337.36704l-37.80608 21.9136 353.85344 205.6192zM769.95584 562.83136L499.70176 405.9648l-37.5808 21.93408L732.3648 584.4992z" fill="#E6C190" /></svg>