<?xml version="1.0" standalone="no"?><!DOCTYPE svg PUBLIC "-//W3C//DTD SVG 1.1//EN" "http://www.w3.org/Graphics/SVG/1.1/DTD/svg11.dtd"><svg class="icon" width="200px" height="200.00px" viewBox="0 0 1024 1024" version="1.1" xmlns="http://www.w3.org/2000/svg"><path d="M749.616 423.064h-137.28a11.4 11.4 0 0 1-11.4-11.4v-137.28a11.4 11.4 0 0 0-11.4-11.4h-155.068a11.4 11.4 0 0 0-11.4 11.4v137.28a11.4 11.4 0 0 1-11.4 11.4h-137.28a11.4 11.4 0 0 0-11.4 11.4v155.068a11.4 11.4 0 0 0 11.4 11.4h137.28a11.4 11.4 0 0 1 11.4 11.4v137.284a11.4 11.4 0 0 0 11.4 11.4h155.068a11.4 11.4 0 0 0 11.4-11.4v-137.284a11.4 11.4 0 0 1 11.4-11.4h137.28a11.4 11.4 0 0 0 11.4-11.4v-155.068a11.4 11.4 0 0 0-11.4-11.4z" fill="#94D3CC" /><path d="M512 512m-352.772 0a352.772 352.772 0 1 0 705.544 0 352.772 352.772 0 1 0-705.544 0Z" fill="#E8E6F4" /><path d="M512 159.228c-90.648 0-173.296 34.204-235.784 90.388-56.188 62.488-90.388 145.136-90.388 235.784 0 194.832 157.94 352.772 352.772 352.772 90.648 0 173.296-34.204 235.784-90.388 56.188-62.484 90.392-145.136 90.392-235.784-0.004-194.832-157.944-352.772-352.776-352.772z" fill="#94D3CC" /><path d="M749.616 423.064h-137.28a11.4 11.4 0 0 1-11.4-11.4v-137.28a11.4 11.4 0 0 0-11.4-11.4h-155.068a11.4 11.4 0 0 0-11.4 11.4v137.28a11.4 11.4 0 0 1-11.4 11.4h-137.28a11.4 11.4 0 0 0-11.4 11.4v155.068a11.4 11.4 0 0 0 11.4 11.4h137.28a11.4 11.4 0 0 1 11.4 11.4v137.284a11.4 11.4 0 0 0 11.4 11.4h155.068a11.4 11.4 0 0 0 11.4-11.4v-137.284a11.4 11.4 0 0 1 11.4-11.4h137.28a11.4 11.4 0 0 0 11.4-11.4v-155.068a11.4 11.4 0 0 0-11.4-11.4z" fill="#E8E6F4" /><path d="M749.616 423.064h-137.28a11.4 11.4 0 0 1-11.4-11.4v-137.28a11.4 11.4 0 0 0-11.4-11.4h-139.868v122.08a11.4 11.4 0 0 1-11.4 11.4h-15.2v15.2a11.4 11.4 0 0 1-11.4 11.4h-122.08v139.868a11.4 11.4 0 0 0 11.4 11.4h137.28a11.4 11.4 0 0 1 11.4 11.4v137.28a11.4 11.4 0 0 0 11.4 11.4h139.868v-122.084a11.4 11.4 0 0 1 11.4-11.4h15.2v-15.2a11.4 11.4 0 0 1 11.4-11.4h122.08v-139.868a11.4 11.4 0 0 0-11.4-11.396z" fill="#EB6B69" /><path d="M749.616 411.068h-136.68V274.384a23.424 23.424 0 0 0-23.4-23.4h-155.072a23.424 23.424 0 0 0-23.4 23.4v136.684h-136.68a23.424 23.424 0 0 0-23.4 23.4v155.072a23.428 23.428 0 0 0 23.4 23.4h136.68v136.684a23.424 23.424 0 0 0 23.4 23.4h155.072a23.424 23.424 0 0 0 23.4-23.4v-136.684h136.68a23.424 23.424 0 0 0 23.4-23.4v-155.072a23.428 23.428 0 0 0-23.4-23.4z m-0.6 177.864h-136.68a23.428 23.428 0 0 0-23.4 23.404v136.68h-153.868v-136.68a23.432 23.432 0 0 0-23.4-23.404h-136.68v-153.868h136.68a23.428 23.428 0 0 0 23.4-23.404v-136.68h153.868v136.68a23.432 23.432 0 0 0 23.4 23.404h136.68v153.868z" fill="#44294F" /><path d="M550.932 300.984h24v110.68h-24zM622.672 443h110.676v24h-110.676zM292.072 443h110.68v24h-110.68zM550.932 608.836h24v110.676h-24z" fill="#44294F" /><path d="M512 147.228c-201.136 0-364.772 163.636-364.772 364.772S310.864 876.772 512 876.772s364.772-163.636 364.772-364.772S713.136 147.228 512 147.228z m0 705.544c-187.904 0-340.772-152.872-340.772-340.772S324.096 171.228 512 171.228 852.772 324.096 852.772 512 699.904 852.772 512 852.772z" fill="#44294F" /><path d="M219.908 591.84l-23.148 6.336a325.188 325.188 0 0 0 25.428 64.696l21.268-11.116a301.252 301.252 0 0 1-23.548-59.916zM268.28 691.448l-19.308 14.256a327.672 327.672 0 0 0 91.28 84.2l12.648-20.4a303.64 303.64 0 0 1-84.62-78.056zM658.668 220.028l-10.804 21.428c63.516 32.028 114.02 85.576 142.216 150.776l22.028-9.524c-30.424-70.352-84.916-128.124-153.44-162.68zM512 185.228v24c27.084 0 53.956 3.596 79.868 10.688l6.336-23.148A326.492 326.492 0 0 0 512 185.228z" fill="#44294F" /></svg>