<?xml version="1.0" standalone="no"?><!DOCTYPE svg PUBLIC "-//W3C//DTD SVG 1.1//EN" "http://www.w3.org/Graphics/SVG/1.1/DTD/svg11.dtd"><svg t="1607580801547" class="icon" viewBox="0 0 1024 1024" version="1.1" xmlns="http://www.w3.org/2000/svg" p-id="38967" xmlns:xlink="http://www.w3.org/1999/xlink" width="200" height="200"><defs><style type="text/css"></style></defs><path d="M84.1232 322.6064V863.84c0 103.4592 21.6336 111.7104 119.2512 111.7104h617.2512c97.6032 0 119.2416-8.25600001 119.2416-111.7536V317.4752l-855.744 5.1312z" fill="#EB4B29" p-id="38968"></path><path d="M820.6448 72.4064H203.37920001c-97.6176 0-119.2512 27.36-119.25120001 130.8576v129.168s159.312 95.4624 422.9088 95.4624c263.61600001 0 432.8352-97.11360001 432.8352-97.1136V203.2352c0.024-103.4688-21.6384-130.82880001-119.2272-130.8288z" fill="#CF2709" p-id="38969"></path><path d="M820.6448 48.4448H203.37920001c-97.6176 0-119.2512 27.36-119.25120001 130.8576v129.168s159.312 95.4576 422.9088 95.4576c263.61600001 0 432.8352-97.0992 432.8352-97.09920001V179.2736c0.024-103.4688-21.6384-130.82880001-119.2272-130.8288z" fill="#FF583F" p-id="38970"></path><path d="M711.4304 401.8544c0 110.1408-89.3088 199.4256-199.4304 199.42560001S312.5744 511.9904 312.5744 401.8544c0-110.1312 89.2992-199.4208 199.4256-199.4208 110.1168 0 199.4304 89.2896 199.4304 199.4208z" fill="#FED848" p-id="38971"></path><path d="M562.3088 272.6048L521.8208 362.72a490.9632 490.9632 0 0 0-7.3824 17.4144h-0.7248l-48.9168-107.568H405.0464l66.9312 120H421.2224v34.1856h61.8768v29.5152H421.2224v34.1856h61.8768v49.56h56.7168v-49.536h59.9088v-34.1808h-59.9088v-29.5104h59.9088v-34.1856h-49.68l68.89920001-119.9952h-56.63520001z" fill="#EB4B29" p-id="38972"></path></svg>