<?xml version="1.0" standalone="no"?><!DOCTYPE svg PUBLIC "-//W3C//DTD SVG 1.1//EN" "http://www.w3.org/Graphics/SVG/1.1/DTD/svg11.dtd"><svg class="icon" width="200px" height="200.00px" viewBox="0 0 1024 1024" version="1.1" xmlns="http://www.w3.org/2000/svg"><path d="M738.86 744.28c0 31.18-25.36 56.56-56.54 56.56h-3.44v42.32c0 5.52-4.48 10-10 10s-10-4.48-10-10v-42.32h-50c-5.52 0-10-4.48-10-10s4.48-10 10-10h73.44c20.14 0 36.54-16.4 36.54-36.56 0-20.18-16.4-36.58-36.54-36.58h-26.88c-31.18 0-56.56-25.36-56.56-56.56 0-31.2 25.38-56.58 56.56-56.58h3.44v-42.3c0-5.52 4.48-10 10-10s10 4.48 10 10v42.3h49.98c5.52 0 10 4.48 10 10 0 5.54-4.48 10-10 10h-73.42c-20.16 0-36.56 16.42-36.56 36.58s16.4 36.56 36.56 36.56h26.88c31.18 0 56.54 25.38 56.54 56.58z" fill="#23130D" /><path d="M668.9 489.92c-40.04 0-77.44 11.38-109.18 31.08-9.64-9.64-21.02-19.4-34.02-29.14-69.1-51.82-102.88-104.82-119.02-140.14-5.8-12.68-9.82-24.04-12.58-33.58 17.3 9.22 42.78 15.82 76.38 22.54 55.92 11.2 87.04 50.44 87.32 50.82 3 3.86 8.34 5.02 12.64 2.7l67.84-36.34a9.986 9.986 0 0 0 5.24-9.66l-6.04-70.28a10.008 10.008 0 0 0-4.42-7.46c-55.82-37.2-120.18-131.98-120.82-132.94-1.14-1.72-2.8-3.02-4.72-3.76l-77-29.26 18.7-55.08c0.98-2.92 0.58-6.14-1.12-8.7a9.91 9.91 0 0 0-7.52-4.48c-55.82-4.66-89.6 47.5-98.4 63.1-90.56 22.92-158.54 71.02-202.12 143.02C90.94 323.54 82.5 420.74 84.08 488c1.7 72.52 14.72 125.32 15.26 127.54a9.948 9.948 0 0 0 4.52 6.12l96.94 58.86v103.3H115.1h-0.02c-16.44 0-30.9 8.78-38.88 21.92a45.214 45.214 0 0 0-6.58 23.56v66.2c0 5.52 4.46 10 10 10h568.22c1.32 0 2.56-0.26 3.72-0.72 5.72 0.46 11.5 0.72 17.34 0.72 114.56 0 207.78-93.22 207.78-207.78 0-114.58-93.22-207.8-207.78-207.8zM117.84 606.76c-6.48-29.44-43.34-217.4 39.34-354.04 41.4-68.44 106.7-113.86 194.08-135.02a10.04 10.04 0 0 0 6.62-5.3c0.26-0.54 25.28-50.1 67.8-55.9l-17.2 50.7c-1.74 5.1 0.88 10.64 5.9 12.56l83.1 31.58c10.92 15.84 67.24 95.48 120.48 133.02l5.06 58.98-55 29.48c-12.22-13.02-44-41.82-93.62-51.76-58.16-11.64-82.5-21.9-86.84-36.62a10.006 10.006 0 0 0-11.18-7.04 10 10 0 0 0-8.4 10.2c0.16 4.64 5.4 115.02 145.72 220.26 11.06 8.3 20.86 16.56 29.26 24.68-49.72 38-81.86 97.9-81.86 165.18 0 30.7 6.7 59.86 18.7 86.1h-43.36v-196.64c0-5.52-4.48-10-10-10-5.54 0-10 4.48-10 10v196.64h-33.76V518c0-5.52-4.46-10-10-10-5.52 0-10 4.48-10 10v265.82h-33.74v-196.64c0-5.52-4.48-10-10-10s-10 4.48-10 10v196.64H275.2v-107c0-5.52-4.48-10-10-10s-10 4.48-10 10v107h-34.4v-108.92c0-0.06-0.02-0.12-0.02-0.16 0-0.46-0.06-0.88-0.12-1.32-0.04-0.24-0.06-0.46-0.1-0.68-0.1-0.38-0.22-0.76-0.36-1.12-0.08-0.24-0.14-0.5-0.24-0.74-0.16-0.34-0.36-0.66-0.54-0.98-0.14-0.22-0.26-0.48-0.4-0.7-0.2-0.28-0.44-0.54-0.68-0.8-0.2-0.22-0.38-0.46-0.6-0.68-0.2-0.2-0.44-0.38-0.68-0.56-0.3-0.24-0.58-0.48-0.9-0.68-0.06-0.04-0.1-0.08-0.16-0.12l-98.16-59.6zM89.62 885.5v-56.16-0.04c0-5.28 1.6-10.18 4.36-14.24l0.12-0.18c0.42-0.6 0.86-1.2 1.34-1.78 4.68-5.66 11.74-9.28 19.64-9.28h375.22c21.08 35.34 52.34 63.92 89.7 81.68H89.62z m579.28 0c-103.56 0-187.8-84.24-187.8-187.78 0-103.56 84.24-187.8 187.8-187.8 103.54 0 187.78 84.24 187.78 187.8 0 103.54-84.24 187.78-187.78 187.78z" fill="#23130D" /><path d="M580 885.5H89.62v-56.16-0.04c0-5.28 1.6-10.18 4.36-14.24l0.12-0.18c0.42-0.6 0.86-1.2 1.34-1.78 4.68-5.66 11.74-9.28 19.64-9.28h375.22c21.08 35.34 52.34 63.92 89.7 81.68z" fill="#E1E1E5" /><path d="M580 885.5h-37.96a209.34 209.34 0 0 1-51.74-58.34H115.08c-7.9 0-14.96 3.62-19.64 9.28-0.48 0.58-0.92 1.18-1.34 1.78l-0.12 0.18a25.228 25.228 0 0 0-4.36 14.24v-23.3-0.04c0-5.28 1.6-10.18 4.36-14.24l0.12-0.18c0.42-0.6 0.86-1.2 1.34-1.78 4.68-5.66 11.74-9.28 19.64-9.28h375.22c21.08 35.34 52.34 63.92 89.7 81.68z" fill="#23130D" opacity=".2" /><path d="M682.32 707.7h-26.88c-1.52 0-3.04-0.06-4.52-0.2l59.78 59.76c3.08-3.78 5.42-8.2 6.76-13.02 0.92-3.16 1.4-6.5 1.4-9.96 0-20.18-16.4-36.58-36.54-36.58z m-63.12-51.72c2.16 16.3 15.1 29.24 31.4 31.4l-31.4-31.4z m63.12 51.72h-26.88c-1.52 0-3.04-0.06-4.52-0.2l59.78 59.76c3.08-3.78 5.42-8.2 6.76-13.02 0.92-3.16 1.4-6.5 1.4-9.96 0-20.18-16.4-36.58-36.54-36.58z m-63.12-51.72c2.16 16.3 15.1 29.24 31.4 31.4l-31.4-31.4z m63.12 51.72h-26.88c-1.52 0-3.04-0.06-4.52-0.2l59.78 59.76c3.08-3.78 5.42-8.2 6.76-13.02 0.92-3.16 1.4-6.5 1.4-9.96 0-20.18-16.4-36.58-36.54-36.58z m-63.12-51.72c2.16 16.3 15.1 29.24 31.4 31.4l-31.4-31.4z m63.12 51.72h-26.88c-1.52 0-3.04-0.06-4.52-0.2l59.78 59.76c3.08-3.78 5.42-8.2 6.76-13.02 0.92-3.16 1.4-6.5 1.4-9.96 0-20.18-16.4-36.58-36.54-36.58z m-31.72-20.32l-31.4-31.4c2.16 16.3 15.1 29.24 31.4 31.4z m18.3-177.46c-15.6 0-30.76 1.92-45.26 5.52a185.692 185.692 0 0 0-46.56 18.5 188.382 188.382 0 0 0-24.42 16.36c-7.26 5.74-14.08 12-20.4 18.72-3.22 3.4-6.3 6.92-9.24 10.56a186.186 186.186 0 0 0-20.26 30.66c-13.84 26.14-21.66 55.92-21.66 87.48 0 103.54 84.24 187.78 187.8 187.78 31.56 0 61.34-7.82 87.46-21.66a186.186 186.186 0 0 0 30.66-20.26c3.64-2.94 7.16-6.02 10.56-9.24a186.28 186.28 0 0 0 18.7-20.4c6.08-7.68 11.56-15.84 16.38-24.42a185.692 185.692 0 0 0 18.5-46.56c3.6-14.5 5.52-29.64 5.52-45.24 0-103.56-84.24-187.8-187.78-187.8z m-13.46 104.64c-10.58 0-20.12 4.52-26.8 11.72a36.47 36.47 0 0 0-9.76 24.86c0 1.64 0.1 3.26 0.32 4.84 2.16 16.3 15.1 29.24 31.4 31.4 1.58 0.22 3.2 0.32 4.84 0.32h26.88c2.84 0 5.64 0.22 8.36 0.62 24.48 3.64 43.9 23.06 47.54 47.56 0.42 2.74 0.64 5.54 0.64 8.4 0 9.12-2.16 17.72-6.02 25.34a55.822 55.822 0 0 1-7.96 11.84c-8.26 9.46-19.6 16.14-32.46 18.44-3.28 0.62-6.64 0.94-10.1 0.94h-3.44v42.32c0 5.52-4.48 10-10 10s-10-4.48-10-10v-42.32h-50c-5.52 0-10-4.48-10-10s4.48-10 10-10h73.44c11.44 0 21.68-5.3 28.38-13.58 3.08-3.78 5.42-8.2 6.76-13.02 0.92-3.16 1.4-6.5 1.4-9.96 0-20.18-16.4-36.58-36.54-36.58h-26.88c-1.52 0-3.04-0.06-4.52-0.2-27.6-2.18-49.68-24.24-51.84-51.86-0.14-1.48-0.2-2.98-0.2-4.5 0-4.76 0.58-9.38 1.7-13.78a56.3 56.3 0 0 1 13.92-25.2c6.86-7.22 15.58-12.62 25.38-15.42 4.94-1.42 10.16-2.18 15.56-2.18h3.44v-42.3c0-0.5 0.04-0.98 0.12-1.46a9.98 9.98 0 0 1 9.88-8.54c5.52 0 10 4.48 10 10v42.3h49.98c5.52 0 10 4.48 10 10 0 5.54-4.48 10-10 10h-73.42z m-36.24 41.42c2.16 16.3 15.1 29.24 31.4 31.4l-31.4-31.4z m63.12 51.72h-26.88c-1.52 0-3.04-0.06-4.52-0.2l59.78 59.76c3.08-3.78 5.42-8.2 6.76-13.02 0.92-3.16 1.4-6.5 1.4-9.96 0-20.18-16.4-36.58-36.54-36.58z m-63.12-51.72c2.16 16.3 15.1 29.24 31.4 31.4l-31.4-31.4z m63.12 51.72h-26.88c-1.52 0-3.04-0.06-4.52-0.2l59.78 59.76c3.08-3.78 5.42-8.2 6.76-13.02 0.92-3.16 1.4-6.5 1.4-9.96 0-20.18-16.4-36.58-36.54-36.58z m-63.12-51.72c2.16 16.3 15.1 29.24 31.4 31.4l-31.4-31.4z m63.12 51.72h-26.88c-1.52 0-3.04-0.06-4.52-0.2l59.78 59.76c3.08-3.78 5.42-8.2 6.76-13.02 0.92-3.16 1.4-6.5 1.4-9.96 0-20.18-16.4-36.58-36.54-36.58z" fill="#F9C139" /><path d="M687.48 866.92c-103.56 0-187.8-84.24-187.8-187.78 0-47.06 17.4-90.14 46.1-123.12-39.6 34.46-64.68 85.2-64.68 141.7 0 103.54 84.24 187.78 187.8 187.78 56.48 0 107.24-25.08 141.68-64.68-32.98 28.7-76.06 46.1-123.1 46.1z" fill="#23130D" opacity=".2" /><path d="M623.02 343.34l-55 29.48c-12.22-13.02-44-41.82-93.62-51.76-58.16-11.64-82.5-21.9-86.84-36.62a10.006 10.006 0 0 0-11.18-7.04 10 10 0 0 0-8.4 10.2c0.16 4.64 5.4 115.02 145.72 220.26 11.06 8.3 20.86 16.56 29.26 24.68-49.72 38-81.86 97.9-81.86 165.18 0 30.7 6.7 59.86 18.7 86.1h-43.36v-196.64c0-5.52-4.48-10-10-10-5.54 0-10 4.48-10 10v196.64h-33.76V518c0-5.52-4.46-10-10-10-5.52 0-10 4.48-10 10v265.82h-33.74v-196.64c0-5.52-4.48-10-10-10s-10 4.48-10 10v196.64H275.2v-107c0-5.52-4.48-10-10-10s-10 4.48-10 10v107h-34.4v-108.92c0-0.06-0.02-0.12-0.02-0.16 0-0.46-0.06-0.88-0.12-1.32-0.04-0.24-0.06-0.46-0.1-0.68-0.1-0.38-0.22-0.76-0.36-1.12-0.08-0.24-0.14-0.5-0.24-0.74-0.16-0.34-0.36-0.66-0.54-0.98-0.14-0.22-0.26-0.48-0.4-0.7-0.2-0.28-0.44-0.54-0.68-0.8-0.2-0.22-0.38-0.46-0.6-0.68-0.2-0.2-0.44-0.38-0.68-0.56-0.3-0.24-0.58-0.48-0.9-0.68-0.06-0.04-0.1-0.08-0.16-0.12l-98.16-59.6c-6.48-29.44-43.34-217.4 39.34-354.04 41.4-68.44 106.7-113.86 194.08-135.02a10.04 10.04 0 0 0 6.62-5.3c0.26-0.54 25.28-50.1 67.8-55.9l-17.2 50.7c-1.74 5.1 0.88 10.64 5.9 12.56l83.1 31.58c10.92 15.84 67.24 95.48 120.48 133.02l5.06 58.98z" fill="#3594BF" /><path d="M410.02 116.5c-0.88 0.54-1.86 0.96-2.88 1.2-87.38 21.16-152.68 66.58-194.08 135.02-82.68 136.64-45.82 324.6-39.34 354.04l98.16 59.6c0.06 0.04 0.1 0.08 0.16 0.12 0.32 0.2 0.6 0.44 0.9 0.68 0.24 0.18 0.48 0.36 0.68 0.56 0.22 0.22 0.4 0.46 0.6 0.68 0.24 0.26 0.48 0.52 0.68 0.8 0.14 0.22 0.26 0.48 0.4 0.7 0.18 0.32 0.38 0.64 0.54 0.98 0.1 0.24 0.16 0.5 0.24 0.74 0.14 0.36 0.26 0.74 0.36 1.12 0.04 0.22 0.06 0.44 0.1 0.68 0.06 0.44 0.12 0.86 0.12 1.32 0 0.04 0.02 0.1 0.02 0.16v108.92h-1.48v-107c0-5.52-4.48-10-10-10s-10 4.48-10 10v107h-34.4v-108.92c0-0.06-0.02-0.12-0.02-0.16 0-0.46-0.06-0.88-0.12-1.32-0.04-0.24-0.06-0.46-0.1-0.68-0.1-0.38-0.22-0.76-0.36-1.12-0.08-0.24-0.14-0.5-0.24-0.74-0.16-0.34-0.36-0.66-0.54-0.98-0.14-0.22-0.26-0.48-0.4-0.7-0.2-0.28-0.44-0.54-0.68-0.8-0.2-0.22-0.38-0.46-0.6-0.68-0.2-0.2-0.44-0.38-0.68-0.56-0.3-0.24-0.58-0.48-0.9-0.68-0.06-0.04-0.1-0.08-0.16-0.12l-98.16-59.6c-6.48-29.44-43.34-217.4 39.34-354.04 41.4-68.44 106.7-113.86 194.08-135.02a10.04 10.04 0 0 0 6.62-5.3c0.26-0.54 25.28-50.1 67.8-55.9l-17.2 50.7a9.92 9.92 0 0 0 1.54 9.3z" fill="#23130D" opacity=".2" /><path d="M668.892 472.512a10 10 0 0 0 10-10v-45.164a10 10 0 1 0-20 0v45.164a10 10 0 0 0 10 10zM569.542 424.614a9.998 9.998 0 0 0-5.976 12.818l15.45 42.438a10.004 10.004 0 0 0 12.816 5.976 9.998 9.998 0 0 0 5.976-12.818l-15.45-42.438a10 10 0 0 0-12.816-5.976zM667.448 922.892a10 10 0 0 0-10 10v45.164c0 5.524 4.476 10 10 10s10-4.476 10-10v-45.164a10 10 0 0 0-10-10zM757.328 915.538c-1.886-5.19-7.626-7.866-12.816-5.976s-7.866 7.626-5.976 12.816l15.446 42.44a10 10 0 1 0 18.792-6.84l-15.446-42.44zM826.454 871.906a9.996 9.996 0 0 0-14.088-1.232 10 10 0 0 0-1.232 14.088l29.03 34.598a9.97 9.97 0 0 0 7.666 3.572 10 10 0 0 0 7.654-16.428l-29.03-34.598zM915.602 829.844l-39.114-22.58a9.992 9.992 0 0 0-13.66 3.66 9.998 9.998 0 0 0 3.66 13.66l39.114 22.58a9.994 9.994 0 0 0 13.66-3.66 10 10 0 0 0-3.66-13.66zM945.876 737.25l-44.476-7.842a10 10 0 1 0-3.472 19.696l44.476 7.842a10.004 10.004 0 0 0 3.472-19.696zM890.064 659.31a10.004 10.004 0 0 0 11.584 8.112l44.476-7.842a10 10 0 1 0-3.472-19.696l-44.476 7.842a10 10 0 0 0-8.112 11.584zM872.222 590.736c1.696 0 3.416-0.434 4.99-1.342l39.112-22.582a9.998 9.998 0 0 0 3.66-13.66 9.996 9.996 0 0 0-13.66-3.66l-39.112 22.582a9.998 9.998 0 0 0 5.01 18.662zM819.894 528a9.976 9.976 0 0 0 7.666-3.572l29.032-34.596a10 10 0 0 0-15.32-12.856l-29.032 34.596a10 10 0 0 0 7.654 16.428zM745.868 486.34a10.004 10.004 0 0 0 12.816-5.976l15.45-42.438a10 10 0 0 0-18.792-6.842l-15.45 42.438a9.998 9.998 0 0 0 5.976 12.818z" fill="#23130D" /><path d="M682.32 780.84h-8.96l-170.6-170.6a186.186 186.186 0 0 1 20.26-30.66l76.06 76.06c2.16 27.62 24.24 49.68 51.84 51.86l59.78 59.76c-6.7 8.28-16.94 13.58-28.38 13.58zM787.02 843.58a186.186 186.186 0 0 1-30.66 20.26l-63.94-63.94c12.86-2.3 24.2-8.98 32.46-18.44l62.14 62.12zM552.66 550.3l61.84 61.86a56.3 56.3 0 0 0-13.92 25.2l-68.32-68.34c6.32-6.72 13.14-12.98 20.4-18.72zM682.32 687.7h-26.88c-1.64 0-3.26-0.1-4.84-0.32l-31.4-31.4c-0.22-1.58-0.32-3.2-0.32-4.84 0-9.58 3.7-18.32 9.76-24.86l62.04 62.04c-2.72-0.4-5.52-0.62-8.36-0.62zM718.86 744.28c0 3.46-0.48 6.8-1.4 9.96l-46.52-46.54h11.38c20.14 0 36.54 16.4 36.54 36.58zM816.28 813.94a186.28 186.28 0 0 1-18.7 20.4l-64.74-64.72c3.86-7.62 6.02-16.22 6.02-25.34 0-2.86-0.22-5.66-0.64-8.4l78.06 78.06zM658.88 594.56h-3.44c-5.4 0-10.62 0.76-15.56 2.18l-62.8-62.8a185.692 185.692 0 0 1 46.56-18.5l35.36 35.36c-0.08 0.48-0.12 0.96-0.12 1.46v42.3zM702.76 594.56h-23.88v-23.88zM851.16 742.96a185.692 185.692 0 0 1-18.5 46.56l-174.98-174.96h65.08l128.4 128.4z" fill="#FFFFFF" opacity=".4" /></svg>