<?xml version="1.0" standalone="no"?><!DOCTYPE svg PUBLIC "-//W3C//DTD SVG 1.1//EN" "http://www.w3.org/Graphics/SVG/1.1/DTD/svg11.dtd"><svg class="icon" width="200px" height="200.00px" viewBox="0 0 1024 1024" version="1.1" xmlns="http://www.w3.org/2000/svg"><path d="M686.848542 10.9568h236.098915v168.478416H686.848542z" fill="#E5BE7B" /><path d="M461.558404 10.9568h236.055319v168.478416H461.558404z" fill="#E5BE7B" /><path d="M236.267251 10.9568h236.055319v168.478416H236.267251z" fill="#E5BE7B" /><path d="M192.27175 1013.0432L100.66836 600.8832l135.599905-180.786693V168.67105h686.680206v844.37215z" fill="#A6C6CD" /><path d="M439.008099 371.443327h326.21497v100.881235H439.008099z" fill="#7EA0A8" /><path d="M439.008099 650.323137V461.549244h326.21497v188.773893L602.135354 743.503081z" fill="#7EA0A8" /><path d="M917.543576 1024H196.5908a16.333307 16.333307 0 0 1-15.944998-12.785806L90.508455 605.647335c-1.04225-4.637402 0.010139-9.530297 2.87227-13.338361l131.93074-175.871493V16.338376C225.311465 7.318051 232.628503 0 241.648828 0h675.894748c9.020325 0 16.338376 7.318051 16.338376 16.338376v991.323248c0 9.020325-7.318051 16.338376-16.338376 16.338376z m-707.847604-32.676752H901.204186V32.676752H257.988218v389.207193c0 3.531279-1.149719 6.977394-3.266662 9.807081L124.035837 605.903842l85.660135 385.419406z" fill="#826A5D" /><path d="M602.135354 753.629529c-2.785077 0-5.593473-0.722883-8.104808-2.148373l-157.725402-90.117069a16.333307 16.333307 0 0 1-8.232554-14.190004V376.825917c0-9.020325 7.319065-16.338376 16.338376-16.338376h315.408222c9.019311 0 16.338376 7.318051 16.338376 16.338376v270.348166a16.311002 16.311002 0 0 1-8.233568 14.190004l-157.681806 90.117069a16.444832 16.444832 0 0 1-8.105822 2.149387zM460.749342 637.688396l141.387026 80.797655 141.344444-80.797655v-244.523089H460.749342v244.523089z" fill="#826A5D" /><path d="M759.819188 483.280349h-53.994202c-9.019311 0-16.338376-7.318051-16.338376-16.338377 0-9.020325 7.318051-16.338376 16.338376-16.338376h53.994202c9.019311 0 16.338376 7.318051 16.338376 16.338376 0 9.020325-7.319065 16.338376-16.338376 16.338377z m-119.346693 0h-65.354519c-9.019311 0-16.338376-7.318051-16.338376-16.338377 0-9.020325 7.319065-16.338376 16.338376-16.338376h65.353505c9.020325 0 16.338376 7.318051 16.338376 16.338376 0 9.020325-7.317038 16.338376-16.337362 16.338377z m-130.70701 0h-65.353505c-9.020325 0-16.33939-7.318051-16.33939-16.338377 0-9.020325 7.319065-16.338376 16.338376-16.338376h65.353505c9.021339 0 16.338376 7.318051 16.338376 16.338376 0 9.020325-7.317038 16.338376-16.338376 16.338377zM917.543576 190.392016H241.648828c-9.020325 0-16.337362-7.319065-16.337363-16.33939 0-9.020325 7.317038-16.338376 16.337363-16.338376h675.894748c9.020325 0 16.338376 7.318051 16.338376 16.338376 0 9.020325-7.318051 16.33939-16.338376 16.33939z" fill="#826A5D" /><path d="M466.961271 190.392016c-9.020325 0-16.338376-7.319065-16.338376-16.33939V37.899152c0-9.019311 7.318051-16.337362 16.338376-16.337362 9.020325 0 16.33939 7.318051 16.33939 16.337362v136.153474c0 9.020325-7.319065 16.33939-16.33939 16.33939zM692.231133 190.392016c-9.020325 0-16.33939-7.319065-16.339391-16.33939V37.899152c0-9.019311 7.320079-16.337362 16.339391-16.337362 9.020325 0 16.338376 7.318051 16.338376 16.337362v136.153474c0 9.020325-7.318051 16.33939-16.338376 16.33939z" fill="#826A5D" /></svg>