<?xml version="1.0" standalone="no"?><!DOCTYPE svg PUBLIC "-//W3C//DTD SVG 1.1//EN" "http://www.w3.org/Graphics/SVG/1.1/DTD/svg11.dtd"><svg class="icon" width="200px" height="200.00px" viewBox="0 0 1024 1024" version="1.1" xmlns="http://www.w3.org/2000/svg"><path d="M511.993597 511.993597m-511.993597 0a511.993597 511.993597 0 1 0 1023.987193 0 511.993597 511.993597 0 1 0-1023.987193 0Z" fill="#DF7B55" /><path d="M757.008767 688.621719l-97.15059-177.434936a175.898148 175.898148 0 1 0-295.39619-3.227254l-98.969122 180.66219a13.024275 13.024275 0 0 0 14.714741 18.864067l80.412412-20.964344 29.762453 81.641842a13.011468 13.011468 0 0 0 11.244163 8.529171h0.986105a13.011468 13.011468 0 0 0 11.423455-6.774672l97.214622-177.524581 97.201816 177.550194a13.075501 13.075501 0 0 0 11.423454 6.774672h0.986106a13.062695 13.062695 0 0 0 11.256969-8.554784l29.749647-81.641842 80.386798 20.989958a13.024275 13.024275 0 0 0 14.714741-18.864068zM513.184607 264.455533a149.836791 149.836791 0 1 1-149.836791 149.836792 149.99047 149.99047 0 0 1 149.836791-149.836792z m-108.177041 467.746921l-23.973886-65.748897a13.024275 13.024275 0 0 0-15.521555-8.15778l-62.675321 16.379594 78.709138-143.817706a175.744469 175.744469 0 0 0 102.51654 56.912367zM656.976701 658.32139a13.037082 13.037082 0 0 0-15.521555 8.157781l-23.96108 65.748896-78.862817-143.920159a175.616403 175.616403 0 0 0 103.733163-54.812091l77.223577 141.179554z" fill="#FFFFFF" /></svg>