<?xml version="1.0" standalone="no"?><!DOCTYPE svg PUBLIC "-//W3C//DTD SVG 1.1//EN" "http://www.w3.org/Graphics/SVG/1.1/DTD/svg11.dtd"><svg t="1607585008739" class="icon" viewBox="0 0 1024 1024" version="1.1" xmlns="http://www.w3.org/2000/svg" p-id="3164" xmlns:xlink="http://www.w3.org/1999/xlink" width="200" height="200"><defs><style type="text/css"></style></defs><path d="M817.07 258.93v453.1c0 30-24.4 54.37-54.37 54.37s-54.37-24.37-54.37-54.37v-72.48c-22.01 16.51-36.24 42.85-36.24 72.48 0 50.05 40.57 90.64 90.62 90.64 50.05 0 90.62-40.6 90.62-90.64v-453.1h-36.26z" fill="#E6E9ED" p-id="3165"></path><path d="M708.32 911.43c0 20.02-16.22 36.24-36.24 36.24h-435c-20.05 0-36.27-16.22-36.27-36.24V113.91c0-20.02 16.22-36.24 36.27-36.24h435c20.02 0 36.24 16.22 36.24 36.24v797.52z" fill="#ED5564" p-id="3166"></path><path d="M672.08 77.67h-435c-20.05 0-36.27 16.22-36.27 36.24v326.25h507.51V113.91c0-20.02-16.22-36.24-36.24-36.24z" fill="#E6E9ED" p-id="3167"></path><path d="M708.32 838.92h-507.5c-20.02 0-36.24 16.22-36.24 36.24v72.51h579.99v-72.51c0-20.02-16.23-36.24-36.25-36.24zM835.21 331.41c0 10.01-8.12 18.13-18.13 18.13s-18.13-8.13-18.13-18.13c0-10.01 8.12-18.11 18.13-18.11 10 0 18.13 8.1 18.13 18.11z" fill="#434A54" p-id="3168"></path><path d="M853.32 258.93c0-40.04-32.44-72.51-72.48-72.51h-18.21c-9.98 0-18.11 8.12-18.11 18.13s8.12 18.11 18.11 18.11h18.03v0.03c0.05-0.03 0.11-0.03 0.19-0.03 19.97 0 36.24 16.27 36.24 36.27v0.16h-72.62l0.11 144.75 72.51 36.32h36.13V262.99c0.04-1.35 0.1-2.71 0.1-4.06z m-36.38 140.63l-36.13-18.11-0.08-86.13h36.21v104.24z" fill="#656D78" p-id="3169"></path><path d="M533.62 600.79c-33.11-41.47-20.58-97.49-20.44-98l6.58-27.51-27.72 5.49c-36.74 7.25-66.11 23.68-87.27 48.83-14.87 17.71-25.73 39.83-32.37 66.01l-15.93-20.87-11.36 30.98c-17.89 48.77-13.94 95.4 11.1 131.27 23.55 33.69 65.1 55.46 105.88 55.46h0.02c0.05 0 0.11 0.03 0.16 0.03h17.97l0.03-1.62c33.91-5.95 64.39-28.12 79.17-58.84 11.11-23.07 22.51-70.78-25.82-131.23z" fill="#FFCE54" p-id="3170"></path><path d="M310.15 204.55h288.87c10.01 0 18.11-8.13 18.11-18.13 0-10.01-8.1-18.13-18.11-18.13H310.15c-10.03 0-18.13 8.12-18.13 18.13s8.1 18.13 18.13 18.13zM599.02 240.79H310.15c-10.03 0-18.13 8.12-18.13 18.13s8.1 18.11 18.13 18.11h288.87c10.01 0 18.11-8.1 18.11-18.11-0.01-10-8.1-18.13-18.11-18.13zM454.58 313.3H310.15c-10.03 0-18.13 8.1-18.13 18.11s8.1 18.13 18.13 18.13h144.43c10.01 0 18.11-8.13 18.11-18.13 0-10.01-8.1-18.11-18.11-18.11z" fill="#434A54" p-id="3171"></path></svg>