<?xml version="1.0" standalone="no"?><!DOCTYPE svg PUBLIC "-//W3C//DTD SVG 1.1//EN" "http://www.w3.org/Graphics/SVG/1.1/DTD/svg11.dtd"><svg class="icon" width="200px" height="200.00px" viewBox="0 0 1024 1024" version="1.1" xmlns="http://www.w3.org/2000/svg"><path d="M707.2 208L696 199.2c4.8-9.6 8.8-24 11.2-27.2l50.4-52.8c4-5.6 4-12.8 0.8-18.4s-8.8-9.6-16-9.6h-232c-6.4 0-12.8 4-16 9.6-3.2 5.6-2.4 12.8 0.8 18.4l50.4 52.8c2.4 3.2 6.4 17.6 11.2 27.2L546.4 208c-86.4 67.2-152 203.2-152 304 0 152 118.4 152 232 152s232 0 232-152c0.8-100.8-65.6-236.8-151.2-304z" fill="#34E281" /><path d="M546.4 172h160.8V208H546.4v-36z" fill="#35D187" /><path d="M526.4 430.4c0 56 44.8 100.8 100.8 100.8S728 485.6 728 430.4c0-56-44.8-100.8-100.8-100.8s-100.8 44.8-100.8 100.8z" fill="#FFFFFF" /><path d="M285.6 659.2s32 8.8 49.6-14.4l31.2-28c15.2-13.6 35.2-20.8 56-20 63.2 3.2 205.6 8.8 290.4 0.8 8.8-0.8 16 8.8 12 16.8l-4.8 10.4c-12.8 29.6-42.4 48.8-74.4 48.8H568s-28-6.4-32 31.2v18.4c0 14.4 12 26.4 26.4 26.4H664c36.8 0 72-12 100.8-34.4 17.6-13.6 37.6-30.4 56-48.8 13.6-13.6 32-20.8 51.2-20.8h97.6c12.8 0 25.6 3.2 36.8 10.4 10.4 6.4 12 21.6 2.4 29.6L840 825.6c-33.6 28-76.8 43.2-120.8 43.2H285.6V659.2z" fill="#FFD782" /><path d="M272.8 903.2l-47.2 0.8c-10.4 0-19.2-8-19.2-18.4l-3.2-265.6c0-10.4 8-19.2 18.4-19.2l47.2-0.8c10.4 0 19.2 8 19.2 18.4l3.2 265.6c0.8 10.4-7.2 19.2-18.4 19.2z" fill="#D0D0DD" /><path d="M224 941.6H34.4c-10.4 0-19.2-8.8-19.2-19.2V581.6c0-10.4 8.8-19.2 19.2-19.2H224c10.4 0 19.2 8.8 19.2 19.2v340.8c0 10.4-8.8 19.2-19.2 19.2z" fill="#EAEAEF" /><path d="M667.2 448.8c0 8.8-3.2 15.2-8.8 20.8-5.6 5.6-13.6 8.8-22.4 9.6v16h-14.4v-16c-14.4-0.8-25.6-4.8-34.4-13.6l12.8-12.8c5.6 5.6 13.6 8 23.2 8.8v-26.4l-4.8-0.8c-8.8-0.8-15.2-4-20-8.8-4.8-4.8-7.2-12-7.2-20s2.4-15.2 8-20.8c5.6-5.6 12.8-8.8 22.4-9.6v-12.8h14.4v12.8c12 0.8 20.8 4.8 28.8 12L652 400c-4-4-10.4-6.4-17.6-7.2v25.6l5.6 0.8c8.8 1.6 15.2 4 20 8 4 4.8 7.2 12 7.2 21.6z m-44-32v-24c-4 0.8-7.2 2.4-9.6 4-2.4 2.4-3.2 4.8-3.2 8s0.8 5.6 3.2 7.2c2.4 3.2 5.6 4 9.6 4.8z m24 32c0-4-0.8-6.4-3.2-8.8-1.6-1.6-5.6-3.2-10.4-4v24.8c8.8 0 13.6-4.8 13.6-12z" fill="#35D187" /></svg>