<?xml version="1.0" standalone="no"?><!DOCTYPE svg PUBLIC "-//W3C//DTD SVG 1.1//EN" "http://www.w3.org/Graphics/SVG/1.1/DTD/svg11.dtd"><svg t="1607584468698" class="icon" viewBox="0 0 1024 1024" version="1.1" xmlns="http://www.w3.org/2000/svg" p-id="147323" xmlns:xlink="http://www.w3.org/1999/xlink" width="200" height="200"><defs><style type="text/css"></style></defs><path d="M78.9 316.8v385.7c0 29.1 23.6 52.8 52.8 52.8h778c20 0 36.2-16.2 36.2-36.2V603.7c0-33.4-4.4-63.8-34.7-77.8l-54.3-25.1c-7.2-3.3-13.4-8.3-18.1-14.7L725.6 295.3a80.987 80.987 0 0 0-64.8-32.4h-528c-29.8 0-53.9 24.1-53.9 53.9z" fill="#54D3CC" p-id="147324"></path><path d="M909.7 770.3h-778c-37.4 0-67.8-30.4-67.8-67.8V316.8c0-38 30.9-68.9 68.9-68.9h528c30.1 0 58.8 14.4 76.8 38.4l0.5 0.7 0.4 0.7 112.6 190.1c3.2 4 7.3 7.3 11.9 9.4l54.3 25.1c17.5 8.1 29.8 21.6 36.5 40.1 6.1 16.9 6.9 36.3 6.9 51.3v115.4c0.2 28.2-22.8 51.2-51 51.2zM132.8 277.9c-21.5 0-38.9 17.5-38.9 38.9v385.7c0 20.8 16.9 37.8 37.8 37.8h778c11.7 0 21.2-9.5 21.2-21.2V603.7c0-38-7.1-55.4-26-64.2l-54.3-25.1c-9.4-4.3-17.6-11-23.8-19.3l-0.5-0.7-0.4-0.7-112.7-190c-12.4-16.2-31.9-25.8-52.3-25.8H132.8z" fill="#2A4964" p-id="147325"></path><path d="M88.4 645.8h848v40h-848z" fill="#F25168" p-id="147326"></path><path d="M941.4 690.8h-858v-50h858v50z m-848-10h838v-30h-838v30z" fill="#2A4964" p-id="147327"></path><path d="M261.3 770m-86.9 0a86.9 86.9 0 1 0 173.8 0 86.9 86.9 0 1 0-173.8 0Z" fill="#DDF0F0" p-id="147328"></path><path d="M261.3 871.9c-56.2 0-101.9-45.7-101.9-101.9s45.7-101.9 101.9-101.9S363.2 713.8 363.2 770s-45.7 101.9-101.9 101.9z m0-173.8c-39.6 0-71.9 32.2-71.9 71.9 0 39.6 32.2 71.9 71.9 71.9s71.9-32.2 71.9-71.9c0-39.6-32.3-71.9-71.9-71.9z" fill="#2A4964" p-id="147329"></path><path d="M261.3 770m-36.8 0a36.8 36.8 0 1 0 73.6 0 36.8 36.8 0 1 0-73.6 0Z" fill="#DDF0F0" p-id="147330"></path><path d="M261.3 821.8c-28.6 0-51.8-23.2-51.8-51.8 0-28.6 23.2-51.8 51.8-51.8 28.6 0 51.8 23.2 51.8 51.8 0 28.6-23.2 51.8-51.8 51.8z m0-73.6c-12 0-21.8 9.8-21.8 21.8s9.8 21.8 21.8 21.8 21.8-9.8 21.8-21.8-9.8-21.8-21.8-21.8z" fill="#2A4964" p-id="147331"></path><path d="M742 770.8m-86.9 0a86.9 86.9 0 1 0 173.8 0 86.9 86.9 0 1 0-173.8 0Z" fill="#DDF0F0" p-id="147332"></path><path d="M742 872.6c-56.2 0-101.9-45.7-101.9-101.9S685.8 668.9 742 668.9s101.9 45.7 101.9 101.9S798.2 872.6 742 872.6z m0-173.7c-39.6 0-71.9 32.2-71.9 71.9s32.2 71.9 71.9 71.9 71.9-32.2 71.9-71.9-32.3-71.9-71.9-71.9z" fill="#2A4964" p-id="147333"></path><path d="M650.9 256.9h-134l30.8-70.5h72.4z" fill="#54D3CC" p-id="147334"></path><path d="M673.8 271.9H494l43.9-100.5h92l43.9 100.5z m-134-30h88.1l-17.7-40.5h-52.7l-17.7 40.5z" fill="#2A4964" p-id="147335"></path><path d="M721 509.1H594.1c-5.7 0-10.3-4.6-10.3-10.3V337.2c0-5.7 4.6-10.3 10.3-10.3h39.1c8.5 0 16.7 2.3 22.5 6.5 1.1 0.8 2 1.8 2.7 2.9l86.8 139c9.7 16.3 1.9 33.8-24.2 33.8z" fill="#DDF0F0" p-id="147336"></path><path d="M721 524.1H594.1c-13.9 0-25.3-11.3-25.3-25.3V337.2c0-13.9 11.3-25.3 25.3-25.3h39.1c11.6 0 22.7 3.3 31.1 9.2 2.7 1.9 5 4.4 6.8 7.2l87 139.3c7.4 12.5 8 26.5 1.7 37.5-3.9 7.1-14.3 19-38.8 19z m-122.1-30H721c8.4 0 12-2.4 12.8-3.8 0.8-1.5 0.3-4.3-1.4-7.2l-86.1-137.9c-3.3-2-8.1-3.2-13.1-3.2h-34.4v152.1z" fill="#2A4964" p-id="147337"></path><path d="M475.4 409h-86.6v-86.6h-86.7V409h-86.7v86.7h86.7v86.7h86.7v-86.7h86.6z" fill="#F25168" p-id="147338"></path><path d="M403.8 597.4H287.1v-86.7h-86.7V394h86.7v-86.7h116.7V394h86.7v116.7h-86.7v86.7z m-86.7-30h56.7v-86.7h86.7V424h-86.7v-86.7h-56.7V424h-86.7v56.7h86.7v86.7z" fill="#2A4964" p-id="147339"></path><path d="M628.3 385.1l57.3 85.4" fill="#F25168" p-id="147340"></path><path d="M617.9 391.2c16.8 25 33.5 49.9 50.3 74.9 2.4 3.5 4.7 7 7.1 10.5 3.6 5.4 10.6 7.7 16.4 4.3 5.3-3.1 7.9-11 4.3-16.4-16.8-25-33.5-49.9-50.3-74.9-2.4-3.5-4.7-7-7.1-10.5-3.6-5.4-10.6-7.7-16.4-4.3-5.3 3.1-7.9 11-4.3 16.4z" fill="#FFFFFF" p-id="147341"></path><path d="M742 770.8m-36.8 0a36.8 36.8 0 1 0 73.6 0 36.8 36.8 0 1 0-73.6 0Z" fill="#DDF0F0" p-id="147342"></path><path d="M742 822.5c-28.6 0-51.8-23.2-51.8-51.8S713.4 719 742 719s51.8 23.2 51.8 51.8-23.3 51.7-51.8 51.7z m0-73.5c-12 0-21.8 9.8-21.8 21.8s9.8 21.8 21.8 21.8 21.8-9.8 21.8-21.8S754 749 742 749z" fill="#2A4964" p-id="147343"></path><path d="M568.4 685h30v58.2h-30z" fill="#284862" p-id="147344"></path><path d="M588 208.5l-10.9 26.4" fill="#F25168" p-id="147345"></path><path d="M582.3 206.9c-3.6 8.8-7.3 17.6-10.9 26.4-2.9 7.1 8.7 10.2 11.6 3.2 3.6-8.8 7.3-17.6 10.9-26.4 2.9-7.2-8.7-10.3-11.6-3.2z" fill="#FFFFFF" p-id="147346"></path></svg>