<?xml version="1.0" standalone="no"?><!DOCTYPE svg PUBLIC "-//W3C//DTD SVG 1.1//EN" "http://www.w3.org/Graphics/SVG/1.1/DTD/svg11.dtd"><svg class="icon" width="200px" height="200.00px" viewBox="0 0 1024 1024" version="1.1" xmlns="http://www.w3.org/2000/svg"><path d="M856.004 791.8c-12.332-4.622-29.102-10.71-47.934-17.786L512 679.878l-295.048 93.934c-19.034 7.152-35.99 13.336-48.45 17.988-63.954 23.888-95.932 47.964-95.932 111.92v111.92h879.366v-111.92c0-63.956-31.976-88.03-95.932-111.92z" fill="#656D78" /><path d="M200.48 791.8c9.494-3.544 21.602-7.964 35.25-13.054l-3.53-2.934 7.526-9.244-22.772 7.244c-19.034 7.152-35.99 13.336-48.45 17.988-63.954 23.888-95.932 47.964-95.932 111.92v111.92h31.978v-111.92c0-63.956 31.976-88.03 95.93-111.92z" fill="#FFFFFF" opacity=".3" /><path d="M823.778 791.8c-9.492-3.544-21.61-7.964-35.254-13.054l3.528-2.934-7.528-9.244 22.782 7.244c19.036 7.152 35.992 13.336 48.45 17.988 63.958 23.888 95.934 47.964 95.934 111.92v111.92h-31.976v-111.92c0-63.956-31.98-88.03-95.936-111.92z" opacity=".2" /><path d="M512.258 1015.64h-22.242l-113.708-204.262L512 727.846zM512.258 1015.64h22.242l113.714-204.262-135.698-83.532z" fill="#CCD1D9" /><path d="M512.5 744.146l128.942 79.382 6.772-12.15-116.042-71.43-19.672 3.792zM492.226 740.024l-115.918 71.354 6.628 11.9L512 743.834z" opacity=".1" /><path d="M376.308 811.378l-48.176-86.734-0.016-32.272L512 727.846zM647.684 811.378l48.188-86.734 0.014-32.272L512 727.846z" fill="#E6E9ED" /><path d="M511.994 615.926h-183.878v76.446L512 727.846l183.872-35.474v-76.446z" fill="#AAB2BD" /><path d="M823.778 320.136C823.778 147.948 684.192 8.36 512 8.36S200.224 147.948 200.224 320.136c0 103.324 50.486 194.626 127.892 251.352v44.438h367.754v-44.422c77.412-56.724 127.908-148.036 127.908-251.368z" fill="#FFCE54" /><path d="M248.188 320.136c0-164.094 126.848-298.28 287.796-310.568-7.934-0.6-15.886-1.21-23.984-1.21-172.19 0-311.778 139.588-311.778 311.778 0 103.324 50.486 194.626 127.892 251.352-55.13-67.482-79.926-148.028-79.926-251.352z" fill="#FFFFFF" opacity=".5" /><path d="M774.812 320.136c0-164.094-126.848-298.28-287.794-310.568 7.94-0.6 15.886-1.21 23.982-1.21 172.19 0 311.776 139.588 311.776 311.778 0 103.324-50.492 194.626-127.89 251.352 55.134-67.482 79.926-148.028 79.926-251.352z" opacity=".2" /><path d="M432.058 344.12m-39.972 0a39.972 39.972 0 1 0 79.944 0 39.972 39.972 0 1 0-79.944 0Z" fill="#FFFFFF" opacity=".6" /><path d="M591.944 344.12m-39.97 0a39.97 39.97 0 1 0 79.94 0 39.97 39.97 0 1 0-79.94 0Z" fill="#FFFFFF" opacity=".6" /><path d="M551.972 599.938h-79.944v-79.944L512 488.018l39.972 31.976z" fill="#FFFFFF" opacity=".6" /><path d="M579.516 769.378L512 727.846l-66.992 41.22 27.02 54.712h79.944z" fill="#ED5565" /><path d="M451.076 781.34l20.952 42.438h15.99l-24.718-50.044z" fill="#FFFFFF" opacity=".3" /><path d="M572.926 781.34l-20.954 42.438h-15.988l24.716-50.044z" opacity=".2" /><path d="M579.516 934.106l-44.86 81.534h-44.64l-45.522-81.534 43.524-110.328h47.966z" fill="#ED5565" /><path d="M504.006 823.778h-15.988l-43.524 110.328 9.658 17.376z" fill="#FFFFFF" opacity=".3" /><path d="M519.996 823.778h15.988l43.532 110.328-9.664 17.376zM695.872 855.754l95.928-79.942-7.48-9.354-81.362-25.872-152.986 275.054h25.328l136.56-111.92zM328.132 855.754L232.2 775.812l7.478-9.354 81.358-25.872 152.992 275.054h-25.318l-136.566-111.92z" opacity=".2" /><path d="M344.12 855.754l-95.932-79.942 63.956-79.942 177.872 319.77h-25.318l-136.566-111.92zM679.878 855.754l95.934-79.942-63.952-79.942-177.876 319.77h25.328l136.56-111.92z" fill="#656D78" /><path d="M344.12 855.754l-95.932-79.942 63.956-79.942 177.872 319.77h-25.318l-136.566-111.92zM679.878 855.754l95.934-79.942-63.952-79.942-177.876 319.77h25.328l136.56-111.92z" fill="#FFFFFF" opacity=".2" /><path d="M328.132 599.938h367.74v15.988h-367.74zM573.332 781.59l6.184-12.212L512 727.846l-66.992 41.22 6.06 12.274L512 743.834z" opacity=".2" /><path d="M360.108 615.926h-31.992v76.446l31.992 6.182z" fill="#FFFFFF" opacity=".4" /><path d="M663.89 615.926h31.982v76.446l-31.982 6.182z" opacity=".2" /><path d="M328.108 580.186c-1.632 0-3.288-0.5-4.708-1.544-82.136-59.95-131.172-156.592-131.172-258.504C192.228 143.818 335.68 0.366 512 0.366c176.312 0 319.772 143.452 319.772 319.772 0 101.904-49.042 198.532-131.188 258.472-3.562 2.624-8.574 1.826-11.18-1.734a8 8 0 0 1 1.746-11.164c78.04-56.958 124.632-148.76 124.632-245.574C815.786 152.63 679.508 16.354 512 16.354c-167.506 0-303.784 136.278-303.784 303.784 0 96.83 46.584 188.638 124.614 245.606a7.99 7.99 0 1 1-4.722 14.442zM951.688 1023.634H72.314a7.992 7.992 0 0 1-7.996-7.994v-111.92c0-68.624 35.544-94.9 101.13-119.416l16.684-6.182c9.462-3.498 20.22-7.462 31.752-11.804 4.106-1.514 8.736 0.532 10.296 4.684a8.02 8.02 0 0 1-4.676 10.306c-11.554 4.34-22.35 8.304-31.836 11.818l-16.628 6.168c-61.47 22.952-90.732 44.438-90.732 104.426v103.926h863.382V903.72c0-59.988-29.258-81.474-90.73-104.426l-18.098-6.712a4272.098 4272.098 0 0 1-29.852-11.086c-4.126-1.546-6.214-6.152-4.688-10.292 1.562-4.136 6.168-6.198 10.308-4.668a6082.09 6082.09 0 0 0 29.758 11.054l18.176 6.712c65.578 24.516 101.114 50.792 101.114 119.416v111.92a7.986 7.986 0 0 1-7.99 7.996z" fill="#3A3847" /><path d="M328.132 671.246a7.99 7.99 0 0 1-7.994-7.994v-91.06a7.99 7.99 0 0 1 7.994-7.994 7.99 7.99 0 0 1 7.994 7.994v91.06a7.99 7.99 0 0 1-7.994 7.994zM695.872 671.886a7.99 7.99 0 0 1-7.996-7.996V572.16a7.99 7.99 0 0 1 7.996-7.994 7.988 7.988 0 0 1 7.992 7.994v91.73a7.988 7.988 0 0 1-7.992 7.996z" fill="#3A3847" /><path d="M695.872 623.92h-367.74c-4.418 0-7.994-3.576-7.994-7.994s3.576-7.994 7.994-7.994h367.74c4.418 0 7.992 3.576 7.992 7.994s-3.574 7.994-7.992 7.994zM312.136 671.886a8 8 0 0 1-0.312-15.99l399.724-15.988c4.184-0.498 8.118 3.264 8.304 7.682a8.01 8.01 0 0 1-7.68 8.306l-399.708 15.99h-0.328zM512.008 735.84c-0.492 0-1-0.046-1.508-0.14l-167.88-31.976a7.996 7.996 0 0 1-6.354-9.354 7.972 7.972 0 0 1 9.352-6.354l167.88 31.976a7.996 7.996 0 0 1-1.49 15.848z" fill="#3A3847" /><path d="M511.994 735.84a7.998 7.998 0 0 1-1.492-15.848l167.882-31.976c4.418-0.766 8.524 2.044 9.352 6.354a7.994 7.994 0 0 1-6.356 9.354l-167.88 31.976c-0.508 0.092-1.016 0.14-1.506 0.14zM551.972 831.772h-79.944a8.008 8.008 0 0 1-7.15-4.418l-15.988-31.978a7.99 7.99 0 0 1 3.576-10.726 8 8 0 0 1 10.726 3.576l13.78 27.558h70.068l13.77-27.558a8.002 8.002 0 0 1 10.726-3.576 8 8 0 0 1 3.578 10.726l-15.988 31.978a8.02 8.02 0 0 1-7.154 4.418z" fill="#3A3847" /><path d="M456.04 911.714c-0.992 0-1.998-0.188-2.966-0.562a8.014 8.014 0 0 1-4.458-10.398l31.976-79.944c1.632-4.108 6.34-6.106 10.392-4.464a8.014 8.014 0 0 1 4.458 10.398l-31.978 79.944a8.004 8.004 0 0 1-7.424 5.026zM567.96 911.714a8.02 8.02 0 0 1-7.434-5.028l-31.976-79.944c-1.632-4.092 0.376-8.744 4.464-10.398 4.062-1.626 8.762 0.358 10.398 4.464l31.98 79.944a8.038 8.038 0 0 1-4.468 10.398 8.096 8.096 0 0 1-2.964 0.564zM425.25 991.658a8 8 0 0 1-5.076-1.812l-97.126-79.944a8.024 8.024 0 0 1-2.498-8.71l14.262-42.784-91.748-76.446a8.014 8.014 0 0 1-1.124-11.148l63.954-79.944c2.764-3.418 7.784-4.012 11.242-1.248a8.008 8.008 0 0 1 1.25 11.242l-59.06 73.822 89.912 74.914a8.02 8.02 0 0 1 2.458 8.684l-14.248 42.75 92.886 76.446a8.026 8.026 0 0 1 1.092 11.274 8.01 8.01 0 0 1-6.176 2.904z" fill="#3A3847" /><path d="M472.036 991.658a7.976 7.976 0 0 1-6.994-4.124L305.156 699.74c-2.146-3.84-0.756-8.712 3.108-10.868a7.996 7.996 0 0 1 10.868 3.124l159.886 287.794c2.146 3.842 0.756 8.712-3.108 10.868-1.228 0.688-2.562 1-3.874 1zM598.75 991.658c-2.308 0-4.59-1-6.184-2.904a8.04 8.04 0 0 1 1.094-11.274l92.886-76.446-14.254-42.75a8.042 8.042 0 0 1 2.464-8.684l89.906-74.914-59.05-73.822a8.018 8.018 0 0 1 1.25-11.242 7.988 7.988 0 0 1 11.238 1.248l63.958 79.944a8.02 8.02 0 0 1-1.126 11.148l-91.746 76.446 14.27 42.784a8.062 8.062 0 0 1-2.496 8.71l-97.122 79.944a8.02 8.02 0 0 1-5.088 1.812z" fill="#3A3847" /><path d="M551.972 991.658a7.852 7.852 0 0 1-3.872-1 7.998 7.998 0 0 1-3.126-10.868l159.886-287.794c2.156-3.872 7.028-5.262 10.868-3.124 3.872 2.154 5.262 7.028 3.122 10.868l-159.882 287.794a7.99 7.99 0 0 1-6.996 4.124zM408.084 799.794a7.96 7.96 0 0 1-6.816-3.81 7.996 7.996 0 0 1 2.616-10.992l103.926-63.954a7.996 7.996 0 0 1 8.382 13.614l-103.924 63.956a7.91 7.91 0 0 1-4.184 1.186z" fill="#3A3847" /><path d="M615.926 799.794a7.882 7.882 0 0 1-4.184-1.188l-103.934-63.956a7.996 7.996 0 0 1 8.384-13.614l103.918 63.954a7.988 7.988 0 0 1 2.626 10.992 7.936 7.936 0 0 1-6.81 3.812zM512 991.658a7.99 7.99 0 0 1-7.996-7.994v-111.922a7.988 7.988 0 0 1 7.996-7.992 7.992 7.992 0 0 1 7.996 7.992v111.922a7.992 7.992 0 0 1-7.996 7.994zM472.028 591.944a7.99 7.99 0 0 1-7.994-7.994v-63.956a7.99 7.99 0 0 1 7.994-7.994 7.99 7.99 0 0 1 7.996 7.994v63.956a7.99 7.99 0 0 1-7.996 7.994zM551.972 591.944a7.992 7.992 0 0 1-7.996-7.994v-63.956c0-4.418 3.578-7.994 7.996-7.994s7.992 3.576 7.992 7.994v63.956a7.988 7.988 0 0 1-7.992 7.994z" fill="#3A3847" /><path d="M472.036 527.988a8.01 8.01 0 0 1-6.252-2.998 8.006 8.006 0 0 1 1.25-11.242l39.972-31.976c3.458-2.764 8.472-2.178 11.242 1.25a8.004 8.004 0 0 1-1.25 11.242l-39.97 31.978a7.992 7.992 0 0 1-4.992 1.746z" fill="#3A3847" /><path d="M551.972 527.988a7.974 7.974 0 0 1-4.996-1.748l-39.972-31.978a8.01 8.01 0 0 1-1.25-11.242c2.772-3.412 7.792-4.004 11.242-1.25l39.972 31.976a8.024 8.024 0 0 1 1.25 11.242 8.014 8.014 0 0 1-6.246 3zM551.972 480.024a7.992 7.992 0 0 1-7.996-7.996V344.12c0-4.418 3.578-7.994 7.996-7.994s7.992 3.576 7.992 7.994v127.91a7.988 7.988 0 0 1-7.992 7.994zM472.028 480.024a7.99 7.99 0 0 1-7.994-7.996V344.12a7.99 7.99 0 0 1 7.994-7.994 7.99 7.99 0 0 1 7.996 7.994v127.91a7.99 7.99 0 0 1-7.996 7.994z" fill="#3A3847" /><path d="M432.058 392.086c-26.45 0-47.966-21.516-47.966-47.966 0-26.45 21.516-47.964 47.966-47.964 26.45 0 47.966 21.516 47.966 47.964a7.99 7.99 0 0 1-7.996 7.996 7.99 7.99 0 0 1-7.994-7.996c0-17.634-14.34-31.976-31.976-31.976s-31.978 14.342-31.978 31.976c0 17.636 14.34 31.978 31.978 31.978a7.99 7.99 0 0 1 7.994 7.996 7.99 7.99 0 0 1-7.994 7.992zM591.946 392.086a7.99 7.99 0 0 1-7.996-7.994 7.99 7.99 0 0 1 7.996-7.996c17.64 0 31.976-14.34 31.976-31.978 0-17.634-14.336-31.976-31.976-31.976-17.644 0-31.98 14.342-31.98 31.976 0 4.42-3.574 7.996-7.992 7.996s-7.996-3.576-7.996-7.996c0-26.45 21.516-47.964 47.968-47.964 26.45 0 47.964 21.516 47.964 47.964 0 26.452-21.516 47.968-47.964 47.968z" fill="#3A3847" /><path d="M591.946 392.086h-7.996a7.992 7.992 0 0 1-7.996-7.994 7.992 7.992 0 0 1 7.996-7.996h7.996a7.988 7.988 0 0 1 7.992 7.996 7.988 7.988 0 0 1-7.992 7.994z" fill="#3A3847" /><path d="M440.052 392.086h-7.994a7.99 7.99 0 0 1-7.994-7.994 7.99 7.99 0 0 1 7.994-7.996h7.994a7.99 7.99 0 0 1 7.994 7.996 7.99 7.99 0 0 1-7.994 7.994z" fill="#3A3847" /><path d="M519.996 392.086h-15.99a7.99 7.99 0 0 1-7.994-7.994 7.99 7.99 0 0 1 7.994-7.996h15.99a7.988 7.988 0 0 1 7.992 7.996 7.988 7.988 0 0 1-7.992 7.994z" fill="#3A3847" /></svg>