<?xml version="1.0" standalone="no"?><!DOCTYPE svg PUBLIC "-//W3C//DTD SVG 1.1//EN" "http://www.w3.org/Graphics/SVG/1.1/DTD/svg11.dtd"><svg t="1607582374590" class="icon" viewBox="0 0 1024 1024" version="1.1" xmlns="http://www.w3.org/2000/svg" p-id="51516" xmlns:xlink="http://www.w3.org/1999/xlink" width="200" height="200"><defs><style type="text/css"></style></defs><path d="M577.2 310.9c-9 0-16.3-7.3-16.3-16.3v-83.9c0-21 17.1-38.1 38.1-38.1h126.7c21 0 38.1 17.1 38.1 38.1v83.9c0 9-7.3 16.3-16.3 16.3H577.2z" fill="#FCB32D" p-id="51517"></path><path d="M725.7 188.9c12 0 21.8 9.7 21.8 21.8v83.9H577.2v-83.9c0-12 9.8-21.8 21.8-21.8h126.7m0-32.7H599c-30 0-54.4 24.4-54.4 54.4v83.9c0 18 14.6 32.7 32.7 32.7h170.2c18 0 32.7-14.6 32.7-32.7v-83.9c-0.1-30-24.5-54.4-54.5-54.4z" fill="#4F3B80" p-id="51518"></path><path d="M713.8 294.6H577.2v-85.7c0-11 9-20 20-20h96.6c11 0 20 9 20 20v85.7z" fill="#FFE235" p-id="51519"></path><path d="M259.8 824.5c-16.2 0-29.4-13.2-29.4-29.4V557.7c0-16.2 13.2-29.4 29.4-29.4h184c16.2 0 29.4 13.2 29.4 29.4v237.4c0 16.2-13.2 29.4-29.4 29.4h-184z" fill="#FF5531" p-id="51520"></path><path d="M443.8 544.7c7.2 0 13.1 5.9 13.1 13.1v237.4c0 7.2-5.9 13.1-13.1 13.1h-184c-7.2 0-13.1-5.9-13.1-13.1V557.7c0-7.2 5.9-13.1 13.1-13.1h184m0-32.6h-184c-25.2 0-45.7 20.5-45.7 45.7v237.4c0 25.2 20.5 45.7 45.7 45.7h184c25.2 0 45.7-20.5 45.7-45.7V557.7c0-25.2-20.5-45.7-45.7-45.7z" fill="#4F3B80" p-id="51521"></path><path d="M392.7 808.2h-134c-6.6 0-12-5.4-12-12V556.7c0-6.6 5.4-12 12-12h134c6.6 0 12 5.4 12 12v239.5c0 6.6-5.4 12-12 12z" fill="#FF866B" p-id="51522"></path><path d="M569 825c-16.2 0-29.4-13.2-29.4-29.4V299.3c0-16.2 13.2-29.4 29.4-29.4h184c16.2 0 29.4 13.2 29.4 29.4v496.3c0 16.2-13.2 29.4-29.4 29.4H569z" fill="#FF5531" p-id="51523"></path><path d="M753 286.2c7.2 0 13.1 5.9 13.1 13.1v496.3c0 7.2-5.9 13.1-13.1 13.1H569c-7.2 0-13.1-5.9-13.1-13.1V299.3c0-7.2 5.9-13.1 13.1-13.1h184m0-32.6H569c-25.2 0-45.7 20.5-45.7 45.7v496.3c0 25.2 20.5 45.7 45.7 45.7h184c25.2 0 45.7-20.5 45.7-45.7V299.3c0.1-25.2-20.5-45.7-45.7-45.7z" fill="#4F3B80" p-id="51524"></path><path d="M701.8 808.6H567.9c-6.6 0-12-5.4-12-12V298.2c0-6.6 5.4-12 12-12h133.9c6.6 0 12 5.4 12 12v498.4c0 6.6-5.4 12-12 12z" fill="#FF866B" p-id="51525"></path><path d="M291.4 445.4c-14.2 0-25.7-11.7-25.7-26.1v-164c0-45.4 36-82.4 80.2-82.4h12.4c5.6 0 10.8 2.5 14.3 6.8 3.5 4.4 4.8 10 3.6 15.4-0.8 3.7-1.2 7.6-1.2 11.5 0 25 16.9 45.3 37.6 45.3 1.2 0 2.4-0.1 3.6-0.2 0.8-0.1 1.6-0.1 2.4-0.1 10.9 0 19.9 8.9 19.9 19.9v147.9c0 14.4-11.5 26.1-25.7 26.1H291.4z" fill="#FF5531" p-id="51526"></path><path d="M358.2 189.2c1.3 0 2.2 1.2 1.9 2.4-1.1 4.8-1.6 9.8-1.6 15 0 34 24.1 61.6 53.9 61.6 1.9 0 3.8-0.1 5.6-0.3h0.4c1.9 0 3.5 1.6 3.5 3.6v147.9c0 5.3-4.2 9.7-9.4 9.7H291.4c-5.2 0-9.4-4.4-9.4-9.7V255.3c0-36.3 28.7-66 63.8-66h12.4v-0.1m0-32.6h-12.4c-53.2 0-96.5 44.3-96.5 98.7v164.1c0 23.4 18.9 42.4 42.1 42.4h121.2c23.2 0 42.1-19 42.1-42.4v-148c0-20-16.2-36.2-36.2-36.2-1.4 0-2.9 0.1-4.3 0.3-0.6 0.1-1.1 0.1-1.7 0.1-11.5 0-21.3-13.2-21.3-28.9 0-2.7 0.3-5.4 0.9-8 2.3-10.3-0.2-20.9-6.8-29.2-6.7-8.2-16.5-12.9-27.1-12.9z" fill="#4F3B80" p-id="51527"></path><path d="M246.7 559.5c-9 0-16.3-7.3-16.3-16.3v-92.6c0-21 17.1-38.1 38.1-38.1h166.6c21 0 38.1 17.1 38.1 38.1v92.6c0 9-7.3 16.3-16.3 16.3H246.7z" fill="#FCB32D" p-id="51528"></path><path d="M435.1 428.7c12 0 21.8 9.7 21.8 21.8v92.6H246.7v-92.6c0-12 9.7-21.8 21.8-21.8h166.6m0-32.6H268.5c-30 0-54.4 24.4-54.4 54.4v92.6c0 18 14.6 32.7 32.7 32.7H457c18 0 32.7-14.6 32.7-32.7v-92.6c-0.2-30-24.6-54.4-54.6-54.4z" fill="#4F3B80" p-id="51529"></path><path d="M404.7 543.2h-158v-94.4c0-11 9-20 20-20h118c11 0 20 9 20 20v94.4z" fill="#FFE235" p-id="51530"></path><path d="M626.9 399.2h-2.7c-8.2 0-15-6.8-15-15v-29.9c0-8.2 6.8-15 15-15h2.7c8.2 0 15 6.7 15 15v29.9c0 8.3-6.7 15-15 15zM626.9 558.2h-2.7c-8.2 0-15-6.8-15-15V433.8c0-8.2 6.8-15 15-15h2.7c8.2 0 15 6.8 15 15v109.4c0 8.3-6.7 15-15 15z" fill="#FFFFFF" p-id="51531"></path></svg>