<?xml version="1.0" standalone="no"?><!DOCTYPE svg PUBLIC "-//W3C//DTD SVG 1.1//EN" "http://www.w3.org/Graphics/SVG/1.1/DTD/svg11.dtd"><svg t="1607582259178" class="icon" viewBox="0 0 1024 1024" version="1.1" xmlns="http://www.w3.org/2000/svg" p-id="43039" xmlns:xlink="http://www.w3.org/1999/xlink" width="200" height="200"><defs><style type="text/css"></style></defs><path d="M656.004 940L517.939 370.97c-1.302-5.367-6.709-8.662-12.076-7.36a10 10 0 0 0-7.36 7.36L360.438 940h-2.74L230 919.522C244.355 481.224 268.003 202.716 300.943 84h404.683C739.901 202.716 769.36 481.224 794 919.522L656.745 940h-0.741z" fill="#6E93FF" p-id="43040"></path><path d="M714 121.837L573.87 174 521 150.72 701.68 88z" fill="#93AEFF" p-id="43041"></path><path d="M584 129.223c37.41 41.503 51.757 111.076 43.04 208.717l36.281 8.06c9.346-99.201-5.762-174.868-45.326-227L584 129.223z" fill="#9FB7FF" p-id="43042"></path><path d="M319 88l196.696 63L696 88z" fill="#3D6EFC" p-id="43043"></path><path d="M253.81 923C274.968 526.967 302.03 247.943 335 85.929L300.072 84C260.394 277.308 238.037 556.975 233 923h20.81z" fill="#AFC3FF" p-id="43044"></path><path d="M273 283c51.88-10.267 78.88-35.167 81-74.7L285.201 190 273 283zM747 286c-47.875-11.638-72.875-37.223-75-76.756L734.774 193 747 286z" fill="#3D6EFC" p-id="43045"></path><path d="M765.23 923C747.542 550.511 718.132 271.487 677 85.929L711.86 84c44.4 193.308 69.113 472.975 74.14 839h-20.77z" fill="#537FFF" p-id="43046"></path><path d="M315 200.423l-10.158 75.523C291.904 280.122 281.957 282.806 275 284l10.435-88L315 200.423z" fill="#5D87FF" p-id="43047"></path><path d="M699.51 202.719l9.99 70.129 24.645 6.761h6.459L724 192z" fill="#235BFF" p-id="43048"></path><path d="M661.324 932.24l125.328-18.7c-24.19-427.945-53.019-702.344-86.32-822.54H306.296C274.437 211.212 251.35 485.64 237.2 913.587l117.859 18.9L491.7 369.32a17 17 0 0 1 12.513-12.513c9.124-2.213 18.315 3.388 20.529 12.513l136.582 562.92z m-12.123 9.41L511.136 372.62a3 3 0 0 0-5.83 0L367.24 941.65a7 7 0 0 1-6.803 5.35h-2.74a7 7 0 0 1-1.108-0.088L228.892 926.433a7 7 0 0 1-5.888-7.14C237.379 480.394 261.052 201.586 294.197 82.127A7 7 0 0 1 300.943 77h404.683a7 7 0 0 1 6.725 5.058c34.477 119.416 63.965 398.208 88.638 837.07a7 7 0 0 1-5.956 7.317l-137.255 20.478a7 7 0 0 1-1.033 0.077h-0.741a7 7 0 0 1-6.803-5.35z" fill="#333333" p-id="43049"></path><path d="M292 118.888L574.269 209 584 174.052 301.56 86z" fill="#9FB7FF" p-id="43050"></path><path d="M577.872 174.232L302.55 90.785a5 5 0 0 1 2.9-9.57l280 84.864a5 5 0 0 1 3.367 6.127l-10.621 38.135a5 5 0 0 1-9.633-2.682l9.309-33.427z" fill="#333333" p-id="43051"></path><path d="M290.482 123.764a5 5 0 1 1 3.036-9.528l251 80a5 5 0 0 1-3.036 9.528l-251-80z" fill="#333333" p-id="43052"></path><path d="M557 204m-5 0a5 5 0 1 0 10 0 5 5 0 1 0-10 0Z" fill="#333333" p-id="43053"></path><path d="M519.566 153.749a5 5 0 0 1-3.132-9.498l185-61a5 5 0 0 1 3.132 9.498l-185 61zM579.602 173.737a5 5 0 1 1-3.204-9.474l24.141-8.162a5 5 0 0 1 3.203 9.473l-24.14 8.163z m60.402-20.424a5 5 0 0 1-3.203-9.473l78.597-26.577a5 5 0 1 1 3.204 9.474l-78.598 26.576z" fill="#333333" p-id="43054"></path><path d="M660.073 341.117a5 5 0 1 1-2.146 9.766l-32.654-7.175a5 5 0 0 1-3.914-5.24c2.658-37.19 1.717-74.498-2.823-111.93-4.466-36.812-17.587-68.217-39.375-94.335a5 5 0 0 1 7.678-6.406c23.052 27.632 36.93 60.85 41.624 99.537 4.442 36.619 5.497 73.13 3.163 109.532l28.447 6.25z" fill="#333333" p-id="43055"></path><path d="M613.993 121.99a5 5 0 0 1 8.014-5.98c23.224 31.111 37.188 64.202 41.831 99.214 4.567 34.433 6.102 72.417 4.61 113.955a5 5 0 1 1-9.993-0.358c1.472-41.002-0.04-78.43-4.53-112.282-4.413-33.274-17.704-64.77-39.932-94.548zM502.93 335.838a5 5 0 0 1-9.86-1.676c6.575-38.658 6.575-78.778-0.009-120.38a5 5 0 0 1 9.878-1.563c6.75 42.657 6.75 83.87-0.01 123.62zM533.209 332.765a5 5 0 1 1-9.63-2.695c3.707-13.247 5.182-27.258 4.417-42.05a5 5 0 1 1 9.986-0.517c0.82 15.857-0.768 30.951-4.773 45.262zM481 111.5a5 5 0 1 1 0-10h62a5 5 0 1 1 0 10h-62zM399.728 152.625a5 5 0 1 1-9.456-3.25l11-32a5 5 0 1 1 9.456 3.25l-11 32zM442.728 164.625a5 5 0 1 1-9.456-3.25l11-32a5 5 0 1 1 9.456 3.25l-11 32zM347.02 210.555a5 5 0 1 1 9.96 0.89c-3.717 41.638-24.559 67.152-61.897 75.436a5 5 0 1 1-2.166-9.762c32.936-7.308 50.761-29.128 54.103-66.564zM681.203 211.323a5 5 0 1 0-9.979-0.646c-2.829 43.657 21.073 69.817 70.023 77.266a5 5 0 0 0 1.504-9.886c-44.068-6.706-64.022-28.546-61.548-66.734zM281.98 194.895a5 5 0 1 1 2.04-9.79l48 10a5 5 0 1 1-2.04 9.79l-48-10zM726.72 186.166a5 5 0 1 1 2.56 9.668l-34 9a5 5 0 1 1-2.56-9.668l34-9zM310.117 129.924a5 5 0 1 1 9.766 2.152c-4.038 18.328-7.029 32.618-8.97 42.856a5 5 0 0 1-9.825-1.864c1.963-10.35 4.972-24.727 9.03-43.144zM274.988 589.35a5 5 0 0 1-9.976-0.7l13-185a5 5 0 0 1 9.976 0.7l-13 185zM344.931 934.358a5 5 0 0 1-9.862-1.653l14-83.531a5 5 0 0 1 9.862 1.652l-14 83.532zM673.069 935.358a5 5 0 0 0 9.862-1.653l-14-83.531a5 5 0 0 0-9.862 1.652l14 83.532z" fill="#333333" p-id="43056"></path></svg>