<?xml version="1.0" standalone="no"?><!DOCTYPE svg PUBLIC "-//W3C//DTD SVG 1.1//EN" "http://www.w3.org/Graphics/SVG/1.1/DTD/svg11.dtd"><svg t="1607583328374" class="icon" viewBox="0 0 1024 1024" version="1.1" xmlns="http://www.w3.org/2000/svg" p-id="87155" xmlns:xlink="http://www.w3.org/1999/xlink" width="200" height="200"><defs><style type="text/css"></style></defs><path d="M942.1 547.8c0 144.6-77.9 270.9-194 339.4-58.6 35-127.1 54.9-200.2 54.9-15.8 0-31.2-1-46.5-2.8-180.5-21.2-323.8-164.4-345-345-1.8-15.3-2.8-30.7-2.8-46.5 0-64.2 15.4-124.8 42.9-178.6 65.1-128 197.9-215.7 351.4-215.7 15.8 0 31.2 1 46.5 2.8 180.5 21.2 323.8 164.4 345 345 1.7 15.3 2.7 30.8 2.7 46.5z" fill="#FF6C17" p-id="87156"></path><path d="M512 960c-17.3 0-35.1-1.1-52.8-3.2-206.5-24.3-367.8-185.5-392-392C65.1 547 64 529.3 64 512c0-71.3 16.4-139.6 48.7-202.9l3.8-7.5 8.3-1.8c35.2-7.8 72-11.7 109.4-11.7 94 0 186.2 25.5 266.6 73.7C566.7 401 624 455.6 666.7 519.4c57.1 85.5 87.2 185.2 87.2 288.2 0 25.4-1.9 51.4-5.7 77.2l-1.2 8.4-7.3 4.4C671.2 938.4 592.5 960 512 960zM140.9 333c-27.2 56.1-41 116.3-41 179 0 16.1 1 32 2.9 48.6 22.3 190 170.6 338.3 360.6 360.6 89.4 10.6 175.7-7.6 250.5-50.1 2.8-21.3 4.2-42.6 4.2-63.5 0-96-28.1-188.7-81.2-268.3-39.7-59.5-93.1-110.3-154.5-146.9-74.8-44.9-160.6-68.6-248.2-68.6-31.9 0-63.2 3.1-93.3 9.2z" fill="#331212" p-id="87157"></path><path d="M135.7 583.7c-17.3 0-35.1-1.1-52.8-3.2l4.2-35.6c16.6 2 32.5 2.9 48.6 2.9 136.6 0 264.1-67.6 341.1-180.8 46.5-68.5 71.1-148.4 71.1-231.3 0-16.2-1-32.1-2.9-48.6l35.6-4.2c2.1 17.7 3.2 35.5 3.2 52.8 0 90.1-26.7 177-77.3 251.5-83.7 123-222.3 196.5-370.8 196.5zM512 960c-17.3 0-35.1-1.1-52.8-3.2l-14-1.7-1.7-14c-2.1-17.7-3.2-35.5-3.2-52.8 0-151.1 75.4-290.9 201.6-373.9 73.2-48.5 158.4-74.1 246.4-74.1 17.4 0 34.7 1 52.8 3.2l14 1.6 1.7 14c2.1 18 3.2 35.3 3.2 52.8 0 157.7-84.5 305.5-220.4 385.7C671.2 938.4 592.5 960 512 960z m-34.4-37.3c11.6 1 23.1 1.5 34.4 1.5 74 0 146.4-19.8 209.3-57.3C846.4 793 924.2 657.1 924.2 512c0-11.5-0.5-22.8-1.5-34.4-11.6-1-23-1.5-34.4-1.5-81 0-159.3 23.6-226.6 68.2-116.2 76.4-185.5 204.9-185.5 344 0 11.3 0.4 22.8 1.4 34.4z" fill="#331212" p-id="87158"></path><path d="M512 960c-17.3 0-35.1-1.1-52.8-3.2-206.5-24.3-367.8-185.5-392-392C65.1 547 64 529.3 64 512c0-71.3 16.4-139.6 48.7-202.9C189.6 157.9 342.6 64 512 64c17.3 0 35 1.1 52.8 3.2 206.6 24.2 367.8 185.5 392 392 2.1 18 3.2 35.2 3.2 52.8 0 157.7-84.5 305.5-220.4 385.7C671.2 938.4 592.5 960 512 960z m0-860.2c-155.9 0-296.6 86.4-367.3 225.5-29.8 58.3-44.9 121.1-44.9 186.7 0 16.1 1 32 2.9 48.6 22.3 190 170.6 338.3 360.6 360.6 92.3 11 181.5-8.8 257.9-54.4 125.2-73.8 203-209.7 203-354.8 0-16.1-1-32-2.9-48.6C899 273.3 750.7 125.1 560.7 102.8c-16.7-2-32.6-3-48.7-3z" fill="#331212" p-id="87159"></path></svg>