<?xml version="1.0" standalone="no"?><!DOCTYPE svg PUBLIC "-//W3C//DTD SVG 1.1//EN" "http://www.w3.org/Graphics/SVG/1.1/DTD/svg11.dtd"><svg t="1607582852939" class="icon" viewBox="0 0 1024 1024" version="1.1" xmlns="http://www.w3.org/2000/svg" p-id="75714" xmlns:xlink="http://www.w3.org/1999/xlink" width="200" height="200"><defs><style type="text/css"></style></defs><path d="M720.896 335.872c0-177.152-143.36-320.512-320.512-320.512-178.176 0-323.584 145.408-323.584 323.584v247.808h644.096V335.872z" fill="#A37023" p-id="75715"></path><path d="M115.712 366.592c0-179.2 144.384-323.584 323.584-323.584 61.44 0 119.808 17.408 167.936 48.128-55.296-47.104-128-75.776-206.848-75.776-178.176 0-323.584 145.408-323.584 323.584v247.808h38.912V366.592z" fill="#BC9151" p-id="75716"></path><path d="M720.896 598.016H76.8c-6.144 0-11.264-5.12-11.264-11.264V338.944C65.536 154.624 216.064 4.096 400.384 4.096 583.68 4.096 732.16 152.576 732.16 335.872v250.88c0 6.144-5.12 11.264-11.264 11.264zM88.064 575.488h621.568V335.872c0-171.008-139.264-309.248-309.248-309.248-172.032 0-312.32 140.288-312.32 312.32v236.544z" fill="#323333" p-id="75717"></path><path d="M676.864 1012.736H138.24V671.744c0-67.584 55.296-122.88 122.88-122.88h293.888c67.584 0 122.88 55.296 122.88 122.88v340.992z" fill="#6AC2BC" p-id="75718"></path><path d="M593.92 556.032c9.216 17.408 15.36 37.888 15.36 59.392v340.992h-471.04V1013.76h539.648V671.744c-1.024-53.248-35.84-99.328-83.968-115.712z" fill="#35ADA5" p-id="75719"></path><path d="M676.864 1024H138.24c-6.144 0-11.264-5.12-11.264-11.264V671.744c0-73.728 60.416-133.12 133.12-133.12h293.888c73.728 0 133.12 60.416 133.12 133.12v340.992c1.024 6.144-4.096 11.264-10.24 11.264z m-528.384-22.528H665.6V671.744c0-61.44-50.176-111.616-111.616-111.616H260.096c-61.44 0-111.616 50.176-111.616 111.616v329.728z" fill="#323333" p-id="75720"></path><path d="M322.56 645.12h-1.024c-3.072 0-6.144-2.048-8.192-5.12l-52.224-84.992c-2.048-3.072-2.048-8.192 0-11.264 2.048-3.072 6.144-6.144 9.216-6.144h136.192c4.096 0 8.192 3.072 10.24 7.168 2.048 4.096 1.024 9.216-2.048 12.288l-84.992 84.992c-1.024 2.048-4.096 3.072-7.168 3.072z m-31.744-83.968l33.792 56.32 56.32-56.32h-90.112z" fill="#323333" p-id="75721"></path><path d="M476.16 645.12c-3.072 0-6.144-1.024-8.192-3.072l-84.992-84.992c-3.072-3.072-4.096-8.192-2.048-12.288 2.048-4.096 6.144-7.168 10.24-7.168h136.192c4.096 0 8.192 2.048 9.216 6.144 2.048 3.072 2.048 8.192 0 11.264l-52.224 84.992c-2.048 3.072-5.12 5.12-8.192 5.12z m-58.368-83.968l56.32 56.32 33.792-56.32h-90.112z" fill="#323333" p-id="75722"></path><path d="M399.36 680.96m-25.6 0a25.6 25.6 0 1 0 51.2 0 25.6 25.6 0 1 0-51.2 0Z" fill="#DE5A59" p-id="75723"></path><path d="M399.36 786.432m-25.6 0a25.6 25.6 0 1 0 51.2 0 25.6 25.6 0 1 0-51.2 0Z" fill="#DE5A59" p-id="75724"></path><path d="M399.36 717.824c-20.48 0-36.864-16.384-36.864-36.864s16.384-36.864 36.864-36.864 36.864 16.384 36.864 36.864-16.384 36.864-36.864 36.864z m0-51.2c-8.192 0-14.336 6.144-14.336 14.336 0 8.192 6.144 14.336 14.336 14.336 8.192 0 14.336-6.144 14.336-14.336 0-8.192-6.144-14.336-14.336-14.336zM399.36 822.272c-20.48 0-36.864-16.384-36.864-36.864s16.384-36.864 36.864-36.864 36.864 16.384 36.864 36.864-16.384 36.864-36.864 36.864z m0-51.2c-8.192 0-14.336 6.144-14.336 14.336 0 8.192 6.144 14.336 14.336 14.336 8.192 0 14.336-6.144 14.336-14.336 0-7.168-6.144-14.336-14.336-14.336z" fill="#323333" p-id="75725"></path><path d="M607.232 641.024h330.752v371.712H607.232z" fill="#EEC51B" p-id="75726"></path><path d="M879.616 641.024V942.08c0 9.216-7.168 15.36-15.36 15.36h-256v54.272h330.752V641.024h-59.392z" fill="#EAAC19" p-id="75727"></path><path d="M937.984 1024H607.232c-6.144 0-11.264-5.12-11.264-11.264V641.024c0-6.144 5.12-11.264 11.264-11.264h330.752c6.144 0 11.264 5.12 11.264 11.264v371.712c0 6.144-5.12 11.264-11.264 11.264z m-319.488-22.528h309.248V652.288H618.496v349.184z" fill="#323333" p-id="75728"></path><path d="M607.232 958.464H665.6v54.272h-58.368z" fill="#C5C4C7" p-id="75729"></path><path d="M664.576 1024h-58.368c-6.144 0-11.264-5.12-11.264-11.264V641.024c0-6.144 5.12-11.264 11.264-11.264h58.368c6.144 0 11.264 5.12 11.264 11.264v371.712c0 6.144-5.12 11.264-11.264 11.264z m-46.08-22.528h35.84V652.288h-35.84v349.184zM789.504 775.168l-27.648-53.248c-6.144 12.288-10.24 19.456-14.336 21.504-2.048 1.024-3.072 1.024-5.12 0s-3.072-2.048-4.096-3.072c-1.024-2.048-1.024-4.096 0-5.12 1.024-2.048 2.048-4.096 5.12-7.168 3.072-5.12 6.144-9.216 8.192-13.312 2.048-4.096 3.072-8.192 3.072-12.288 1.024-4.096 1.024-7.168 1.024-8.192 0-1.024 1.024-2.048 3.072-3.072 2.048-1.024 4.096-1.024 6.144 0 2.048 1.024 4.096 3.072 5.12 6.144l34.816 66.56c4.096 8.192 3.072 13.312-2.048 16.384-2.048 1.024-5.12 1.024-7.168 1.024-3.072-1.024-5.12-3.072-6.144-6.144zM743.424 925.696H778.24c3.072 0 6.144 1.024 8.192 2.048 2.048 1.024 3.072 3.072 3.072 6.144 0 2.048-1.024 4.096-2.048 5.12-1.024 1.024-4.096 2.048-6.144 2.048h-48.128c-3.072 0-6.144-1.024-8.192-3.072-2.048-2.048-3.072-4.096-3.072-6.144 0-2.048 1.024-4.096 2.048-6.144 1.024-3.072 2.048-5.12 4.096-6.144l15.36-15.36c5.12-4.096 8.192-7.168 10.24-8.192 4.096-2.048 6.144-5.12 9.216-7.168 2.048-3.072 4.096-5.12 5.12-8.192 1.024-3.072 2.048-5.12 2.048-8.192 0-3.072-1.024-5.12-2.048-7.168-1.024-2.048-3.072-4.096-5.12-5.12-2.048-1.024-5.12-2.048-7.168-2.048-6.144 0-10.24 2.048-13.312 7.168 0 1.024-1.024 2.048-2.048 5.12s-2.048 5.12-3.072 7.168c-1.024 2.048-3.072 2.048-6.144 2.048-2.048 0-4.096-1.024-5.12-2.048-1.024-1.024-2.048-3.072-2.048-6.144s1.024-6.144 2.048-9.216c1.024-3.072 3.072-6.144 6.144-9.216 3.072-3.072 6.144-5.12 10.24-6.144 4.096-2.048 9.216-2.048 14.336-2.048 7.168 0 12.288 1.024 17.408 3.072 3.072 1.024 6.144 3.072 8.192 6.144 2.048 2.048 4.096 5.12 5.12 8.192 1.024 3.072 2.048 6.144 2.048 10.24 0 5.12-1.024 10.24-4.096 14.336-3.072 4.096-5.12 8.192-8.192 10.24-3.072 2.048-7.168 6.144-14.336 12.288-6.144 5.12-11.264 9.216-13.312 12.288-3.072 1.024-4.096 2.048-6.144 4.096zM859.136 832.512c4.096 1.024 7.168 1.024 11.264 0 3.072-1.024 6.144-4.096 7.168-8.192 1.024-3.072 1.024-6.144-1.024-9.216-1.024-3.072-4.096-5.12-8.192-6.144-2.048-1.024-5.12-1.024-6.144-1.024-2.048 0-3.072 1.024-5.12 1.024-1.024 1.024-3.072 2.048-4.096 4.096-1.024 2.048-3.072 3.072-4.096 4.096-1.024 1.024-2.048 1.024-3.072 1.024h-4.096c-2.048-1.024-3.072-2.048-4.096-3.072-1.024-2.048-1.024-4.096 0-6.144 1.024-2.048 2.048-4.096 4.096-6.144 2.048-2.048 5.12-4.096 8.192-5.12 3.072-1.024 7.168-2.048 11.264-2.048 4.096 0 8.192 1.024 13.312 2.048 4.096 1.024 7.168 3.072 10.24 5.12 3.072 2.048 5.12 5.12 7.168 7.168 2.048 3.072 3.072 6.144 3.072 9.216 0 3.072 0 6.144-1.024 9.216-1.024 4.096-3.072 7.168-6.144 10.24-3.072 2.048-6.144 4.096-10.24 6.144 3.072 3.072 5.12 6.144 6.144 8.192l3.072 9.216c0 3.072 0 6.144-1.024 9.216-1.024 4.096-3.072 7.168-6.144 10.24-3.072 3.072-6.144 5.12-10.24 7.168-4.096 2.048-8.192 3.072-12.288 3.072-4.096 0-9.216 0-14.336-2.048-5.12-2.048-9.216-4.096-12.288-7.168-3.072-3.072-6.144-6.144-7.168-10.24-2.048-3.072-3.072-7.168-3.072-10.24v-8.192c1.024-2.048 2.048-4.096 4.096-5.12 2.048-1.024 4.096-1.024 6.144 0 1.024 0 2.048 1.024 3.072 2.048 1.024 1.024 1.024 2.048 1.024 3.072 0 6.144 1.024 11.264 3.072 15.36 2.048 4.096 4.096 6.144 9.216 7.168 3.072 1.024 5.12 1.024 8.192 1.024 3.072 0 5.12-2.048 8.192-4.096 2.048-2.048 4.096-5.12 5.12-8.192 2.048-5.12 1.024-9.216 0-12.288-2.048-4.096-5.12-6.144-10.24-8.192-1.024 0-2.048-1.024-4.096-1.024s-3.072-1.024-3.072-1.024c-2.048-1.024-4.096-2.048-5.12-3.072-1.024-2.048-1.024-3.072 0-5.12s2.048-3.072 4.096-4.096c2.048-1.024 4.096-1.024 7.168 0l2.048 2.048z" fill="#323333" p-id="75730"></path><path d="M621.568 344.064c0 121.856-99.328 221.184-221.184 221.184-123.904 0-223.232-100.352-223.232-223.232V223.232c135.168 99.328 308.224 108.544 445.44 0v120.832z" fill="#F7D6B5" p-id="75731"></path><path d="M583.68 249.856v64.512c0 121.856-99.328 221.184-221.184 221.184-41.984 0-81.92-12.288-115.712-32.768 39.936 37.888 94.208 61.44 154.624 61.44 121.856 0 221.184-99.328 221.184-221.184V223.232c-13.312 10.24-26.624 18.432-38.912 26.624z" fill="#F2BE8A" p-id="75732"></path><path d="M360.448 436.224H246.784c-6.144 0-11.264-5.12-11.264-11.264v-67.584c0-6.144 5.12-11.264 11.264-11.264h113.664c6.144 0 11.264 5.12 11.264 11.264v67.584c0 6.144-5.12 11.264-11.264 11.264z m-102.4-22.528h92.16V368.64h-92.16v45.056zM551.936 436.224H438.272c-6.144 0-11.264-5.12-11.264-11.264v-67.584c0-6.144 5.12-11.264 11.264-11.264h113.664c6.144 0 11.264 5.12 11.264 11.264v67.584c0 6.144-5.12 11.264-11.264 11.264z m-103.424-22.528h92.16V368.64h-92.16v45.056z" fill="#323333" p-id="75733"></path><path d="M438.272 402.432h-76.8c-6.144 0-11.264-5.12-11.264-11.264 0-6.144 5.12-11.264 11.264-11.264h76.8c6.144 0 11.264 5.12 11.264 11.264-1.024 6.144-6.144 11.264-11.264 11.264z" fill="#323333" p-id="75734"></path><path d="M400.384 576.512c-129.024 0-234.496-105.472-234.496-234.496V223.232c0-4.096 2.048-8.192 6.144-10.24 4.096-2.048 8.192-1.024 11.264 1.024 67.584 49.152 144.384 75.776 221.184 75.776 75.776 0 148.48-26.624 210.944-75.776 3.072-3.072 8.192-3.072 11.264-1.024 4.096 2.048 6.144 6.144 6.144 10.24v120.832c0 128-104.448 232.448-232.448 232.448zM187.392 244.736v97.28c0 116.736 95.232 212.992 212.992 212.992 115.712 0 209.92-94.208 209.92-209.92V245.76c-61.44 44.032-133.12 66.56-206.848 66.56-73.728 0-148.48-23.552-216.064-67.584z" fill="#323333" p-id="75735"></path></svg>