<?xml version="1.0" standalone="no"?><!DOCTYPE svg PUBLIC "-//W3C//DTD SVG 1.1//EN" "http://www.w3.org/Graphics/SVG/1.1/DTD/svg11.dtd"><svg class="icon" width="200px" height="200.00px" viewBox="0 0 1024 1024" version="1.1" xmlns="http://www.w3.org/2000/svg"><path d="M832 224v416H496c-8.96 0-16-7.04-16-16s7.04-16 16-16H800V256H224v352h48c8.96 0 16 7.04 16 16s-7.04 16-16 16H192V224h640z" fill="#2D2220" /><path d="M448 256h352v352H448zM384 256h32v352h-32zM320 256h32v352h-32zM32 896h960v32H32z" fill="#FFD561" /><path d="M736 176c0 8.96-7.04 16-16 16h-256c-8.96 0-16-7.04-16-16s7.04-16 16-16h256c8.96 0 16 7.04 16 16z" fill="#2D2220" /><path d="M987.52 847.68l-96-160a31.2 31.2 0 0 0-7.36-8.32c7.04-9.28 11.84-21.76 11.84-39.36V224s0-64-64-64h-64 16c-8.96 0-16 7.04-16 16s7.04 16 16 16H832c25.92 0 31.68 17.6 32 32v416c0 25.92-17.6 31.68-32 32H192c-25.92 0-31.68-17.6-32-32V224c0-25.92 17.6-31.68 32-32h528c8.928 0 16-7.04 16-16s-7.072-16-16-16H192S128 160 128 224v416s0 21.12 12.16 39.04c-2.88 2.24-5.76 5.12-7.68 8.672l-96 160c-5.76 9.6-6.08 22.048-0.32 32 5.76 10.208 16.32 16.288 27.84 16.288h896c11.52 0 22.08-6.08 27.84-16.32 5.76-9.92 5.44-22.4-0.32-32zM64 864l96-160h704l96 160H64z" fill="#2D2220" /><path d="M448 624a16 16 0 0 0-16-16h-96a16 16 0 0 0 0 32h96a16 16 0 0 0 16-16zM608 816a16 16 0 0 0-16-16h-416a16 16 0 0 0 0 32h416a16 16 0 0 0 16-16zM736 816a16 16 0 0 0-16-16h-32a16 16 0 0 0 0 32h32a16 16 0 0 0 16-16zM864 816a16 16 0 0 0-16-16h-32a16 16 0 0 0 0 32h32a16 16 0 0 0 16-16zM800 752a16 16 0 0 0-16-16h-288a16 16 0 0 0 0 32h288a16 16 0 0 0 16-16zM416 752a16 16 0 0 0-16-16h-32a16 16 0 0 0 0 32h32a16 16 0 0 0 16-16zM288 752a16 16 0 0 0-16-16h-32a16 16 0 0 0 0 32h32a16 16 0 0 0 16-16z" fill="#2D2220" /></svg>