<?xml version="1.0" standalone="no"?><!DOCTYPE svg PUBLIC "-//W3C//DTD SVG 1.1//EN" "http://www.w3.org/Graphics/SVG/1.1/DTD/svg11.dtd"><svg t="1607582909927" class="icon" viewBox="0 0 1024 1024" version="1.1" xmlns="http://www.w3.org/2000/svg" p-id="77289" xmlns:xlink="http://www.w3.org/1999/xlink" width="200" height="200"><defs><style type="text/css"></style></defs><path d="M350.3 123.49l-189.19 33.36a67.08 67.08 0 0 0-54.35 77.62l115.14 653a66.85 66.85 0 0 0 65.89 55.38 67.71 67.71 0 0 0 11.73-1l61.66-10.87a45.41 45.41 0 0 1-10.89-29.53z" fill="#AEF0FF" p-id="77290"></path><path d="M912.74 77H395.92a45.68 45.68 0 0 0-45.62 45.62v778.76A45.7 45.7 0 0 0 395.92 947h516.82a5.53 5.53 0 0 0 5.53-5.53V82.53a5.53 5.53 0 0 0-5.53-5.53zM771.79 340h-256V216h256z" fill="#8a8a8a" p-id="77291"></path><path d="M515.77 216.03H771.8v124.02H515.77z" fill="#F9DB91" p-id="77292"></path><path d="M912.74 64H395.92a58.63 58.63 0 0 0-57.72 48.42L158.86 144A80 80 0 0 0 94 236.72l115.14 653a79.92 79.92 0 0 0 92.68 64.89l54.88-9.68A58.4 58.4 0 0 0 395.92 960h516.82a18.53 18.53 0 0 0 18.53-18.53V82.53A18.53 18.53 0 0 0 912.74 64zM297.26 929a54.69 54.69 0 0 1-9.47 0.83 53.87 53.87 0 0 1-53.09-44.64l-115.14-653a54 54 0 0 1 43.8-62.56L337.3 139v60.5c-33.52 2.39-60 28.61-60 60.51s26.49 58.12 60 60.51v47c-33.52 2.39-60 28.61-60 60.51s26.49 58.12 60 60.51v47c-33.52 2.39-60 28.61-60 60.51s26.49 58.12 60 60.51v47c-33.52 2.39-60 28.61-60 60.51s26.49 58.12 60 60.51v76.86a58.51 58.51 0 0 0 3.48 19.93z m40-703.39v68.84c-19.16-2.19-34-16.78-34-34.42s14.88-32.26 34.04-34.45z m0 168v68.84c-19.16-2.19-34-16.78-34-34.42s14.88-32.26 34.04-34.45z m0 168v68.83c-19.16-2.19-34-16.78-34-34.42s14.88-32.25 34.04-34.44z m0 168v68.83c-19.16-2.19-34-16.78-34-34.42s14.88-32.25 34.04-34.44zM905.27 934H395.92a32.66 32.66 0 0 1-32.62-32.62v-166.6c10.81 6.18 18 17 18 29.22a31.29 31.29 0 0 1-4.79 16.66 13 13 0 0 0 22.12 13.67 57.69 57.69 0 0 0 8.66-30.33c0-26.61-18.43-49.26-44-57.44V566.78c10.81 6.18 18 17 18 29.22a31.29 31.29 0 0 1-4.79 16.66 13 13 0 0 0 22.12 13.67 57.69 57.69 0 0 0 8.67-30.33c0-26.61-18.43-49.26-44-57.44V398.78c10.81 6.18 18 17 18 29.22a31.28 31.28 0 0 1-4.79 16.66 13 13 0 0 0 22.12 13.67 57.69 57.69 0 0 0 8.67-30.33c0-26.61-18.43-49.26-44-57.44V230.78c10.81 6.18 18 17 18 29.22a31.28 31.28 0 0 1-4.79 16.66 13 13 0 0 0 22.12 13.67 57.69 57.69 0 0 0 8.67-30.33c0-26.61-18.43-49.26-44-57.44v-79.94A32.66 32.66 0 0 1 395.92 90h509.35z" fill="#512C56" p-id="77293"></path><path d="M506.72 353h274.12a4 4 0 0 0 4-4V207a4 4 0 0 0-4-4H506.72a4 4 0 0 0-4 4v142.1a4 4 0 0 0 4 3.9z m22-124h230v98h-230zM732.29 697.81h-177a13 13 0 1 0 0 26h177a13 13 0 0 0 0-26zM732.29 789.85h-177a13 13 0 0 0 0 26h177a13 13 0 0 0 0-26z" fill="#512C56" p-id="77294"></path></svg>