<?xml version="1.0" standalone="no"?><!DOCTYPE svg PUBLIC "-//W3C//DTD SVG 1.1//EN" "http://www.w3.org/Graphics/SVG/1.1/DTD/svg11.dtd"><svg t="1607585753144" class="icon" viewBox="0 0 1024 1024" version="1.1" xmlns="http://www.w3.org/2000/svg" p-id="29582" xmlns:xlink="http://www.w3.org/1999/xlink" width="200" height="200"><defs><style type="text/css"></style></defs><path d="M225.28 368.64h573.44c67.584 0 122.88 55.296 122.88 122.88v409.6c0 67.584-55.296 122.88-122.88 122.88H225.28c-67.584 0-122.88-55.296-122.88-122.88V491.52c0-67.584 55.296-122.88 122.88-122.88z" fill="#EE4646" p-id="29583"></path><path d="M409.6 491.52h204.8v532.48H409.6V491.52z" fill="#DDBB55" p-id="29584"></path><path d="M665.6 14.336l-122.88 71.68c-49.152 28.672-65.536 90.112-36.864 137.216l20.48 34.816c28.672 49.152 90.112 65.536 139.264 36.864l122.88-71.68c49.152-28.672 65.536-90.112 36.864-137.216l-20.48-34.816C778.24 2.048 714.752-14.336 665.6 14.336z" fill="#FFDD66" p-id="29585"></path><path d="M423.936 12.288l223.232 139.264c45.056 26.624 59.392 81.92 34.816 126.976l-18.432 32.768c-26.624 45.056-81.92 59.392-126.976 34.816l-225.28-141.312c-45.056-26.624-59.392-81.92-34.816-126.976l18.432-32.768C321.536 2.048 378.88-12.288 423.936 12.288z" fill="#957400" opacity=".25" p-id="29586"></path><path d="M358.4 14.336l247.808 153.6c49.152 28.672 65.536 90.112 36.864 139.264l-20.48 34.816c-28.672 49.152-90.112 65.536-139.264 36.864L235.52 225.28C186.368 198.656 169.984 135.168 196.608 86.016l20.48-34.816C245.76 2.048 309.248-14.336 358.4 14.336z" fill="#EECC33" p-id="29587"></path><path d="M102.4 286.72h819.2c57.344 0 102.4 45.056 102.4 102.4v40.96c0 57.344-45.056 102.4-102.4 102.4H102.4c-57.344 0-102.4-45.056-102.4-102.4v-40.96c0-55.296 45.056-102.4 102.4-102.4z" fill="#D34242" opacity=".25" p-id="29588"></path><path d="M102.4 245.76h819.2c57.344 0 102.4 45.056 102.4 102.4v40.96c0 57.344-45.056 102.4-102.4 102.4H102.4c-57.344 0-102.4-45.056-102.4-102.4v-40.96c0-55.296 45.056-102.4 102.4-102.4z" fill="#FF4D4D" p-id="29589"></path><path d="M409.6 245.76h204.8v245.76H409.6V245.76z" fill="#FFDD66" p-id="29590"></path></svg>