<?xml version="1.0" standalone="no"?><!DOCTYPE svg PUBLIC "-//W3C//DTD SVG 1.1//EN" "http://www.w3.org/Graphics/SVG/1.1/DTD/svg11.dtd"><svg t="1607579913036" class="icon" viewBox="0 0 1024 1024" version="1.1" xmlns="http://www.w3.org/2000/svg" p-id="19412" xmlns:xlink="http://www.w3.org/1999/xlink" width="200" height="200"><defs><style type="text/css"></style></defs><path d="M830.464 836.096c-46.592-46.08-104.96-78.336-168.448-95.232-15.872-4.096-27.136-17.92-29.184-33.792-0.512-5.12-0.512-11.264-0.512-16.384 0-93.184 75.776-168.96 168.96-168.96 179.2 0 233.984 244.736 72.704 322.048-14.848 7.168-32.256 4.096-43.52-7.68zM363.008 777.728l47.104-527.36c1.536-19.968 18.432-35.328 38.4-35.328h25.6c19.968 0 36.864 15.36 38.4 35.328l42.496 479.232c1.536 18.944-10.752 36.864-29.184 40.96-36.864 8.704-72.192 23.552-104.448 43.52-27.136 16.384-60.928-5.12-58.368-36.352z" fill="#FFD60B" p-id="19413"></path><path d="M555.008 729.088l-42.496-479.232c-1.536-19.456-18.432-34.816-38.4-34.816h-12.8v578.048c20.48-9.216 42.496-16.896 65.024-22.528 17.92-4.608 30.72-22.528 28.672-41.472z" fill="#FFA603" p-id="19414"></path><path d="M893.952 245.76C844.288 11.776 559.616-16.896 460.8 175.104 362.496-17.408 77.824 11.264 28.16 245.76c-8.192 37.888 38.912 62.464 65.536 34.816 39.936-42.496 99.84-66.56 162.816-66.56h1.024c-133.12 61.44-184.832 238.592-65.536 373.76 25.6 29.184 73.728 6.144 66.56-32.256C241.152 450.048 309.76 317.44 454.656 291.84c2.56-0.512 4.096-1.024 6.144-1.536 2.56 1.024 5.12 1.536 7.68 1.536 120.832 15.36 215.04 142.848 193.536 263.168-6.656 38.4 41.472 61.44 66.56 32.256 120.32-135.68 66.048-312.832-66.048-373.76h1.024c64 0 122.88 24.064 162.816 66.56 28.672 28.16 75.776 4.096 67.584-34.304z" fill="#1AD3AE" p-id="19415"></path><path d="M896.512 971.776H173.568s-47.616-34.304-33.792-60.416c169.984-312.832 619.008-313.856 790.016 0 14.336 26.112-4.608 57.344-33.792 57.344v3.072h0.512z" fill="#F56200" p-id="19416"></path><path d="M114.176 907.264h844.8c19.456 0 35.328 15.872 35.328 35.328 0 19.456-15.872 35.328-35.328 35.328h-844.8c-19.456 0-35.328-15.872-35.328-35.328-0.512-19.456 15.36-35.328 35.328-35.328z" fill="#FFA702" p-id="19417"></path></svg>