<?xml version="1.0" standalone="no"?><!DOCTYPE svg PUBLIC "-//W3C//DTD SVG 1.1//EN" "http://www.w3.org/Graphics/SVG/1.1/DTD/svg11.dtd"><svg class="icon" width="200px" height="200.00px" viewBox="0 0 1024 1024" version="1.1" xmlns="http://www.w3.org/2000/svg"><path d="M708 749.8l-189-0.4-121.6 0.4H200c-16.6 0-30-13.4-30-30v-292c0-16.6 13.4-30 30-30h508c16.6 0 30 13.4 30 30v292c0 16.6-13.4 30-30 30z m-189-12.4l189 0.4c10 0 18-8 18-18v-292c0-10-8-18-18-18H200c-10 0-18 8-18 18v292c0 10 8 18 18 18h197.4l121.6-0.4z" fill="#2C3AC4" /><path d="M175 663.8l-56-20v-140l56-20zM733 483.8h80v180h-80z" fill="#B3BEFF" /><path d="M907 703.8l-94-40v-180l94-40z" fill="#E1FFFB" /><path d="M927 703.8h-20v-260h20c6.6 0 12 5.4 12 12v236c0 6.6-5.4 12-12 12z" fill="#B3BEFF" /><path d="M554.6 261.8m-140 0a140 140 0 1 0 280 0 140 140 0 1 0-280 0Z" fill="#5ACCC3" /><path d="M554.6 237.6l-21.2 12V274l21.2 12 21-12v-24.4z" fill="#07B1AE" /><path d="M513 189.4m-26 0a26 26 0 1 0 52 0 26 26 0 1 0-52 0Z" fill="#FFFFFF" /><path d="M471.6 261.6m-26 0a26 26 0 1 0 52 0 26 26 0 1 0-52 0Z" fill="#FFFFFF" /><path d="M513.6 333.6m-26 0a26 26 0 1 0 52 0 26 26 0 1 0-52 0Z" fill="#FFFFFF" /><path d="M597 333.4m-26 0a26 26 0 1 0 52 0 26 26 0 1 0-52 0Z" fill="#FFFFFF" /><path d="M638.4 261m-26 0a26 26 0 1 0 52 0 26 26 0 1 0-52 0Z" fill="#FFFFFF" /><path d="M596.4 189m-26 0a26 26 0 1 0 52 0 26 26 0 1 0-52 0Z" fill="#FFFFFF" /><path d="M285 291.8m-110 0a110 110 0 1 0 220 0 110 110 0 1 0-220 0Z" fill="#5ACCC3" /><path d="M285 272.8l-16.6 9.4v19.2l16.6 9.4 16.6-9.4v-19.2z" fill="#07B1AE" /><path d="M252.4 234.8m-20.4 0a20.4 20.4 0 1 0 40.8 0 20.4 20.4 0 1 0-40.8 0Z" fill="#FFFFFF" /><path d="M219.8 291.8m-20.4 0a20.4 20.4 0 1 0 40.8 0 20.4 20.4 0 1 0-40.8 0Z" fill="#FFFFFF" /><path d="M252.8 348.2m-20.4 0a20.4 20.4 0 1 0 40.8 0 20.4 20.4 0 1 0-40.8 0Z" fill="#FFFFFF" /><path d="M318.4 348m-20.4 0a20.4 20.4 0 1 0 40.8 0 20.4 20.4 0 1 0-40.8 0Z" fill="#FFFFFF" /><path d="M350.8 291.2m-20.4 0a20.4 20.4 0 1 0 40.8 0 20.4 20.4 0 1 0-40.8 0Z" fill="#FFFFFF" /><path d="M317.8 234.6m-20.4 0a20.4 20.4 0 1 0 40.8 0 20.4 20.4 0 1 0-40.8 0Z" fill="#FFFFFF" /><path d="M503 621.4h-244c-2.2 0-4-1.8-4-4v-124c0-2.2 1.8-4 4-4h244c2.2 0 4 1.8 4 4v124c0 2.2-1.8 4-4 4z" fill="#FFDEF1" /><path d="M259 621.4c-2.2 0-4-1.8-4-4v-124c0-2.2 1.8-4 4-4h244c2.2 0 4 1.8 4 4l-248 128z" fill="#FFB3E2" /><path d="M641 655.4m-10 0a10 10 0 1 0 20 0 10 10 0 1 0-20 0Z" fill="#7186FF" /><path d="M641 671.4c-8.8 0-16-7.2-16-16s7.2-16 16-16 16 7.2 16 16-7.2 16-16 16z m0-20c-2.2 0-4 1.8-4 4s1.8 4 4 4 4-1.8 4-4-1.8-4-4-4z" fill="#7186FF" /><path d="M593 655.4m-10 0a10 10 0 1 0 20 0 10 10 0 1 0-20 0Z" fill="#7186FF" /><path d="M593 671.4c-8.8 0-16-7.2-16-16s7.2-16 16-16 16 7.2 16 16-7.2 16-16 16z m0-20c-2.2 0-4 1.8-4 4s1.8 4 4 4 4-1.8 4-4-1.8-4-4-4z" fill="#7186FF" /><path d="M545 655.4m-10 0a10 10 0 1 0 20 0 10 10 0 1 0-20 0Z" fill="#7186FF" /><path d="M545 671.4c-8.8 0-16-7.2-16-16s7.2-16 16-16 16 7.2 16 16-7.2 16-16 16z m0-20c-2.2 0-4 1.8-4 4s1.8 4 4 4 4-1.8 4-4-1.8-4-4-4z" fill="#7186FF" /><path d="M589 539.4h52v22h-52z" fill="#E84091" /><path d="M641 567.4h-52c-3.4 0-6-2.6-6-6v-22c0-3.4 2.6-6 6-6h52c3.4 0 6 2.6 6 6v22c0 3.4-2.6 6-6 6z m-46-12h40v-10h-40v10zM589 491.4h52v22h-52z" fill="#E84091" /><path d="M641 519.4h-52c-3.4 0-6-2.6-6-6v-22c0-3.4 2.6-6 6-6h52c3.4 0 6 2.6 6 6v22c0 3.4-2.6 6-6 6z m-46-12h40v-10h-40v10z" fill="#E84091" /><path d="M270.4 826.2c-2 0-4-1-5.2-3-1.6-2.8-0.6-6.6 2.2-8.2l125.4-72.4c2.8-1.6 6.6-0.6 8.2 2.2s0.6 6.6-2.2 8.2l-125.4 72.4c-1 0.6-2 0.8-3 0.8zM278.2 841.6c-2 0-4-1-5.2-3-1.6-2.8-0.6-6.6 2.2-8.2l122.8-71c2.8-1.6 6.6-0.6 8.2 2.2 1.6 2.8 0.6 6.6-2.2 8.2l-122.8 71c-1 0.6-2 0.8-3 0.8z" fill="#2C3AC4" /><path d="M496.8 800.6l96.4 96.4c7 7 18.4 7 25.4 0s7-18.4 0-25.4l-104.8-104.8" fill="#7186FF" /><path d="M421.6 799.6l-97 97c-7 7-18.4 7-25.4 0s-7-18.4 0-25.4l104.2-104.2" fill="#7186FF" /><path d="M119 369.4c-3.4 0-6-2.6-6-6v-20c0-3.4 2.6-6 6-6s6 2.6 6 6v20c0 3.4-2.6 6-6 6zM119 417.4c-3.4 0-6-2.6-6-6v-20c0-3.4 2.6-6 6-6s6 2.6 6 6v20c0 3.4-2.6 6-6 6zM105 383.4h-20c-3.4 0-6-2.6-6-6s2.6-6 6-6h20c3.4 0 6 2.6 6 6s-2.6 6-6 6zM153 383.4h-20c-3.4 0-6-2.6-6-6s2.6-6 6-6h20c3.4 0 6 2.6 6 6s-2.6 6-6 6z" fill="#2C3AC4" /><path d="M878.2 358.2c-3.4 0-6-2.6-6-6v-10c0-3.4 2.6-6 6-6s6 2.6 6 6v10c0 3.4-2.6 6-6 6zM878.2 418.2c-3.4 0-6-2.6-6-6v-10c0-3.4 2.6-6 6-6s6 2.6 6 6v10c0 3.4-2.6 6-6 6zM853.2 383.2h-10c-3.4 0-6-2.6-6-6s2.6-6 6-6h10c3.4 0 6 2.6 6 6s-2.6 6-6 6zM913.2 383.2h-10c-3.4 0-6-2.6-6-6s2.6-6 6-6h10c3.4 0 6 2.6 6 6s-2.6 6-6 6z" fill="#2C3AC4" /><path d="M860.6 365.6c-1.6 0-3-0.6-4.2-1.6l-7.2-7c-2.4-2.4-2.4-6.2-0.2-8.4 2.4-2.4 6.2-2.4 8.4-0.2l7.2 7c2.4 2.4 2.4 6.2 0.2 8.4-1 1.2-2.6 1.8-4.2 1.8zM903 408c-1.6 0-3-0.6-4.2-1.8l-7-7c-2.4-2.4-2.4-6.2 0-8.4 2.4-2.4 6.2-2.4 8.4 0l7 7c2.4 2.4 2.4 6.2 0 8.4-1.2 1.2-2.6 1.8-4.2 1.8zM853.4 408c-1.6 0-3.2-0.6-4.4-1.8-2.4-2.4-2.2-6.2 0.2-8.4l7.2-7c2.4-2.4 6.2-2.2 8.4 0.2 2.4 2.4 2.2 6.2-0.2 8.4l-7.2 7c-1 1-2.4 1.6-4 1.6zM896 365.6c-1.6 0-3-0.6-4.2-1.8-2.4-2.4-2.4-6.2 0-8.4l7-7c2.4-2.4 6.2-2.4 8.4 0 2.4 2.4 2.4 6.2 0 8.4l-7 7c-1.2 1.2-2.6 1.8-4.2 1.8z" fill="#2C3AC4" /><path d="M517 747.4c0 32-26 58-58 58s-58-26-58-58" fill="#B3BEFF" /><path d="M225 866.4l-8-13.8c-2.2-3.8-0.8-8.8 3-11l38.2-22c3.8-2.2 8.8-0.8 11 3l8 13.8c2.2 3.8 0.8 8.8-3 11l-38.2 22c-3.8 2-8.8 0.8-11-3z" fill="#7186FF" /><path d="M708 749.8l-189-0.4-121.6 0.4H200c-16.6 0-30-13.4-30-30v-292c0-16.6 13.4-30 30-30h508c16.6 0 30 13.4 30 30v292c0 16.6-13.4 30-30 30z m-189-12.4l189 0.4c10 0 18-8 18-18v-292c0-10-8-18-18-18H200c-10 0-18 8-18 18v292c0 10 8 18 18 18h197.4l121.6-0.4z" fill="#2C3AC4" /><path d="M175 669.8c-0.6 0-1.4-0.2-2-0.4l-56-20c-2.4-0.8-4-3.2-4-5.6v-140c0-2.6 1.6-4.8 4-5.6l56-20c1.8-0.6 3.8-0.4 5.4 0.8 1.6 1.2 2.6 3 2.6 5v180c0 2-1 3.8-2.6 5-1 0.4-2.2 0.8-3.4 0.8z m-50-30.2l44 15.8v-163l-44 15.8v131.4zM813 669.8h-80c-3.4 0-6-2.6-6-6v-180c0-3.4 2.6-6 6-6h80c3.4 0 6 2.6 6 6v180c0 3.4-2.6 6-6 6z m-74-12h68v-168h-68v168z" fill="#2C3AC4" /><path d="M907 709.8c-0.8 0-1.6-0.2-2.4-0.4l-94-40c-2.2-1-3.6-3.2-3.6-5.6v-180c0-2.4 1.4-4.6 3.6-5.6l94-40c1.8-0.8 4-0.6 5.6 0.6 1.6 1.2 2.6 3 2.6 5v260c0 2-1 3.8-2.6 5-0.8 0.6-2 1-3.2 1z m-88-50l82 34.8V452.8l-82 34.8v172.2z" fill="#2C3AC4" /><path d="M927 709.8h-20c-3.4 0-6-2.6-6-6v-260c0-3.4 2.6-6 6-6h20c10 0 18 8 18 18v236c0 10-8 18-18 18z m-14-12h14c3.4 0 6-2.6 6-6v-236c0-3.4-2.6-6-6-6h-14v248zM554.6 407.8c-80.6 0-146-65.4-146-146s65.4-146 146-146 146 65.4 146 146-65.4 146-146 146z m0-280c-73.8 0-134 60.2-134 134s60.2 134 134 134 134-60.2 134-134-60.2-134-134-134z" fill="#2C3AC4" /><path d="M554.6 292c-1 0-2-0.2-3-0.8l-21.2-12c-1.8-1-3-3-3-5.2v-24.4c0-2.2 1.2-4.2 3-5.2l21.2-12c1.8-1 4-1 6 0l21 12c1.8 1 3 3 3 5.2V274c0 2.2-1.2 4.2-3 5.2l-21 12c-1 0.6-2 0.8-3 0.8z m-15.2-21.4l15.2 8.6 15-8.6v-17.4l-15-8.6-15.2 8.6v17.4zM513 221.4c-17.6 0-32-14.4-32-32s14.4-32 32-32 32 14.4 32 32-14.4 32-32 32z m0-52c-11 0-20 9-20 20s9 20 20 20 20-9 20-20-9-20-20-20zM471.6 293.6c-17.6 0-32-14.4-32-32s14.4-32 32-32 32 14.4 32 32-14.4 32-32 32z m0-52c-11 0-20 9-20 20s9 20 20 20 20-9 20-20-9-20-20-20zM513.6 365.6c-17.6 0-32-14.4-32-32s14.4-32 32-32 32 14.4 32 32-14.4 32-32 32z m0-52c-11 0-20 9-20 20s9 20 20 20 20-9 20-20-9-20-20-20zM597 365.4c-17.6 0-32-14.4-32-32s14.4-32 32-32 32 14.4 32 32-14.4 32-32 32z m0-52c-11 0-20 9-20 20s9 20 20 20 20-9 20-20-9-20-20-20zM638.4 293c-17.6 0-32-14.4-32-32s14.4-32 32-32 32 14.4 32 32-14.4 32-32 32z m0-52c-11 0-20 9-20 20s9 20 20 20 20-9 20-20-9-20-20-20zM596.4 221c-17.6 0-32-14.4-32-32s14.4-32 32-32 32 14.4 32 32-14.4 32-32 32z m0-52c-11 0-20 9-20 20s9 20 20 20 20-9 20-20-9-20-20-20zM285 407.8c-64 0-116-52-116-116s52-116 116-116 116 52 116 116-52 116-116 116z m0-220c-57.4 0-104 46.6-104 104s46.6 104 104 104 104-46.6 104-104-46.6-104-104-104z" fill="#2C3AC4" /><path d="M285 316.8c-1 0-2-0.2-3-0.8l-16.6-9.4c-1.8-1-3-3-3-5.2v-19.2c0-2.2 1.2-4.2 3-5.2l16.6-9.4c1.8-1 4-1 6 0l16.6 9.4c1.8 1 3 3 3 5.2v19.2c0 2.2-1.2 4.2-3 5.2L288 316c-1 0.6-2 0.8-3 0.8z m-10.6-18.8l10.6 6 10.6-6v-12.2l-10.6-6-10.6 6v12.2zM252.4 261.2c-14.6 0-26.4-11.8-26.4-26.4 0-14.6 11.8-26.4 26.4-26.4 14.6 0 26.4 11.8 26.4 26.4 0 14.6-11.8 26.4-26.4 26.4z m0-40.8c-8 0-14.4 6.4-14.4 14.4s6.4 14.4 14.4 14.4 14.4-6.4 14.4-14.4-6.4-14.4-14.4-14.4zM219.8 318.2c-14.6 0-26.4-11.8-26.4-26.4 0-14.6 11.8-26.4 26.4-26.4 14.6 0 26.4 11.8 26.4 26.4 0 14.6-11.8 26.4-26.4 26.4z m0-40.8c-8 0-14.4 6.4-14.4 14.4s6.4 14.4 14.4 14.4 14.4-6.4 14.4-14.4-6.4-14.4-14.4-14.4zM252.8 374.6c-14.6 0-26.4-11.8-26.4-26.4 0-14.6 11.8-26.4 26.4-26.4 14.6 0 26.4 11.8 26.4 26.4 0 14.6-11.8 26.4-26.4 26.4z m0-40.8c-8 0-14.4 6.4-14.4 14.4s6.4 14.4 14.4 14.4 14.4-6.4 14.4-14.4-6.4-14.4-14.4-14.4zM318.4 374.4c-14.6 0-26.4-11.8-26.4-26.4s11.8-26.4 26.4-26.4c14.6 0 26.4 11.8 26.4 26.4s-11.8 26.4-26.4 26.4z m0-40.8c-8 0-14.4 6.4-14.4 14.4s6.4 14.4 14.4 14.4 14.4-6.4 14.4-14.4-6.4-14.4-14.4-14.4zM350.8 317.6c-14.6 0-26.4-11.8-26.4-26.4 0-14.6 11.8-26.4 26.4-26.4 14.6 0 26.4 11.8 26.4 26.4 0 14.6-11.8 26.4-26.4 26.4z m0-40.8c-8 0-14.4 6.4-14.4 14.4s6.4 14.4 14.4 14.4 14.4-6.4 14.4-14.4-6.4-14.4-14.4-14.4zM317.8 261c-14.6 0-26.4-11.8-26.4-26.4 0-14.6 11.8-26.4 26.4-26.4 14.6 0 26.4 11.8 26.4 26.4 0 14.6-11.8 26.4-26.4 26.4z m0-40.8c-8 0-14.4 6.4-14.4 14.4s6.4 14.4 14.4 14.4 14.4-6.4 14.4-14.4-6.4-14.4-14.4-14.4z" fill="#2C3AC4" /><path d="M503 627.4h-244c-5.6 0-10-4.4-10-10v-124c0-5.6 4.4-10 10-10h244c5.6 0 10 4.4 10 10v124c0 5.6-4.4 10-10 10z m-242-12h240v-120h-240v120z" fill="#2C3AC4" /><path d="M270.4 826.2c-2 0-4-1-5.2-3-1.6-2.8-0.6-6.6 2.2-8.2l125.4-72.4c2.8-1.6 6.6-0.6 8.2 2.2s0.6 6.6-2.2 8.2l-125.4 72.4c-1 0.6-2 0.8-3 0.8z" fill="#2C3AC4" /><path d="M278.2 841.6c-2 0-4-1-5.2-3-1.6-2.8-0.6-6.6 2.2-8.2l122.8-71c2.8-1.6 6.6-0.6 8.2 2.2 1.6 2.8 0.6 6.6-2.2 8.2l-122.8 71c-1 0.6-2 0.8-3 0.8z" fill="#2C3AC4" /><path d="M606 908.2c-6.2 0-12.2-2.4-17-7l-96.4-96.4c-2.4-2.4-2.4-6.2 0-8.4 2.4-2.4 6.2-2.4 8.4 0l96.4 96.4c4.6 4.6 12.2 4.6 17 0 4.6-4.6 4.6-12.2 0-17l-104.8-104.8c-2.4-2.4-2.4-6.2 0-8.4 2.4-2.4 6.2-2.4 8.4 0l104.8 104.8c9.4 9.4 9.4 24.6 0 33.8-4.6 4.8-10.8 7-16.8 7z" fill="#2C3AC4" /><path d="M312 907.8c-6.2 0-12.2-2.4-17-7-9.4-9.4-9.4-24.6 0-33.8l104.2-104.2c2.4-2.4 6.2-2.4 8.4 0 2.4 2.4 2.4 6.2 0 8.4l-104.2 104.2c-4.6 4.6-4.6 12.2 0 17 4.6 4.6 12.2 4.6 17 0l97-97c2.4-2.4 6.2-2.4 8.4 0 2.4 2.4 2.4 6.2 0 8.4l-97 97c-4.6 4.8-10.8 7-16.8 7z" fill="#2C3AC4" /><path d="M119 369.4c-3.4 0-6-2.6-6-6v-20c0-3.4 2.6-6 6-6s6 2.6 6 6v20c0 3.4-2.6 6-6 6zM119 417.4c-3.4 0-6-2.6-6-6v-20c0-3.4 2.6-6 6-6s6 2.6 6 6v20c0 3.4-2.6 6-6 6zM105 383.4h-20c-3.4 0-6-2.6-6-6s2.6-6 6-6h20c3.4 0 6 2.6 6 6s-2.6 6-6 6zM153 383.4h-20c-3.4 0-6-2.6-6-6s2.6-6 6-6h20c3.4 0 6 2.6 6 6s-2.6 6-6 6z" fill="#2C3AC4" /><path d="M878.2 358.2c-3.4 0-6-2.6-6-6v-10c0-3.4 2.6-6 6-6s6 2.6 6 6v10c0 3.4-2.6 6-6 6zM878.2 418.2c-3.4 0-6-2.6-6-6v-10c0-3.4 2.6-6 6-6s6 2.6 6 6v10c0 3.4-2.6 6-6 6zM853.2 383.2h-10c-3.4 0-6-2.6-6-6s2.6-6 6-6h10c3.4 0 6 2.6 6 6s-2.6 6-6 6zM913.2 383.2h-10c-3.4 0-6-2.6-6-6s2.6-6 6-6h10c3.4 0 6 2.6 6 6s-2.6 6-6 6z" fill="#2C3AC4" /><path d="M860.6 365.6c-1.6 0-3-0.6-4.2-1.6l-7.2-7c-2.4-2.4-2.4-6.2-0.2-8.4 2.4-2.4 6.2-2.4 8.4-0.2l7.2 7c2.4 2.4 2.4 6.2 0.2 8.4-1 1.2-2.6 1.8-4.2 1.8zM903 408c-1.6 0-3-0.6-4.2-1.8l-7-7c-2.4-2.4-2.4-6.2 0-8.4 2.4-2.4 6.2-2.4 8.4 0l7 7c2.4 2.4 2.4 6.2 0 8.4-1.2 1.2-2.6 1.8-4.2 1.8zM853.4 408c-1.6 0-3.2-0.6-4.4-1.8-2.4-2.4-2.2-6.2 0.2-8.4l7.2-7c2.4-2.4 6.2-2.2 8.4 0.2 2.4 2.4 2.2 6.2-0.2 8.4l-7.2 7c-1 1-2.4 1.6-4 1.6zM896 365.6c-1.6 0-3-0.6-4.2-1.8-2.4-2.4-2.4-6.2 0-8.4l7-7c2.4-2.4 6.2-2.4 8.4 0 2.4 2.4 2.4 6.2 0 8.4l-7 7c-1.2 1.2-2.6 1.8-4.2 1.8z" fill="#2C3AC4" /><path d="M459 811.4c-35.2 0-64-28.8-64-64 0-3.4 2.6-6 6-6s6 2.6 6 6c0 28.6 23.4 52 52 52s52-23.4 52-52c0-3.4 2.6-6 6-6s6 2.6 6 6c0 35.2-28.8 64-64 64z" fill="#2C3AC4" /><path d="M232.2 876.4c-5 0-9.8-2.6-12.4-7l-8-13.8c-3.8-6.6-1.6-15.4 5.2-19.2l38.2-22c6.6-3.8 15.2-1.6 19.2 5.2l8 13.8c3.8 6.6 1.6 15.4-5.2 19.2l-38.2 22s-0.2 0-0.2 0.2c-2.2 1-4.4 1.6-6.6 1.6z m30-51.8c-0.4 0-0.6 0-1 0.2l-38.2 22c-1 0.6-1.4 1.8-0.8 2.8l8 13.8c0.6 0.8 2 1.2 3 0.8l38-22c1-0.6 1.4-1.8 0.8-2.8l-8-13.8c-0.4-0.6-1.2-1-1.8-1z" fill="#2C3AC4" /><path d="M219.4 430.8H208l-5.6 9.8 5.6 9.8h11.4l5.6-9.8z" fill="#07B1AE" /><path d="M222.8 456.4h-18.4l-9-15.8 9-15.8h18.4l9 15.8-9 15.8z m-11.4-12h4.4l2.2-3.8-2.2-3.8h-4.4l-2.2 3.8 2.2 3.8z" fill="#07B1AE" /><path d="M219.4 696.8H208l-5.6 9.8 5.6 9.8h11.4l5.6-9.8z" fill="#07B1AE" /><path d="M222.8 722.4h-18.4l-9-15.8 9-15.8h18.4l9 15.8-9 15.8z m-11.4-12h4.4l2.2-3.8-2.2-3.8h-4.4l-2.2 3.8 2.2 3.8z" fill="#07B1AE" /><path d="M699.4 696.8H688l-5.6 9.8 5.6 9.8h11.4l5.6-9.8z" fill="#07B1AE" /><path d="M702.8 722.4h-18.4l-9-15.8 9-15.8h18.4l9 15.8-9 15.8z m-11.4-12h4.4l2.2-3.8-2.2-3.8h-4.4l-2.2 3.8 2.2 3.8z" fill="#07B1AE" /><path d="M699.4 430.8H688l-5.6 9.8 5.6 9.8h11.4l5.6-9.8z" fill="#07B1AE" /><path d="M702.8 456.4h-18.4l-9-15.8 9-15.8h18.4l9 15.8-9 15.8z m-11.4-12h4.4l2.2-3.8-2.2-3.8h-4.4l-2.2 3.8 2.2 3.8z" fill="#07B1AE" /></svg>