<?xml version="1.0" standalone="no"?><!DOCTYPE svg PUBLIC "-//W3C//DTD SVG 1.1//EN" "http://www.w3.org/Graphics/SVG/1.1/DTD/svg11.dtd"><svg class="icon" width="200px" height="200.00px" viewBox="0 0 1024 1024" version="1.1" xmlns="http://www.w3.org/2000/svg"><path d="M650.564314 118.483673s25.088756-95.013547-28.002289-97.117765-120.102302-2.75167-178.049235 25.088756-103.430419 136.936048-103.43042 136.936048-103.430419 89.348344-120.102302 206.860839a784.387813 784.387813 0 0 0-10.197366 176.106881s-35.124258 80.122156-1.294903 114.598962 109.257485 54.062222 109.257485 54.062222 90.319521 74.456953 190.027093 70.734106a495.948052 495.948052 0 0 0 190.998271-53.091045s107.153267 160.244312 159.273134 162.995982 40.951324-59.565562 40.951324-59.565563l0.971178-323.725882s0.809315-75.428131-66.201943-104.401597a125.443779 125.443779 0 0 0-117.350632 6.474517s-60.53674-52.119867-131.270846-33.505628a434.440134 434.440134 0 0 0-127.547998 59.565562 187.922875 187.922875 0 0 0 7.445696-69.924791c-3.722848-36.257299-46.616527-97.117765-16.186294-162.995982s71.705283-43.702994 71.705283-43.702994a55.195263 55.195263 0 0 0 40.951324 24.279441 108.286308 108.286308 0 0 0 51.310552-17.64306s47.425842 13.110898 56.813893-18.614238 3.399122-41.436913-20.071005-53.414771z" fill="#DAAAAB" /><path d="M857.748879 1023.944967h-4.694026c-10.844817 0-69.601065-11.815995-180.639042-173.678936a553.08567 553.08567 0 0 1-202.814266 52.929181c-105.372775 4.208436-199.577007-64.745177-218.676833-79.636567-17.966786-5.017751-89.186481-26.869248-125.120054-63.450273-40.951324-41.760639-13.272761-120.911617-4.532162-142.763114A946.736344 946.736344 0 0 1 133.088491 424.080906c17.643061-123.339561 115.084551-217.867519 135.155556-236.319894 9.873639-22.660812 57.461344-126.091231 121.559068-156.521464 67.334984-32.372588 141.9538-32.372588 206.051525-29.459056a52.767319 52.767319 0 0 1 41.27505 21.689634c19.585416 27.031111 14.729528 72.190872 10.359228 95.660999 24.279441 16.186294 28.649741 36.581025 18.128649 72.352735s-45.645349 41.760639-77.694211 35.77171a128.19545 128.19545 0 0 1-59.727426 18.128649 77.04676 77.04676 0 0 1-57.137618-29.944644 26.383659 26.383659 0 0 0-15.215117 0.809315 70.572242 70.572242 0 0 0-33.991217 39.332694c-20.718456 44.512309-6.150792 86.758537 6.798243 123.987013a210.421824 210.421824 0 0 1 12.301584 45.321624 199.900732 199.900732 0 0 1 0 39.008969 476.03891 476.03891 0 0 1 107.962582-44.512309c68.144298-17.966786 127.062409 16.186294 151.018124 32.372588a159.273134 159.273134 0 0 1 135.155556-1.780492c84.654318 36.419162 84.654318 129.490353 84.492455 132.727612l-0.971177 355.289156a88.862755 88.862755 0 0 1-16.186295 67.820572 57.946933 57.946933 0 0 1-44.674171 18.12865z m-178.049236-218.191245a19.423553 19.423553 0 0 1 16.186294 8.578736c54.062222 80.931471 130.623394 169.146774 160.082449 170.765403a20.556594 20.556594 0 0 0 18.776102-5.50334 53.738497 53.738497 0 0 0 6.150791-37.228477 20.556594 20.556594 0 0 1 0-3.399122l1.133041-356.09847c0-2.913533 0-70.734105-61.022329-97.117765a118.159947 118.159947 0 0 0-110.390526 5.341477 19.585416 19.585416 0 0 1-23.793852-1.294904s-60.213014-50.339375-126.900546-32.372588a459.52889 459.52889 0 0 0-134.022516 62.479095 19.423553 19.423553 0 0 1-29.782781-21.851497 188.570327 188.570327 0 0 0 7.283832-68.79175 191.645722 191.645722 0 0 0-10.359228-36.419161c-13.75835-39.656421-32.372588-94.204232-5.341477-152.96048a103.754145 103.754145 0 0 1 57.78507-60.051151 63.126547 63.126547 0 0 1 48.558883 3.075396 19.423553 19.423553 0 0 1 6.960106 6.474517 41.598776 41.598776 0 0 0 28.811604 17.804924 98.412668 98.412668 0 0 0 45.483486-16.186294 19.423553 19.423553 0 0 1 16.186294-2.589807s34.153081 8.416873 38.685243-7.283833c7.283832-24.76503 6.636381-25.088756-11.815994-34.638669a19.423553 19.423553 0 0 1-9.87364-22.175223c6.150792-23.308264 9.873639-62.640958-0.971178-77.532349a14.082076 14.082076 0 0 0-11.977857-5.827066c-59.241837-3.075396-127.871724-2.427944-187.437286 25.736208-47.425842 22.498949-91.290699 109.095622-104.077871 140.497033a19.585416 19.585416 0 0 1-5.179615 7.283832c-1.133041 0.971178-108.448171 95.337272-125.605642 215.601438-17.966786 125.281917-11.330406 188.084738-11.168543 188.73219a19.585416 19.585416 0 0 1-1.456766 9.873639c-8.578736 19.747279-28.002289 80.931471-5.341478 104.725323 27.5167 28.002289 89.672069 48.558882 111.199841 54.224085a19.423553 19.423553 0 0 1 7.445695 3.722848c0.971178 0 94.689821 77.208623 196.016022 73.485775a529.453681 529.453681 0 0 0 201.519362-56.16644 19.423553 19.423553 0 0 1 7.445696-3.075396z" fill="#892127" /></svg>