<?xml version="1.0" standalone="no"?><!DOCTYPE svg PUBLIC "-//W3C//DTD SVG 1.1//EN" "http://www.w3.org/Graphics/SVG/1.1/DTD/svg11.dtd"><svg t="1607585092365" class="icon" viewBox="0 0 1024 1024" version="1.1" xmlns="http://www.w3.org/2000/svg" p-id="7213" xmlns:xlink="http://www.w3.org/1999/xlink" width="200" height="200"><defs><style type="text/css"></style></defs><path d="M346.094549 1007.026964a72.314696 72.314696 0 0 1-71.717054-71.717054V475.723124a127.656356 127.656356 0 0 1 127.058714-127.536828h221.127582A127.656356 127.656356 0 0 1 750.100619 475.723124v459.108672a72.314696 72.314696 0 0 1-71.717054 71.717054z" fill="#FFFFFF" p-id="7214"></path><path d="M622.563791 365.159332a110.922377 110.922377 0 0 1 110.563792 110.563792v459.108672a55.461188 55.461188 0 0 1-55.34166 55.34166H346.094549a55.461188 55.461188 0 0 1-55.34166-55.34166V475.723124a110.922377 110.922377 0 0 1 110.563791-110.563792h221.127583m0-33.826543H401.436209A144.629392 144.629392 0 0 0 256.926345 475.723124v459.108672a89.287732 89.287732 0 0 0 89.168204 89.168204h331.810902a89.287732 89.287732 0 0 0 89.168204-89.168204V475.723124a144.629392 144.629392 0 0 0-144.509864-144.509864z" p-id="7215"></path><path d="M429.764445 388.347846h164.47111a110.563791 110.563791 0 0 1 110.563791 110.563792v412.731644a55.34166 55.34166 0 0 1-55.34166 55.34166h-274.915372a55.34166 55.34166 0 0 1-55.34166-55.34166V498.911638a110.563791 110.563791 0 0 1 110.563791-110.563792z" fill="#00AF9A" p-id="7216"></path><path d="M382.072604 261.886775a16.973036 16.973036 0 0 1-16.375394-21.276059 145.466091 145.466091 0 0 1 79.008288-89.646318c2.390568-2.390568 3.466324-9.801331-2.749154-22.232286a76.856776 76.856776 0 0 1 5.020194-71.717054 77.693475 77.693475 0 0 1 64.306291-39.44438h1.434342a77.693475 77.693475 0 0 1 64.186763 39.44438 76.856776 76.856776 0 0 1 5.020193 71.717054c-7.410762 14.821524-3.585853 21.037002-2.629625 22.232286a145.585619 145.585619 0 0 1 78.888759 89.646318 16.973036 16.973036 0 0 1-16.375394 21.15653z" fill="#EE7156" p-id="7217"></path><path d="M512 33.826544a63.828178 63.828178 0 0 1 54.744018 87.255749c-16.255866 32.511731 4.063966 44.584102 4.063966 44.584101a128.732112 128.732112 0 0 1 70.999883 79.127816H382.072604a128.732112 128.732112 0 0 1 70.999883-79.127816s20.319832-11.952842 4.063967-44.584101a63.828178 63.828178 0 0 1 54.744018-87.255749m0-33.826544h-1.434341a94.307926 94.307926 0 0 0-78.052061 47.811369 93.94934 93.94934 0 0 0-5.498307 88.451033 39.563908 39.563908 0 0 1 1.673398 3.705381 164.112525 164.112525 0 0 0-79.247345 96.459438 33.826544 33.826544 0 0 0 32.750788 42.43259H641.807867a33.826544 33.826544 0 0 0 32.750788-42.43259 164.112525 164.112525 0 0 0-79.247344-96.459438 39.44438 39.44438 0 0 1 1.673398-3.705381A93.94934 93.94934 0 0 0 591.60593 47.811369a94.307926 94.307926 0 0 0-78.052061-47.811369z" p-id="7218"></path><path d="M288.840434 257.344695m40.878721 0l364.56169 0q40.878721 0 40.878721 40.87872l0 64.664877q0 40.878721-40.878721 40.878721l-364.56169 0q-40.878721 0-40.878721-40.878721l0-64.664877q0-40.878721 40.878721-40.87872Z" fill="#E1E7EA" p-id="7219"></path><path d="M694.280845 274.915373a23.905685 23.905685 0 0 1 23.905685 23.905685v64.664876a23.905685 23.905685 0 0 1-23.905685 23.905685H329.599626a23.905685 23.905685 0 0 1-23.905684-23.905685V298.821058a23.905685 23.905685 0 0 1 23.905684-23.905685h364.681219m0-33.826544H329.599626A57.851757 57.851757 0 0 0 271.867398 298.821058v64.664876a57.851757 57.851757 0 0 0 57.732228 57.254115h364.681219a57.851757 57.851757 0 0 0 57.732228-57.732228V298.821058a57.851757 57.851757 0 0 0-57.732228-57.732229z" p-id="7220"></path><path d="M577.621104 350.815922H427.612933a16.973036 16.973036 0 1 1 0-33.826544h150.008171a16.973036 16.973036 0 1 1 0 33.826544zM436.93615 537.877904H287.047508a16.973036 16.973036 0 0 1 0-33.826544h149.888642a16.973036 16.973036 0 0 1 0 33.826544zM376.454768 613.300339H287.047508a16.973036 16.973036 0 1 1 0-33.826544H376.454768a16.973036 16.973036 0 1 1 0 33.826544zM436.93615 688.364188H287.047508a16.973036 16.973036 0 0 1 0-33.826544h149.888642a16.973036 16.973036 0 0 1 0 33.826544zM376.454768 763.308509H287.047508a16.973036 16.973036 0 0 1 0-33.826543H376.454768a16.973036 16.973036 0 0 1 0 33.826543zM436.93615 838.252831H287.047508a16.973036 16.973036 0 0 1 0-33.826544h149.888642a16.973036 16.973036 0 0 1 0 33.826544zM664.279211 350.815922h-46.855142a16.973036 16.973036 0 1 1 0-33.826544h46.855142a16.973036 16.973036 0 1 1 0 33.826544z" p-id="7221"></path></svg>