<?xml version="1.0" standalone="no"?><!DOCTYPE svg PUBLIC "-//W3C//DTD SVG 1.1//EN" "http://www.w3.org/Graphics/SVG/1.1/DTD/svg11.dtd"><svg class="icon" width="200px" height="179.33px" viewBox="0 0 1142 1024" version="1.1" xmlns="http://www.w3.org/2000/svg"><path d="M866.461538 162.789744H481.805128c-35.446154 0-65.641026 28.882051-65.641025 65.641025V958.358974c0 36.758974 30.194872 65.641026 65.641025 65.641026H866.461538c36.758974 0 65.641026-30.194872 65.641026-65.641026V228.430769c0-36.758974-28.882051-65.641026-65.641026-65.641025" fill="#F3EAED" /><path d="M816.574359 882.215385h-32.820513 6.564103l-5.251282-5.251282c-1.312821 1.312821-1.312821 2.625641-1.312821 5.251282h6.564103l-5.251282-5.251282 5.251282 5.251282v-6.564103c-1.312821 0-3.938462 1.312821-5.251282 1.312821l5.251282 5.251282v-6.564103H325.579487v6.564103l5.251282-5.251282c-1.312821-1.312821-2.625641-1.312821-5.251282-1.312821v6.564103l5.251282-5.251282-5.251282 5.251282h6.564103c0-1.312821-1.312821-3.938462-1.312821-5.251282l-5.251282 5.251282h6.564103V73.517949h-6.564103l5.251282 5.251282c1.312821-1.312821 1.312821-2.625641 1.312821-5.251282h-6.564103l5.251282 5.251282-5.251282-5.251282v6.564102c1.312821 0 3.938462-1.312821 5.251282-1.31282l-5.251282-5.251282v6.564102h464.738462v-6.564102l-5.251282 5.251282c1.312821 1.312821 2.625641 1.312821 5.251282 1.31282v-6.564102l-5.251282 5.251282 5.251282-5.251282h-6.564103c0 1.312821 1.312821 3.938462 1.312821 5.251282l5.251282-5.251282h-6.564103v808.697436h65.641026V73.517949c0-15.753846-6.564103-31.507692-17.066667-42.010257-10.502564-10.502564-24.94359-17.066667-42.010256-17.066666H325.579487c-15.753846 0-31.507692 6.564103-42.010256 17.066666-10.502564 10.502564-17.066667 24.94359-17.066667 42.010257v808.697436c0 15.753846 6.564103 31.507692 17.066667 42.010256 10.502564 10.502564 24.94359 17.066667 42.010256 17.066667h464.738462c15.753846 0 31.507692-6.564103 42.010256-17.066667 10.502564-10.502564 17.066667-24.94359 17.066667-42.010256h-32.820513z" fill="#677BAF" /><path d="M736.492308 749.620513v-13.128205H393.846154V181.169231h329.517949v568.451282h13.128205v-13.128205 13.128205h13.128205V154.912821H367.589744v607.835897h382.030769v-13.128205zM602.584615 101.087179h-87.958974v26.256411h87.958974" fill="#677BAF" /><path d="M557.948718 821.825641m-23.630769 0a23.630769 23.630769 0 1 0 47.261538 0 23.630769 23.630769 0 1 0-47.261538 0Z" fill="#677BAF" /></svg>