<?xml version="1.0" standalone="no"?><!DOCTYPE svg PUBLIC "-//W3C//DTD SVG 1.1//EN" "http://www.w3.org/Graphics/SVG/1.1/DTD/svg11.dtd"><svg t="1607585572947" class="icon" viewBox="0 0 1024 1024" version="1.1" xmlns="http://www.w3.org/2000/svg" p-id="24587" xmlns:xlink="http://www.w3.org/1999/xlink" width="200" height="200"><defs><style type="text/css"></style></defs><path d="M774.81 672.922H292.608c-68.915 0-124.826 55.859-124.826 124.825v3.277c0 41.523 33.639 75.213 75.213 75.213h571.239c41.523 0 75.212-33.639 75.212-75.213v-13.517c-0.05-63.334-51.353-114.585-114.636-114.585z" fill="#FFA750" p-id="24588"></path><path d="M273.05 648.448h18.944a107.798 107.798 0 0 0 5.888-35.123c0-58.829-47.104-106.496-105.216-106.496-58.112 0-105.216 47.667-105.216 106.496 0 50.585 34.867 92.928 81.612 103.782 17.613-40.397 57.498-68.659 103.988-68.659z m595.353-149.094c-57.702 0-104.499 49.356-104.499 110.233 0 12.749 2.1 24.986 5.837 36.352h28.672c44.237 0 82.022 29.082 97.126 70.093 44.544-12.595 77.363-55.5 77.363-106.445 0-60.877-46.796-110.233-104.499-110.233z" fill="#FCEF7F" p-id="24589"></path><path d="M335.462 588.595c0 13.415-2.304 26.266-6.502 38.195h411.597a115.283 115.283 0 0 1-6.503-38.195c0-64 51.968-115.865 116.02-115.865 6.604 0 13.004 0.563 19.302 1.638V308.992c0-111.667-90.624-202.189-202.445-202.189H421.837c-111.821 0-202.445 90.522-202.445 202.189V431.77c64.102 0 116.07 92.825 116.07 156.825z" fill="#FFA750" p-id="24590"></path><path d="M988.262 596.122c0-64.512-43.98-118.887-103.526-134.81V296.448c0-127.949-104.09-232.038-232.038-232.038h-262.35C262.4 64.41 158.31 168.5 158.31 296.448v161.024c-69.734 7.68-124.21 66.918-124.21 138.7 0 59.546 36.914 111.105 91.596 130.97a149.486 149.486 0 0 0-6.656 44.135v20.531c0 55.04 44.8 99.84 99.84 99.84h9.984v63.59a28.928 28.928 0 0 0 28.928 28.928h26.47a28.928 28.928 0 0 0 28.928-28.928v-63.59h395.367v63.59a28.928 28.928 0 0 0 28.928 28.928h26.47c15.923 0 28.928-12.953 28.928-28.928v-63.59h12.032c55.04 0 99.84-44.8 99.84-99.84v-30.771c0-12.186-1.587-23.962-4.505-35.226 52.48-20.992 88.012-72.14 88.012-129.69zM189.03 296.397c0-111.002 90.317-201.319 201.319-201.319h262.349c111.001 0 201.318 90.317 201.318 201.319v160.256c-0.82-0.051-1.587 0-2.355-0.051-0.973 0-1.946-0.052-2.919-0.052h-0.972c-1.434 0-2.816 0.052-4.25 0.103-0.922 0.051-1.843 0.051-2.714 0.102-1.69 0.103-3.379 0.256-5.068 0.41l-1.844 0.153c-1.894 0.205-3.788 0.461-5.683 0.717l-1.126 0.154c-2.048 0.307-4.096 0.665-6.093 1.075-0.205 0.051-0.41 0.102-0.614 0.102-2.15 0.461-4.301 0.922-6.452 1.485-0.05 0-0.102 0.051-0.153 0.051a139.325 139.325 0 0 0-58.88 31.847l-0.051 0.051c-1.588 1.485-3.175 2.97-4.71 4.506-0.103 0.05-0.154 0.153-0.206 0.204-1.484 1.485-2.918 3.021-4.352 4.557a2.927 2.927 0 0 1-0.358 0.41c-1.331 1.485-2.662 3.02-3.994 4.557-0.153 0.204-0.358 0.41-0.512 0.665-1.228 1.485-2.406 3.021-3.584 4.557-0.204 0.307-0.46 0.614-0.665 0.922-1.075 1.484-2.15 2.97-3.226 4.505-0.256 0.41-0.512 0.82-0.819 1.229-0.973 1.434-1.894 2.918-2.816 4.403-0.307 0.512-0.614 1.024-0.87 1.485a92.004 92.004 0 0 0-2.458 4.3c-0.307 0.615-0.614 1.23-0.973 1.793-0.717 1.382-1.485 2.765-2.15 4.198-0.359 0.717-0.666 1.434-0.973 2.1a310.186 310.186 0 0 0-1.843 4.044c-0.359 0.82-0.666 1.639-0.973 2.458-0.512 1.28-1.075 2.56-1.536 3.891-0.307 0.922-0.614 1.843-0.922 2.714-0.41 1.28-0.87 2.508-1.28 3.788-0.307 1.024-0.563 1.997-0.87 3.021-0.358 1.229-0.717 2.407-1.024 3.635-0.307 1.127-0.512 2.253-0.82 3.38-0.255 1.126-0.562 2.252-0.767 3.379a80.907 80.907 0 0 0-0.666 3.737c-0.205 1.076-0.41 2.15-0.563 3.226a96.831 96.831 0 0 0-0.512 4.045c-0.102 1.024-0.256 1.997-0.358 3.02-0.154 1.537-0.256 3.124-0.359 4.711-0.051 0.82-0.153 1.638-0.205 2.458-0.102 2.406-0.204 4.812-0.204 7.27 0 3.635 0.153 7.27 0.46 10.854 0.052 0.41 0.052 0.87 0.103 1.28 0.307 3.38 0.717 6.759 1.28 10.087l0.307 1.894c0.102 0.461 0.154 0.973 0.256 1.434H310.835c0.103-0.461 0.154-0.973 0.256-1.434 0.103-0.665 0.205-1.331 0.307-1.945 0.564-3.328 0.973-6.708 1.28-10.036 0.052-0.41 0.052-0.87 0.103-1.28 0.307-3.584 0.46-7.219 0.46-10.854 0-2.304-0.05-4.66-0.153-6.912l-0.154-2.304a136.45 136.45 0 0 0-0.358-4.557l-0.307-2.662a111.806 111.806 0 0 0-0.512-4.096l-0.461-2.816c-0.205-1.28-0.41-2.56-0.666-3.84-0.204-0.973-0.41-1.946-0.614-2.867-0.256-1.23-0.563-2.458-0.87-3.687l-0.768-2.867a94.081 94.081 0 0 0-1.024-3.584c-0.308-0.973-0.564-1.894-0.87-2.816-0.36-1.178-0.769-2.304-1.178-3.482a60.358 60.358 0 0 0-1.024-2.764 94.561 94.561 0 0 0-1.332-3.43c-0.358-0.922-0.768-1.793-1.126-2.714-0.512-1.127-0.973-2.253-1.536-3.328l-1.229-2.612c-0.563-1.126-1.126-2.201-1.69-3.328-0.46-0.819-0.87-1.69-1.33-2.508-0.615-1.127-1.28-2.202-1.895-3.277-0.46-0.768-0.922-1.587-1.382-2.355l-2.15-3.38c-0.462-0.716-0.922-1.382-1.383-2.099l-2.611-3.686c-0.41-0.512-0.768-1.075-1.178-1.639-1.28-1.74-2.662-3.43-3.994-5.12-0.153-0.204-0.307-0.358-0.46-0.563a100.138 100.138 0 0 0-3.79-4.352c-0.511-0.563-1.023-1.075-1.535-1.638-0.973-1.024-1.946-2.1-2.919-3.072-0.614-0.615-1.228-1.229-1.843-1.792a69.178 69.178 0 0 0-2.816-2.663c-0.665-0.614-1.382-1.228-2.048-1.843-0.921-0.819-1.894-1.638-2.816-2.457-0.717-0.615-1.485-1.178-2.201-1.792-0.973-0.768-1.895-1.536-2.868-2.253l-2.304-1.69c-0.972-0.717-1.945-1.433-2.97-2.099l-2.406-1.638c-1.024-0.666-1.996-1.332-3.02-1.946a107.884 107.884 0 0 0-5.632-3.328c-0.87-0.46-1.69-0.922-2.56-1.382-1.076-0.564-2.15-1.127-3.277-1.69-0.87-0.41-1.741-0.87-2.611-1.28l-3.38-1.536c-0.87-0.41-1.74-0.768-2.61-1.126-1.178-0.512-2.407-0.973-3.585-1.434-0.87-0.307-1.69-0.666-2.56-0.973-1.28-0.46-2.611-0.87-3.891-1.331-0.82-0.256-1.587-0.563-2.406-0.768-1.536-0.46-3.072-0.87-4.608-1.331-0.615-0.154-1.178-0.359-1.792-0.512a99.052 99.052 0 0 0-6.503-1.485c-0.512-0.102-0.973-0.154-1.485-0.256-1.69-0.307-3.43-0.666-5.17-0.922l-2.458-0.307c-1.23-0.153-2.458-0.358-3.687-0.512v-160.87z m-51.25 402.432c-43.47-15.053-72.91-55.757-72.91-102.759 0-60.006 48.845-108.85 108.852-108.85 60.006 0 108.8 48.844 108.8 108.85 0 2.714-0.154 5.479-0.359 8.141-0.051 0.717-0.102 1.485-0.205 2.202a101.628 101.628 0 0 1-0.87 6.758c-0.102 0.461-0.154 0.973-0.205 1.434-0.41 2.355-0.921 4.71-1.485 7.014h-10.854c-3.123 0-6.195 0.103-9.267 0.307-0.82 0.052-1.639 0.103-2.458 0.205-2.457 0.205-4.864 0.461-7.27 0.768-0.666 0.103-1.331 0.154-2.048 0.256a145.408 145.408 0 0 0-18.33 3.789c-0.46 0.102-0.87 0.256-1.331 0.358a203.686 203.686 0 0 0-7.936 2.458c-0.41 0.154-0.768 0.256-1.178 0.41-5.785 2.048-11.366 4.454-16.793 7.116-0.717 0.359-1.485 0.768-2.202 1.127a148.836 148.836 0 0 0-5.683 3.123c-0.82 0.46-1.638 0.922-2.406 1.382a117.985 117.985 0 0 0-10.087 6.708 86.98 86.98 0 0 0-3.481 2.56c-1.28 0.972-2.56 1.996-3.84 3.02-0.82 0.666-1.639 1.332-2.407 2.048a143.189 143.189 0 0 0-13.056 12.493l-1.587 1.741c-1.28 1.434-2.56 2.918-3.84 4.403a167.117 167.117 0 0 0-7.322 9.626c-0.665 0.921-1.28 1.843-1.945 2.765-0.87 1.33-1.741 2.662-2.56 3.993-0.82 1.331-1.587 2.663-2.407 3.994-0.358 0.921-0.87 1.74-1.33 2.56z m144.742 254.464h-22.887v-61.799h22.887v61.799z m479.641 0h-22.886v-61.799h22.886v61.799z m111.872-161.587c0 38.092-31.027 69.12-69.12 69.12H218.931c-38.093 0-69.12-31.028-69.12-69.12v-20.532c0-17.459 3.84-34.048 10.65-49.05 0.819-1.791 1.69-3.583 2.56-5.324 0.358-0.666 0.665-1.331 1.024-1.946a108.385 108.385 0 0 1 3.379-5.836c0.563-0.973 1.178-1.895 1.792-2.816 0.717-1.127 1.485-2.202 2.253-3.277 1.075-1.485 2.15-2.97 3.277-4.455 0.819-1.075 1.638-2.099 2.508-3.123 0.87-1.075 1.792-2.099 2.714-3.123a41.663 41.663 0 0 1 2.048-2.202 120.65 120.65 0 0 1 4.403-4.454c0.922-0.87 1.792-1.74 2.714-2.56a142.659 142.659 0 0 1 5.888-4.915c0.819-0.666 1.69-1.331 2.509-1.997a130.215 130.215 0 0 1 5.427-3.84l2.15-1.382a93.979 93.979 0 0 1 4.864-2.919c0.512-0.307 0.973-0.563 1.485-0.87a104.488 104.488 0 0 1 6.758-3.43c0.359-0.154 0.717-0.308 1.076-0.513 2.15-0.972 4.352-1.945 6.604-2.764l0.768-0.308a96.724 96.724 0 0 1 7.68-2.61 1.587 1.587 0 0 1 0.41-0.103 111.004 111.004 0 0 1 7.373-1.946c0.358-0.102 0.717-0.153 1.024-0.256a135.496 135.496 0 0 1 7.936-1.485c0.153 0 0.307-0.05 0.46-0.05 2.407-0.36 4.813-0.615 7.271-0.82l1.894-0.154c2.612-0.153 5.223-0.307 7.885-0.307h496.896c3.43 0 6.81 0.205 10.138 0.512 0.819 0.051 1.638 0.205 2.406 0.256 2.816 0.307 5.581 0.717 8.346 1.28 0.46 0.103 0.973 0.154 1.433 0.256 31.335 6.605 57.703 26.727 72.704 53.965 0.256 0.46 0.512 0.973 0.768 1.434a108.678 108.678 0 0 1 3.328 6.963 108.257 108.257 0 0 1 9.268 43.776v30.925z m15.258-94.618c-0.359-0.666-0.717-1.28-1.075-1.946a20.339 20.339 0 0 0-1.024-1.792c-18.637-33.74-49.92-57.753-86.682-67.174-0.307-0.051-0.563-0.154-0.87-0.205-2.97-0.717-5.99-1.382-9.012-1.945-1.433-0.256-2.918-0.564-4.403-0.768l-3.533-0.461c-1.843-0.205-3.686-0.41-5.58-0.563-0.973-0.103-1.946-0.154-2.919-0.205-2.867-0.154-5.734-0.307-8.653-0.307h-22.528a174.182 174.182 0 0 1-1.536-7.066c-0.05-0.41-0.102-0.82-0.204-1.229-0.359-2.304-0.666-4.608-0.87-6.963-0.052-0.717-0.154-1.434-0.206-2.1-0.204-2.713-0.358-5.478-0.358-8.191 0-60.007 48.845-108.851 108.8-108.851 3.38 0 6.656 0.204 9.984 0.512 1.434 0.153 2.918 0.358 4.352 0.563 53.248 7.065 94.515 52.633 94.515 107.776 0.051 44.697-27.443 84.582-68.198 100.915z" fill="#333333" p-id="24591"></path><path d="M521.728 513.946c-8.5 0-15.36-6.861-15.36-15.36v-265.37c0-8.5 6.86-15.36 15.36-15.36s15.36 6.86 15.36 15.36v265.37c0 8.499-6.86 15.36-15.36 15.36z m-123.546-57.498c-8.499 0-15.36-6.86-15.36-15.36V233.216c0-8.5 6.861-15.36 15.36-15.36s15.36 6.86 15.36 15.36v207.872c0 8.5-6.86 15.36-15.36 15.36z m247.092 0c-8.5 0-15.36-6.86-15.36-15.36V233.216c0-8.5 6.86-15.36 15.36-15.36s15.36 6.86 15.36 15.36v207.872c0 8.5-6.861 15.36-15.36 15.36z" fill="#333333" p-id="24592"></path></svg>