<?xml version="1.0" standalone="no"?><!DOCTYPE svg PUBLIC "-//W3C//DTD SVG 1.1//EN" "http://www.w3.org/Graphics/SVG/1.1/DTD/svg11.dtd"><svg class="icon" width="200px" height="200.00px" viewBox="0 0 1024 1024" version="1.1" xmlns="http://www.w3.org/2000/svg"><path d="M625.82 249.12c-8.74 0.2-16.78 4.85-21.28 12.36-31.5 52.62-164.27 268.24-217.04 254.79-43.09-10.98-62.55-34.09-70.1-46.27a9.633 9.633 0 0 0-12.73-3.44c-30.59 16.26-131.26 73.47-116.24 114.51 16.87 46.12 92.81 107.27 227.82 68.61 12.25-3.51 23.12-10.73 31.04-20.71 20.9-26.32 66.78-83.4 107.48-129.24 3.46-3.9 9.9-1.63 10.17 3.58l6.93 135.58c0.33 6.55 5.74 11.69 12.3 11.69h60.73c5.81 0 10.8-4.14 11.86-9.86l52.32-280.95c0.02-0.11 0.04-0.22 0.07-0.32 1.16-4.71 26.87-112.91-83.33-110.33z" fill="#46BCB6" /><path d="M335.18 669.86c-34.78 0-61.47-7.32-80.29-15.36-35.71-15.25-63.36-41.68-73.98-70.7-7.73-21.14 6.93-46.56 43.57-75.57 27.17-21.51 59.55-39.78 76.43-48.75 8.18-4.35 18.41-1.58 23.29 6.29 7.18 11.58 25.21 32.52 65.28 42.74 8.6 2.19 36.34-3.13 108.1-99.64 43.53-58.53 84.5-125.45 100.1-151.51 5.93-9.9 16.38-15.98 27.95-16.25 35.02-0.81 60.89 8.95 76.98 29.04 27.31 34.1 15.81 85.07 14.31 91.13l-52.31 280.87c-1.77 9.5-10.07 16.39-19.73 16.39h-60.73c-10.83 0-19.74-8.47-20.29-19.28L557.2 509c-38.91 44.13-81.41 96.89-103.66 124.91-8.99 11.32-21.13 19.42-35.11 23.42-31.61 9.08-59.34 12.53-83.25 12.53zM309.2 473.41c-0.26 0-0.53 0.06-0.78 0.2-16.41 8.72-47.84 26.45-74.01 47.17-29.76 23.56-43.43 43.99-38.47 57.53 16.15 44.14 89.64 100.45 218.1 63.67 10.75-3.08 20.08-9.3 26.98-17.99 23.03-29 67.66-84.4 107.76-129.58 3.74-4.21 9.59-5.73 14.91-3.86 5.32 1.87 8.95 6.71 9.23 12.35l6.93 135.58c0.12 2.3 2.01 4.1 4.32 4.1h60.73c1.96 0 3.64-1.4 4-3.32l52.32-280.94c0.05-0.27 0.11-0.52 0.17-0.77 0.49-1.99 11.75-48.63-11.25-77.35-12.8-15.99-34.39-23.74-64.12-23.05-6.05 0.14-11.51 3.31-14.6 8.47-15.72 26.26-57.03 93.72-100.99 152.84-24.88 33.46-46.98 59.34-65.69 76.93-24.63 23.16-43.99 32.53-59.2 28.66-45.51-11.6-66.48-36.19-74.93-49.81a1.62 1.62 0 0 0-1.41-0.83z" fill="#752323" /><path d="M369.25 745.62c-34.78 0-61.47-7.32-80.29-15.36-35.71-15.25-63.36-41.68-73.98-70.7-7.73-21.14 6.93-46.56 43.57-75.57 27.17-21.51 59.55-39.78 76.43-48.75 8.18-4.35 18.41-1.58 23.29 6.29 7.18 11.58 25.21 32.52 65.28 42.74 8.6 2.18 36.34-3.13 108.1-99.64 43.53-58.54 84.5-125.45 100.1-151.51 5.93-9.9 16.38-15.98 27.95-16.25 35.01-0.82 60.89 8.95 76.98 29.04 27.31 34.1 15.81 85.07 14.31 91.13l-52.31 280.87c-1.77 9.5-10.07 16.39-19.73 16.39h-60.73c-10.83 0-19.74-8.47-20.29-19.28l-6.66-130.26c-38.91 44.12-81.41 96.89-103.66 124.92-8.99 11.32-21.13 19.42-35.11 23.42-31.62 9.06-59.34 12.52-83.25 12.52z m-25.98-196.45c-0.26 0-0.53 0.06-0.78 0.2-16.4 8.72-47.83 26.45-74.01 47.17-29.76 23.56-43.43 43.99-38.47 57.53 16.15 44.14 89.64 100.45 218.1 63.67 10.75-3.08 20.08-9.3 26.98-17.99 23.04-29 67.67-84.41 107.76-129.58 3.74-4.21 9.59-5.73 14.91-3.87 5.32 1.87 8.95 6.71 9.24 12.34l6.93 135.58c0.12 2.3 2.01 4.1 4.32 4.1h60.73c1.96 0 3.64-1.4 4-3.32l52.32-280.94c0.05-0.27 0.11-0.52 0.17-0.77 0.49-1.99 11.75-48.64-11.25-77.35-12.8-15.99-34.36-23.73-64.12-23.05-6.05 0.14-11.51 3.31-14.6 8.47-15.72 26.26-57.02 93.72-100.99 152.84-24.88 33.46-46.98 59.34-65.69 76.93-24.63 23.16-44 32.54-59.2 28.66-45.51-11.6-66.48-36.19-74.93-49.81-0.34-0.53-0.87-0.81-1.42-0.81z" fill="#752323" /><path d="M590.32 295.68l-16.78 130.76 139.59-54.78-17.67-100.72-73.33-19.44z" fill="#05443F" opacity=".1" /><path d="M335.57 670.38c-34.78 0-61.47-7.32-80.29-15.36-35.71-15.25-63.36-41.68-73.98-70.7-7.73-21.14 6.93-46.56 43.57-75.57 27.17-21.51 59.55-39.78 76.43-48.75 8.18-4.34 18.41-1.58 23.29 6.29 7.18 11.58 25.21 32.52 65.28 42.74 8.6 2.19 36.34-3.13 108.1-99.64 43.53-58.54 84.5-125.45 100.1-151.51 5.93-9.9 16.38-15.98 27.95-16.25 35.02-0.82 60.89 8.95 76.98 29.04 27.31 34.1 15.81 85.07 14.31 91.13L665 642.68c-1.77 9.5-10.07 16.39-19.73 16.39h-60.73c-10.83 0-19.74-8.47-20.29-19.28l-6.66-130.26c-38.91 44.13-81.41 96.89-103.66 124.91-8.99 11.32-21.13 19.42-35.11 23.42-31.61 9.06-59.34 12.52-83.25 12.52z m-25.98-196.45c-0.26 0-0.53 0.06-0.78 0.2-16.41 8.72-47.84 26.45-74.01 47.17-29.76 23.56-43.43 43.99-38.47 57.53 16.15 44.14 89.64 100.45 218.1 63.67 10.75-3.08 20.08-9.3 26.98-17.99 23.03-29 67.66-84.4 107.76-129.58 3.74-4.21 9.59-5.73 14.91-3.87 5.32 1.87 8.95 6.71 9.24 12.34l6.93 135.58c0.12 2.3 2.01 4.1 4.32 4.1h60.73c1.96 0 3.64-1.4 4-3.32l52.32-280.94c0.05-0.27 0.11-0.52 0.17-0.77 0.49-1.99 11.75-48.64-11.25-77.35-12.8-15.99-34.36-23.73-64.12-23.05-6.05 0.14-11.51 3.31-14.6 8.47-15.72 26.26-57.02 93.72-100.99 152.84-24.88 33.46-46.98 59.34-65.69 76.93-24.63 23.16-44 32.54-59.2 28.66-45.51-11.6-66.48-36.19-74.93-49.81a1.67 1.67 0 0 0-1.42-0.81z" fill="#752323" /><path d="M661.95 325.69c-8.74 0.2-16.78 4.85-21.28 12.36-31.5 52.62-164.27 268.24-217.04 254.79-43.09-10.98-62.55-34.09-70.1-46.27a9.633 9.633 0 0 0-12.73-3.44c-30.59 16.26-131.26 73.47-116.24 114.51 16.87 46.12 92.81 107.27 227.82 68.61 12.25-3.51 23.12-10.73 31.04-20.71 20.9-26.32 66.78-83.4 107.48-129.24 3.46-3.9 9.9-1.63 10.17 3.58L608 715.46c0.33 6.55 5.74 11.69 12.3 11.69h60.73c5.81 0 10.8-4.14 11.86-9.86l52.32-280.95c0.02-0.11 0.04-0.22 0.07-0.32 1.16-4.71 26.87-112.91-83.33-110.33z" fill="#EB7E91" /><path d="M371.31 746.43c-34.78 0-61.47-7.32-80.3-15.36-35.71-15.25-63.36-41.68-73.98-70.7-7.73-21.14 6.93-46.56 43.57-75.57 27.17-21.51 59.55-39.78 76.43-48.75 8.18-4.35 18.41-1.58 23.29 6.29 7.18 11.58 25.21 32.52 65.28 42.74 8.6 2.19 36.34-3.13 108.1-99.64 43.53-58.54 84.5-125.46 100.1-151.51 5.93-9.9 16.38-15.98 27.95-16.25 35.01-0.81 60.89 8.95 76.98 29.04 27.31 34.1 15.8 85.08 14.31 91.13l-52.31 280.87c-1.77 9.5-10.07 16.39-19.73 16.39h-60.73c-10.83 0-19.74-8.47-20.29-19.28l-6.66-130.26c-38.89 44.1-81.4 96.88-103.66 124.92-8.99 11.32-21.13 19.42-35.11 23.42-31.6 9.07-59.33 12.52-83.24 12.52z m-25.98-196.45c-0.26 0-0.53 0.06-0.78 0.2-16.41 8.72-47.84 26.45-74.01 47.17-29.76 23.56-43.43 43.99-38.47 57.53 16.15 44.14 89.64 100.45 218.1 63.67 10.75-3.08 20.08-9.3 26.98-17.99 23.04-29.01 67.69-84.43 107.76-129.58 3.74-4.21 9.59-5.73 14.91-3.87 5.32 1.87 8.95 6.71 9.24 12.34l6.93 135.58c0.12 2.3 2.01 4.1 4.32 4.1h60.73c1.96 0 3.64-1.4 4-3.32l52.32-280.95c0.05-0.27 0.11-0.52 0.17-0.77 0.49-1.99 11.75-48.64-11.25-77.35-12.8-15.99-34.36-23.75-64.12-23.05-6.05 0.14-11.51 3.31-14.6 8.47-15.72 26.26-57.02 93.72-100.99 152.84-24.88 33.46-46.98 59.34-65.69 76.93-24.63 23.16-44 32.54-59.2 28.66-45.51-11.6-66.48-36.19-74.93-49.81-0.34-0.52-0.87-0.8-1.42-0.8z" fill="#752323" /><path d="M717.61 453.24h-56.76c-13.03 0-23.7-10.66-23.7-23.7v-16.22c0-13.03 10.66-23.7 23.7-23.7h56.76c13.03 0 23.7 10.66 23.7 23.7v16.22c-0.01 13.04-10.67 23.7-23.7 23.7zM687.77 576.05h-54.6c-13.03 0-23.7-10.66-23.7-23.7v-15.24c0-13.03 10.66-23.7 23.7-23.7h54.6c13.03 0 23.7 10.66 23.7 23.7v15.24c-0.01 13.03-10.67 23.7-23.7 23.7zM682.07 696.79h-39.49c-13.03 0-23.7-10.66-23.7-23.7v-15.63c0-13.03 10.66-23.7 23.7-23.7h39.49c13.03 0 23.7 10.66 23.7 23.7v15.63c0 13.04-10.67 23.7-23.7 23.7z" fill="#A00728" opacity=".1" /><path d="M730.98 358.53c0.07 0.84 0.11 1.68 0.11 2.53 0 16.85-13.78 30.63-30.63 30.63h-25.03c-3.06 0-6.01-0.46-8.81-1.3l-5.6 61.78h15.49c16.85 0 30.63 13.78 30.63 30.63s-13.78 30.63-30.63 30.63h-21.04l-5.59 61.65h18.38c16.85 0 30.63 13.78 30.63 30.63s-13.78 30.63-30.63 30.63h-22.28c-0.55 0-1.1-0.02-1.64-0.05l-5.25 57.97c1.17-0.32 2.39-0.5 3.66-0.5h35.34c7.77 0 14.14 6.36 14.14 14.14 0 7.77-6.36 14.14-14.14 14.14h-12.96l24.74 2.75 55.37-334.55c-0.01-0.02-3.51-16.04-14.26-31.71zM675.43 330.43h16.15c-5.85-1.32-12.29-1.9-19.38-1.47l-0.15 1.67c1.11-0.13 2.24-0.2 3.38-0.2z" fill="#A00728" opacity=".1" /><path d="M577.39 523.52l-3.19-2.11c-3-1.98-3.82-6.06-1.84-9.05l61.5-92.9c1.98-3 6.06-3.82 9.05-1.84l3.19 2.11c3 1.98 3.82 6.06 1.84 9.05l-61.5 92.9c-1.98 3-6.05 3.83-9.05 1.84z" fill="#FFFFFF" opacity=".7" /><path d="M580.97 526.6c-1.66 0-3.27-0.48-4.68-1.41l-3.19-2.11c-3.92-2.6-5-7.9-2.41-11.82l61.5-92.9a8.459 8.459 0 0 1 5.42-3.64c2.24-0.46 4.51-0.02 6.41 1.24l3.19 2.11c1.89 1.25 3.19 3.18 3.64 5.42s0.02 4.51-1.24 6.41l-61.5 92.9a8.459 8.459 0 0 1-5.42 3.64c-0.57 0.11-1.15 0.16-1.72 0.16z m-2.47-4.75c1 0.66 2.21 0.9 3.4 0.65 1.19-0.24 2.21-0.93 2.88-1.93l61.5-92.9c0.67-1 0.9-2.21 0.65-3.4a4.524 4.524 0 0 0-1.93-2.88l-3.19-2.11c-1-0.66-2.21-0.9-3.4-0.65-1.19 0.24-2.21 0.93-2.88 1.93l-61.5 92.9a4.532 4.532 0 0 0 1.28 6.28l3.19 2.11z" fill="#FFFFFF" opacity=".7" /><path d="M655.9 403.97l-3.04-2.01c-2.86-1.89-3.65-5.77-1.76-8.63l9.6-14.5c1.89-2.86 5.77-3.65 8.63-1.76l3.04 2.01c2.86 1.89 3.65 5.77 1.76 8.63l-9.6 14.5c-1.89 2.86-5.78 3.65-8.63 1.76z" fill="#FFFFFF" opacity=".7" /><path d="M659.31 407c-1.6 0-3.16-0.46-4.51-1.36l-3.04-2.01a8.15 8.15 0 0 1-3.51-5.22 8.206 8.206 0 0 1 1.19-6.18l9.6-14.5a8.15 8.15 0 0 1 5.22-3.51c2.16-0.44 4.35-0.01 6.18 1.19l3.04 2.01a8.113 8.113 0 0 1 3.51 5.22c0.44 2.16 0.01 4.35-1.19 6.18l-9.6 14.5a8.15 8.15 0 0 1-5.22 3.51c-0.56 0.12-1.12 0.17-1.67 0.17z m-2.31-4.7c1.95 1.29 4.57 0.75 5.86-1.19l9.6-14.5c0.62-0.94 0.84-2.06 0.61-3.17s-0.87-2.06-1.8-2.68l-3.04-2.01c-0.94-0.62-2.07-0.84-3.17-0.61-1.11 0.23-2.06 0.87-2.68 1.8l-9.6 14.5c-0.62 0.94-0.84 2.06-0.61 3.17s0.87 2.06 1.8 2.68l3.03 2.01z" fill="#FFFFFF" opacity=".7" /><path d="M615.61 316.97l-3-2.06c-2.82-1.94-3.55-5.84-1.6-8.66l9.85-14.33c1.94-2.82 5.84-3.55 8.66-1.6l3 2.06c2.82 1.94 3.55 5.84 1.6 8.66l-9.85 14.33c-1.94 2.82-5.84 3.54-8.66 1.6z" fill="#FFFFFF" opacity=".7" /><path d="M619.11 320.07c-1.65 0-3.25-0.49-4.63-1.44l-3-2.06c-3.74-2.57-4.69-7.7-2.12-11.44l9.85-14.33a8.151 8.151 0 0 1 5.28-3.42c2.17-0.4 4.35 0.06 6.16 1.3l3 2.06a8.151 8.151 0 0 1 3.42 5.28c0.4 2.17-0.06 4.35-1.3 6.16l-9.85 14.33a8.151 8.151 0 0 1-5.28 3.42c-0.51 0.09-1.02 0.14-1.53 0.14z m6.89-28.84c-0.26 0-0.53 0.02-0.79 0.07-1.12 0.21-2.08 0.83-2.72 1.76l-9.85 14.33a4.236 4.236 0 0 0 1.09 5.88l3 2.06c0.93 0.64 2.05 0.87 3.16 0.67 1.12-0.21 2.08-0.83 2.71-1.75l9.85-14.33c0.64-0.93 0.87-2.05 0.67-3.16s-0.83-2.08-1.75-2.71l-3-2.06c-0.7-0.51-1.52-0.76-2.37-0.76z" fill="#FFFFFF" opacity=".7" /><path d="M602.23 335.6l-47.08 68.29M555.14 411.89c-1.57 0-3.15-0.46-4.53-1.41-3.64-2.51-4.55-7.49-2.05-11.13l47.08-68.29c2.51-3.64 7.49-4.55 11.13-2.05 3.64 2.51 4.55 7.49 2.05 11.13l-47.08 68.29a8.006 8.006 0 0 1-6.6 3.46z" fill="#FFFFFF" opacity=".7" /></svg>