<?xml version="1.0" standalone="no"?><!DOCTYPE svg PUBLIC "-//W3C//DTD SVG 1.1//EN" "http://www.w3.org/Graphics/SVG/1.1/DTD/svg11.dtd"><svg class="icon" width="200px" height="200.00px" viewBox="0 0 1024 1024" version="1.1" xmlns="http://www.w3.org/2000/svg"><path d="M621.184 195.964H56.946v672.454L0 969.11h578.15v-14.84c-21.498 0-41.884-8.16-57.42-22.992-13.004-12.348-21.498-28.234-24.566-45.952L434.508 530.72h186.676V195.964z m-14.842 319.916h-189.478l64.676 371.98c3.614 20.88 13.632 39.616 28.952 54.164a98.358 98.358 0 0 0 15.744 12.244H25.44l46.348-81.944v-661.52h534.556V515.88z" fill="#4B555F" /><path d="M588.734 228.368H89.398V877L55.66 936.658h459.96a89.976 89.976 0 0 1-26.762-50.062L425.686 523.3h163.048V228.368z" fill="#71CBDF" /><path d="M239.232 877.806h14.84v-14.84h-14.84v14.84z m-59.362 0h14.84v-14.84h-14.84v14.84z m-89.044 0h14.84v-14.84h-14.84v14.84z m59.362 0h14.84v-14.84h-14.84v14.84z m118.726 0h14.84v-14.84h-14.84v14.84z m-148.406 0h14.84v-14.84h-14.84v14.84z m89.042 0h14.84v-14.84h-14.84v14.84z m207.768 0h14.84v-14.84h-14.84v14.84z m29.682-14.842v14.84h14.84v-14.84h-14.84z m-148.406 14.842h14.84v-14.84h-14.84v14.84z m89.044 0h14.84v-14.84h-14.84v14.84z m-29.682 0h14.84v-14.84h-14.84v14.84z m-29.68 0h14.84v-14.84h-14.84v14.84zM236.004 277.924c-13.15 0-23.85 10.698-23.85 23.848s10.7 23.848 23.85 23.848c13.15 0 23.846-10.698 23.846-23.848s-10.696-23.848-23.846-23.848z m0 32.854c-4.966 0-9.01-4.042-9.01-9.008s4.044-9.008 9.01-9.008 9.004 4.042 9.004 9.008-4.036 9.008-9.004 9.008zM442.106 277.924c-13.15 0-23.846 10.698-23.846 23.848s10.696 23.848 23.846 23.848 23.85-10.698 23.85-23.848-10.7-23.848-23.85-23.848z m0 32.854c-4.966 0-9.004-4.042-9.004-9.008s4.038-9.008 9.004-9.008c4.966 0 9.01 4.042 9.01 9.008s-4.044 9.008-9.01 9.008z" fill="#4B555F" /><path d="M339.058 54.89c-60.914 0-110.474 49.558-110.474 110.47v119.984h14.84V165.362c0-52.732 42.898-95.63 95.632-95.63 52.73 0 95.628 42.898 95.628 95.63v119.984h14.84V165.362c0.002-60.914-49.552-110.472-110.466-110.472zM416.86 515.866l64.682 371.978a97.87 97.87 0 0 0 96.608 81.266h284.56a97.88 97.88 0 0 0 96.614-81.266L1024 515.866H416.86z m527.846 369.438a83.072 83.072 0 0 1-81.996 68.966h-284.56a83.064 83.064 0 0 1-81.99-68.966l-61.656-354.596h571.854l-61.652 354.596z" fill="#4B555F" /><path d="M455.086 548.02l56.592 325.466c6.378 36.688 38.22 63.47 75.458 63.47h266.588c37.238 0 69.078-26.782 75.458-63.47l56.592-325.466H455.086z" fill="#FFD351" /><path d="M843.908 594.282v28.662c0 65.714-53.464 119.178-119.178 119.178s-119.174-53.464-119.174-119.178v-28.662h-14.84v28.662c0 73.898 60.122 134.02 134.014 134.02 73.898 0 134.02-60.12 134.02-134.02v-28.662h-14.842z" fill="#4B555F" /><path d="M851.328 553.61c-13.256 0-24.044 10.788-24.044 24.046s10.788 24.046 24.044 24.046c13.26 0 24.048-10.788 24.048-24.046s-10.786-24.046-24.048-24.046z m0 33.252c-5.072 0-9.204-4.13-9.204-9.206s4.13-9.206 9.204-9.206c5.078 0 9.208 4.13 9.208 9.206s-4.13 9.206-9.208 9.206zM598.136 553.61c-13.26 0-24.048 10.788-24.048 24.046s10.788 24.046 24.048 24.046c13.256 0 24.044-10.788 24.044-24.046s-10.788-24.046-24.044-24.046z m0 33.252c-5.078 0-9.208-4.13-9.208-9.206s4.13-9.206 9.208-9.206c5.072 0 9.202 4.13 9.202 9.206s-4.13 9.206-9.202 9.206z" fill="#4B555F" /></svg>