<?xml version="1.0" standalone="no"?><!DOCTYPE svg PUBLIC "-//W3C//DTD SVG 1.1//EN" "http://www.w3.org/Graphics/SVG/1.1/DTD/svg11.dtd"><svg t="1607582689027" class="icon" viewBox="0 0 1024 1024" version="1.1" xmlns="http://www.w3.org/2000/svg" p-id="69016" xmlns:xlink="http://www.w3.org/1999/xlink" width="200" height="200"><defs><style type="text/css"></style></defs><path d="M786.369 836.277H212.688c-27.55 0-49.885-22.335-49.885-49.885v-49.886c0-27.547 22.335-49.884 49.885-49.884h573.681c13.786 0 24.941-11.155 24.941-24.943 0-13.786-11.155-24.942-24.941-24.942H162.804c-27.551 0-49.886 22.337-49.886 49.886v149.654c0 27.551 22.335 49.886 49.886 49.886h623.565c13.786 0 24.941-11.153 24.941-24.942 0.001-13.786-11.155-24.944-24.941-24.944z" fill="#CA3D39" p-id="69017"></path><path d="M212.688 686.623c-27.55 0-49.885 22.337-49.885 49.884v49.886c0 27.55 22.335 49.885 49.885 49.885h573.681V686.623H212.688z" fill="#EAEAEA" p-id="69018"></path><path d="M162.804 736.507h623.565v24.943H162.804z m49.884-49.884c-18.415 0-34.321 10.085-42.969 24.941h616.649v-24.941h-573.68zM169.72 811.336h616.649v-24.943H162.804c0 9.134 2.63 17.587 6.916 24.943z" fill="#CCCCCC" p-id="69019"></path><path d="M237.631 437.196h573.68c27.551 0 49.886 22.338 49.886 49.885v49.886c0 27.55-22.335 49.885-49.886 49.885h-573.68c-13.788 0-24.942 11.156-24.942 24.942 0 13.79 11.154 24.943 24.942 24.943h623.565c27.551 0 49.886-22.335 49.886-49.886V437.196c0-27.548-22.335-49.886-49.886-49.886H237.631c-13.788 0-24.942 11.156-24.942 24.943-0.001 13.789 11.154 24.943 24.942 24.943z" fill="#72ACD0" p-id="69020"></path><path d="M811.311 586.852c27.551 0 49.886-22.335 49.886-49.885v-49.886c0-27.547-22.335-49.885-49.886-49.885h-573.68v149.655h573.68z" fill="#EAEAEA" p-id="69021"></path><path d="M237.631 512.023h623.565v24.943H237.631z m573.68 74.829c18.416 0 34.319-10.083 42.966-24.942H237.631v24.942h573.68z m42.965-124.713H237.631v24.942h623.565c0-9.135-2.63-17.585-6.92-24.942z" fill="#CCCCCC" p-id="69022"></path><path d="M836.254 337.378h-573.68c-27.551 0-49.886-22.338-49.886-49.885v-49.886c0-27.55 22.335-49.885 49.886-49.885h573.68c13.786 0 24.942-11.156 24.942-24.942 0-13.787-11.156-24.943-24.942-24.943H212.688c-27.55 0-49.885 22.335-49.885 49.886v149.655c0 27.547 22.335 49.885 49.885 49.885h623.565c13.786 0 24.942-11.156 24.942-24.941 0.001-13.788-11.155-24.944-24.941-24.944z" fill="#3CA2A2" p-id="69023"></path><path d="M262.574 187.723c-27.551 0-49.886 22.335-49.886 49.885v49.886c0 27.547 22.335 49.885 49.886 49.885h573.68V187.723h-573.68z" fill="#EAEAEA" p-id="69024"></path><path d="M212.688 237.607h623.565v24.942H212.688z m49.886-49.884c-18.416 0-34.322 10.085-42.969 24.942h616.648v-24.942H262.574z m-42.969 124.713h616.648v-24.942H212.688c0 9.133 2.63 17.584 6.917 24.942z" fill="#CCCCCC" p-id="69025"></path><path d="M287.517 312.483v199.54l37.414-24.942 37.413 24.942v-199.54z" fill="#DEAE55" p-id="69026"></path><path d="M324.931 487.081l12.47 8.308V312.483h-24.942v182.906z" fill="#C8974A" p-id="69027"></path></svg>