<?xml version="1.0" standalone="no"?><!DOCTYPE svg PUBLIC "-//W3C//DTD SVG 1.1//EN" "http://www.w3.org/Graphics/SVG/1.1/DTD/svg11.dtd"><svg t="1607585502032" class="icon" viewBox="0 0 1142 1024" version="1.1" xmlns="http://www.w3.org/2000/svg" p-id="20951" xmlns:xlink="http://www.w3.org/1999/xlink" width="223.046875" height="200"><defs><style type="text/css"></style></defs><path d="M374.724638 606.178319a56.290319 56.290319 0 0 1 51.185159-55.607652c0.563942-1.439536 1.127884-2.864232 1.721507-4.274087a115.96429 115.96429 0 0 1-24.145623-71.813566 116.528232 116.528232 0 0 1 117.433507-115.563594 115.682319 115.682319 0 0 1 58.813218 16.606609c19.96058-89.221565 99.951304-155.558957 195.07942-154.787246 109.523478 0.890435 197.572638 90.37913 196.697044 199.902608-0.029681 3.413333-0.148406 6.811826-0.356174 10.210319 0.816232 0.742029 1.558261 1.484058 2.329971 2.226087 88.034319 12.109913 155.514435 87.945275 154.787246 179.140638a178.918029 178.918029 0 0 1-58.768696 131.309449c-31.669797 154.742725-169.138087 270.543768-333.06713 269.252638-186.249275-1.484058-336.050087-153.703884-334.536348-339.938319 0.044522-5.965913 0.26713-11.902145 0.593623-17.734493a56.334841 56.334841 0 0 1-27.751884-48.929391" fill="#3D804A" p-id="20952"></path><path d="M833.179826 708.236986a65.699246 65.699246 0 0 0-17.779014-86.416696c0.26713-1.78087 0.578783-3.546899 0.831072-5.327768a135.242203 135.242203 0 0 0 67.346551-57.344c38.169971-64.704928 16.665971-148.138667-48.068638-186.323479a135.405449 135.405449 0 0 0-68.815768-18.743652c33.643594-101.286957-6.515014-215.79687-102.207072-272.220753-110.117101-64.986899-252.096928-28.345507-317.068986 81.801275-2.048 3.413333-3.992116 6.886029-5.817507 10.418087l-3.665623 0.845913c-95.395246-40.811594-208.524986-5.505855-262.63374 86.223768a208.910841 208.910841 0 0 0-20.183188 166.778435c-61.336116 173.931594 6.633739 372.528232 171.468058 469.808232 187.347478 110.502957 428.80371 48.231884 539.336348-139.115594 3.502377-5.936232 6.826667-11.976348 10.017391-18.105508a65.669565 65.669565 0 0 0 57.240116-32.27826" fill="#58AE5A" p-id="20953"></path><path d="M605.584696 473.978435c69.171942 82.513623 191.962899 94.920348 276.272232 27.158261 84.353855-67.821449 98.615652-190.360116 32.946086-275.69345L605.584696 473.978435z" fill="#E6B828" p-id="20954"></path><path d="M1023.109565 752.358029c0 124.512464-100.915942 225.428406-225.428406 225.428406-124.527304 0-225.458087-100.915942-225.458087-225.428406s100.915942-225.458087 225.458087-225.458087c124.512464 0 225.428406 100.945623 225.428406 225.458087" fill="#D9362C" p-id="20955"></path><path d="M863.870145 222.104116a190.464 190.464 0 0 0-108.781449-34.979246l0.118724-13.935305c42.087884 0.356174 82.454261 13.326841 116.72116 37.546667l-8.043594 11.367884z m-144.398841 757.121855l-2.730666-0.014841c-78.061449-0.638145-151.448116-26.713043-212.249971-75.375304l8.696579-10.878145c58.353159 46.703304 128.77171 71.709681 203.672116 72.318145 157.369507 1.484058 294.630029-109.657043 326.195942-263.68742l0.445218-2.226087 1.691826-1.52858a172.981797 172.981797 0 0 0 56.453565-126.233971c0.697507-86.387014-63.265391-160.411826-148.761971-172.165565l-2.226087-0.296812-6.307246-5.936232 0.207768-3.294608a189.721971 189.721971 0 0 0-17.244754-91.670261l12.644174-5.847189a203.612754 203.612754 0 0 1 18.862377 87.752348c0 2.018319-0.059362 4.051478-0.148406 6.069797 90.468174 14.395362 157.651478 93.43629 156.909449 185.507247a186.991304 186.991304 0 0 1-59.347478 134.886029c-33.53971 158.497391-174.554899 272.606609-336.747594 272.621449z" fill="#070002" p-id="20956"></path><path d="M876.79629 509.002203l-12.659015-5.787826a127.643826 127.643826 0 0 0 11.649855-57.907942l13.920464-0.445218a141.430725 141.430725 0 0 1-12.911304 64.140986zM510.753391 905.126957l-3.606261-13.460406a387.932754 387.932754 0 0 0 98.79374-41.776232l7.153159 11.961507a401.823536 401.823536 0 0 1-102.340638 43.275131z" fill="#070002" p-id="20957"></path><path d="M406.290551 918.958377c-70.670841 0-140.302841-18.862377-202.885565-55.80058C39.475942 766.486261-33.970087 566.613333 28.16742 387.190725a217.102841 217.102841 0 0 1 21.474319-170.147247C104.151188 124.66087 218.88371 86.179246 317.736812 126.590145A236.959536 236.959536 0 0 1 467.626667 9.750261a237.004058 237.004058 0 0 1 180.773101 25.525797c92.056116 54.316522 136.94887 164.285217 109.182145 267.397565l-13.460406-3.606261c26.149101-97.116754-16.13171-200.644638-102.800695-251.785275a223.187478 223.187478 0 0 0-170.22145-24.041739 223.142957 223.142957 0 0 0-137.349565 103.364638c-1.958957 3.33913-3.82887 6.722783-5.63942 10.136115l-1.484058 2.819711-8.96371 2.122202-2.107363-0.905275c-93.184-39.891478-202.351304-4.051478-253.922318 83.344696A203.123014 203.123014 0 0 0 42.147246 385.380174l0.667826 2.166725-0.756869 2.151884c-61.261913 173.694145 9.572174 367.764406 168.44058 461.467826 90.141681 53.203478 195.494957 67.569159 296.648347 40.514782l3.606261 13.445566c-34.578551 9.260522-69.646841 13.83142-104.46284 13.83142z" fill="#070002" p-id="20958"></path><path d="M697.907942 507.354899a205.913043 205.913043 0 0 1-117.329623-69.424232l-4.570899-5.461334 320.319073-257.484058 4.333449 5.639421c67.673043 87.871072 52.372406 215.900754-34.088812 285.384347a205.898203 205.898203 0 0 1-49.894029 29.651479l-5.342608-12.851942a192.037101 192.037101 0 0 0 46.510377-27.662841c78.744116-63.280232 94.163478-178.636058 36.018087-260.303768L595.938319 434.354087a192.066783 192.066783 0 0 0 104.685449 59.362319l-2.715826 13.653333z" fill="#070002" p-id="20959"></path><path d="M778.047072 944.231884c-128.163246 0-232.418319-104.269913-232.418318-232.433159 0-128.148406 104.255072-232.403478 232.403478-232.403479 33.228058 0 65.298551 6.856348 95.321043 20.376116a232.937739 232.937739 0 0 1 137.082435 212.027363c0 128.163246-104.255072 232.433159-232.403478 232.433159z m0-450.901333c-120.475826 0-218.497855 98.007188-218.497855 218.468174 0 120.475826 98.022029 218.497855 218.497855 218.497855 120.460986 0 218.453333-98.022029 218.453334-218.497855a218.972754 218.972754 0 0 0-128.860754-199.308986 216.702145 216.702145 0 0 0-89.59258-19.159188z" fill="#070002" p-id="20960"></path><path d="M214.149565 864.137275a6.975072 6.975072 0 0 1-6.975072-6.975072c0-280.041739 87.336812-499.400348 198.834087-499.400348a6.975072 6.975072 0 0 1 0 13.935304c-101.954783 0-184.898783 217.785507-184.898783 485.479884 0 3.84371-3.116522 6.960232-6.975072 6.960232z m-4.303768-334.580869a79.530667 79.530667 0 0 1-79.441623-79.426783 6.975072 6.975072 0 0 1 13.935304 0 65.595362 65.595362 0 0 0 65.506319 65.506319 6.975072 6.975072 0 1 1 0 13.920464z m-63.398956 114.643478a79.397101 79.397101 0 0 1-65.239189-33.925565 6.975072 6.975072 0 1 1 11.427247-7.969391 65.595362 65.595362 0 0 0 91.210202 16.205913 6.975072 6.975072 0 0 1 7.969392 11.427246 79.055768 79.055768 0 0 1-45.367652 14.261797z" fill="#060001" p-id="20961"></path><path d="M352.226319 628.691478a78.951884 78.951884 0 0 1-45.337971-14.246956 6.975072 6.975072 0 0 1-1.721507-9.705739 6.975072 6.975072 0 0 1 9.690898-1.736348 65.595362 65.595362 0 0 0 91.195362-16.220754 6.975072 6.975072 0 0 1 11.427247 7.984232 79.411942 79.411942 0 0 1-65.254029 33.925565z" fill="#060001" p-id="20962"></path></svg>