<?xml version="1.0" standalone="no"?><!DOCTYPE svg PUBLIC "-//W3C//DTD SVG 1.1//EN" "http://www.w3.org/Graphics/SVG/1.1/DTD/svg11.dtd"><svg class="icon" width="200px" height="200.00px" viewBox="0 0 1024 1024" version="1.1" xmlns="http://www.w3.org/2000/svg"><path d="M512 512m-414 0a414 414 0 1 0 828 0 414 414 0 1 0-828 0Z" fill="#F0C48A" /><path d="M545.984 395.27h77.49v369.562h-77.49z" fill="#FFFFFF" /><path d="M545.984 395.27h77.49v369.562h-77.49z" fill="#7BABF1" /><path d="M216.21 764.834h591.58v81.586h-591.58z" fill="#FD919E" /><path d="M726.204 764.834h81.586v81.586h-81.586z" fill="#E8677D" /><path d="M689.02 497.348h77.49v267.486H689.02z" fill="#D3E6F8" /><path d="M623.476 776.832h-77.49a12 12 0 0 1-12-12v-369.56a12 12 0 0 1 12-12h77.49a12 12 0 0 1 12 12v369.56a12 12 0 0 1-12 12z m-65.49-24h53.49v-345.56h-53.49v345.56z" fill="#4C4372" /><path d="M401.738 395.27h77.49v369.562h-77.49z" fill="#7BABF1" /><path d="M257.49 477.702h77.49v287.13h-77.49z" fill="#A4CFF2" /><path d="M766.51 776.832H689.02a12 12 0 0 1-12-12V497.348a12 12 0 0 1 12-12h77.49a12 12 0 0 1 12 12v267.484a12 12 0 0 1-12 12z m-65.49-24h53.49V509.348H701.02v243.484zM334.98 776.832h-77.49a12 12 0 0 1-12-12V477.704a12 12 0 0 1 12-12h77.49a12 12 0 0 1 12 12v287.128a12 12 0 0 1-12 12z m-65.49-24h53.49V489.704h-53.49v263.128zM479.228 776.832h-77.492a12 12 0 0 1-12-12v-369.56a12 12 0 0 1 12-12h77.492a12 12 0 0 1 12 12v369.56a12 12 0 0 1-12 12z m-65.49-24h53.492v-345.56h-53.492v345.56zM623.476 776.832h-77.49a12 12 0 0 1-12-12v-369.56a12 12 0 0 1 12-12h77.49a12 12 0 0 1 12 12v369.56a12 12 0 0 1-12 12z m-65.49-24h53.49v-345.56h-53.49v345.56z" fill="#4C4372" /><path d="M807.79 858.42h-591.58a12 12 0 0 1-12-12v-81.588a12 12 0 0 1 12-12h591.58a12 12 0 0 1 12 12v81.588a12 12 0 0 1-12 12z m-579.58-24h567.58v-57.588h-567.58v57.588zM288.462 442.348a11.96 11.96 0 0 1-8.486-3.516l-72.252-72.252a11.998 11.998 0 0 1 0-16.968 11.996 11.996 0 0 1 16.97 0l63.766 63.766L501.44 200.4a11.996 11.996 0 0 1 16.97 0l140.522 140.522 106.006-106.006a11.996 11.996 0 0 1 16.97 0 11.998 11.998 0 0 1 0 16.968l-114.492 114.492a11.996 11.996 0 0 1-16.97 0l-140.522-140.522-212.98 212.978a11.946 11.946 0 0 1-8.482 3.516z" fill="#4C4372" /><path d="M748.656 262.634l30.936 30.936 13.338-44.274 13.338-44.276-44.274 13.34-44.274 13.338z" fill="#7BABF1" /><path d="M779.592 305.57a11.994 11.994 0 0 1-8.486-3.516l-61.874-61.872a12.004 12.004 0 0 1 5.024-19.976l88.55-26.676a11.998 11.998 0 1 1 14.95 14.952l-26.676 88.548a12 12 0 0 1-11.488 8.54z m-39.2-68.17l16.748 16.746v0.002l16.75 16.748 14.442-47.94-47.94 14.444z" fill="#4C4372" /><path d="M487.786873 231.018586a31.302 31.302 0 1 0 44.26694-44.268486 31.302 31.302 0 1 0-44.26694 44.268486Z" fill="#FD919E" /><path d="M509.926 252.186c-23.876 0-43.302-19.426-43.302-43.302s19.424-43.302 43.302-43.302 43.302 19.426 43.302 43.302-19.424 43.302-43.302 43.302z m0-62.606c-10.642 0-19.302 8.658-19.302 19.302s8.66 19.302 19.302 19.302 19.302-8.658 19.302-19.302-8.658-19.302-19.302-19.302z" fill="#4C4372" /></svg>