<?xml version="1.0" standalone="no"?><!DOCTYPE svg PUBLIC "-//W3C//DTD SVG 1.1//EN" "http://www.w3.org/Graphics/SVG/1.1/DTD/svg11.dtd"><svg class="icon" width="200px" height="200.00px" viewBox="0 0 1024 1024" version="1.1" xmlns="http://www.w3.org/2000/svg"><path d="M762.595933 304.950933c54.419505 0 97.954085 43.535604 97.954085 97.954086s-43.535604 97.954085-97.954085 97.954085c-54.419505 0-97.954085-43.535604-97.954085-97.954085s43.53458-97.954085 97.954085-97.954086M203.167517 431.203161l206.792072-93.600524 56.596285 126.252227-280.802598 167.610028h528.953493L462.202313 259.238549c-10.883901-17.414242-34.828483-23.944582-54.419505-15.237461L168.339034 352.839074c-21.767802 10.883901-30.474923 34.828483-21.767802 56.596285 8.707121 21.767802 34.828483 32.651703 56.596285 21.767802z" fill="#FFBA57" /><path d="M947.621226 609.69709c-65.302382 0-87.070184-43.535604-87.070184-43.535604s-21.767802 43.535604-87.070184 43.535604-87.070184-43.535604-87.070184-43.535604-21.767802 43.535604-87.070184 43.535604-87.070184-43.535604-87.070184-43.535604-21.767802 43.535604-87.070184 43.535604-87.070184-43.535604-87.070185-43.535604-21.767802 43.535604-87.070184 43.535604-87.070184-43.535604-87.070184-43.535604-21.767802 43.535604-87.070184 43.535604V783.838482h870.705937V609.69709z" fill="#7E8CCF" /><path d="M947.621226 653.232694c-65.302382 0-87.070184-43.535604-87.070184-43.535604s-21.767802 43.535604-87.070184 43.535604-87.070184-43.535604-87.070184-43.535604-21.767802 43.535604-87.070184 43.535604-87.070184-43.535604-87.070184-43.535604-21.767802 43.535604-87.070184 43.535604-87.070184-43.535604-87.070185-43.535604-21.767802 43.535604-87.070184 43.535604-87.070184-43.535604-87.070184-43.535604-21.767802 43.535604-87.070184 43.535604V783.838482h870.705937V653.232694z" fill="#C5CAE9" /></svg>