<?xml version="1.0" standalone="no"?><!DOCTYPE svg PUBLIC "-//W3C//DTD SVG 1.1//EN" "http://www.w3.org/Graphics/SVG/1.1/DTD/svg11.dtd"><svg class="icon" width="200px" height="200.00px" viewBox="0 0 1024 1024" version="1.1" xmlns="http://www.w3.org/2000/svg"><path d="M931.672131 389.455738h-805.770492c-10.072131 0-16.786885 6.714754-16.786885 16.786885V604.327869c31.895082 0 58.754098 26.859016 58.754098 58.754098S141.009836 721.836066 109.114754 721.836066v198.085245c0 10.072131 6.714754 16.786885 16.786885 16.786886h805.770492c10.072131 0 16.786885-6.714754 16.786885-16.786886V720.157377c-31.895082 0-58.754098-26.859016-58.754098-58.754098s26.859016-58.754098 58.754098-58.754099V406.242623c0-10.072131-6.714754-16.786885-16.786885-16.786885z" fill="#455A64" /><path d="M965.245902 389.455738h-805.770492c-10.072131 0-16.786885 6.714754-16.786885 16.786885V604.327869c31.895082 0 58.754098 26.859016 58.754098 58.754098S174.583607 721.836066 142.688525 721.836066v198.085245c0 10.072131 6.714754 16.786885 16.786885 16.786886h805.770492c10.072131 0 16.786885-6.714754 16.786885-16.786886V720.157377c-31.895082 0-58.754098-26.859016-58.754098-58.754098s26.859016-58.754098 58.754098-58.754099V406.242623c0-10.072131-6.714754-16.786885-16.786885-16.786885z" fill="#546E7A" /><path d="M201.442623 448.209836h721.836066v428.065574H201.442623z" fill="#26C6DA" /><path d="M705.04918 389.455738v545.57377" fill="#CFD8DC" /><path d="M201.442623 448.209836h461.639344v428.065574H201.442623z" fill="#CFD8DC" /><path d="M268.590164 523.75082h164.511475M268.590164 582.504918h164.511475" fill="#546E7A" /><path d="M763.803279 104.078689L20.144262 411.278689c-8.393443 3.357377-13.429508 13.429508-8.393442 21.82295l75.540983 182.97705c30.216393-11.75082 63.790164 1.678689 77.219672 31.895081 11.75082 30.216393-1.678689 63.790164-31.895082 77.219673L206.478689 906.491803c3.357377 8.393443 13.429508 13.429508 21.82295 8.393443L973.639344 607.685246c8.393443-3.357377 13.429508-13.429508 8.393443-21.822951L906.491803 402.885246c-30.216393 11.75082-63.790164-1.678689-77.219672-31.895082-11.75082-30.216393 1.678689-63.790164 31.895082-77.219672L785.62623 112.472131c-3.357377-8.393443-13.429508-13.429508-21.822951-8.393442z" fill="#455A64" /><path d="M795.698361 90.64918L50.360656 399.527869c-8.393443 3.357377-13.429508 13.429508-8.393443 21.822951L117.508197 602.64918c30.216393-11.75082 63.790164 1.678689 77.219672 31.895082s-1.678689 63.790164-31.895082 77.219672l75.540983 182.97705c3.357377 8.393443 13.429508 13.429508 21.822951 8.393442l743.659017-308.878688c8.393443-3.357377 13.429508-13.429508 8.393442-21.822951l-75.540983-182.977049c-30.216393 11.75082-63.790164-1.678689-77.219672-31.895082-11.75082-30.216393 1.678689-63.790164 31.895082-77.219672L817.521311 99.042623c-3.357377-8.393443-13.429508-11.75082-21.82295-8.393443z" fill="#546E7A" /><path d="M111.582426 436.626885L778.475016 160.381902l163.84 395.499016L275.372066 832.125902z" fill="#EC407A" /><path d="M555.645902 189.691803l208.157377 503.606558" fill="#CFD8DC" /><path d="M111.951738 437.096918l426.504393-176.66518 163.84 395.499016-426.52118 176.648394z" fill="#CFD8DC" /><path d="M203.121311 481.783607l151.081968-63.790164M224.944262 535.501639l151.081968-62.111475" fill="#546E7A" /></svg>