<?xml version="1.0" standalone="no"?><!DOCTYPE svg PUBLIC "-//W3C//DTD SVG 1.1//EN" "http://www.w3.org/Graphics/SVG/1.1/DTD/svg11.dtd"><svg class="icon" width="200px" height="200.00px" viewBox="0 0 1024 1024" version="1.1" xmlns="http://www.w3.org/2000/svg"><path d="M512 512m-414 0a414 414 0 1 0 828 0 414 414 0 1 0-828 0Z" fill="#F0C48A" /><path d="M947 1012.2h-870l254-337h362z" fill="#D3E6F8" /><path d="M947 1012.2h-78.2l-232-330.4 55.6-5.6z" fill="#A4CFF2" /><path d="M681 676.2h-338c-41 0-74.2-33.2-74.2-74.2V264c0-41 33.2-74.2 74.2-74.2h337.8c41 0 74.2 33.2 74.2 74.2v337.8c0.2 41-33.2 74.4-74 74.4z" fill="#FD919E" /><path d="M665.4 675.2h23.8c36.6 0 66-29.6 66-66V255.6c0-36.6-29.6-66-66-66h-23.8v485.6z" fill="#E8677D" /><path d="M490.8 69.4h42.2v91.4h-42.2z" fill="#FFFFFF" /><path d="M533.2 172.6h-42.2c-6.6 0-11.8-5.2-11.8-11.8V69.4c0-6.6 5.2-11.8 11.8-11.8h42.2c6.6 0 11.8 5.2 11.8 11.8v91.4c-0.2 6.6-5.4 11.8-11.8 11.8z m-30.6-23.4h18.6v-68h-18.6v68z" fill="#4C4372" /><path d="M409 11.8h205.8v73.2H409z" fill="#A4CFF2" /><path d="M558.6 7.6h56.4v81.4h-56.4z" fill="#7BABF1" /><path d="M456.4 554v34.2c0 15.2 12.2 27.4 27.4 27.4h56.4c15.2 0 27.4-12.2 27.4-27.4v-36" fill="#E8677D" /><path d="M331 676.2l19.6 60.8h46v-30.4h230.8v30.4h45.4l19.6-60.8z" fill="#7BABF1" /><path d="M755.2 565.8H268.8c-6.6 0-11.8-5.2-11.8-11.8s5.2-11.8 11.8-11.8h486.2c6.6 0 11.8 5.2 11.8 11.8s-5.2 11.8-11.6 11.8z" fill="#4C4372" /><path d="M364.657237 593.929915a41 41 0 1 0 19.007505-79.766627 41 41 0 1 0-19.007505 79.766627Z" fill="#FFFFFF" /><path d="M622.365204 583.049844a41 41 0 1 0 57.981744-57.983768 41 41 0 1 0-57.981744 57.983768Z" fill="#FFFFFF" /><path d="M512 132.2c-30.8 0-55.6 24.8-55.6 55.6v1.6h111.2v-1.6c0-30.6-24.8-55.6-55.6-55.6z" fill="#7BABF1" /><path d="M653.6 450.6H370.4c-21.4 0-38.8-17.4-38.8-38.8V292c0-21.4 17.4-38.8 38.8-38.8h283c21.4 0 38.8 17.4 38.8 38.8v119.6c0.2 21.6-17.2 39-38.6 39z" fill="#FFFFFF" /><path d="M681 687.8h-338c-47.4 0-86-38.6-86-86V264c0-47.4 38.6-86 86-86h337.8c47.4 0 86 38.6 86 86v337.8c0 47.6-38.4 86-85.8 86z m-338-486.2c-34.4 0-62.4 28-62.4 62.4v337.8c0 34.4 28 62.4 62.4 62.4h337.8c34.4 0 62.4-28 62.4-62.4V264c0-34.4-28-62.4-62.4-62.4H343z" fill="#4C4372" /><path d="M77 1024c-2.4 0-5-0.8-7-2.4-5.2-4-6.2-11.4-2.2-16.4l254-336.2c4-5.2 11.2-6.2 16.4-2.2 5.2 4 6.2 11.4 2.2 16.4l-254 336.2c-2.2 3-5.8 4.6-9.4 4.6zM947 1024c-3.6 0-7-1.6-9.4-4.6l-254-336.2c-4-5.2-2.8-12.6 2.2-16.4 5.2-4 12.6-2.8 16.4 2.2l254 336.2c4 5.2 2.8 12.6-2.2 16.4-2.2 1.6-4.6 2.4-7 2.4zM374.2 606.8c-29 0-52.8-23.6-52.8-52.8 0-29 23.6-52.8 52.8-52.8s52.8 23.6 52.8 52.8c0 29.2-23.8 52.8-52.8 52.8z m0-81.8c-16 0-29.2 13-29.2 29.2 0 16 13 29.2 29.2 29.2s29.2-13 29.2-29.2-13-29.2-29.2-29.2zM651.4 606.8c-29 0-52.8-23.6-52.8-52.8 0-29 23.6-52.8 52.8-52.8 29 0 52.8 23.6 52.8 52.8 0 29.2-23.6 52.8-52.8 52.8z m0-81.8c-16 0-29.2 13-29.2 29.2 0 16 13 29.2 29.2 29.2 16 0 29.2-13 29.2-29.2s-13-29.2-29.2-29.2zM540.2 627.6h-56.4c-21.6 0-39.2-17.6-39.2-39.2V554c0-6.6 5.2-11.8 11.8-11.8 6.6 0 11.8 5.2 11.8 11.8v34.2c0 8.6 7 15.6 15.6 15.6h56.4c8.6 0 15.6-7 15.6-15.6V564c0-6.6 5.2-11.8 11.8-11.8s11.8 5.2 11.8 11.8v24.4c0 21.6-17.6 39.2-39.2 39.2z" fill="#4C4372" /><path d="M672.8 748.8h-45.4c-6.6 0-11.8-5.2-11.8-11.8v-18.6H408.4v18.6c0 6.6-5.2 11.8-11.8 11.8h-46c-5.2 0-9.6-3.4-11.2-8.2l-19.6-60.8c-1.2-3.6-0.6-7.4 1.6-10.6 2.2-3 5.8-4.8 9.6-4.8h361.4c3.8 0 7.2 1.8 9.6 4.8 2.2 3 2.8 7 1.6 10.6l-19.6 60.8c-1.6 4.8-6 8.2-11.2 8.2z m-33.6-23.6h25l12-37.4H347.2l12 37.4h25.6v-18.6c0-6.6 5.2-11.8 11.8-11.8h231c6.6 0 11.8 5.2 11.8 11.8v18.6zM770.4 790.4H261c-6.6 0-11.8-5.2-11.8-11.8 0-6.6 5.2-11.8 11.8-11.8h509.4c6.6 0 11.8 5.2 11.8 11.8 0 6.4-5.4 11.8-11.8 11.8zM844.6 892.8H179.4c-6.6 0-11.8-5.2-11.8-11.8 0-6.6 5.2-11.8 11.8-11.8h665.2c6.6 0 11.8 5.2 11.8 11.8 0 6.6-5.4 11.8-11.8 11.8zM567.6 201.2h-111.2c-6.6 0-11.8-5.2-11.8-11.8v-1.6c0-37.2 30.2-67.4 67.4-67.4s67.4 30.2 67.4 67.4v1.6c0 6.6-5.4 11.8-11.8 11.8z m-98.2-23.6h85.2C550 158.4 532.6 144 512 144s-38 14.4-42.6 33.6zM615 96.8h-206c-6.6 0-11.8-5.2-11.8-11.8V11.8c0-6.6 5.2-11.8 11.8-11.8h205.8c6.6 0 11.8 5.2 11.8 11.8v73.2c0 6.6-5.2 11.8-11.6 11.8z m-194.2-23.6h182.2V23.6h-182.2v49.6z" fill="#4C4372" /><path d="M615 60.2h-206c-6.6 0-11.8-5.2-11.8-11.8s5.2-11.8 11.8-11.8h205.8c6.6 0 11.8 5.2 11.8 11.8s-5.2 11.8-11.6 11.8z" fill="#4C4372" /><path d="M649.6 448.8h-10.4v-195.6h10.4c23.2 0 41.8 18.8 41.8 41.8v111.8c0 23.2-18.6 42-41.8 42z" fill="#D3E6F8" /><path d="M653.6 462.4H370.4c-28 0-50.6-22.8-50.6-50.6V292c0-28 22.8-50.6 50.6-50.6h283c28 0 50.6 22.8 50.6 50.6v119.6c0.2 28-22.6 50.8-50.4 50.8z m-283.2-197.4c-15 0-27 12.2-27 27v119.6c0 15 12.2 27 27 27h283c15 0 27-12.2 27-27V292c0-15-12.2-27-27-27H370.4z" fill="#4C4372" /></svg>