<?xml version="1.0" standalone="no"?><!DOCTYPE svg PUBLIC "-//W3C//DTD SVG 1.1//EN" "http://www.w3.org/Graphics/SVG/1.1/DTD/svg11.dtd"><svg class="icon" width="200px" height="200.00px" viewBox="0 0 1024 1024" version="1.1" xmlns="http://www.w3.org/2000/svg"><path d="M540.01664 842.69056c41.0112-47.93344 81.59232-102.3488 119.83872-161.86368 170.12736-264.69376 229.87776-529.5104 133.45792-591.47264-96.41984-61.96224-312.50432 102.37952-482.64192 367.08352-88.95488 138.3936-147.70176 276.80768-169.75872 386.26304h399.104z" fill="#F0566F" /><path d="M540.01664 842.69056c41.0112-47.93344 81.59232-102.3488 119.83872-161.86368 170.12736-264.69376 229.87776-529.5104 133.45792-591.47264L309.11488 842.69056h230.90176z" fill="#F4A671" /><path d="M181.28896 181.2992m-92.52864 0a92.52864 92.52864 0 1 0 185.05728 0 92.52864 92.52864 0 1 0-185.05728 0Z" fill="#FEE36F" /><path d="M540.01664 847.86176H140.91264a5.1712 5.1712 0 0 1-5.0688-6.1952C158.76096 727.98208 220.89728 586.5472 306.3296 453.632 388.93568 325.12 484.88448 215.9616 576.512 146.26816 669.53216 75.52 747.52 53.74976 796.11904 84.992c48.59904 31.232 61.20448 111.21664 35.4816 225.20832-25.33376 112.29184-84.77696 244.91008-167.38304 373.42208-37.49888 58.33728-77.95712 112.97792-120.25856 162.42688a5.18144 5.18144 0 0 1-3.9424 1.81248z m-392.74496-10.35264h390.35904c41.44128-48.60928 81.09056-102.25664 117.87264-159.488 81.96096-127.51872 140.91264-258.95936 165.9904-370.10432 24.68864-109.43488 13.69088-185.51808-30.976-214.2208-44.67712-28.71296-118.45632-7.10656-207.74912 60.80512-90.68544 68.97664-185.77408 177.19296-267.73504 304.72192-83.21024 129.46432-144.11776 266.89536-167.76192 378.28608z" fill="#136296" /><path d="M967.61856 847.86176H56.38144a5.18144 5.18144 0 1 1 0-10.35264h911.24736a5.18144 5.18144 0 1 1-0.01024 10.35264zM74.50624 885.62688h-18.1248a5.19168 5.19168 0 0 1 0-10.36288h18.1248a5.18144 5.18144 0 1 1 0 10.36288zM914.50368 885.62688h-35.00032a5.18144 5.18144 0 1 1 0-10.36288h35.00032a5.18144 5.18144 0 1 1 0 10.36288z m-70.00064 0h-35.00032a5.18144 5.18144 0 1 1 0-10.36288h35.00032a5.18144 5.18144 0 1 1 0 10.36288z m-70.00064 0h-35.00032a5.18144 5.18144 0 1 1 0-10.36288h35.00032a5.18144 5.18144 0 1 1 0 10.36288z m-70.00064 0h-35.00032a5.18144 5.18144 0 1 1 0-10.36288h35.00032a5.18144 5.18144 0 1 1 0 10.36288z m-70.00064 0h-35.00032a5.18144 5.18144 0 1 1 0-10.36288h35.00032a5.18144 5.18144 0 1 1 0 10.36288z m-70.00064 0h-35.00032a5.18144 5.18144 0 1 1 0-10.36288h35.00032a5.18144 5.18144 0 1 1 0 10.36288z m-70.00064 0h-35.00032a5.18144 5.18144 0 1 1 0-10.36288h35.00032a5.18144 5.18144 0 1 1 0 10.36288z m-70.00064 0h-35.00032a5.18144 5.18144 0 1 1 0-10.36288h35.00032a5.18144 5.18144 0 1 1 0 10.36288z m-70.00064 0h-35.00032a5.18144 5.18144 0 1 1 0-10.36288h35.00032a5.18144 5.18144 0 1 1 0 10.36288z m-70.00064 0h-35.00032a5.18144 5.18144 0 1 1 0-10.36288h35.00032a5.18144 5.18144 0 1 1 0 10.36288z m-70.00064 0H179.5072a5.18144 5.18144 0 1 1 0-10.36288h35.00032a5.18144 5.18144 0 1 1-0.01024 10.36288z m-70.00064 0h-35.00032a5.18144 5.18144 0 1 1 0-10.36288h35.00032a5.18144 5.18144 0 1 1 0 10.36288zM967.61856 885.62688h-18.1248a5.18144 5.18144 0 1 1 0-10.36288h18.1248a5.18144 5.18144 0 1 1 0 10.36288zM82.26816 930.46784H56.38144a5.18144 5.18144 0 1 1 0-10.36288h25.88672a5.18144 5.18144 0 1 1 0 10.36288zM891.17696 930.46784h-50.55488a5.18144 5.18144 0 1 1 0-10.36288h50.55488a5.18144 5.18144 0 1 1 0 10.36288z m-101.10976 0h-50.55488a5.18144 5.18144 0 1 1 0-10.36288h50.55488a5.18144 5.18144 0 1 1 0 10.36288z m-101.12 0h-50.55488a5.18144 5.18144 0 1 1 0-10.36288h50.55488a5.18144 5.18144 0 1 1 0 10.36288z m-101.10976 0h-50.55488a5.18144 5.18144 0 1 1 0-10.36288h50.55488a5.18144 5.18144 0 1 1 0 10.36288z m-101.10976 0h-50.55488a5.18144 5.18144 0 1 1 0-10.36288h50.55488a5.18144 5.18144 0 1 1 0 10.36288z m-101.12 0H335.0528a5.18144 5.18144 0 1 1 0-10.36288h50.55488a5.18144 5.18144 0 1 1 0 10.36288z m-101.10976 0h-50.55488a5.18144 5.18144 0 1 1 0-10.36288h50.55488a5.18144 5.18144 0 1 1 0 10.36288z m-101.12 0h-50.55488a5.18144 5.18144 0 1 1 0-10.36288h50.55488a5.18144 5.18144 0 1 1 0 10.36288zM967.61856 930.46784h-25.88672a5.18144 5.18144 0 1 1 0-10.36288h25.88672a5.18144 5.18144 0 1 1 0 10.36288z" fill="#136296" /><path d="M74.50624 972.77952h-18.1248a5.19168 5.19168 0 0 1 0-10.36288h18.1248a5.18144 5.18144 0 1 1 0 10.36288zM914.50368 972.77952h-35.00032a5.18144 5.18144 0 1 1 0-10.36288h35.00032a5.18144 5.18144 0 1 1 0 10.36288z m-70.00064 0h-35.00032a5.18144 5.18144 0 1 1 0-10.36288h35.00032a5.18144 5.18144 0 1 1 0 10.36288z m-70.00064 0h-35.00032a5.18144 5.18144 0 1 1 0-10.36288h35.00032a5.18144 5.18144 0 1 1 0 10.36288z m-70.00064 0h-35.00032a5.18144 5.18144 0 1 1 0-10.36288h35.00032a5.18144 5.18144 0 1 1 0 10.36288z m-70.00064 0h-35.00032a5.18144 5.18144 0 1 1 0-10.36288h35.00032a5.18144 5.18144 0 1 1 0 10.36288z m-70.00064 0h-35.00032a5.18144 5.18144 0 1 1 0-10.36288h35.00032a5.18144 5.18144 0 1 1 0 10.36288z m-70.00064 0h-35.00032a5.18144 5.18144 0 1 1 0-10.36288h35.00032a5.18144 5.18144 0 1 1 0 10.36288z m-70.00064 0h-35.00032a5.18144 5.18144 0 1 1 0-10.36288h35.00032a5.18144 5.18144 0 1 1 0 10.36288z m-70.00064 0h-35.00032a5.18144 5.18144 0 1 1 0-10.36288h35.00032a5.18144 5.18144 0 1 1 0 10.36288z m-70.00064 0h-35.00032a5.18144 5.18144 0 1 1 0-10.36288h35.00032a5.18144 5.18144 0 1 1 0 10.36288z m-70.00064 0H179.5072a5.18144 5.18144 0 1 1 0-10.36288h35.00032a5.18144 5.18144 0 1 1-0.01024 10.36288z m-70.00064 0h-35.00032a5.18144 5.18144 0 1 1 0-10.36288h35.00032a5.18144 5.18144 0 1 1 0 10.36288zM967.61856 972.77952h-18.1248a5.18144 5.18144 0 1 1 0-10.36288h18.1248a5.18144 5.18144 0 1 1 0 10.36288z" fill="#136296" /><path d="M540.01664 847.86176H309.11488a5.19168 5.19168 0 0 1-4.352-7.97696L788.95104 86.54848a5.18144 5.18144 0 0 1 7.15776-1.55648c48.59904 31.232 61.20448 111.21664 35.4816 225.20832-25.33376 112.29184-84.77696 244.91008-167.38304 373.42208-37.49888 58.33728-77.95712 112.97792-120.25856 162.42688a5.14048 5.14048 0 0 1-3.93216 1.81248z m-221.41952-10.35264h219.0336c41.44128-48.60928 81.09056-102.25664 117.87264-159.488 81.96096-127.51872 140.91264-258.95936 165.9904-370.10432 23.88992-105.87136 14.37696-180.5312-26.7264-211.26144L318.59712 837.50912z" fill="#136296" /><path d="M168.37632 310.71232a129.96608 129.96608 0 0 1-27.14624-5.632 5.1712 5.1712 0 1 1 3.19488-9.85088c7.91552 2.56 16.15872 4.29056 24.4736 5.15072a5.1712 5.1712 0 1 1-0.52224 10.33216z m26.08128-0.02048a5.1712 5.1712 0 0 1-0.53248-10.33216 119.0912 119.0912 0 0 0 24.46336-5.20192 5.18144 5.18144 0 0 1 3.20512 9.84064 129.73056 129.73056 0 0 1-27.136 5.69344z m-75.49952-15.94368a5.12 5.12 0 0 1-2.58048-0.69632 130.51904 130.51904 0 0 1-22.00576-15.96416 5.1712 5.1712 0 1 1 6.92224-7.70048 120.34048 120.34048 0 0 0 20.25472 14.6944 5.16096 5.16096 0 0 1-2.59072 9.66656z m124.86656-0.12288a5.1712 5.1712 0 0 1-2.60096-9.65632 119.76704 119.76704 0 0 0 20.224-14.73536 5.18144 5.18144 0 0 1 6.93248 7.69024 131.01056 131.01056 0 0 1-21.9648 16.00512 5.18144 5.18144 0 0 1-2.59072 0.69632zM80.35328 260.05504a5.18144 5.18144 0 0 1-4.18816-2.11968 131.072 131.072 0 0 1-13.64992-23.5008 5.1712 5.1712 0 1 1 9.45152-4.22912c3.39968 7.59808 7.6288 14.87872 12.56448 21.62688a5.18144 5.18144 0 0 1-4.17792 8.22272z m202.01472-0.19456a5.16096 5.16096 0 0 1-4.17792-8.22272c4.9152-6.7584 9.12384-14.03904 12.52352-21.6576a5.1712 5.1712 0 1 1 9.46176 4.21888c-3.6864 8.27392-8.26368 16.19968-13.60896 23.54176a5.19168 5.19168 0 0 1-4.1984 2.11968zM59.12576 212.6848a5.1712 5.1712 0 0 1-5.05856-4.096A130.9696 130.9696 0 0 1 51.2 181.56544a5.18144 5.18144 0 0 1 5.16096-5.19168h0.01024c2.85696 0 5.1712 2.31424 5.18144 5.16096 0.02048 8.3968 0.91136 16.76288 2.64192 24.8832a5.18144 5.18144 0 0 1-5.0688 6.26688z m244.36736-0.24576a5.1712 5.1712 0 0 1-5.0688-6.2464 120.32 120.32 0 0 0 2.59072-24.8832c0-2.85696 2.31424-5.43744 5.18144-5.43744 2.85696 0 5.1712 2.05824 5.1712 4.9152h-5.18144l5.18144 0.44032c0 9.18528-0.95232 18.2784-2.816 27.10528a5.1712 5.1712 0 0 1-5.05856 4.10624zM59.0336 160.77824a5.18144 5.18144 0 0 1-5.07904-6.23616c1.85344-8.87808 4.6592-17.58208 8.33536-25.87648a5.1712 5.1712 0 1 1 9.46176 4.1984c-3.3792 7.6288-5.95968 15.63648-7.66976 23.79776a5.15072 5.15072 0 0 1-5.04832 4.11648z m244.34688-0.75776a5.18144 5.18144 0 0 1-5.05856-4.08576 119.11168 119.11168 0 0 0-7.81312-23.7568 5.18144 5.18144 0 0 1 9.44128-4.25984c3.72736 8.27392 6.58432 16.96768 8.4992 25.82528a5.18144 5.18144 0 0 1-5.0688 6.27712z m-223.3344-46.71488a5.18144 5.18144 0 0 1-4.18816-8.21248A130.89792 130.89792 0 0 1 94.0032 84.85888a5.18144 5.18144 0 0 1 6.95296 7.66976 120.19712 120.19712 0 0 0-16.70144 18.6368 5.20192 5.20192 0 0 1-4.20864 2.14016z m202.04544-0.6144a5.1712 5.1712 0 0 1-4.17792-2.11968 121.30304 121.30304 0 0 0-16.81408-18.5344 5.18144 5.18144 0 0 1 6.90176-7.72096c6.7584 6.0416 12.9024 12.81024 18.25792 20.1216a5.18144 5.18144 0 0 1-4.16768 8.25344zM118.53824 78.46912a5.16096 5.16096 0 0 1-2.60096-9.64608 130.43712 130.43712 0 0 1 24.80128-11.14112 5.1712 5.1712 0 1 1 3.2256 9.84064c-7.91552 2.60096-15.59552 6.0416-22.81472 10.25024a5.28384 5.28384 0 0 1-2.6112 0.69632z m124.83584-0.38912a5.09952 5.09952 0 0 1-2.57024-0.68608 119.90016 119.90016 0 0 0-22.87616-10.10688 5.18144 5.18144 0 0 1 3.16416-9.86112c8.62208 2.7648 16.9984 6.46144 24.87296 10.98752a5.18144 5.18144 0 0 1-2.59072 9.66656z m-75.52-15.79008a5.1712 5.1712 0 0 1-0.54272-10.32192c4.61824-0.49152 9.23648-0.69632 13.98784-0.74752 4.39296 0 8.82688 0.22528 13.17888 0.65536a5.19168 5.19168 0 0 1-1.03424 10.31168c-4.00384-0.39936-8.0896-0.60416-12.14464-0.60416h-0.06144c-4.27008 0-8.58112 0.22528-12.81024 0.68608l-0.57344 0.02048z" fill="#136296" /><path d="M181.28896 278.99904c-53.87264 0-97.71008-43.8272-97.71008-97.69984s43.8272-97.69984 97.71008-97.69984 97.71008 43.8272 97.71008 97.69984-43.83744 97.69984-97.71008 97.69984z m0-185.04704c-48.16896 0-87.3472 39.17824-87.3472 87.3472 0 48.16896 39.18848 87.3472 87.3472 87.3472s87.3472-39.17824 87.3472-87.3472c0-48.15872-39.18848-87.3472-87.3472-87.3472z" fill="#136296" /></svg>