<?xml version="1.0" standalone="no"?><!DOCTYPE svg PUBLIC "-//W3C//DTD SVG 1.1//EN" "http://www.w3.org/Graphics/SVG/1.1/DTD/svg11.dtd"><svg t="1607585218750" class="icon" viewBox="0 0 1024 1024" version="1.1" xmlns="http://www.w3.org/2000/svg" p-id="13401" xmlns:xlink="http://www.w3.org/1999/xlink" width="200" height="200"><defs><style type="text/css"></style></defs><path d="M241.664 812.544c0 45.568 36.864 82.432 82.432 82.432s82.432-36.864 82.432-82.432-36.864-82.432-82.432-82.432-82.432 36.864-82.432 82.432z" fill="#303030" p-id="13402"></path><path d="M323.584 910.336c-54.272 0-98.304-44.032-98.304-98.304s44.032-98.304 98.304-98.304 98.304 44.032 98.304 98.304-44.032 98.304-98.304 98.304z m0-164.352c-36.352 0-66.048 29.696-66.048 66.048 0 36.352 29.696 66.048 66.048 66.048s66.048-29.696 66.048-66.048c0.512-36.352-29.184-66.048-66.048-66.048z" fill="#232323" p-id="13403"></path><path d="M617.984 812.544c0 45.568 36.864 82.432 81.92 82.432 45.568 0 82.432-36.864 82.432-81.92 0-45.568-36.864-82.432-82.432-82.432s-81.92 36.352-81.92 81.92z" fill="#303030" p-id="13404"></path><path d="M700.416 910.336c-54.272 0-98.304-44.032-98.304-98.304s44.032-98.304 98.304-98.304 98.304 44.032 98.304 98.304-44.032 98.304-98.304 98.304z m0-164.352c-36.352 0-66.048 29.696-66.048 66.048 0 36.352 29.696 66.048 66.048 66.048 36.352 0 66.048-29.696 66.048-66.048 0-36.352-29.696-66.048-66.048-66.048z m-404.992 66.56c0 15.36 12.8 28.16 28.16 28.16s28.16-12.8 28.16-28.16-12.8-28.16-28.16-28.16c-15.36-0.512-28.16 12.288-28.16 28.16 0-0.512 0 0 0 0z" fill="#232323" p-id="13405"></path><path d="M671.232 812.544c0 15.36 12.8 28.16 28.16 28.16s28.16-12.8 28.16-28.16-12.8-28.16-28.16-28.16-28.16 12.288-28.16 28.16z" fill="#232323" p-id="13406"></path><path d="M871.424 587.776H801.28v-70.144c0-101.376-85.504-183.808-191.488-183.808H414.208c-105.472 0-191.488 82.432-191.488 183.808v70.144h-70.144c-39.936 0-72.192 31.232-72.192 69.12v92.16c0 24.576 20.992 44.544 46.08 44.544h770.048c25.6 0 46.08-19.968 46.08-44.544v-92.16c1.024-38.4-31.744-69.12-71.168-69.12z" fill="#FF7B7B" p-id="13407"></path><path d="M897.024 809.984H126.976c-34.304 0-62.464-27.136-62.464-60.416v-92.16c0-47.104 39.424-85.504 88.064-85.504h53.76v-54.272c0-110.08 93.184-199.68 207.36-199.68H609.28c114.176 0 207.36 89.6 207.36 199.68v54.272h53.76c48.64 0 88.064 38.4 88.064 85.504v92.16c1.024 33.28-27.136 60.416-61.44 60.416zM152.576 603.648c-31.232 0-56.32 24.064-56.32 53.248v92.16c0 15.872 13.824 28.672 30.208 28.672h770.048c16.896 0 30.208-12.8 30.208-28.672v-92.16c0-29.696-25.088-53.248-56.32-53.248h-70.144c-8.704 0-15.872-7.168-15.872-15.872v-70.144c0-92.672-78.848-167.936-175.616-167.936h-194.56c-96.768 0-175.616 75.264-175.616 167.936v70.144c0 8.704-7.168 15.872-15.872 15.872h-70.144z" fill="#232323" p-id="13408"></path><path d="M497.152 625.664h28.672v112.128h-28.672V625.664z" fill="#EA3934" p-id="13409"></path><path d="M409.088 402.944h56.32V563.2H313.856v-65.024c0-34.816 67.584-95.232 95.232-95.232z" fill="#EDF4FC" p-id="13410"></path><path d="M465.408 579.072H313.856c-8.704 0-15.872-7.168-15.872-15.872v-8.704c0-92.16 75.264-167.936 167.936-167.936 8.704 0 15.872 7.168 15.872 15.872V563.2c-0.512 9.216-7.168 15.872-16.384 15.872zM330.24 547.328h119.808V419.84c-65.536 7.68-116.736 61.44-119.808 127.488z" fill="#232323" p-id="13411"></path><path d="M614.912 402.944h-56.32V563.2h151.552v-65.024c-2.048-18.432-74.752-95.232-95.232-95.232z" fill="#EDF4FC" p-id="13412"></path><path d="M710.144 579.072H558.592c-8.704 0-15.872-7.168-15.872-15.872V402.944c0-8.704 7.168-15.872 15.872-15.872 92.16 0 167.936 75.264 167.936 167.936v8.704c-0.512 8.704-7.68 15.36-16.384 15.36z m-135.68-31.744h119.808c-3.584-66.048-54.784-120.32-119.808-128v128z" fill="#232323" p-id="13413"></path><path d="M574.464 129.536c-25.6 0-48.64 12.8-62.464 31.744-13.824-19.456-36.864-31.744-62.464-31.744-42.496 0-77.312 34.304-77.312 77.312s34.304 77.312 77.312 77.312c12.288 0 23.552-2.56 33.792-7.68v56.32h55.296v-57.856c10.752 5.632 22.528 8.704 35.328 8.704 42.496 0 77.312-34.304 77.312-77.312s-34.304-76.8-76.8-76.8z m-125.44 101.888c-13.824 0-25.088-11.264-25.088-25.088s11.264-25.088 25.088-25.088 25.088 11.264 25.088 25.088-11.264 25.088-25.088 25.088z m125.44 0c-13.824 0-25.088-11.264-25.088-25.088s11.264-25.088 25.088-25.088 25.088 11.264 25.088 25.088-11.264 25.088-25.088 25.088z" fill="#E5E5E5" p-id="13414"></path><path d="M539.136 348.672H483.84c-8.704 0-15.872-7.168-15.872-15.872v-35.328c-6.144 1.024-11.776 1.536-17.92 1.536-51.2 0-93.184-41.472-93.184-93.184s41.472-93.184 93.184-93.184c23.04 0 45.568 8.704 62.464 24.064 16.896-15.36 39.424-24.064 62.464-24.064 51.2 0 93.184 41.472 93.184 93.184s-41.472 93.184-93.184 93.184c-6.656 0-13.312-0.512-19.456-2.048v35.84c-0.512 9.216-7.68 15.872-16.384 15.872z m-39.424-31.744h23.552v-41.984c0-5.632 3.072-10.752 7.68-13.824 4.608-3.072 10.752-3.072 15.36-0.512 8.704 4.608 17.92 6.656 28.16 6.656 33.792 0 60.928-27.648 60.928-61.44s-27.648-61.44-60.928-61.44c-19.456 0-37.888 9.216-49.664 25.088-3.072 4.096-7.68 6.656-12.8 6.656s-9.728-2.56-12.8-6.656c-11.264-15.872-30.208-25.088-49.664-25.088-33.792 0-61.44 27.648-61.44 61.44s27.648 61.44 61.44 61.44c9.728 0 18.432-2.048 27.136-6.144 5.12-2.56 10.752-2.048 15.36 1.024 4.608 3.072 7.68 8.192 7.68 13.312v41.472z m74.752-69.632c-22.528 0-40.96-18.432-40.96-40.96s18.432-40.96 40.96-40.96 40.96 18.432 40.96 40.96-18.432 40.96-40.96 40.96z m0-50.688c-5.12 0-9.216 4.096-9.216 9.216s4.096 9.216 9.216 9.216 9.216-4.096 9.216-9.216-4.096-9.216-9.216-9.216z m-125.44 50.688c-22.528 0-40.96-18.432-40.96-40.96s18.432-40.96 40.96-40.96 40.96 18.432 40.96 40.96-18.432 40.96-40.96 40.96z m0-50.688c-5.12 0-9.216 4.096-9.216 9.216s4.096 9.216 9.216 9.216 9.216-4.096 9.216-9.216-4.096-9.216-9.216-9.216zM396.8 637.952h-41.472c-8.704 0-15.872-7.168-15.872-15.872s7.168-15.872 15.872-15.872H396.8c8.704 0 15.872 7.168 15.872 15.872s-6.656 15.872-15.872 15.872z m270.336 0h-41.472c-8.704 0-15.872-7.168-15.872-15.872s7.168-15.872 15.872-15.872h41.472c8.704 0 15.872 7.168 15.872 15.872s-7.168 15.872-15.872 15.872z" fill="#232323" p-id="13415"></path><path d="M175.616 588.8s-60.928-11.776-84.992 31.232-6.144 57.344-6.144 57.344 50.176 6.144 63.488-11.264c12.8-17.92 30.208-40.96 30.208-57.344 0-16.896-2.56-19.968-2.56-19.968z m678.4-7.168s-11.776 60.928 31.232 84.992c43.52 24.064 57.344 6.144 57.344 6.144s6.144-50.176-11.264-63.488c-17.92-12.8-40.96-30.208-57.344-30.208s-19.968 2.56-19.968 2.56z" fill="#FFF2D4" p-id="13416"></path><path d="M102.912 694.784H80.896V663.04h22.016c31.232 0 56.832-25.6 56.832-56.832V586.24h31.744v19.968c0 49.152-39.936 88.576-88.576 88.576z m842.752 0h-22.016c-49.152 0-88.576-39.936-88.576-88.576V586.24h31.744v19.968c0 31.232 25.6 56.832 56.832 56.832h22.016v31.744z" fill="#232323" p-id="13417"></path><path d="M897.024 816.128H126.976c-34.304 0-62.464-27.136-62.464-60.416v-98.816c0-47.104 39.424-85.504 88.064-85.504h53.76V517.12c0-110.08 93.184-199.68 207.36-199.68H609.28c114.176 0 207.36 89.6 207.36 199.68v54.272h53.76c48.64 0 88.064 38.4 88.064 85.504v98.816c1.024 33.28-27.136 60.416-61.44 60.416z m-744.448-212.48c-31.232 0-56.32 24.064-56.32 53.248v98.816c0 15.872 13.824 28.672 30.208 28.672h770.048c16.896 0 30.208-12.8 30.208-28.672v-98.816c0-29.696-25.088-53.248-56.32-53.248h-70.144c-8.704 0-15.872-7.168-15.872-15.872v-70.144c0-92.672-78.848-167.936-175.616-167.936h-194.56c-96.768 0-175.616 75.264-175.616 167.936v70.144c0 8.704-7.168 15.872-15.872 15.872h-70.144z" fill="#232323" p-id="13418"></path></svg>