<?xml version="1.0" standalone="no"?><!DOCTYPE svg PUBLIC "-//W3C//DTD SVG 1.1//EN" "http://www.w3.org/Graphics/SVG/1.1/DTD/svg11.dtd"><svg t="1607584948971" class="icon" viewBox="0 0 1024 1024" version="1.1" xmlns="http://www.w3.org/2000/svg" p-id="167000" xmlns:xlink="http://www.w3.org/1999/xlink" width="200" height="200"><defs><style type="text/css"></style></defs><path d="M417.6 153.8h150.8V557.5h-435V438.1c0-157 127.2-284.3 284.2-284.3z" fill="#FFF5CC" p-id="167001"></path><path d="M762.2 581.3c-34.3 0-65.5-21.5-77.8-53.5-2.6-6.7 0.8-14.2 7.5-16.7 6.6-2.5 14.2 0.8 16.7 7.5 8.5 22 30 36.8 53.6 36.8 31.7 0 57.4-25.7 57.4-57.4 0-23.6-14.8-45.1-36.8-53.6-6.7-2.6-10-10-7.5-16.7s10.1-10 16.7-7.5c32 12.2 53.5 43.5 53.5 77.8 0 45.9-37.4 83.3-83.3 83.3z" fill="#323333" p-id="167002"></path><path d="M794.5 691H306.3c-14.3 0-25.9-11.6-25.9-25.9s11.6-25.9 25.9-25.9h488.2c60 0 108.8-48.8 108.8-108.8v-178.2h-210.7c-14.3 0-25.9-11.6-25.9-25.9 0-14.3 11.6-25.9 25.9-25.9h262.5v230c0 88.5-72 160.6-160.6 160.6z" fill="#FFCC1C" p-id="167003"></path><path d="M463.3 861.6c-201.8 0-365.9-164.2-365.9-365.9s164.1-365.9 365.9-365.9c70.5 0 139.3 20.4 198.8 59 6 3.9 7.7 11.9 3.8 17.9-3.9 6.1-11.9 7.7-17.9 3.8-55.4-35.9-119.3-54.8-184.8-54.8-187.5 0-340 152.5-340 340s152.5 340 340 340c69.1 0 136-20.9 193.3-60.5 5.9-4.1 14-2.6 18 3.3 4.1 5.9 2.6 13.9-3.3 18-61.5 42.6-133.4 65.1-207.9 65.1z" fill="#323333" p-id="167004"></path><path d="M529.2 632.8c-13.1 0-36.1-0.3-69.1-0.8-24.9-0.3-45.2-2.6-60.9-7.1-15.2-4.7-28.9-14.2-41.3-28.3-5-6.8-10-10.2-14.9-10.2-9.2 0-24.6 18.1-46.4 54.2l-21.2-19.2c20.7-32.7 39.1-52.6 55.4-59.7V441.8h-56.2v-25.9h82.5V563.2c2.9 2.1 6 5.1 9.4 9 9.7 11.5 19.8 19.6 30.3 24.4 11.8 5.5 29.2 8.6 52.3 9.4 27.2 0.5 52.6 0.8 76.2 0.8 12 0 30.9-0.3 56.6-0.8 21.5-0.5 36.1-1 44-1.6l-6.7 28.3h-90zM300.9 285.9c27.5 21.2 49.8 41.5 66.8 60.9l-20.4 20c-15.5-18.9-37.3-39.7-65.6-62.5l19.2-18.4z m86.5 37.7h93.1v-44.4h27.5v44.4h96.7v25.5H508v39.3h86.4v24.8H508v39.3h101c-0.8 41.4-3.8 68.4-9 80.9-6.3 15.7-22.4 24-48.3 24.7-5 0-10.6-0.4-16.9-1.2l-8.3-24.4c11.5 1.1 18.9 1.6 22 1.6 15.7-0.5 25.4-5.9 29.1-16.1 2.1-6.3 3.4-19.6 3.9-40.1H508V587.2h-27.5V478h-96.3v-25.5h96.3v-39.3h-77.8v-24.8h77.8v-39.3h-93.1v-25.5z" fill="#323333" p-id="167005"></path></svg>