<?xml version="1.0" standalone="no"?><!DOCTYPE svg PUBLIC "-//W3C//DTD SVG 1.1//EN" "http://www.w3.org/Graphics/SVG/1.1/DTD/svg11.dtd"><svg t="1607583807101" class="icon" viewBox="0 0 1024 1024" version="1.1" xmlns="http://www.w3.org/2000/svg" p-id="106409" xmlns:xlink="http://www.w3.org/1999/xlink" width="200" height="200"><defs><style type="text/css"></style></defs><path d="M894.8 420.4h85.9c33.4 0 43-12 43-26.8v-6.8c0-5.7-2.7-11.1-7.2-14.1l-22.6-15.3c-3.1-2.1-6.7-3.2-10.4-3.2h-46.8c-5.3 0-10.2 3-13 7.8l-14.6 25.2h-31v33.1h16.7zM131.2 420.4H45.3c-33.4 0-43-12-43-26.8v-6.8c0-5.7 2.7-11.1 7.2-14.1l22.6-15.3c3.1-2.1 6.7-3.2 10.4-3.2h46.8c5.3 0 10.2 3 13 7.8l14.6 25.2h31v33.1h-16.7z" fill="#EA5F46" p-id="106410"></path><path d="M138.4 888.8h-31.3c-21 0-38.1-17-38.1-38.1V719c0-21 17-38.1 38.1-38.1h31.3c21 0 38.1 17 38.1 38.1v131.7c-0.1 21.1-17.1 38.1-38.1 38.1zM918.9 888.8h-31.3c-21 0-38.1-17-38.1-38.1V719c0-21 17-38.1 38.1-38.1h31.3c21 0 38.1 17 38.1 38.1v131.7c0 21.1-17.1 38.1-38.1 38.1z" fill="#2B2A2A" p-id="106411"></path><path d="M957 747.4V497c0-13.9-3.1-27.7-9.1-40.6L822.9 189c-12.8-27.3-42.2-45-74.7-45H277.8c-32.5 0-61.9 17.7-74.7 45l-125 267.4C72.1 469.2 69 483 69 497v250.4c0 17.7 15.8 32.1 35.2 32.1h817.5c19.5 0 35.3-14.4 35.3-32.1z" fill="#E95D58" p-id="106412"></path><path d="M69 618.7v135.9c0 14.4 15.8 26.1 35.2 26.1h817.5c19.4 0 35.2-11.7 35.2-26.1V618.7" fill="#E84A48" p-id="106413"></path><path d="M789.5 410h-553c-32.9 0-57.5-30.5-50.6-63l41-82.8c18.4-42.7 33.1-77.2 94.8-77.2h382.7c65.7 0 74.9 35.7 94.8 77.2l41 82.8c6.7 32.5-17.8 63-50.7 63z" fill="#D2E6E8" p-id="106414"></path><path d="M723.4 573.2s59.8-145.4 169.2-104.1c0 0 40.8 84-36.6 107 0 0-32.3 13.4-132.6-2.9zM302.6 573.2s-59.8-145.4-169.2-104.1c0 0-40.8 84 36.6 107 0 0 32.3 13.4 132.6-2.9z" fill="#F4F3F0" p-id="106415"></path><path d="M322.2 503l25.1 57.8c4.2 9.8 12 15.8 20.4 15.8h291.5c8.5 0 16.3-6.2 20.5-16.1l24.2-57.5c1.6-3.8-0.4-8.6-3.7-8.6H325.8c-3.2-0.1-5.3 4.7-3.6 8.6zM213.6 667.3l7.6 41.2c3.3 18 17.5 32.1 34.4 32.3h515.6c17.3-0.2 31.6-14.8 34.6-33.2l6.6-40.4c0.9-4.6-0.7-8.6-5.8-8.6H219.4c-5.2 0-6.7 4.5-5.8 8.7zM188.9 669.9l7.8 52.1c1.2 8.2-4.6 15.7-12.3 15.7h-44.7c-10.7 0-20.2-7.5-23.5-18.5l-14.1-46.3c-2.1-7 2.7-14.2 9.5-14.2h65c6.1-0.1 11.3 4.7 12.3 11.2zM838.3 669.9l-7.8 52.1c-1.2 8.2 4.6 15.7 12.3 15.7h44.7c10.7 0 20.2-7.5 23.5-18.5l14.1-46.3c2.1-7-2.7-14.2-9.5-14.2h-65c-6.1-0.1-11.3 4.7-12.3 11.2z" fill="#5D5D5D" p-id="106416"></path></svg>