<?xml version="1.0" standalone="no"?><!DOCTYPE svg PUBLIC "-//W3C//DTD SVG 1.1//EN" "http://www.w3.org/Graphics/SVG/1.1/DTD/svg11.dtd"><svg t="1607584697780" class="icon" viewBox="0 0 1024 1024" version="1.1" xmlns="http://www.w3.org/2000/svg" p-id="158557" xmlns:xlink="http://www.w3.org/1999/xlink" width="200" height="200"><defs><style type="text/css"></style></defs><path d="M183.022933 541.3632l-1.911466-2.474667c-29.457067-38.289067-45.056-83.3024-45.056-130.167466 0-57.514667 22.365867-111.5136 66.449066-155.434667 40.618667-40.567467 94.557867-62.941867 151.918934-62.941867 57.412267 0 111.4112 22.3744 152.021333 62.941867l38.5536 38.545067 38.545067-38.545067c40.567467-40.669867 94.5152-63.044267 151.927466-63.044267 57.454933 0 111.402667 22.3232 155.434667 66.449067 40.507733 40.516267 62.830933 94.464 62.830933 151.927467 0 33.169067-7.185067 69.6064-23.355733 100.4544-4.343467 8.2176-13.124267 19.8912-20.974933 29.866666-6.314667 8.004267-24.5504 27.485867-24.5504 27.485867l-339.968 340.1728-326.468267-326.5792-37.307733-41.130667" fill="#F6C3CA" p-id="158558"></path><path d="M841.608533 536.2944l4.753067-15.342933h-73.3184L464.750933 829.3888l41.9584 42.018133zM876.731733 491.912533c25.838933-36.266667 37.572267-75.8016 37.572267-116.420266 0-56.635733-19.4816-112.290133-59.426133-152.183467-7.492267-7.543467-23.927467-19.473067-31.991467-25.685333 27.904 36.590933 49.408 88.994133 49.408 135.9104 0 40.618667-9.668267 69.6064-28.893867 102.109866-13.175467 22.3744-56.832 62.370133-56.832 62.370134l90.1632-6.101334z" fill="#F0A1B3" p-id="158559"></path><path d="M463.266133 318.626133a14.523733 14.523733 0 0 1 12.757334 11.682134l51.626666 255.991466 7.185067-14.779733 35.242667-70.434133c2.474667-5.009067 7.543467-8.1664 13.175466-8.1664h285.397334c25.8816-35.601067 38.596267-74.973867 38.596266-117.504 0-56.840533-22.1184-110.216533-62.208-150.3744C802.133333 182.050133 748.970667 159.317333 691.2 159.317333c-56.840533 0-110.225067 22.161067-150.3744 62.421334l-37.973333 37.930666-36.488534-37.930666c-40.200533-40.149333-93.636267-62.318933-150.528-62.318934-56.789333 0-110.165333 22.1696-150.3744 62.318934-42.990933 42.888533-65.723733 96.059733-65.723733 153.8304 0 46.404267 15.445333 90.948267 44.5952 128.878933l1.595733 1.809067 222.6176 0.0512 79.470934-178.850134c2.3808-5.5808 7.543467-8.8832 13.8496-8.8832l1.399466 0.0512zM173.943467 537.514667l7.227733 7.492266 321.570133 321.723734L839.0912 531.626667l7.227733-7.492267-250.615466-1.757867-60.672 114.56a14.600533 14.600533 0 0 1-13.166934 8.1664c-7.808-0.938667-13.073067-5.2736-14.421333-11.835733l-51.157333-250.052267-6.510934 15.616-54.306133 127.991467a14.626133 14.626133 0 0 1-13.5424 8.9344H172.288l1.655467 1.757867z m-34.218667 10.5984C93.653333 502.016 68.266667 440.7296 68.266667 375.569067c0-65.160533 25.3696-126.446933 71.466666-172.586667 49.041067-49.041067 109.909333-74.922667 176.0512-74.922667 65.211733 0 126.549333 25.361067 172.6464 71.458134l14.3616 14.3616 15.761067-14.5152C564.753067 153.3184 626.039467 128 691.2 128c65.160533 0 126.395733 25.3696 172.381867 71.509333 48.981333 49.0496 74.88 109.917867 74.88 176.059734a242.184533 242.184533 0 0 1-39.227734 132.548266c-0.930133 1.450667-9.454933 12.603733-10.069333 13.380267-8.686933 11.3664-14.882133 19.370667-22.1696 26.615467l-363.630933 363.776-363.630934-363.776z" fill="#18305E" p-id="158560"></path></svg>