<?xml version="1.0" standalone="no"?><!DOCTYPE svg PUBLIC "-//W3C//DTD SVG 1.1//EN" "http://www.w3.org/Graphics/SVG/1.1/DTD/svg11.dtd"><svg t="1607582764403" class="icon" viewBox="0 0 1024 1024" version="1.1" xmlns="http://www.w3.org/2000/svg" p-id="72824" xmlns:xlink="http://www.w3.org/1999/xlink" width="200" height="200"><defs><style type="text/css"></style></defs><path d="M830.3 615.9l-104.8-2.4v-95.3L535.2 358.9 344.9 518.2v95.3L240 615.9c-24.3 0-44.1 19.9-44.1 44.5v213.9c0 23.3 18.7 42.1 41.7 42.1h595c23 0 41.7-18.9 41.7-42.1V660.4c0.1-24.6-19.6-44.5-44-44.5z" fill="#0DC69A" p-id="72825"></path><path d="M820 925.4H202.5c-34 0-61.6-27.7-61.6-61.6V644c0-35.3 28.6-64 63.9-64.1l90.6-2V498c0-5.5 2.4-10.7 6.7-14.1l197.5-163.6c6.8-5.6 16.6-5.6 23.4 0l197.5 163.6c4.2 3.5 6.7 8.7 6.7 14.1v79.9l90.6 2c35.3 0.1 63.9 28.8 63.9 64.1v219.7c-0.1 34-27.8 61.7-61.7 61.7zM332.1 506.6v89.2c0 10-8 18.1-18 18.4l-108.8 2.4h-0.4c-15.1 0-27.4 12.3-27.4 27.4v219.7c0 13.7 11.2 24.9 24.9 24.9H820c13.7 0 24.9-11.2 24.9-24.9V644c0-15.1-12.3-27.4-27.4-27.4h-0.4l-108.8-2.4c-10-0.2-18-8.4-18-18.4v-89.2L511.2 358.3 332.1 506.6z" fill="#333333" p-id="72826"></path><path d="M513.4 110.7v118.1l102.3-59.1z" fill="#FCEB02" p-id="72827"></path><path d="M513.4 241c-2.1 0-4.2-0.5-6.1-1.6-3.8-2.2-6.1-6.2-6.1-10.6V110.7c0-4.4 2.3-8.4 6.1-10.6 3.8-2.2 8.5-2.2 12.2 0l102.3 59.1c3.8 2.2 6.1 6.2 6.1 10.6s-2.3 8.4-6.1 10.6l-102.3 59.1c-1.8 1-4 1.5-6.1 1.5z m12.3-109.1v75.7l65.5-37.8-65.5-37.9z" fill="#333333" p-id="72828"></path><path d="M513.4 286.9c-6.8 0-12.2-5.5-12.2-12.2V122.9c0-6.8 5.5-12.2 12.2-12.2 6.8 0 12.2 5.5 12.2 12.2v151.8c0.1 6.7-5.4 12.2-12.2 12.2z" fill="#333333" p-id="72829"></path><path d="M511.2 552.7m-68 0a68 68 0 1 0 136 0 68 68 0 1 0-136 0Z" fill="#FD8C62" p-id="72830"></path><path d="M511.2 632.9c-44.2 0-80.2-36-80.2-80.2s36-80.2 80.2-80.2 80.2 36 80.2 80.2c0 44.3-36 80.2-80.2 80.2z m0-135.9c-30.7 0-55.7 25-55.7 55.7s25 55.7 55.7 55.7 55.7-25 55.7-55.7-25-55.7-55.7-55.7z" fill="#333333" p-id="72831"></path><path d="M622.9 900.1H399.5V745.2c0-28.8 23.3-52.2 52.2-52.2h119.1c28.8 0 52.2 23.3 52.2 52.2v154.9z" fill="#FD8C62" p-id="72832"></path><path d="M634.3 911.5H388.1V745.2c0-35 28.5-63.6 63.6-63.6h119.1c35 0 63.6 28.5 63.6 63.6v166.3z m-223.4-22.8h200.6V745.2c0-22.5-18.3-40.7-40.7-40.7H451.7c-22.5 0-40.7 18.3-40.7 40.7v143.5z" fill="#333333" p-id="72833"></path><path d="M262.3 726.7H321v58.7h-58.7z" fill="#FCEB02" p-id="72834"></path><path d="M321 797.7h-58.7c-6.8 0-12.2-5.5-12.2-12.2v-58.7c0-6.8 5.5-12.2 12.2-12.2H321c6.8 0 12.2 5.5 12.2 12.2v58.7c0.1 6.7-5.4 12.2-12.2 12.2z m-46.5-24.5h34.2V739h-34.2v34.2z" fill="#333333" p-id="72835"></path><path d="M262.3 785.4H321v58.7h-58.7z" fill="#FCEB02" p-id="72836"></path><path d="M321 856.4h-58.7c-6.8 0-12.2-5.5-12.2-12.2v-58.7c0-6.8 5.5-12.2 12.2-12.2H321c6.8 0 12.2 5.5 12.2 12.2v58.7c0.1 6.7-5.4 12.2-12.2 12.2z m-46.5-24.5h34.2v-34.2h-34.2v34.2z" fill="#333333" p-id="72837"></path><path d="M697 726.7h58.7v58.7H697z" fill="#FCEB02" p-id="72838"></path><path d="M755.8 797.7H697c-6.8 0-12.2-5.5-12.2-12.2v-58.7c0-6.8 5.5-12.2 12.2-12.2h58.7c6.8 0 12.2 5.5 12.2 12.2v58.7c0.1 6.7-5.4 12.2-12.1 12.2z m-46.5-24.5h34.2V739h-34.2v34.2z" fill="#333333" p-id="72839"></path><path d="M697 785.4h58.7v58.7H697z" fill="#FCEB02" p-id="72840"></path><path d="M755.8 856.4H697c-6.8 0-12.2-5.5-12.2-12.2v-58.7c0-6.8 5.5-12.2 12.2-12.2h58.7c6.8 0 12.2 5.5 12.2 12.2v58.7c0.1 6.7-5.4 12.2-12.1 12.2z m-46.5-24.5h34.2v-34.2h-34.2v34.2z" fill="#333333" p-id="72841"></path><path d="M254.2 502.8c-5.9 0-11.7-2.5-15.7-7.4-7.1-8.6-5.9-21.4 2.8-28.5L500 254.2c8.6-7.1 21.4-5.9 28.5 2.8 7.1 8.6 5.9 21.4-2.8 28.5L267 498.2c-3.7 3.1-8.3 4.6-12.8 4.6z" fill="#333333" p-id="72842"></path><path d="M771.8 501c-4.1 0-8.2-1.4-11.7-4.2L501.4 284.1c-7.8-6.4-9-18-2.5-25.9 6.4-7.8 18-9 25.9-2.5l258.7 212.7c7.8 6.4 9 18 2.5 25.9-3.6 4.4-8.9 6.7-14.2 6.7z" fill="#333333" p-id="72843"></path><path d="M369.7 585.9c-6.8 0-12.3-5.5-12.3-12.3v-44.3c0-6.8 5.5-12.3 12.3-12.3s12.3 5.5 12.3 12.3v44.3c0 6.8-5.5 12.3-12.3 12.3z" fill="#FFFFFF" p-id="72844"></path><path d="M371 541.7c-3.5 0-7.1-1.5-9.5-4.5-4.3-5.2-3.5-13 1.7-17.3l33.9-27.9c5.2-4.3 13-3.5 17.3 1.7 4.3 5.2 3.5 13-1.7 17.3l-33.9 27.9c-2.3 1.9-5.1 2.8-7.8 2.8z" fill="#FFFFFF" p-id="72845"></path></svg>