<?xml version="1.0" standalone="no"?><!DOCTYPE svg PUBLIC "-//W3C//DTD SVG 1.1//EN" "http://www.w3.org/Graphics/SVG/1.1/DTD/svg11.dtd"><svg t="1607584858483" class="icon" viewBox="0 0 1024 1024" version="1.1" xmlns="http://www.w3.org/2000/svg" p-id="160708" xmlns:xlink="http://www.w3.org/1999/xlink" width="200" height="200"><defs><style type="text/css"></style></defs><path d="M620.811 966.378c-30.62 0-54.679-24.060-54.679-54.679v-73.268c0-36.086-6.561-71.083-18.59-103.889l-10.937-28.433c-3.28-9.843-13.123-16.403-22.966-16.403-10.937 0-19.683 6.561-22.966 16.403l-10.937 30.62c-10.937 31.713-16.403 63.425-16.403 97.327v77.644c0 30.62-24.060 54.679-54.679 54.679-19.683 0-37.182-10.937-47.023-27.34l-26.246-47.023c-44.836-78.736-73.268-168.41-80.924-259.175-3.28-34.994-14.215-69.988-31.713-101.701l-40.462-69.988c-27.34-48.116-42.649-102.796-42.649-158.567 0-56.865 13.123-108.263 37.182-150.913 32.807-57.959 97.327-94.047 167.315-94.047 12.031 0 22.966 1.093 33.901 3.28l137.79 24.060 137.79-24.060c10.937-2.188 22.966-3.28 33.901-3.28 69.988 0 133.415 36.086 167.315 94.047 25.152 43.743 37.182 94.047 37.182 150.913 0 55.773-14.215 110.451-42.649 158.567l-40.462 69.988c-17.497 31.713-29.527 66.707-31.713 101.701-7.657 90.765-36.086 180.439-80.924 259.175l-26.246 47.023c-12.031 16.403-29.527 27.34-49.21 27.34zM513.639 656.897c24.060 0 45.929 15.309 53.586 37.182l10.937 28.433c14.215 37.182 20.777 75.456 20.777 114.823v73.268c0 12.031 9.843 21.87 21.87 21.87 7.657 0 15.309-4.373 18.59-10.937l26.246-47.023c42.649-74.363 69.988-159.66 76.549-244.959 3.28-39.369 16.403-79.83 36.086-114.823l40.462-69.988c25.152-43.743 38.274-92.953 38.274-142.163 0-51.397-10.937-96.234-32.807-134.509-27.34-48.116-80.924-77.644-138.882-77.644-9.843 0-18.59 1.093-28.433 2.188l-139.977 25.152h-5.468l-139.977-25.152c-8.75-1.093-18.59-2.188-28.433-2.188-57.959 0-111.543 29.527-138.882 77.644-21.87 38.274-32.807 84.204-32.807 134.509 0 50.305 13.123 99.516 38.274 142.163l40.462 69.988c20.777 34.994 32.807 75.456 36.086 114.823 7.657 85.299 33.901 170.595 76.549 244.959l26.246 47.023c4.373 6.561 10.937 10.937 18.59 10.937 12.031 0 21.87-9.843 21.87-21.87v-77.644c0-37.182 6.561-73.268 17.497-107.169l10.937-30.62c8.75-22.966 30.62-38.274 55.773-38.274z" fill="#5FA0E2" p-id="160709"></path><path d="M647.055 806.715c-3.28-34.994-10.937-68.894-22.966-101.701l-10.937-28.433c-15.309-41.555-55.773-69.988-100.608-69.988-45.929 0-86.393 28.433-100.608 72.176l-10.937 30.62c-10.937 30.62-17.497 63.425-19.683 96.234-26.246-56.865-41.555-118.105-47.023-179.346-4.373-47.023-18.59-94.047-42.649-135.602l-40.462-69.988c-20.777-36.086-31.713-76.549-31.713-118.105 0-42.649 8.75-79.83 26.246-110.451 18.59-32.807 55.773-52.491 95.14-52.491 6.561 0 13.123 1.093 19.683 2.188l139.977 25.152c3.28 1.093 7.657 1.093 10.937 1.093s7.657 0 10.937-1.093l139.977-25.152c6.561-1.093 13.123-2.188 19.683-2.188 40.462 0 77.644 20.777 96.234 53.586 17.497 30.62 26.246 67.801 26.246 110.451 0 41.555-10.937 82.018-31.713 118.105l-40.462 69.988c-24.060 41.555-38.274 88.579-42.649 135.602-1.093 61.241-17.497 122.478-42.649 179.346z" fill="#93CBF9" p-id="160710"></path></svg>