<?xml version="1.0" standalone="no"?><!DOCTYPE svg PUBLIC "-//W3C//DTD SVG 1.1//EN" "http://www.w3.org/Graphics/SVG/1.1/DTD/svg11.dtd"><svg t="1607584411309" class="icon" viewBox="0 0 1024 1024" version="1.1" xmlns="http://www.w3.org/2000/svg" p-id="144865" xmlns:xlink="http://www.w3.org/1999/xlink" width="200" height="200"><defs><style type="text/css"></style></defs><path d="M543.703561 207.352535l131.920542 131.921565a32920449.54596 32920449.54596 0 0 0-327.404772 327.403748L216.298789 534.756283c-1.1328-1.914606-2.043542-4.012384-3.432169-5.717211-61.71048-75.762521-68.711941-183.818539-17.009395-266.568195 6.690376-10.704806 14.402011-20.771069 21.640879-31.132045l22.786983-22.786982c1.898233-1.169639 3.960195-2.139733 5.672186-3.538593 75.392084-61.584614 179.51349-69.958328 263.562744-20.806885 11.851932 6.930853 22.808472 15.394618 34.183544 23.146163z" fill="#FF3366" p-id="144866"></path><path d="M475.730447 795.802718L343.808882 663.883199l327.403748-327.404771 131.920542 131.920541c1.1328 1.914606 2.043542 4.01136 3.432169 5.717212 61.71048 75.762521 68.710918 183.817516 17.009395 266.569218-6.689353 10.704806-14.400988 20.770046-21.640879 31.132045l-22.786983 22.786982c-1.89721 1.169639-3.959172 2.13871-5.672186 3.53757-75.392084 61.585637-179.514513 69.958328-263.563768 20.807908-11.848862-6.931876-22.807449-15.394618-34.180473-23.147186z" fill="#00CCFF" p-id="144867"></path><path d="M482.513944 800.139489L211.477994 529.10354c-1.170662-1.90335-2.153036-3.957125-3.535523-5.689583-59.086723-74.013691-67.121723-177.074951-19.798928-259.05201 7.006578-12.137435 15.518438-23.407106 23.334451-35.077914l27.584242-27.584241c1.673106-0.971118 3.505847-1.744737 4.999874-2.940982 76.692706-61.426001 182.151573-68.082608 266.261203-16.572444 9.821693 6.012947 19.051915 12.985756 28.557406 19.513426l271.036973 271.036972c1.168616 1.90028 2.152013 3.946892 3.530406 5.68242 59.473533 74.701352 67.169819 178.072675 19.030426 260.558317-6.783497 11.620665-15.003715 22.406313-22.559809 33.579793-9.194406 9.191336-18.390859 18.389836-27.583218 27.582195-1.677199 0.972141-3.508917 1.750877-5.004991 2.949169-76.883041 61.449537-182.063569 68.086701-266.251993 16.569374-9.824763-6.012947-19.058055-12.988826-28.564569-19.518543zM358.989629 652.628878c39.571251 39.573297 78.993099 79.294974 118.821199 118.607328 9.809413 9.68457 20.390399 18.786878 31.544437 26.872021 96.011704 69.578682 237.040694 42.980907 301.712623-56.644092 56.790424-87.47733 45.300742-198.103894-28.461215-272.013207C702.14513 388.827703 621.610932 308.276109 540.896632 227.90257c-8.762571-8.723685-18.46249-16.679891-28.499078-23.922852-93.004207-67.143213-228.189096-45.544289-295.550272 47.0025-63.931055 87.835488-54.716182 204.726731 22.22928 281.729499 39.957037 39.987736 79.94068 79.945797 119.913067 119.917161z" fill="#333333" p-id="144868"></path><path d="M495.427044 230.692103c-6.323009-4.0175-15.124466-10.443863-24.644283-15.517415-46.997384-25.043373-94.227058-25.409716-141.318586-0.12382-8.625448 4.630461-11.257391 12.7023-7.194866 19.998473 4.208858 7.559163 12.450567 9.141194 21.26021 4.412496 34.916231-18.736736 70.568219-20.009729 106.383936-3.157923 10.233062 4.815679 19.490913 11.742439 29.069059 17.899672 6.887874 4.429893 14.72333 3.837398 19.61371-1.864464 4.802376-5.600555 4.465708-13.781888-3.16918-21.647019z" fill="#FFFFFF" p-id="144869"></path><path d="M495.427044 230.692103c7.635911 7.866155 7.971555 16.046464 3.16918 21.645996-4.889357 5.702885-12.725836 6.294356-19.61371 1.864464-9.578146-6.157233-18.835997-13.083993-29.069059-17.899672-35.815717-16.851806-71.467705-15.57779-106.383936 3.157923-8.809643 4.728698-17.052374 3.146667-21.26021-4.412497-4.062526-7.297197-1.430582-15.369036 7.194866-19.998473 47.092551-25.284873 94.321202-24.919553 141.318586 0.12382 9.519818 5.074575 18.320251 11.500938 24.644283 15.518439z" fill="#FFFFFF" p-id="144870"></path><path d="M293.922704 246.099001m-18.303878 0a18.303878 18.303878 0 1 0 36.607756 0 18.303878 18.303878 0 1 0-36.607756 0Z" fill="#FFFFFF" p-id="144871"></path><path d="M521.806855 771.478729c6.324032 4.018523 15.124466 10.444886 24.645306 15.517416 46.997384 25.044396 94.225011 25.409716 141.318586 0.124843 8.625448-4.630461 11.257391-12.701277 7.19282-20.00052-4.206812-7.55814-12.449543-9.139148-21.259187-4.412496-34.915207 18.73776-70.568219 20.011776-106.383935 3.158946-10.234085-4.813632-19.490913-11.740392-29.069059-17.899672-6.886851-4.426823-14.724353-3.836375-19.612687 1.864464-4.802376 5.600555-4.467755 13.782911 3.168156 21.647019z" fill="#FFFFFF" p-id="144872"></path><path d="M521.806855 771.478729c-7.635911-7.865131-7.970532-16.047488-3.169179-21.645996 4.888334-5.700839 12.725836-6.291287 19.612686-1.864463 9.578146 6.160303 18.834974 13.08604 29.069059 17.899672 35.815717 16.85283 71.468728 15.578814 106.383936-3.158947 8.809643-4.726651 17.052374-3.145643 21.259186 4.412497 4.064572 7.299243 1.431605 15.370059-7.192819 20.000519-47.093575 25.284873-94.321202 24.919553-141.318586-0.124843-9.519818-5.073552-18.320251-11.499915-24.644283-15.518439z" fill="#FFFFFF" p-id="144873"></path><path d="M723.311195 756.071831m-18.303878 0a18.303878 18.303878 0 1 0 36.607756 0 18.303878 18.303878 0 1 0-36.607756 0Z" fill="#FFFFFF" p-id="144874"></path></svg>