<?xml version="1.0" standalone="no"?><!DOCTYPE svg PUBLIC "-//W3C//DTD SVG 1.1//EN" "http://www.w3.org/Graphics/SVG/1.1/DTD/svg11.dtd"><svg t="1607582032714" class="icon" viewBox="0 0 1024 1024" version="1.1" xmlns="http://www.w3.org/2000/svg" p-id="41253" xmlns:xlink="http://www.w3.org/1999/xlink" width="200" height="200"><defs><style type="text/css"></style></defs><path d="M664.812308 270.966154l-144.935385-61.44v-45.686154c0-14.178462 6.301538-18.904615 18.904615-28.356923 14.178462-11.027692 34.658462-23.630769 37.809231-59.864615 1.575385-20.48-4.726154-39.384615-18.904615-53.563077-15.753846-15.753846-37.809231-22.055385-63.015385-22.055385-37.809231 1.575385-58.289231 20.48-69.316923 34.658462-11.027692 15.753846-12.603077 31.507692-12.603077 33.083076 0 0-4.726154 15.753846 12.603077 17.329231 17.329231 3.150769 17.329231-14.178462 17.329231-14.178461 1.575385-1.575385 6.301538-37.809231 53.563077-39.384616 15.753846-1.575385 29.932308 3.150769 39.384615 12.603077 7.876923 7.876923 11.027692 17.329231 9.452308 29.932308-1.575385 22.055385-11.027692 28.356923-23.630769 37.809231-14.178462 9.452308-31.507692 22.055385-31.507693 51.987692v50.412308l-130.756923 80.344615c-6.301538 4.726154-9.452308 14.178462-4.726154 20.48 3.150769 4.726154 7.876923 7.876923 12.603077 7.876923 3.150769 0 4.726154 0 7.876923-1.575384l135.483077-81.92L653.784615 299.323077c1.575385 1.575385 3.150769 1.575385 6.301539 1.575385 6.301538 0 11.027692-3.150769 14.178461-9.452308 1.575385-7.876923-1.575385-17.329231-9.452307-20.48z" fill="#5D101C" p-id="41254"></path><path d="M942.08 406.449231c-192.196923-99.249231-299.323077-151.236923-322.953846-159.113846-34.658462-11.027692-64.590769-15.753846-107.126154-15.753847s-58.289231 3.150769-103.975385 15.753847c-47.261538 14.178462-105.550769 51.987692-121.304615 61.44L69.316923 444.258462c-9.452308 6.301538-12.603077 20.48-4.726154 29.932307L146.510769 630.153846c11.027692 14.178462 25.206154 9.452308 29.932308 4.726154l18.904615-14.178462c12.603077-9.452308 31.507692-7.876923 42.535385 6.301539 4.726154 6.301538 6.301538 12.603077 6.301538 20.48-1.575385 14.178462-3.150769 29.932308-4.726153 44.110769-4.726154 45.686154-11.027692 127.606154-18.904616 245.76-1.575385 17.329231 4.726154 34.658462 15.753846 45.686154 11.027692 12.603077 28.356923 20.48 45.686154 20.48h463.163077c17.329231 0 33.083077-7.876923 45.686154-18.904615 11.027692-12.603077 17.329231-29.932308 15.753846-45.686154l-23.630769-319.803077c-1.575385-15.753846 11.027692-31.507692 28.356923-31.507692 4.726154 0 9.452308 0 14.178461 1.575384l29.932308 12.603077c9.452308 3.150769 29.932308 12.603077 40.96 0 12.603077-12.603077 53.563077-116.578462 67.741539-138.633846s-1.575385-47.261538-22.055385-56.713846z" fill="#F7CE92" p-id="41255"></path><path d="M979.889231 426.929231c-4.726154-14.178462-15.753846-26.781538-31.507693-34.658462-193.772308-99.249231-300.898462-151.236923-324.52923-159.113846-37.809231-12.603077-69.316923-17.329231-111.852308-17.329231-45.686154 0-61.44 3.150769-108.701538 17.329231-44.110769 12.603077-97.673846 45.686154-119.729231 59.864615-1.575385 1.575385-3.150769 1.575385-4.726154 3.15077L61.44 430.08c-7.876923 4.726154-14.178462 12.603077-15.753846 22.055385-1.575385 9.452308 0 18.904615 6.301538 26.781538L133.907692 638.030769v1.575385c17.329231 20.48 40.96 15.753846 50.412308 7.876923l18.904615-14.178462c6.301538-4.726154 15.753846-3.150769 20.48 3.15077 1.575385 3.150769 3.150769 6.301538 3.15077 11.027692l-4.726154 44.110769c-4.726154 45.686154-11.027692 127.606154-18.904616 245.76-1.575385 20.48 4.726154 42.535385 18.904616 58.289231 14.178462 15.753846 34.658462 25.206154 56.713846 25.206154h463.163077c20.48 0 40.96-9.452308 55.138461-23.630769 14.178462-15.753846 22.055385-36.233846 20.48-56.713847L795.569231 617.550769c0-4.726154 1.575385-7.876923 3.150769-11.027692 3.150769-3.150769 6.301538-4.726154 9.452308-4.726154 1.575385 0 4.726154 0 6.301538 1.575385l29.932308 12.603077c11.027692 4.726154 39.384615 15.753846 58.289231-3.15077 7.876923-7.876923 20.48-33.083077 44.110769-86.646153 11.027692-23.630769 22.055385-47.261538 26.781538-56.713847 9.452308-14.178462 11.027692-29.932308 6.301539-42.535384z m-31.507693 25.206154c-6.301538 9.452308-15.753846 33.083077-28.356923 59.864615-12.603077 26.781538-31.507692 70.892308-37.80923 77.193846-4.726154 4.726154-20.48-1.575385-25.206154-3.150769l-29.932308-12.603077c-6.301538-3.150769-12.603077-3.150769-20.48-3.150769-12.603077 1.575385-23.630769 6.301538-31.507692 15.753846s-11.027692 20.48-11.027693 33.083077l23.63077 319.803077c1.575385 12.603077-3.150769 25.206154-12.603077 34.658461-9.452308 9.452308-20.48 14.178462-33.083077 14.178462H280.418462c-12.603077 0-25.206154-4.726154-34.658462-14.178462-9.452308-9.452308-12.603077-22.055385-11.027692-34.658461 7.876923-116.578462 14.178462-200.073846 18.904615-244.184616l4.726154-44.110769c1.575385-11.027692-1.575385-22.055385-9.452308-31.507692-9.452308-11.027692-22.055385-17.329231-36.233846-17.329231-9.452308 0-18.904615 3.150769-26.781538 9.452308l-17.329231 14.178461c-1.575385 1.575385-4.726154 1.575385-7.876923-1.575384l-81.92-155.963077-1.575385-1.575385c-1.575385-1.575385-1.575385-3.150769-1.575384-4.726154V456.861538l217.403076-135.483076c1.575385-1.575385 3.150769-1.575385 4.726154-3.15077 18.904615-12.603077 70.892308-44.110769 111.852308-56.713846 47.261538-14.178462 59.864615-15.753846 100.824615-15.753846 39.384615 0 67.741538 4.726154 103.975385 15.753846 15.753846 4.726154 83.495385 36.233846 319.803077 157.538462h1.575385c7.876923 3.150769 12.603077 9.452308 15.753846 15.753846 1.575385 6.301538 0 12.603077-3.15077 17.329231z" fill="#5D101D" p-id="41256"></path><path d="M500.972308 516.726154h23.630769c11.027692 0 18.904615-9.452308 18.904615-18.904616 0-11.027692-9.452308-18.904615-18.904615-18.904615h-23.630769c-11.027692 0-18.904615 9.452308-18.904616 18.904615s9.452308 18.904615 18.904616 18.904616z m23.630769 67.741538h-23.630769c-11.027692 0-18.904615 9.452308-18.904616 18.904616 0 11.027692 9.452308 18.904615 18.904616 18.904615h23.630769c11.027692 0 18.904615-9.452308 18.904615-18.904615s-7.876923-18.904615-18.904615-18.904616z" fill="#5D101C" p-id="41257"></path><path d="M351.310769 277.267692c15.753846 11.027692 40.96 26.781538 70.892308 45.686154s55.138462 28.356923 75.618461 36.233846c-9.452308 11.027692-18.904615 26.781538-31.507692 39.384616-33.083077 31.507692-55.138462 55.138462-80.344615 55.138461-20.48 0-36.233846-22.055385-45.686154-33.083077-26.781538-40.96-63.015385-97.673846-45.686154-113.427692 7.876923-6.301538 31.507692-17.329231 56.713846-29.932308zM622.276923 447.409231c-18.904615 0-23.630769-3.150769-74.043077-50.412308-12.603077-12.603077-25.206154-28.356923-34.658461-37.809231 20.48-9.452308 44.110769-17.329231 74.043077-34.658461 31.507692-18.904615 64.590769-42.535385 80.344615-53.563077 23.630769 9.452308 40.96 23.630769 51.987692 29.932308 28.356923 20.48-18.904615 75.618462-51.987692 113.427692-4.726154 4.726154-26.781538 33.083077-45.686154 33.083077z" fill="#B2DFF8" p-id="41258"></path><path d="M505.698462 247.335385c55.138462 0 99.249231 9.452308 130.756923 26.781538-11.027692 9.452308-107.126154 78.769231-130.756923 78.769231-23.630769 0-119.729231-64.590769-130.756924-75.618462 45.686154-29.932308 130.756923-29.932308 130.756924-29.932307z" fill="#FFFFFF" p-id="41259"></path><path d="M524.603077 477.341538h-23.630769c-11.027692 0-18.904615 9.452308-18.904616 18.904616 0 11.027692 9.452308 18.904615 18.904616 18.904615h23.630769c11.027692 0 18.904615-9.452308 18.904615-18.904615s-7.876923-18.904615-18.904615-18.904616z m0 107.126154h-23.630769c-11.027692 0-18.904615 9.452308-18.904616 18.904616 0 11.027692 9.452308 18.904615 18.904616 18.904615h23.630769c11.027692 0 18.904615-9.452308 18.904615-18.904615s-7.876923-18.904615-18.904615-18.904616z m218.978461-272.541538c-1.575385-9.452308-6.301538-18.904615-14.178461-25.206154h-1.575385c-3.150769-1.575385-4.726154-3.150769-9.452307-6.301538-11.027692-7.876923-26.781538-17.329231-45.686154-25.206154l-7.876923-3.15077-6.301539 4.726154c-3.150769 1.575385-7.876923 4.726154-12.603077 9.452308-17.329231 11.027692-42.535385 29.932308-66.166154 44.110769-23.630769 12.603077-42.535385 22.055385-59.864615 28.356923-4.726154 1.575385-9.452308 3.150769-14.178461 6.301539l-1.575385 1.575384c-4.726154-1.575385-9.452308-4.726154-14.178462-6.301538-17.329231-7.876923-36.233846-15.753846-59.864615-29.932308-31.507692-18.904615-55.138462-34.658462-70.892308-45.686154l-7.876923-4.726153-7.876923 3.150769c-4.726154 1.575385-9.452308 4.726154-14.178461 6.301538-23.630769 11.027692-37.809231 18.904615-45.686154 25.206154-17.329231 15.753846-6.301538 44.110769 3.150769 64.590769 11.027692 23.630769 28.356923 50.412308 40.96 67.741539 7.876923 11.027692 26.781538 40.96 56.713846 40.96 28.356923 0 51.987692-23.630769 85.070769-55.138462l4.726154-4.726154c9.452308-7.876923 15.753846-17.329231 22.055385-26.781538 3.150769-3.150769 4.726154-7.876923 7.876923-11.027692 1.575385 3.150769 4.726154 4.726154 6.301538 7.876923 7.876923 7.876923 15.753846 17.329231 23.63077 26.781538 51.987692 48.836923 59.864615 55.138462 85.070769 55.138462 11.027692 0 28.356923-3.150769 56.713846-36.233846l1.575385-1.575385 1.575384-3.150769c39.384615-40.96 67.741538-77.193846 64.590769-107.126154z m-288.295384 75.618461l-4.726154 6.301539c-26.781538 25.206154-47.261538 45.686154-64.590769 45.686154-14.178462 0-28.356923-20.48-33.083077-26.781539-11.027692-15.753846-25.206154-37.809231-36.233846-58.289231-12.603077-25.206154-12.603077-33.083077-11.027693-34.658461 4.726154-4.726154 22.055385-12.603077 37.809231-20.48 1.575385-1.575385 4.726154-1.575385 6.301539-3.150769 15.753846 11.027692 37.809231 25.206154 64.590769 40.96 22.055385 14.178462 42.535385 22.055385 59.864615 29.932307-6.301538 6.301538-12.603077 14.178462-18.904615 20.48z m203.224615 14.178462l-1.575384 1.575385-1.575385 1.575384c-20.48 23.630769-29.932308 26.781538-33.083077 26.781539-12.603077 0-14.178462 0-64.590769-45.686154-6.301538-6.301538-14.178462-14.178462-18.904616-20.48 15.753846-6.301538 34.658462-15.753846 56.713847-28.356923 25.206154-14.178462 51.987692-33.083077 69.316923-45.686154 1.575385-1.575385 3.150769-3.150769 6.301538-3.150769 12.603077 6.301538 23.630769 12.603077 33.083077 18.904615 3.150769 1.575385 6.301538 4.726154 9.452308 6.301538 1.575385 1.575385 1.575385 1.575385 1.575384 3.15077 0 18.904615-36.233846 61.44-56.713846 85.070769z" fill="#5D101D" p-id="41260"></path></svg>