<?xml version="1.0" standalone="no"?><!DOCTYPE svg PUBLIC "-//W3C//DTD SVG 1.1//EN" "http://www.w3.org/Graphics/SVG/1.1/DTD/svg11.dtd"><svg t="1607585156708" class="icon" viewBox="0 0 1024 1024" version="1.1" xmlns="http://www.w3.org/2000/svg" p-id="11146" xmlns:xlink="http://www.w3.org/1999/xlink" width="200" height="200"><defs><style type="text/css"></style></defs><path d="M862.1 619l-137.6 62.8c-28 12.8-59.1 16.8-89.4 11.7l-427.6-72.7c-14.8-2.5-25.5-15.3-25.5-30.3V414.6c0-2 1.2-3.8 3-4.7l152.6-69.6c28-12.7 59.1-16.8 89.4-11.7l427.6 72.7c14.8 2.5 25.5 15.3 25.5 30.3V591c0 12.1-7.1 23-18 28z" fill="#E7EDF1" p-id="11147"></path><path d="M634.3 486.5l-449.8-76.4c0.1-0.1 0.3-0.1 0.4-0.2l152.6-69.6c28-12.8 59.1-16.8 89.4-11.7l427.6 72.7c6.3 1.1 11.9 4 16.3 8.3l-141.6 64.6c-29.7 13.5-62.7 17.8-94.9 12.3z" fill="#C6BAC5" p-id="11148"></path><path d="M307.1 486.3v151.4l-99.7-16.9c-14.8-2.5-25.5-15.3-25.5-30.3V465l125.2 21.3z" fill="#F1EDF3" p-id="11149"></path><path d="M635.1 541.5l-453.2-77 136.4-62.3c28-12.7 59.1-16.8 89.4-11.7l453.2 77-136.4 62.3c-27.9 12.7-59.1 16.8-89.4 11.7z" fill="#AFA7AE" p-id="11150"></path><path d="M880.1 409.3l-149 68c-29 13.2-61.4 17.5-92.9 12.1L182 411.9v178.5c0 15 10.8 27.7 25.5 30.3l427.6 72.7c30.3 5.1 61.4 1.1 89.4-11.7L862.1 619c10.9-5 18-15.9 18-27.9V409.3z" fill="#F1EDF3" p-id="11151"></path><path d="M878.9 410.3l-149 68c-18.1 8.3-37.5 13-57.2 14.1V695c17.4-1.5 34.6-5.9 50.7-13.3L861 619c10.9-5 18-15.9 18-27.9V410.3z" fill="#D7D1D6" p-id="11152"></path><path d="M175 590.5c0 15 10.8 27.8 25.5 30.3l86.4 14.9 1-203.5L175 411.8v178.7z" fill="#FEFDFF" p-id="11153"></path><path d="M355.3 645.8l-2.2 12.9 22.3 3.8 37.5 6.4 90 15.3 129.9 22.1c9.3 1.6 18.7 2.4 28.1 2.4 23.7 0 47.1-5.1 68.9-15l137.6-62.8c15.5-7.1 25.6-22.7 25.6-39.8V431.6c0-18.3-11.4-34.6-28.3-40.9-1.7-0.8-3.5-1.4-5.5-1.8l-1.7-0.3c-0.3-0.1-0.7-0.1-1-0.2l-59.1-10-30.5-5.2-24.6-4.2-30.6-5.2-47.1-8-15.4-2.6-3.9-0.6-2.2 12.9-2.2 12.9 2.2 0.4 47.7 8.1 85.8 14.6 59.3 10.1L719 464.9c-25.7 11.7-53.9 15.4-81.8 10.7l-73.6-12.5-30.9-5.2-10.7 11.2v0.1l-2.2 12.8 22.3 3.8 90.7 15.4c9.3 1.6 18.7 2.4 28.1 2.4 23.7 0 47.1-5.1 68.9-15l134.4-61.3c0.7-0.3 1.3-0.7 1.9-1 0.6 1.7 0.9 3.5 0.9 5.4v31.1l-147.9 67.5c-25.7 11.7-54 15.4-81.8 10.7l-126.7-21.5-30.9-5.2-10.8 11.4-2.2 12.9 22.3 3.8 143.9 24.4c9.3 1.6 18.7 2.4 28 2.4 23.7 0 47.1-5.1 69-15.1L867 491.3V591c0 6.9-4.1 13.2-10.3 16.1l-137.6 62.8c-25.7 11.7-53.9 15.4-81.8 10.7L397 639.7l-30.9-5.2-10.8 11.3zM600.3 344.9l-2.2 12.9-10.8 11.4-31-5.3-131.7-22.4c-15.7-2.7-31.4-2.6-46.8-0.1-12 2-23.7 5.6-35 10.7L226 405.5l250.7 42.6 22.4 3.8-2.2 12.9-10.8 11.4-31-5.3-167.4-28.4-92.7-15.8v38.9l228.5 38.8 22.4 3.8-2.2 12.9-10.8 11.4-31-5.3L195 492.1v98.4c0 8.6 6.2 16 14.7 17.4l99.9 17 22.4 3.8-2.2 12.9-10.8 11.3-30.9-5.3-82.8-14.1c-21.1-3.6-36.4-21.7-36.4-43.1V414.6c0-0.5 0.1-1.1 0.1-1.6v-0.1c-0.7-5.7 2.4-11.1 7.7-13.4l2.9-1.3 152.6-69.6c26.6-12.1 55.6-17 84.5-14.3 4.2 0.4 8.3 0.9 12.5 1.7L578 341.1l22.3 3.8z" fill="#5E4153" p-id="11154"></path><path d="M489.6 222.7c15.6-55.4 54.8-101.1 107.2-125 9.6-4.4 19.2-6.3 28.6-6.3 6.7 0 13.2 1 19.4 2.9 41.2 12.5 55.5 52.1 46.4 84.4l-48 184.9L461 333.7l28.6-111z" fill="#7F6878" p-id="11155"></path><path d="M489.6 222.7c15.6-55.4 54.8-101.1 107.2-125 9.6-4.4 19.2-6.3 28.6-6.3 6.7 0 13.2 1 19.4 2.9 41.2 12.5 55.5 52.1 46.4 84.4l-48 184.9L461 333.7l28.6-111z" fill="#7F6878" p-id="11156"></path><path d="M644.8 94.2c-6.2-1.9-12.7-2.9-19.4-2.9-9.4 0-19.1 2-28.6 6.3-17.8 8.1-34.2 18.8-48.5 31.5h1.4c5.4 0 10.7 0.8 15.8 2.3 33.5 10.2 45.1 73.7 37.7 99.9l-38.4 119.2 78.3 12.8 48-184.9c9.2-32-5.1-71.7-46.3-84.2z" fill="#775C70" p-id="11157"></path><path d="M675.3 292.7l-25.3-6.5 28.5-110.9c0-0.1 0.1-0.2 0.1-0.3 7.2-25.4-3.6-58-37.6-68.4-4.2-1.3-8.6-2-13-2.3l1.2-26.1c6.6 0.3 13.1 1.4 19.4 3.4 49.9 15.1 65.6 62.9 55.2 100.3l-28.5 110.8zM620.7 375.2l-161.8-26.5c-3.6-0.6-6.8-2.7-8.8-5.7-2-3.1-2.6-6.8-1.7-10.4l0.3-1.3 12.5 3.2 1.9-11.6 1.4 0.2 160.4 26.3-4.2 25.8z" fill="#5E4153" p-id="11158"></path><path d="M429.8 449.2l61-226.5c15.6-55.4 54.8-101.1 107.2-125 16.4-7.5 33.1-8 48-3.5 0 0-440.7-150.7-464.5 313.2l248.3 41.8z" fill="#90838C" p-id="11159"></path><path d="M465.5 85.3C341.7 90.8 198.2 149 184.9 407.5l55.8 9.4c24.8-201.3 119.1-291.1 224.8-331.6z" fill="#AA9DA7" p-id="11160"></path><path d="M430.8 466.4c-0.7 0-1.4-0.1-2.2-0.2l-248.4-41.8c-6.3-1.1-10.9-6.5-10.9-12.9 0-124.2 37.6-216.5 111.9-274.5C339 91.9 420.4 68 516.6 68h3.1c59.1 0.3 106.5 9.3 123.7 13 2.6 0.4 5.1 1 7.5 1.8 6.8 2.1 10.7 9.1 8.8 16-1.9 6.8-8.9 10.9-15.7 9.2-0.1 0-2-0.5-5.4-1.2-11.9-1.7-24.9 2.6-34.2 6.9-49 22.3-85.4 64.9-100 116.6l-60.9 226.4c-1.7 5.8-6.9 9.7-12.7 9.7z m-235.2-65.9l225.7 38 57.9-215.1c15.2-53.9 51-99 99.4-125.9-17.6-1.8-37.9-3.2-59.6-3.3h-2.3c-63.6 0-152.5 11.2-219.4 63.5-65.4 51.1-99.6 132.8-101.7 242.8z" fill="#5E4153" p-id="11161"></path><path d="M799.134732 851.099997a51.7 54.5 6.298 1 0 11.957258-108.342162 51.7 54.5 6.298 1 0-11.957258 108.342162Z" fill="#3986D3" p-id="11162"></path><path d="M804.6 862.6c-2.2 0-4.5-0.1-6.8-0.4-18.9-2.1-35.6-12.8-45.8-29.3l22.2-13.7c6 9.7 15.7 15.9 26.5 17.1 9.7 1.1 19.2-1.9 26.9-8.4 7.9-6.7 12.9-16.2 14.1-26.8 2.4-21.7-12.1-41.1-32.3-43.3-14.4-1.6-28.5 6.1-36 19.5l-22.8-12.6c12.6-22.7 36.8-35.6 61.7-32.8 34.5 3.8 59.3 36.2 55.4 72.1-1.9 17.3-10.1 32.9-23.2 43.9-11.4 9.6-25.4 14.7-39.9 14.7zM452.9 776.5c-2.1 0.8-4.3 1.4-6.5 1.9-18.5 4.4-37.8 0-53.1-12.1l16.2-20.5c8.9 7.1 20.1 9.7 30.8 7.1 9.4-2.3 17.4-8.3 22.5-17.1 5.2-9 6.6-19.6 4.1-30-5.1-21.2-25.3-34.6-45.1-29.8-14.1 3.4-24.8 15.4-27.2 30.6l-25.8-4.2c4.1-25.6 22.5-46 46.9-51.8 33.8-8.1 68.1 13.9 76.6 49.1 4.1 16.9 1.6 34.4-6.9 49.2-7.6 13.1-18.9 22.6-32.5 27.6z" fill="#5E4153" p-id="11163"></path><path d="M884.8 202.3c-10-14-27.2-18.6-42.8-11.6l-113.7 50.9c-23.3 10.5-44 25.1-61.6 43.7L174.9 805.2c-3.5 3.5-4 9-1.2 13.1 1.5 2.3 3.8 3.8 6.3 4.4 0.9 0.5 2 0.8 3 1l418.1 60.5h0.2c4.8 0.6 9.6 0.9 14.4 0.9 16.2 0 32.2-3.6 46.9-10.5l115.5-55.9c0.1 0 0.1-0.1 0.2-0.1 9.8-4.6 15.3-15 13.7-25.7-1.6-10.7-9.9-19-20.6-20.6L427 718.4l46.9-43.2-15-14.5-56.2 52.8-178.3 70.9 457.1-484.7 0.1-0.1c15.7-16.6 34.2-29.7 55-39l113.7-50.9c7.8-3.5 14 0.1 17.3 4.7 3.2 4.5 4.6 11.6-1.1 17.8L733.4 378l15 14.5 133.4-145.8 0.1-0.1c11.7-12.6 12.9-30.3 2.9-44.3zM410 737l358.5 56c2.2 0.3 2.8 1.8 3 3 0.2 1.2 0 2.8-1.9 3.7L654 855.6c-0.1 0-0.1 0.1-0.2 0.1-15.5 7.3-32.7 10-49.7 7.8L224.6 809 410 737z" fill="#DDDDE8" p-id="11164"></path><path d="M408 722.3l56.3-52.9 7.7 7.6 3.8-3.5-15-14.5-56.3 52.8-156.2 62.3-18.5 19.1zM655.6 864.4c0.1 0 0.1-0.1 0.2-0.1L768.5 809c1.9-0.9 4.5-5.4 4.3-6.5-0.2-1.2 0-4.9-2.2-5.2l-3.9-1.3-114.4 58c-0.1 0-0.1 0.1-0.2 0.1-15.5 7.3-32.7 10-49.7 7.8L245 810.6l-18.6 7.1L606 872.2c16.9 2.2 34.1-0.5 49.6-7.8zM872.3 223.9c-0.2 2.7-1.4 5.6-3.9 8.3L735.1 378l7 6.8 129.8-142.1c5.8-6.2 4.4-13.3 1.1-17.8-0.2-0.3-0.5-0.7-0.7-1zM762.8 767.2l-331.9-51.8-9 8.3 344.4 53.9c7.4 1.1 21.1 4.2 24.8 10.3 0.8-14-12.6-21.1-28.3-20.7z" fill="#FFFFFF" p-id="11165"></path><path d="M176.7 815.7l491.7-519.9c17.5-18.5 38.2-33.2 61.6-43.7l113.7-50.9c15.6-7 32.9-2.4 42.8 11.6 1.1 1.5 2 3 2.8 4.6-0.9-5.2-2.9-10.3-6.3-15-10-14-27.2-18.6-42.8-11.6l-113.7 50.9c-23.3 10.5-44 25.1-61.6 43.7L173.2 805.2c-3.5 3.5-4 9-1.2 13.1 0.6 0.9 1.3 1.6 2 2.2 0.4-1.8 1.3-3.4 2.7-4.8z" fill="#FFFFFF" p-id="11166"></path><path d="M432.9 532.5l-31-5.3-92.3 97.6 22.4 3.8-2.2 12.9 103.1-109z m53.2-56.3l-31-5.3-31.7 33.5 22.4 3.8-2.2 12.9 42.5-44.9z m-19.4 62.1l2.2-12.9-102.8 109 30.9 5.2 92.1-97.6-22.4-3.7z m53.2-56.4l2.2-12.8v-0.1l-42.4 45 30.9 5.2 31.6-33.5-22.3-3.8z m67.4-112.7l-31-5.3-79.7 84.2 22.4 3.8-2.2 12.9 90.5-95.6zM771.5 796c-0.2-1.2-0.8-2.7-3-3L410 737l-185.4 72 379.6 54.5c3.8 0.5 7.7 0.7 11.5 0.7 13.2 0 26.1-2.9 38.1-8.6 0.1 0 0.1-0.1 0.2-0.1l115.5-55.9c1.9-0.8 2.1-2.4 2-3.6z m-128.6 36c-0.1 0-0.2 0.1-0.2 0.1-8.5 4-17.6 6-26.9 6-2.7 0-5.4-0.2-8-0.5l-280.9-40.4 86.1-33.4 280.3 43.8-50.4 24.4z m128.6-36c-0.2-1.2-0.8-2.7-3-3L410 737l-185.4 72 379.6 54.5c3.8 0.5 7.7 0.7 11.5 0.7 13.2 0 26.1-2.9 38.1-8.6 0.1 0 0.1-0.1 0.2-0.1l115.5-55.9c1.9-0.8 2.1-2.4 2-3.6z m-128.6 36c-0.1 0-0.2 0.1-0.2 0.1-8.5 4-17.6 6-26.9 6-2.7 0-5.4-0.2-8-0.5l-280.9-40.4 86.1-33.4 280.3 43.8-50.4 24.4z m128.6-36c-0.2-1.2-0.8-2.7-3-3L410 737l-185.4 72 379.6 54.5c3.8 0.5 7.7 0.7 11.5 0.7 13.2 0 26.1-2.9 38.1-8.6 0.1 0 0.1-0.1 0.2-0.1l115.5-55.9c1.9-0.8 2.1-2.4 2-3.6z m-128.6 36c-0.1 0-0.2 0.1-0.2 0.1-8.5 4-17.6 6-26.9 6-2.7 0-5.4-0.2-8-0.5l-280.9-40.4 86.1-33.4 280.3 43.8-50.4 24.4z m128.6-36c-0.2-1.2-0.8-2.7-3-3L410 737l-185.4 72 379.6 54.5c3.8 0.5 7.7 0.7 11.5 0.7 13.2 0 26.1-2.9 38.1-8.6 0.1 0 0.1-0.1 0.2-0.1l115.5-55.9c1.9-0.8 2.1-2.4 2-3.6z m-128.6 36c-0.1 0-0.2 0.1-0.2 0.1-8.5 4-17.6 6-26.9 6-2.7 0-5.4-0.2-8-0.5l-280.9-40.4 86.1-33.4 280.3 43.8-50.4 24.4z m-55.6-462.8l-31-5.3-79.7 84.2 22.4 3.8-2.2 12.9 90.5-95.6z m-67.4 112.7l2.2-12.8v-0.1l-42.4 45 30.9 5.2 31.6-33.5-22.3-3.8z m-53.2 56.4l2.2-12.9-102.8 109 30.9 5.2 92.1-97.6-22.4-3.7z m19.4-62.1l-31-5.3-31.7 33.5 22.4 3.8-2.2 12.9 42.5-44.9z m-53.2 56.3l-31-5.3-92.3 97.6 22.4 3.8-2.2 12.9 103.1-109zM771.5 796c-0.2-1.2-0.8-2.7-3-3L410 737l-185.4 72 379.6 54.5c3.8 0.5 7.7 0.7 11.5 0.7 13.2 0 26.1-2.9 38.1-8.6 0.1 0 0.1-0.1 0.2-0.1l115.5-55.9c1.9-0.8 2.1-2.4 2-3.6z m-128.6 36c-0.1 0-0.2 0.1-0.2 0.1-8.5 4-17.6 6-26.9 6-2.7 0-5.4-0.2-8-0.5l-280.9-40.4 86.1-33.4 280.3 43.8-50.4 24.4z m128.6-36c-0.2-1.2-0.8-2.7-3-3L410 737l-185.4 72 379.6 54.5c3.8 0.5 7.7 0.7 11.5 0.7 13.2 0 26.1-2.9 38.1-8.6 0.1 0 0.1-0.1 0.2-0.1l115.5-55.9c1.9-0.8 2.1-2.4 2-3.6z m-128.6 36c-0.1 0-0.2 0.1-0.2 0.1-8.5 4-17.6 6-26.9 6-2.7 0-5.4-0.2-8-0.5l-280.9-40.4 86.1-33.4 280.3 43.8-50.4 24.4z m-55.6-462.8l-31-5.3-79.7 84.2 22.4 3.8-2.2 12.9 90.5-95.6z m-67.4 112.7l2.2-12.8v-0.1l-42.4 45 30.9 5.2 31.6-33.5-22.3-3.8z m-53.2 56.4l2.2-12.9-102.8 109 30.9 5.2 92.1-97.6-22.4-3.7z m19.4-62.1l-31-5.3-31.7 33.5 22.4 3.8-2.2 12.9 42.5-44.9z m-53.2 56.3l-31-5.3-92.3 97.6 22.4 3.8-2.2 12.9 103.1-109zM771.5 796c-0.2-1.2-0.8-2.7-3-3L410 737l-185.4 72 379.6 54.5c3.8 0.5 7.7 0.7 11.5 0.7 13.2 0 26.1-2.9 38.1-8.6 0.1 0 0.1-0.1 0.2-0.1l115.5-55.9c1.9-0.8 2.1-2.4 2-3.6z m-128.6 36c-0.1 0-0.2 0.1-0.2 0.1-8.5 4-17.6 6-26.9 6-2.7 0-5.4-0.2-8-0.5l-280.9-40.4 86.1-33.4 280.3 43.8-50.4 24.4z m128.6-36c-0.2-1.2-0.8-2.7-3-3L410 737l-185.4 72 379.6 54.5c3.8 0.5 7.7 0.7 11.5 0.7 13.2 0 26.1-2.9 38.1-8.6 0.1 0 0.1-0.1 0.2-0.1l115.5-55.9c1.9-0.8 2.1-2.4 2-3.6z m-128.6 36c-0.1 0-0.2 0.1-0.2 0.1-8.5 4-17.6 6-26.9 6-2.7 0-5.4-0.2-8-0.5l-280.9-40.4 86.1-33.4 280.3 43.8-50.4 24.4z m-146-367.2l90.4-95.6-31-5.3-79.7 84.2 22.4 3.8-2.1 12.9z m45.3 20.9l-22.3-3.8 2.2-12.8v-0.1l-42.4 45 30.9 5.2 31.6-33.5zM366.1 634.4l30.9 5.2 92.1-97.6-22.3-3.8 2.2-12.9-102.9 109.1z m77.5-113.3l42.5-44.9-31-5.3-31.7 33.5 22.4 3.8-2.2 12.9zM329.8 641.5l103.1-109-31-5.3-92.3 97.6 22.4 3.8-2.2 12.9zM906 187.1c-11.7-16.4-29.6-25.8-49.3-25.8-8.7 0-17.3 1.8-25.4 5.5l-113.7 50.9c-26.5 11.9-50 28.5-69.9 49.6L578 341.1l-21.6 22.8-79.7 84.2-21.6 22.8-31.7 33.5-21.6 22.8-92.3 97.6-21.5 22.8-132 139.5c-11.8 12.3-13.6 31.4-4.1 45.6 4.6 6.9 11.3 12 19.2 14.5 2.6 1 5.2 1.8 7.9 2.2h0.3L597.2 910c0.3 0 0.5 0.1 0.8 0.1 5.9 0.8 11.8 1.2 17.7 1.2 20.2 0 39.7-4.4 58.1-13l0.1-0.1 0.1-0.1 115.3-55.8c0.1 0 0.1-0.1 0.2-0.1 20.3-9.6 31.7-30.9 28.4-53.1-3.3-22.2-20.4-39.2-42.5-42.5l-290.8-45.5 3.3-3 15.1-13.8 24.2-22.2-52.6-8.9-24.8-4.2-12.5-2.1-9.4 8.6-14.9 13.4-24.3 22.2-64.3 25.6 51.1-54.2 21.5-22.8 92.1-97.6 21.5-22.8 31.6-33.5 21.5-22.8 79.5-84.3 21.5-22.8 35.8-38 0.3-0.3c13.3-14 29-25.2 46.7-33.1l61.4-27.5-86 94.7-11.1 12.2-20.9 22.9-0.2 0.3 47.2 7.9 24.7 4.1 14.1 2.3 0.1-0.1 9.5-10.5 11.3-12.5L901 264.4c20-21.5 22.1-53.3 5-77.3z m-24.2 59.5l-0.1 0.1-114.8 126.5-0.1 0.1-24.7-4.1 0.2-0.2 124.3-136.8c5.8-6.2 4.4-13.3 1.1-17.8-2.3-3.3-6.2-6.1-11.1-6.1-1.9 0-3.9 0.4-6.1 1.4l-113.8 50.9c-20.8 9.3-39.3 22.5-55 39-0.1 0.1-0.1 0.1-0.1 0.2L532.8 457.7 522 469.1 479.7 514l-10.8 11.4-102.8 109-10.8 11.4-130.7 138.7 178.3-71 42.6-39 24.9 4.2-43.1 39.7 344.3 53.9c10.7 1.6 19 9.8 20.6 20.6 1.6 10.7-3.9 21.1-13.7 25.7-0.1 0-0.1 0.1-0.2 0.1l-115.5 55.9c-14.8 7-30.8 10.5-46.9 10.5-4.8 0-9.6-0.3-14.4-0.9h-0.2L183 823.7c-1.1-0.2-2.1-0.5-3-1-2.5-0.6-4.8-2.1-6.3-4.4-2.7-4.1-2.2-9.6 1.3-13.1l144-152.3 10.8-11.4 103.1-109 10.8-11.4 42.5-44.9 10.8-11.4 90.4-95.6 10.8-11.4 68.5-72.5c17.5-18.5 38.2-33.2 61.6-43.7L842 190.7c4.9-2.2 9.8-3.2 14.7-3.2 10.9 0 21.2 5.2 28.1 14.8 10 14 8.8 31.7-3 44.3zM615.7 864.3c13.2 0 26.1-2.9 38.1-8.6 0.1 0 0.1-0.1 0.2-0.1l115.5-55.9c1.9-0.9 2.1-2.5 1.9-3.7-0.2-1.2-0.8-2.7-3-3L410 737l-185.4 72 379.6 54.5c3.8 0.5 7.7 0.8 11.5 0.8zM412.9 763.9l280.3 43.8-50.3 24.3c-0.1 0-0.2 0.1-0.2 0.1-8.5 4-17.6 6-26.9 6-2.7 0-5.4-0.2-8-0.5l-280.9-40.4 86-33.3z m20-231.4l-31-5.3-92.3 97.6 22.4 3.8-2.2 12.9 103.1-109z m53.2-56.3l-31-5.3-31.7 33.5 22.4 3.8-2.2 12.9 42.5-44.9z m-19.4 62.1l2.2-12.9-102.8 109 30.9 5.2 92.1-97.6-22.4-3.7z m53.2-56.4l2.2-12.8v-0.1l-42.4 45 30.9 5.2 31.6-33.5-22.3-3.8z m67.4-112.7l-31-5.3-79.7 84.2 22.4 3.8-2.2 12.9 90.5-95.6zM771.5 796c-0.2-1.2-0.8-2.7-3-3L410 737l-185.4 72 379.6 54.5c3.8 0.5 7.7 0.7 11.5 0.7 13.2 0 26.1-2.9 38.1-8.6 0.1 0 0.1-0.1 0.2-0.1l115.5-55.9c1.9-0.8 2.1-2.4 2-3.6z m-128.6 36c-0.1 0-0.2 0.1-0.2 0.1-8.5 4-17.6 6-26.9 6-2.7 0-5.4-0.2-8-0.5l-280.9-40.4 86.1-33.4 280.3 43.8-50.4 24.4z m128.6-36c-0.2-1.2-0.8-2.7-3-3L410 737l-185.4 72 379.6 54.5c3.8 0.5 7.7 0.7 11.5 0.7 13.2 0 26.1-2.9 38.1-8.6 0.1 0 0.1-0.1 0.2-0.1l115.5-55.9c1.9-0.8 2.1-2.4 2-3.6z m-128.6 36c-0.1 0-0.2 0.1-0.2 0.1-8.5 4-17.6 6-26.9 6-2.7 0-5.4-0.2-8-0.5l-280.9-40.4 86.1-33.4 280.3 43.8-50.4 24.4z m-210-299.5l-31-5.3-92.3 97.6 22.4 3.8-2.2 12.9 103.1-109z m53.2-56.3l-31-5.3-31.7 33.5 22.4 3.8-2.2 12.9 42.5-44.9z m-19.4 62.1l2.2-12.9-102.8 109 30.9 5.2 92.1-97.6-22.4-3.7z m53.2-56.4l2.2-12.8v-0.1l-42.4 45 30.9 5.2 31.6-33.5-22.3-3.8z m67.4-112.7l-31-5.3-79.7 84.2 22.4 3.8-2.2 12.9 90.5-95.6zM771.5 796c-0.2-1.2-0.8-2.7-3-3L410 737l-185.4 72 379.6 54.5c3.8 0.5 7.7 0.7 11.5 0.7 13.2 0 26.1-2.9 38.1-8.6 0.1 0 0.1-0.1 0.2-0.1l115.5-55.9c1.9-0.8 2.1-2.4 2-3.6z m-128.6 36c-0.1 0-0.2 0.1-0.2 0.1-8.5 4-17.6 6-26.9 6-2.7 0-5.4-0.2-8-0.5l-280.9-40.4 86.1-33.4 280.3 43.8-50.4 24.4z m128.6-36c-0.2-1.2-0.8-2.7-3-3L410 737l-185.4 72 379.6 54.5c3.8 0.5 7.7 0.7 11.5 0.7 13.2 0 26.1-2.9 38.1-8.6 0.1 0 0.1-0.1 0.2-0.1l115.5-55.9c1.9-0.8 2.1-2.4 2-3.6z m-128.6 36c-0.1 0-0.2 0.1-0.2 0.1-8.5 4-17.6 6-26.9 6-2.7 0-5.4-0.2-8-0.5l-280.9-40.4 86.1-33.4 280.3 43.8-50.4 24.4z" fill="#5E4153" p-id="11167"></path><path d="M615.723109 942.691021a51.7 54.5 6.298 1 0 11.957258-108.342162 51.7 54.5 6.298 1 0-11.957258 108.342162Z" fill="#5A9DFF" p-id="11168"></path><path d="M594.1 898c3.3-29.9 29-51.7 57.4-48.5 4.9 0.5 9.6 1.8 13.9 3.6-8-8.7-18.9-14.6-31.3-15.9-28.4-3.1-54.1 18.6-57.4 48.5-2.7 24.8 10.7 47.4 31.6 56.2-10.5-11.1-16.1-27-14.2-43.9z" fill="#8DC1FF" p-id="11169"></path><path d="M619.968484 904.224584a15 15.8 6.298 1 0 3.466508-31.409287 15 15.8 6.298 1 0-3.466508 31.409287Z" fill="#FFFFFF" p-id="11170"></path><path d="M621.3 956.1c-2.3 0-4.6-0.1-7-0.4-35.5-3.9-61.1-37.2-57-74.3 4.1-37 36.3-64 71.8-60.1 35.5 3.9 61.1 37.2 57 74.3-2 17.8-10.4 33.9-23.8 45.2-11.8 10-26.2 15.3-41 15.3z m1-109c-19.6 0-36.7 15.9-39 37.2-2.5 22.7 12.7 43.1 33.9 45.5 10.1 1.1 20.2-2 28.3-8.9 8.3-7 13.5-17 14.7-28.1 2.5-22.7-12.7-43.1-33.9-45.5-1.4-0.1-2.7-0.2-4-0.2z" fill="#5E4153" p-id="11171"></path><path d="M169.535995 896.931531a67.8 71.5 9.091 1 0 22.594423-141.203725 67.8 71.5 9.091 1 0-22.594423 141.203725Z" fill="#5A9DFF" p-id="11172"></path><path d="M138.3 837.6c6.2-39 41.2-65.8 78.2-59.9 9.7 1.5 18.5 5.2 26.1 10.4-10.1-14.7-25.5-25.3-44-28.3-37-5.9-72 20.9-78.2 59.9-4.6 28.8 7.8 56.2 29.5 70.9-10.1-14.7-14.8-33.6-11.6-53z" fill="#8DC1FF" p-id="11173"></path><path d="M176.946333 850.620659a23.3 24.6 9.091 1 0 7.773746-48.581981 23.3 24.6 9.091 1 0-7.773746 48.581981Z" fill="#FFFFFF" p-id="11174"></path><path d="M179.9 910.8c-4.1 0-8.3-0.3-12.4-1-21.4-3.4-40.2-15.4-52.7-33.8-12.4-18.1-17.3-40.3-13.7-62.5 3.5-22.2 15.1-41.7 32.5-55.1 17.6-13.5 39.2-19.1 60.6-15.6 21.4 3.4 40.2 15.4 52.7 33.8 12.4 18.1 17.3 40.3 13.7 62.5-3.5 22.2-15.1 41.7-32.5 55.1-14.2 10.8-31 16.6-48.2 16.6z m2-142.8c-11.5 0-22.8 3.9-32.4 11.2-12.1 9.3-20.1 22.9-22.6 38.5-2.5 15.5 0.9 31 9.5 43.6 8.5 12.4 21 20.4 35.3 22.7 14.3 2.3 28.7-1.5 40.6-10.6 12.1-9.3 20.1-22.9 22.6-38.5 2.5-15.5-0.9-31-9.5-43.6-8.5-12.4-21-20.4-35.3-22.7-2.7-0.4-5.5-0.6-8.2-0.6z" fill="#5E4153" p-id="11175"></path></svg>