<?xml version="1.0" standalone="no"?><!DOCTYPE svg PUBLIC "-//W3C//DTD SVG 1.1//EN" "http://www.w3.org/Graphics/SVG/1.1/DTD/svg11.dtd"><svg t="1607585650293" class="icon" viewBox="0 0 1024 1024" version="1.1" xmlns="http://www.w3.org/2000/svg" p-id="26762" xmlns:xlink="http://www.w3.org/1999/xlink" width="200" height="200"><defs><style type="text/css"></style></defs><path d="M295.3216 248.1152m-155.392 0a155.392 155.392 0 1 0 310.784 0 155.392 155.392 0 1 0-310.784 0Z" fill="#FFA750" p-id="26763"></path><path d="M326.7584 478.464s-11.1104 203.264 149.6576 249.7024c53.6064 10.4448 64.7168 6.5536 64.7168 6.5536s184.32-7.168 211.7632-263.0656c-10.8032-6.8608-4.352-33.024-46.9504-8.8064-32.768 18.2784-53.4016 16.7424-79.872 3.1232s-35.2768-6.4-53.6064 5.376c-18.2784 11.776-73.472 12.032-94.7712-5.376-21.2992-17.408-49.7664-16.2816-69.9392-5.0688s-39.168 39.1168-80.9984 17.5616z" fill="#FF927C" p-id="26764"></path><path d="M968.8576 131.9424a36.41856 36.41856 0 0 0-46.1824-20.9408L685.056 195.328c-2.8672 1.024-5.376 2.8672-7.168 5.3248l-51.2512 68.9664H467.968c2.0992-11.4688 3.2768-23.2448 3.2768-35.2768C471.2448 126.9248 383.8464 39.5776 276.48 39.5776c-106.8544 0-193.8432 86.528-194.7136 193.1776-0.256 1.0752-0.4096 2.2016-0.4096 3.328 0 1.28 0.2048 2.4576 0.4608 3.6352 2.6624 97.4336 77.1584 177.152 172.288 188.1088-1.9456 73.4208 9.6256 136.4992 34.3552 187.6992 33.9968 70.3488 92.0064 116.48 172.6464 137.3696v128.6656c-128 9.8304-164.3008 59.4944-165.8368 61.6448-3.2768 4.7104-3.6864 10.8032-1.0752 15.9232a15.4112 15.4112 0 0 0 13.6192 8.2944h404.9408a15.36 15.36 0 0 0 13.4656-22.7328c-3.1232-5.6832-33.6896-54.3744-172.288-63.4368v-127.7952c72.0896-13.056 130.6112-53.4016 169.8816-117.3504 58.3168-94.9248 69.5296-238.0288 27.9552-356.1984-2.1504-6.144-7.9872-10.24-14.4896-10.24h-20.9408l9.9328-13.5168 220.6208-76.1856c9.3696-3.2256 17.152-10.24 21.2992-19.3024 4.0448-9.0624 4.3008-19.5072 0.6656-28.7232zM642.048 300.3392h13.6192l-123.904 169.0112c-1.5872 0.2048-3.1744 0.3584-4.8128 0.4096-3.5328 0.1024-6.8096-0.256-9.984-1.024l125.0816-168.3968zM420.9152 156.6208c10.4448 19.3536 17.1008 41.0624 18.9952 64.0512H326.144l94.7712-64.0512zM354.048 378.624l-43.8784-102.0416 93.5936 60.8768c-13.7216 16.896-30.6688 30.8224-49.7152 41.1648zM327.7824 251.392h111.8208c-1.0752 10.24-3.1232 20.1728-5.9392 29.7472-1.1776 3.8912-2.4576 7.7312-3.8912 11.4688-0.2048 0.6144-0.4608 1.1776-0.7168 1.792-2.4064 6.0416-5.2224 11.8784-8.2432 17.5104L327.7824 251.392z m76.032-120.2688l-99.328 67.1744 37.2736-114.432c24.2688 10.5984 45.568 26.88 62.0544 47.2576z m-91.2896-56.832L274.0224 192.512l-48.9984-113.9712c16.1792-5.376 33.4336-8.3456 51.4048-8.3456 12.3904 0.0512 24.4736 1.4848 36.096 4.096z m-115.6096 16.64l44.9536 104.5504L146.944 133.7344c13.568-17.408 30.5664-32 49.9712-42.8032zM130.4576 159.6416L224.256 220.672H112.9984c1.792-21.8112 7.8848-42.4448 17.4592-61.0304z m2.7136 154.4192c-10.5472-18.944-17.5104-40.1408-19.8656-62.6688h112.5888L133.1712 314.0608z m17.408 25.344l96.9728-65.5872-36.1472 111.0528c-23.7056-10.24-44.4928-25.9584-60.8256-45.4656z m120.064 58.8288h-0.1024c-10.24-0.3584-20.2752-1.6896-29.952-3.84l37.376-114.8416 47.7696 111.0528a164.59776 164.59776 0 0 1-36.864 7.2704c-4.096 0.3072-8.2432 0.512-12.3904 0.512-1.9968 0-3.8912-0.1024-5.8368-0.1536z m455.5776-97.8944c34.56 107.776 23.4496 234.9056-28.6208 319.6416-37.1712 60.5184-91.392 95.8976-161.0752 105.0624-7.6288 1.024-13.3632 7.5264-13.3632 15.2064v155.4944c0 8.2432 6.5024 15.0016 14.6944 15.36 65.2288 2.7648 105.2672 14.3872 129.1264 25.4976H356.352c24.1152-11.1104 62.4128-22.4256 120.8832-25.3952a15.36 15.36 0 0 0 14.592-15.36v-155.1872c0-7.2192-5.0176-13.4144-12.032-15.0016-164.8128-36.5568-197.9392-178.432-194.9696-296.8064 0.2048 0 0.3584-0.0512 0.5632-0.0512a194.95424 194.95424 0 0 0 14.7968-1.28c58.6752-7.168 109.312-40.4992 139.9808-87.9104 0.1536-0.256 0.3584-0.5632 0.512-0.8192a193.536 193.536 0 0 0 12.9536-23.7568c0.3584-0.768 0.6656-1.4848 1.024-2.2528 1.792-4.0448 3.4816-8.192 5.0176-12.3904 0-0.0512 0.0512-0.1024 0.0512-0.1536h144.128L492.032 450.816c-13.056-11.8272-28.8768-18.5344-46.336-19.4048-20.6336-1.0752-41.8304 6.4512-56.576 20.0704-29.952 27.5968-54.9376 8.6528-57.8048 6.2976a15.31904 15.31904 0 0 0-21.5552 1.7408 15.33952 15.33952 0 0 0 1.6384 21.6576c16.2816 13.9776 57.8048 30.5152 98.56-7.1168 8.704-7.9872 21.76-12.6464 34.2016-11.9808 8.3968 0.4096 20.6336 3.4816 31.4368 15.6672 1.9968 2.2528 4.096 4.2496 6.2464 6.1952 0.3072 0.3584 0.5632 0.768 0.9216 1.1264 13.2096 13.4144 31.9488 15.7184 43.264 15.7184 2.2016 0 4.1472-0.1024 5.6832-0.2048 6.1952-0.4608 10.5472-1.4848 13.7216-2.7648 15.36-4.096 29.6448-12.544 38.4-23.5008 3.328-4.1472 11.9296-6.912 21.9136-6.912h0.256c13.3632 0 23.04 4.5056 25.6512 7.68 8.9088 10.9056 23.8592 16.4864 41.0112 15.3088 19.6096-1.3824 37.4272-11.52 46.4896-26.5216 4.4032-7.2704 2.048-16.6912-5.2224-21.0944-7.2704-4.4032-16.6912-2.048-21.0944 5.2224-3.9424 6.5024-12.6976 11.1104-22.3232 11.776-7.6288 0.5632-13.056-1.6384-15.0016-4.0448-11.4176-14.0288-33.024-18.9952-49.5104-18.9952h-0.3584c-4.352 0-8.5504 0.4096-12.544 1.0752l100.7104-137.3696h32.4096z m213.9648-152.5248c-0.4096 0.8192-1.3312 2.3552-3.3792 3.072l-225.1776 77.7216c-2.9696 1.024-5.5296 2.9184-7.3728 5.4272l-26.0608 35.5328h-13.312l34.8672-46.8992 233.216-82.7904c2.9696-1.0752 6.1952 0.4096 7.3216 3.328 0.8192 2.048 0.256 3.7888-0.1024 4.608z" fill="#333333" p-id="26765"></path></svg>