<?xml version="1.0" standalone="no"?><!DOCTYPE svg PUBLIC "-//W3C//DTD SVG 1.1//EN" "http://www.w3.org/Graphics/SVG/1.1/DTD/svg11.dtd"><svg t="1607583502763" class="icon" viewBox="0 0 1024 1024" version="1.1" xmlns="http://www.w3.org/2000/svg" p-id="93827" xmlns:xlink="http://www.w3.org/1999/xlink" width="200" height="200"><defs><style type="text/css"></style></defs><path d="M967.111111 512c0-59.733333-11.377778-119.466667-34.133333-173.511111C853.333333 204.8 708.266667 113.777778 540.444444 113.777778 290.133333 113.777778 85.333333 318.577778 85.333333 568.888889c0 59.733333 11.377778 119.466667 34.133334 173.511111C199.111111 876.088889 344.177778 967.111111 512 967.111111c250.311111 0 455.111111-204.8 455.111111-455.111111z" fill="#D2D2D2" p-id="93828"></path><path d="M483.555556 910.222222c250.311111 0 455.111111-204.8 455.111111-455.111111 0-51.2-8.533333-99.555556-22.755556-142.222222-82.488889-119.466667-219.022222-199.111111-375.466667-199.111111-250.311111 0-455.111111 204.8-455.111111 455.111111 0 51.2 8.533333 99.555556 25.6 145.066667C190.577778 833.422222 329.955556 910.222222 483.555556 910.222222z" fill="#E8E8E8" p-id="93829"></path><path d="M512 981.333333C253.155556 981.333333 42.666667 770.844444 42.666667 512S253.155556 42.666667 512 42.666667c22.755556 0 48.355556 2.844444 71.111111 5.688889 8.533333 0 14.222222 8.533333 11.377778 17.066666 0 8.533333-8.533333 14.222222-17.066667 11.377778-22.755556-2.844444-45.511111-5.688889-65.422222-5.688889-241.777778 0-440.888889 199.111111-440.888889 440.888889s199.111111 440.888889 440.888889 440.888889c130.844444 0 250.311111-54.044444 332.8-150.755556 5.688889-5.688889 14.222222-5.688889 19.911111-2.844444 5.688889 5.688889 5.688889 14.222222 2.844445 19.911111-88.177778 102.4-216.177778 162.133333-355.555556 162.133333z m446.577778-531.911111c-5.688889 0-14.222222-5.688889-14.222222-11.377778-8.533333-56.888889-28.444444-113.777778-62.577778-164.977777-5.688889-5.688889-2.844444-14.222222 2.844444-19.911111 5.688889-5.688889 14.222222-2.844444 19.911111 2.844444 36.977778 54.044444 59.733333 113.777778 68.266667 176.355556 0 8.533333-5.688889 17.066667-14.222222 17.066666z" fill="#666666" p-id="93830"></path><path d="M625.777778 512c0 62.577778-51.2 113.777778-113.777778 113.777778s-113.777778-51.2-113.777778-113.777778 51.2-113.777778 113.777778-113.777778 113.777778 51.2 113.777778 113.777778" fill="#FFFFFF" p-id="93831"></path><path d="M719.644444 765.155556c-31.288889-14.222222-54.044444-36.977778-68.266666-65.422223-14.222222-31.288889-17.066667-65.422222-5.688889-96.711111 14.222222-42.666667 54.044444-73.955556 79.644444-85.333333 19.911111-8.533333 45.511111-14.222222 76.8-17.066667h42.666667c-17.066667-48.355556-73.955556-179.2-213.333333-389.688889-5.688889-8.533333-8.533333-22.755556-2.844445-31.288889 5.688889-11.377778 14.222222-17.066667 28.444445-17.066666 28.444444-5.688889 54.044444-5.688889 76.8-5.688889 65.422222 0 110.933333 8.533333 145.066666 22.755555 36.977778 17.066667 82.488889 82.488889 116.622223 136.533334l5.688888 11.377778c8.533333 11.377778 8.533333 28.444444-2.844444 39.822222-5.688889 8.533333-14.222222 11.377778-25.6 11.377778-2.844444 0-8.533333 0-11.377778-2.844445-2.844444 0-8.533333-2.844444-17.066666-8.533333-22.755556-11.377778-68.266667-39.822222-105.244445-54.044445 82.488889 136.533333 139.377778 321.422222 139.377778 321.422223 11.377778 56.888889 2.844444 110.933333-22.755556 153.6-22.755556 34.133333-56.888889 65.422222-93.866666 79.644444-17.066667 8.533333-36.977778 11.377778-59.733334 14.222222h-14.222222c-22.755556-2.844444-48.355556-5.688889-68.266667-17.066666z" fill="#F7575D" p-id="93832"></path><path d="M512 725.333333c-119.466667 0-213.333333-93.866667-213.333333-213.333333s93.866667-213.333333 213.333333-213.333333c82.488889 0 159.288889 48.355556 196.266667 125.155555 2.844444 8.533333 0 14.222222-5.688889 19.911111-5.688889 2.844444-14.222222 0-19.911111-5.688889-28.444444-65.422222-96.711111-108.088889-167.822223-108.088888-102.4 0-184.888889 82.488889-184.888888 184.888888s82.488889 184.888889 184.888888 184.888889c31.288889 0 59.733333-5.688889 82.488889-17.066666 5.688889-2.844444 14.222222 0 19.911111 5.688889 2.844444 5.688889 0 14.222222-5.688888 19.911111-31.288889 8.533333-62.577778 17.066667-99.555556 17.066666zM275.911111 779.377778c-2.844444 0-5.688889 0-8.533333-2.844445-42.666667-39.822222-76.8-91.022222-96.711111-145.066666-2.844444-8.533333 0-14.222222 8.533333-17.066667 8.533333-2.844444 14.222222 0 17.066667 8.533333 17.066667 48.355556 51.2 96.711111 91.022222 133.688889 5.688889 5.688889 5.688889 14.222222 0 19.911111-2.844444 0-8.533333 2.844444-11.377778 2.844445z" fill="#666666" p-id="93833"></path></svg>