<?xml version="1.0" standalone="no"?><!DOCTYPE svg PUBLIC "-//W3C//DTD SVG 1.1//EN" "http://www.w3.org/Graphics/SVG/1.1/DTD/svg11.dtd"><svg t="1607584277131" class="icon" viewBox="0 0 1024 1024" version="1.1" xmlns="http://www.w3.org/2000/svg" p-id="139508" xmlns:xlink="http://www.w3.org/1999/xlink" width="200" height="200"><defs><style type="text/css"></style></defs><path d="M81.92 942.592s-25.6-290.816 434.176-321.024c0 0 425.472 6.656 425.472 321.024H81.92z" fill="#54D3CC" p-id="139509"></path><path d="M956.928 957.952H68.096l-1.024-13.824c-0.512-4.096-7.68-98.304 69.12-187.392 33.792-39.936 79.36-72.192 135.68-96.768 66.56-29.184 148.48-47.104 243.712-53.248h1.024c4.608 0 110.08 2.048 218.112 43.52 64 24.576 115.2 58.368 152.064 99.84 46.592 52.224 70.144 117.248 70.144 192.512v15.36z m-860.16-30.208h829.44c-3.072-61.44-23.552-114.688-62.464-157.696-33.792-37.888-80.896-68.608-140.288-91.648-98.816-37.888-198.656-41.472-206.848-41.472-91.136 6.144-169.472 23.04-232.448 50.688-51.712 22.528-93.696 52.224-124.928 88.064-35.84 41.472-50.688 83.968-57.344 112.64-3.072 16.384-4.608 30.208-5.12 39.424z" fill="#2A4964" p-id="139510"></path><path d="M512 694.272c-88.064 0-161.792-66.048-172.032-153.6l-18.432-160.256c-2.048-19.456 13.312-36.864 32.768-36.864h314.88c19.456 0 34.816 17.408 32.768 36.864l-18.432 160.256c-9.728 87.552-83.968 153.6-171.52 153.6z" fill="#FFFDE1" p-id="139511"></path><path d="M512 709.12c-95.744 0-176.128-71.68-186.88-166.912l-18.432-160.256c-1.536-13.824 2.56-27.136 11.776-37.376 9.216-10.24 22.016-15.872 35.84-15.872h314.88c13.824 0 26.624 5.632 35.84 15.872 9.216 10.24 13.312 23.552 11.776 37.376L698.368 542.72c-10.752 94.72-90.624 166.4-186.368 166.4zM354.304 358.912c-5.12 0-10.24 2.048-13.312 6.144-3.584 4.096-5.12 8.704-4.608 13.824l18.432 160.256c9.216 79.872 76.8 140.288 157.184 140.288s147.968-60.416 157.184-140.288L687.104 378.88c0.512-5.12-1.024-10.24-4.608-13.824s-8.192-6.144-13.312-6.144h-314.88z" fill="#2A4964" p-id="139512"></path><path d="M727.04 458.24h-430.08V266.24c0-102.912 83.968-186.88 186.88-186.88h55.808c102.912 0 186.88 83.968 186.88 186.88l0.512 192z" fill="#DDF0F0" p-id="139513"></path><path d="M741.888 473.088H281.6V266.24c0-53.76 20.992-104.448 59.392-142.848s89.088-59.392 142.848-59.392h55.808c53.76 0 104.448 20.992 142.848 59.392s59.392 89.088 59.392 142.848v206.848z m-430.08-29.696H711.68V266.24c0-45.568-17.92-89.088-50.688-121.856-32.768-32.768-75.776-50.688-121.856-50.688h-55.808c-45.568 0-89.088 17.92-121.856 50.688-32.768 32.768-50.688 75.776-50.688 121.856l1.024 177.152z" fill="#2A4964" p-id="139514"></path><path d="M516.096 361.984h-8.704c-6.656 0-11.776-5.632-11.776-11.776v-153.088c0-6.656 5.632-11.776 11.776-11.776h8.704c6.656 0 11.776 5.632 11.776 11.776v153.088c0.512 6.656-5.12 11.776-11.776 11.776z" fill="#F25168" p-id="139515"></path><path d="M423.424 278.016v-8.704c0-6.656 5.632-11.776 11.776-11.776h153.088c6.656 0 11.776 5.632 11.776 11.776v8.704c0 6.656-5.632 11.776-11.776 11.776H435.2c-6.656 0-11.776-5.12-11.776-11.776z" fill="#F25168" p-id="139516"></path><path d="M506.88 789.504c-8.192 0-14.848-6.656-14.848-14.848 0-8.192 6.656-14.848 14.848-14.848 8.192 0 14.848 6.656 14.848 14.848 0 8.192-6.656 14.848-14.848 14.848z m0 73.216c-8.192 0-14.848-6.656-14.848-14.848 0-8.192 6.656-14.848 14.848-14.848 8.192 0 14.848 6.656 14.848 14.848 0 8.192-6.656 14.848-14.848 14.848z" fill="#2A4964" p-id="139517"></path></svg>