<?xml version="1.0" standalone="no"?><!DOCTYPE svg PUBLIC "-//W3C//DTD SVG 1.1//EN" "http://www.w3.org/Graphics/SVG/1.1/DTD/svg11.dtd"><svg t="1607584356084" class="icon" viewBox="0 0 1024 1024" version="1.1" xmlns="http://www.w3.org/2000/svg" p-id="143740" xmlns:xlink="http://www.w3.org/1999/xlink" width="200" height="200"><defs><style type="text/css"></style></defs><path d="M1011.703792 1011.179985H88.200418V678.110103c0-19.990598 16.353009-36.331985 36.338441-36.331984h850.825201c19.991889 0 36.339733 16.345261 36.339732 36.331984v333.069882z m0 0" fill="#FFFFFF" p-id="143741"></path><path d="M1011.703792 1019.718053H88.200418c-9.341256 0-16.918598-7.415929-16.918598-16.566073V676.999586c0-28.749478 23.892903-52.147813 53.257039-52.147813h850.825201c29.364136 0 53.255748 23.398335 53.255748 52.147813v326.156268c0 9.144979-7.574759 16.562199-16.916016 16.562199z m-919.093588-20.886759h914.678638v-334.084843c0-10.476308-8.704646-19.013084-19.408222-19.013084H112.017134c-10.702285 0-19.412096 8.525155-19.412096 19.013084l0.005166 334.084843z m0 0" fill="" p-id="143742"></path><path d="M957.932816 994.292378H141.959772V731.438164c0.046487-16.786885 13.643864-30.389427 30.430749-30.435914h755.110255c16.788177 0.046487 30.384262 13.649029 30.43204 30.435914v262.854214z m0 0" fill="#4CA6FF" p-id="143743"></path><path d="M839.887439 1019.020752H254.087127c-28.200676 0-51.144474-22.94509-51.144475-51.139309V285.506179c0-28.200676 22.948963-51.1406 51.144475-51.1406h585.805478c28.201967 0 51.144474 22.946381 51.144474 51.1406v682.375264c0 28.199385-22.950255 51.139309-51.14964 51.139309zM241.56411 255.688797c-9.550446 0.019369-17.287909 7.755541-17.300822 17.305987v707.395471c0.012913 9.550446 7.749084 17.289201 17.300822 17.300822h610.838598c9.545281-0.012913 17.289201-7.750376 17.300822-17.300822V272.994784c-0.012913-9.550446-7.756832-17.287909-17.300822-17.305987H241.56411z m0 0" fill="#020202" p-id="143744"></path><path d="M809.621977 981.937231H300.625538c-17.404126 0-31.648444-13.842724-31.648444-30.7497v-664.257049c0-16.905685 14.245609-30.748409 31.648444-30.748409h508.991273c17.402835 0 31.647153 13.841433 31.647153 30.748409v664.257049c0.014204 16.906976-14.227531 30.7497-31.641987 30.7497z m0 0" fill="#4CA6FF" p-id="143745"></path><path d="M603.420917 638.945009h-93.669528c-9.939127-0.036156-17.99425-8.084822-18.02395-18.022658v-69.209746c0.028409-9.939127 8.083531-17.99425 18.02395-18.023949h93.669528c9.939127 0.0297 17.992958 8.084822 18.021367 18.023949v69.209746c-0.024535 9.937836-8.078366 17.990376-18.021367 18.022658z m0 0" fill="#FFCC66" p-id="143746"></path><path d="M603.420917 647.397851h-93.669528c-14.62396-0.011622-26.475501-11.86058-26.488414-26.481957v-69.209745c0.012913-14.621377 11.864454-26.470335 26.488414-26.488414h93.669528c14.621377 0.018078 26.475501 11.865745 26.487123 26.488414v69.209745c-0.011622 14.621377-11.865745 26.470335-26.487123 26.481957z m-93.669528-105.247314a9.565942 9.565942 0 0 0-9.564651 9.562068v69.209746c0 5.280121 4.28453 9.556903 9.564651 9.563359h93.669528c5.27883-0.006456 9.563359-4.283238 9.56336-9.563359v-69.209746a9.564651 9.564651 0 0 0-9.56336-9.562068h-93.669528z m0 0" fill="#020202" p-id="143747"></path><path d="M806.968357 638.945009h-93.674693c-9.940419-0.036156-17.987793-8.084822-18.02395-18.022658v-69.209746c0.036156-9.939127 8.083531-17.99425 18.02395-18.023949h93.674693c9.937836 0.0297 17.992958 8.084822 18.022659 18.023949v69.209746c-0.024535 9.937836-8.084822 17.990376-18.022659 18.022658z m0 0" fill="#FFFFFF" p-id="143748"></path><path d="M806.968357 647.397851h-93.674693c-14.622668-0.011622-26.470335-11.86058-26.483249-26.481957v-69.209745c0.012913-14.621377 11.86058-26.470335 26.483249-26.488414h93.674693c14.622668 0.018078 26.469044 11.865745 26.483249 26.488414v69.209745c-0.006456 14.621377-11.86058 26.470335-26.483249 26.481957z m-93.674693-105.247314a9.567233 9.567233 0 0 0-9.56336 9.562068v69.209746a9.572398 9.572398 0 0 0 9.56336 9.563359h93.674693a9.571107 9.571107 0 0 0 9.562068-9.563359v-69.209746c-0.005165-5.280121-4.281947-9.562068-9.562068-9.562068h-93.674693z m0 0" fill="" p-id="143749"></path><path d="M394.22921 638.945009h-93.674694c-9.939127-0.036156-17.986502-8.084822-18.023949-18.022658v-69.209746c0.036156-9.939127 8.084822-17.99425 18.023949-18.023949h93.674694c9.940419 0.0297 17.992958 8.084822 18.023949 18.023949v69.209746c-0.030991 9.937836-8.083531 17.985211-18.023949 18.022658z m0 0" fill="#FFFFFF" p-id="143750"></path><path d="M394.22921 647.397851h-93.674694c-14.622668-0.011622-26.470335-11.86058-26.481957-26.481957v-69.209745c0.011622-14.621377 11.86058-26.470335 26.481957-26.488414h93.674694c14.622668 0.018078 26.470335 11.865745 26.481957 26.488414v69.209745c0 14.603299-11.883823 26.481957-26.481957 26.481957z m-93.674694-105.247314c-5.280121 0-9.556903 4.281947-9.563359 9.562068v69.209746a9.57369 9.57369 0 0 0 9.563359 9.563359h93.674694a9.576272 9.576272 0 0 0 9.564651-9.563359v-69.209746c-0.006456-5.280121-4.28453-9.562068-9.564651-9.562068h-93.674694z m0 0" fill="#020202" p-id="143751"></path><path d="M603.420917 473.554159h-93.669528c-9.939127-0.028409-17.99425-8.077074-18.02395-18.022658v-69.203289c0.028409-9.939127 8.083531-17.992958 18.02395-18.022658h93.669528c9.939127 0.0297 17.992958 8.083531 18.021367 18.022658v69.203289c-0.024535 9.945584-8.078366 17.999415-18.021367 18.022658z m0 0" fill="#FFFFFF" p-id="143752"></path><path d="M603.420917 482.019914h-93.669528c-14.62396-0.011622-26.475501-11.865745-26.488414-26.488413v-69.203289c0.012913-14.621377 11.864454-26.470335 26.488414-26.489705h93.669528c14.621377 0.019369 26.475501 11.867037 26.487123 26.489705v69.203289c-0.011622 14.622668-11.865745 26.476792-26.487123 26.488413z m-93.669528-105.256353a9.568525 9.568525 0 0 0-9.564651 9.564651v69.203289c0 5.286578 4.28453 9.562068 9.564651 9.569816h93.669528a9.571107 9.571107 0 0 0 9.56336-9.569816v-69.203289a9.568525 9.568525 0 0 0-9.56336-9.564651h-93.669528z m0 0" fill="#020202" p-id="143753"></path><path d="M806.968357 473.554159h-93.674693c-9.940419-0.028409-17.987793-8.077074-18.02395-18.022658v-69.203289c0.036156-9.939127 8.083531-17.992958 18.02395-18.022658h93.674693c9.937836 0.0297 17.992958 8.083531 18.022659 18.022658v69.203289c-0.024535 9.945584-8.078366 18.00458-18.022659 18.022658z m0 0" fill="#FFCC66" p-id="143754"></path><path d="M806.968357 482.019914h-93.674693c-14.622668-0.011622-26.470335-11.865745-26.483249-26.488413v-69.203289c0.012913-14.621377 11.86058-26.470335 26.483249-26.489705h93.674693c14.622668 0.019369 26.469044 11.867037 26.483249 26.489705v69.203289c-0.006456 14.629125-11.86058 26.476792-26.483249 26.488413z m-93.674693-105.256353c-5.281412 0-9.558194 4.28453-9.56336 9.564651v69.203289a9.57369 9.57369 0 0 0 9.56336 9.569816h93.674693a9.57369 9.57369 0 0 0 9.562068-9.569816v-69.203289c-0.005165-5.280121-4.281947-9.564651-9.562068-9.564651h-93.674693z m0 0" fill="#020202" p-id="143755"></path><path d="M394.22921 473.554159h-93.674694c-9.939127-0.028409-17.986502-8.077074-18.023949-18.022658v-69.203289c0.036156-9.939127 8.084822-17.992958 18.023949-18.022658h93.674694c9.940419 0.0297 17.992958 8.083531 18.023949 18.022658v69.203289c-0.030991 9.945584-8.083531 17.992958-18.023949 18.022658z m0 0" fill="#FFCC66" p-id="143756"></path><path d="M394.22921 482.019914h-93.674694c-14.622668-0.011622-26.470335-11.865745-26.481957-26.488413v-69.203289c0.011622-14.621377 11.86058-26.470335 26.481957-26.489705h93.674694c14.622668 0.019369 26.470335 11.867037 26.481957 26.489705v69.203289c0 14.609755-11.883823 26.488414-26.481957 26.488413z m-93.674694-105.256353c-5.280121 0-9.556903 4.28453-9.563359 9.564651v69.203289a9.576272 9.576272 0 0 0 9.563359 9.569816h93.674694a9.577564 9.577564 0 0 0 9.564651-9.569816v-69.203289c-0.006456-5.280121-4.28453-9.564651-9.564651-9.564651h-93.674694z m0 0" fill="#020202" p-id="143757"></path><path d="M684.256226 1008.353332H409.720922c-7.998305-0.024535-14.484499-6.502981-14.509034-14.509034V785.839294c0.024535-7.999596 6.510729-14.479334 14.509034-14.502578h274.528848c8.000888 0.024535 14.479334 6.502981 14.501286 14.502578v208.003712c-0.009039 8.007344-6.493942 14.492247-14.49483 14.510326z m0 0" fill="#FFFFFF" p-id="143758"></path><path d="M684.256226 1019.718053H409.720922c-17.324066 0-31.427632-13.80915-31.427631-30.783274V785.194936c0-16.972832 14.103566-30.783274 31.427631-30.783274h274.528848c17.324066 0 31.428923 13.810441 31.428923 30.783274v203.738552c0.005165 16.974124-14.103566 30.784565-31.422467 30.784565zM405.874143 992.711828h282.218532V781.437256H405.874143V992.711828z m0 0" fill="#020202" p-id="143759"></path><path d="M1078.549169 1019.718053h-1061.478658c-9.318013 0-16.877276-5.744989-16.877276-12.836802 0-7.094396 7.559264-12.845841 16.877276-12.845841H1078.554335c9.318013 0 16.877276 5.751445 16.877276 12.845841 0 7.090522-7.559264 12.836802-16.882442 12.836802z m0 0" fill="" p-id="143760"></path><path d="M675.631641 83.366255h-67.39547V18.858129c0-7.557972-10.464686-10.393665-18.02395-10.393665h-48.067309c-7.557972 0-21.302557 2.835692-21.302557 10.393665V83.366255h-64.120737c-7.564429 0-10.792676 13.35203-10.792676 20.915167v48.062144c0 7.564429 3.228247 18.416504 10.792676 18.416505h64.11428v67.002915c0 7.564429 13.745876 7.90404 21.30514 7.90404h48.066018c7.557972 0 18.016202-0.339612 18.016202-7.90404v-67.002915h67.400635c7.56572 0 7.50632-10.852076 7.506321-18.416505v-48.062144c-0.001291-7.564429 0.064565-20.915168-7.498573-20.915167z m0 0" fill="#EE6A56" p-id="143761"></path><path d="M590.205765 254.119869h-48.066018c-7.362986 0-29.76573 0-29.76573-16.356883v-58.542325h-55.647233c-12.637942 0-19.253266-13.519899-19.253266-26.877095v-48.062144c0-11.351808 5.227178-29.36801 19.253266-29.36801h55.647233v-56.055283C512.375308 5.906401 527.808912 0 542.139747 0h48.066018c12.75545 0 26.475501 5.898653 26.4755 18.858129v56.053992h58.942628c3.514916 0 11.997458 1.377816 14.825403 14.15651 1.140217 5.143243 1.140217 10.864989 1.140216 15.046214v48.390134c0 4.199304 0 9.418734-1.211238 14.084196-2.045417 7.905332-7.564429 12.631485-14.754381 12.631486h-58.942628v58.542325c0.006456 16.356883-19.92345 16.356883-26.4755 16.356883z m-60.905403-18.141458c1.570219 0.553967 5.072222 1.22286 12.839385 1.22286h48.066018c5.463485 0 8.203622-0.364146 9.555611-0.769614v-74.137342h74.280676c0.619823-2.493498 0.619823-7.463707 0.619824-9.789336V104.114845c0-2.421185 0-9.17597-0.925862-12.284126h-73.975929v-72.583909c-1.049826-0.907783-4.807506-2.321755-9.555612-2.321756h-48.066017c-5.471233 0-11.012197 1.646406-12.839385 2.948036v71.95892h-71.721321c-1.366194 1.683854-3.180469 7.196409-3.18047 12.449412v48.062144c0 4.922431 1.689019 8.925458 2.70398 9.952041h72.204268v73.684095h-0.005166z m0 0" fill="" p-id="143762"></path></svg>