<?xml version="1.0" standalone="no"?><!DOCTYPE svg PUBLIC "-//W3C//DTD SVG 1.1//EN" "http://www.w3.org/Graphics/SVG/1.1/DTD/svg11.dtd"><svg t="1607584096226" class="icon" viewBox="0 0 1024 1024" version="1.1" xmlns="http://www.w3.org/2000/svg" p-id="134306" xmlns:xlink="http://www.w3.org/1999/xlink" width="200" height="200"><defs><style type="text/css"></style></defs><path d="M23.405714 286.72L394.971429 958.171429l535.405714-10.24L990.354286 672.914286z" fill="#EEECF6" p-id="134307"></path><path d="M394.971429 968.411429c-4.388571 0-7.314286-1.462857-8.777143-5.851429L16.091429 291.108571c-1.462857-4.388571-1.462857-8.777143 1.462857-11.702857 2.925714-2.925714 7.314286-4.388571 11.702857-2.925714l966.948571 386.194286c4.388571 1.462857 7.314286 7.314286 5.851429 11.702857l-59.977143 275.017143c-1.462857 4.388571-5.851429 8.777143-10.24 8.777143l-536.868571 10.24zM46.811429 307.2l354.011428 640.731429 522.24-10.24L980.114286 678.765714 46.811429 307.2z" fill="#141515" p-id="134308"></path><path d="M219.428571 642.194286l78.994286 141.897143 648.045714 92.16 13.165715-64.365715z" fill="#EC748B" p-id="134309"></path><path d="M946.468571 887.954286h-1.462857l-648.045714-92.16c-2.925714 0-5.851429-2.925714-7.314286-5.851429l-78.994285-141.897143c-1.462857-2.925714-1.462857-7.314286 1.462857-11.702857 2.925714-2.925714 7.314286-4.388571 10.24-4.388571l740.205714 169.691428c5.851429 1.462857 8.777143 7.314286 7.314286 11.702857l-14.628572 64.365715c0 5.851429-4.388571 10.24-8.777143 10.24zM304.274286 775.314286l633.417143 90.697143 10.24-45.348572L239.908571 658.285714l64.365715 117.028572z" fill="#141515" p-id="134310"></path><path d="M308.662857 245.76v155.062857l605.622857 241.371429c-19.017143-127.268571-89.234286-258.925714-228.205714-351.085715-92.16-61.44-368.64-162.377143-377.417143-45.348571z" fill="#AFCEE9" p-id="134311"></path><path d="M914.285714 652.434286c-1.462857 0-2.925714 0-4.388571-1.462857L305.737143 411.062857c-4.388571-1.462857-5.851429-5.851429-5.851429-10.24V245.76c1.462857-29.257143 19.017143-64.365714 92.16-64.365714 93.622857 0 238.445714 58.514286 301.348572 100.937143 127.268571 84.845714 209.188571 212.114286 232.594285 358.4 0 4.388571-1.462857 7.314286-4.388571 10.24-2.925714 1.462857-4.388571 1.462857-7.314286 1.462857zM318.902857 393.508571l582.217143 232.594286c-24.868571-133.12-103.862857-248.685714-220.891429-326.217143-61.44-40.96-201.874286-98.011429-291.108571-98.011428-67.291429 0-70.217143 33.645714-70.217143 43.885714v147.748571z" fill="#141515" p-id="134312"></path><path d="M389.460391 634.691653a73.139931 73.139931 0 1 0 3.331462-146.241922 73.139931 73.139931 0 1 0-3.331462 146.241922Z" fill="#7ADCFF" p-id="134313"></path><path d="M390.582857 643.657143h-1.462857c-45.348571-1.462857-81.92-39.497143-80.457143-84.845714 1.462857-45.348571 38.034286-80.457143 83.382857-80.457143h1.462857c21.942857 0 42.422857 10.24 58.514286 26.331428 14.628571 16.091429 23.405714 36.571429 23.405714 58.514286-2.925714 43.885714-39.497143 80.457143-84.845714 80.457143z m1.462857-144.822857c-35.108571 0-62.902857 27.794286-64.365714 61.44-1.462857 33.645714 26.331429 62.902857 61.44 64.365714h1.462857c33.645714 0 61.44-27.794286 62.902857-61.44 0-16.091429-5.851429-32.182857-17.554285-43.885714-11.702857-13.165714-27.794286-20.48-43.885715-20.48z" fill="#141515" p-id="134314"></path><path d="M555.489363 671.348737a57.049147 57.049147 0 1 0 2.600531-114.068653 57.049147 57.049147 0 1 0-2.600531 114.068653Z" fill="#7ADCFF" p-id="134315"></path><path d="M557.348571 681.691429H555.885714c-36.571429-1.462857-65.828571-32.182857-65.828571-68.754286 1.462857-36.571429 30.72-65.828571 67.291428-65.828572h1.462858c17.554286 0 35.108571 7.314286 46.811428 20.48s19.017143 30.72 19.017143 48.274286c-1.462857 36.571429-30.72 65.828571-67.291429 65.828572z m1.462858-114.102858c-26.331429 0-46.811429 20.48-46.811429 45.348572 0 26.331429 20.48 46.811429 45.348571 46.811428l1.462858 10.24v-10.24c24.868571 0 45.348571-20.48 46.811428-45.348571 0-11.702857-4.388571-24.868571-13.165714-33.645714-10.24-7.314286-21.942857-13.165714-33.645714-13.165715z" fill="#141515" p-id="134316"></path><path d="M694.39738 701.888228a43.883959 43.883959 0 1 0 2.000409-87.745118 43.883959 43.883959 0 1 0-2.000409 87.745118Z" fill="#7ADCFF" p-id="134317"></path><path d="M696.32 712.411429s-1.462857 0 0 0c-30.72 0-54.125714-24.868571-54.125714-55.588572 0-29.257143 24.868571-52.662857 54.125714-52.662857 30.72 0 54.125714 24.868571 54.125714 55.588571-1.462857 29.257143-26.331429 52.662857-54.125714 52.662858z m0-87.771429c-19.017143 0-33.645714 14.628571-33.645714 32.182857 0 19.017143 14.628571 33.645714 32.182857 33.645714l1.462857 10.24v-10.24c17.554286 0 33.645714-14.628571 33.645714-32.182857 0-17.554286-14.628571-32.182857-33.645714-33.645714z" fill="#141515" p-id="134318"></path><path d="M812.50017 728.437339a32.18157 32.18157 0 1 0 1.468089-64.346395 32.18157 32.18157 0 1 0-1.468089 64.346395Z" fill="#7ADCFF" p-id="134319"></path><path d="M813.348571 738.742857s-1.462857 0 0 0c-13.165714 0-23.405714-4.388571-30.72-13.165714s-11.702857-19.017143-11.702857-30.72c0-23.405714 20.48-42.422857 42.422857-42.422857 24.868571 0 43.885714 20.48 42.422858 43.885714 0 23.405714-19.017143 42.422857-42.422858 42.422857z m0-64.365714c-13.165714 0-21.942857 10.24-23.405714 21.942857 0 5.851429 1.462857 11.702857 5.851429 16.091429 4.388571 4.388571 10.24 7.314286 16.091428 7.314285v10.24-10.24c11.702857 0 21.942857-10.24 21.942857-21.942857 1.462857-13.165714-7.314286-23.405714-20.48-23.405714z" fill="#141515" p-id="134320"></path><path d="M494.445714 444.708571c-5.851429 0-10.24-4.388571-10.24-10.24V283.794286c0-5.851429 4.388571-10.24 10.24-10.24s10.24 4.388571 10.24 10.24v150.674285c0 5.851429-4.388571 10.24-10.24 10.24z" fill="#141515" p-id="134321"></path><path d="M475.428571 32.182857h144.822858v222.354286c-42.422857-20.48-95.085714-39.497143-144.822858-51.2V32.182857z" fill="#EEECF6" p-id="134322"></path><path d="M620.251429 266.24c-1.462857 0-2.925714 0-4.388572-1.462857-46.811429-21.942857-96.548571-39.497143-141.897143-51.2-4.388571-1.462857-7.314286-5.851429-7.314285-10.24V32.182857c0-5.851429 4.388571-10.24 10.24-10.24h144.822857c5.851429 0 10.24 4.388571 10.24 10.24v222.354286c0 2.925714-1.462857 7.314286-4.388572 8.777143-2.925714 1.462857-5.851429 2.925714-7.314285 2.925714z m-134.582858-70.217143c39.497143 10.24 83.382857 24.868571 122.88 43.885714V43.885714h-122.88v152.137143z" fill="#141515" p-id="134323"></path><path d="M645.12 136.045714h125.805714v223.817143c-24.868571-24.868571-52.662857-48.274286-83.382857-68.754286-11.702857-7.314286-24.868571-16.091429-40.96-23.405714v-131.657143h-1.462857z" fill="#EEECF6" p-id="134324"></path><path d="M770.925714 370.102857c-2.925714 0-5.851429-1.462857-7.314285-2.925714-24.868571-24.868571-52.662857-46.811429-81.92-67.291429-11.702857-7.314286-24.868571-14.628571-40.96-23.405714-2.925714-1.462857-5.851429-5.851429-5.851429-8.777143v-131.657143c0-5.851429 4.388571-10.24 10.24-10.24h125.805714c5.851429 0 10.24 4.388571 10.24 10.24v223.817143c0 4.388571-2.925714 7.314286-5.851428 10.24h-4.388572z m-115.565714-109.714286c14.628571 7.314286 26.331429 14.628571 36.571429 21.942858 24.868571 16.091429 46.811429 33.645714 67.291428 52.662857v-190.171429h-105.325714l1.462857 115.565714z" fill="#141515" p-id="134325"></path><path d="M55.588571 858.697143c1.462857 26.331429 30.72 48.274286 67.291429 48.274286 35.108571 0 64.365714-19.017143 67.291429-43.885715 2.925714 24.868571 32.182857 43.885714 67.291428 43.885715 35.108571 0 64.365714-19.017143 67.291429-43.885715 2.925714 24.868571 32.182857 43.885714 67.291428 43.885715 35.108571 0 64.365714-19.017143 67.291429-43.885715 2.925714 24.868571 32.182857 43.885714 67.291428 43.885715 35.108571 0 64.365714-19.017143 67.291429-43.885715 2.925714 24.868571 32.182857 43.885714 67.291429 43.885715 35.108571 0 64.365714-19.017143 67.291428-43.885715 2.925714 24.868571 32.182857 43.885714 67.291429 43.885715 35.108571 0 64.365714-19.017143 67.291428-43.885715 2.925714 24.868571 32.182857 43.885714 67.291429 43.885715 36.571429 0 65.828571-21.942857 67.291428-48.274286h2.925715v133.12H54.125714l1.462857-133.12z" fill="#6ABAD6" p-id="134326"></path><path d="M997.668571 1002.057143H51.2c-5.851429 0-10.24-4.388571-10.24-10.24v-133.12c0-5.851429 4.388571-10.24 10.24-10.24h2.925714c5.851429 0 10.24 4.388571 10.24 10.24 0 20.48 26.331429 38.034286 57.051429 38.034286 29.257143 0 54.125714-16.091429 57.051428-35.108572 0-5.851429 4.388571-8.777143 10.24-8.777143 5.851429 0 10.24 4.388571 10.24 8.777143 2.925714 20.48 27.794286 35.108571 57.051429 35.108572s54.125714-16.091429 57.051429-35.108572c0-5.851429 4.388571-8.777143 10.24-8.777143s10.24 4.388571 10.24 8.777143c2.925714 20.48 27.794286 35.108571 57.051428 35.108572s54.125714-16.091429 57.051429-35.108572c0-5.851429 4.388571-8.777143 10.24-8.777143s10.24 4.388571 10.24 8.777143c2.925714 20.48 27.794286 35.108571 57.051428 35.108572s54.125714-16.091429 57.051429-35.108572c0-5.851429 4.388571-8.777143 10.24-8.777143 5.851429 0 10.24 4.388571 10.24 8.777143 2.925714 20.48 27.794286 35.108571 57.051428 35.108572s54.125714-16.091429 57.051429-35.108572c0-5.851429 4.388571-8.777143 10.24-8.777143 5.851429 0 10.24 4.388571 10.24 8.777143 2.925714 20.48 27.794286 35.108571 57.051429 35.108572s54.125714-16.091429 57.051428-35.108572c0-5.851429 4.388571-8.777143 10.24-8.777143 5.851429 0 10.24 4.388571 10.24 8.777143 2.925714 20.48 27.794286 35.108571 57.051429 35.108572 30.72 0 55.588571-17.554286 57.051428-38.034286 0-5.851429 4.388571-10.24 10.24-10.24h2.925715c5.851429 0 10.24 4.388571 10.24 10.24v133.12c-1.462857 5.851429-5.851429 10.24-11.702858 10.24z m-936.228571-20.48h925.988571v-86.308572c-14.628571 13.165714-36.571429 21.942857-59.977142 21.942858-29.257143 0-54.125714-11.702857-67.291429-29.257143-13.165714 17.554286-38.034286 29.257143-67.291429 29.257143s-54.125714-11.702857-67.291428-29.257143c-13.165714 17.554286-38.034286 29.257143-67.291429 29.257143s-54.125714-11.702857-67.291428-29.257143c-13.165714 17.554286-38.034286 29.257143-67.291429 29.257143s-54.125714-11.702857-67.291428-29.257143c-13.165714 17.554286-38.034286 29.257143-67.291429 29.257143s-54.125714-11.702857-67.291429-29.257143c-13.165714 17.554286-38.034286 29.257143-67.291428 29.257143-29.257143 0-54.125714-11.702857-67.291429-29.257143-13.165714 17.554286-38.034286 29.257143-67.291428 29.257143-24.868571 0-46.811429-8.777143-59.977143-21.942858v86.308572h1.462857z" fill="#141515" p-id="134327"></path></svg>