<?xml version="1.0" standalone="no"?><!DOCTYPE svg PUBLIC "-//W3C//DTD SVG 1.1//EN" "http://www.w3.org/Graphics/SVG/1.1/DTD/svg11.dtd"><svg t="1607580024026" class="icon" viewBox="0 0 1024 1024" version="1.1" xmlns="http://www.w3.org/2000/svg" p-id="25020" xmlns:xlink="http://www.w3.org/1999/xlink" width="200" height="200"><defs><style type="text/css"></style></defs><path d="M658.904615 207.044923l177.74277-48.521846c12.681846 0 25.206154 2.520615 36.903384 7.443692 33.437538 14.178462 76.288 82.865231 88.260923 119.729231 57.501538 177.073231 52.381538 270.690462 47.537231 405.464615a433.348923 433.348923 0 0 1-28.356923 139.618462 71.010462 71.010462 0 0 1-59.667692 45.410461c-26.899692 2.56-66.520615-15.635692-84.676923-33.398153-12.091077-11.815385-46.473846-45.883077-103.148308-102.163693-25.875692-41.905231-74.988308-67.387077-124.219077-67.387077h-209.801846c-49.230769 0-105.078154 25.481846-130.953846 67.387077-48.561231 55.020308-79.163077 89.088-91.805539 102.163693-18.983385 19.613538-57.777231 35.918769-84.676923 33.398153a71.010462 71.010462 0 0 1-59.667692-45.410461 433.348923 433.348923 0 0 1-28.356923-139.618462C-0.866462 556.386462 11.027692 419.564308 68.529231 242.609231c11.972923-36.942769 37.809231-62.464 71.286154-76.603077 11.657846-4.962462 24.221538-7.483077 36.903384-7.483077l177.703385 48.561231h304.482461z" fill="#FC280E" p-id="25021"></path><path d="M503.808 714.515692c164.115692 0 250.958769 52.775385 285.341538 68.765539l-45.252923-119.886769-77.587692-23.63077H333.312l-71.246769 23.63077-41.590154 119.886769c31.822769-15.990154 119.217231-68.765538 283.372308-68.765539z" fill="#FC280E" p-id="25022"></path><path d="M664.576 197.789538c15.911385-11.106462 74.24-39.305846 93.617231-39.266461h78.454154c12.681846 0 25.206154 2.520615 36.903384 7.443692 33.437538 14.178462 76.288 82.865231 88.260923 119.729231 57.501538 177.073231 55.138462 228.155077 50.294154 362.929231-1.693538 47.773538-14.020923 94.956308-31.113846 139.618461a71.010462 71.010462 0 0 1-59.667692 45.410462c-26.899692 2.56-55.532308-12.209231-73.058462-33.398154-11.697231-14.139077-32.689231-40.408615-63.094154-78.848-25.875692-41.865846-92.002462-67.387077-141.23323-67.347692H369.427692c-49.230769-0.039385-117.563077 25.481846-143.438769 67.347692-32.492308 37.218462-53.444923 63.527385-62.936615 78.848-14.178462 23.000615-44.110769 35.918769-71.049846 33.398154a71.010462 71.010462 0 0 1-59.628308-45.410462 434.569846 434.569846 0 0 1-29.341539-139.618461C-1.811692 513.851077 11.027692 419.564308 68.529231 242.609231c11.972923-36.942769 37.809231-62.464 71.286154-76.603077 11.657846-4.962462 24.221538-7.483077 36.903384-7.483077h78.414769c19.377231 0 77.705846 28.199385 93.577847 39.305846h315.864615z" fill="#FF8B3B" p-id="25023"></path><path d="M122.368 368.561231a94.680615 94.680615 0 1 0 189.361231 0 94.680615 94.680615 0 0 0-189.361231 0z" fill="#FF5C00" p-id="25024"></path><path d="M122.368 344.891077a94.680615 94.680615 0 1 0 189.361231 0 94.680615 94.680615 0 0 0-189.361231 0z" fill="#FFE7BF" p-id="25025"></path><path d="M146.038154 344.891077a71.010462 71.010462 0 1 0 142.020923 0 71.010462 71.010462 0 0 0-142.020923 0z" fill="#FFFFFF" p-id="25026"></path><path d="M832.512 415.901538c13.075692 0 23.670154 10.633846 23.670154 23.670154v23.670154a23.670154 23.670154 0 0 1-23.630769 23.670154h-23.709539a23.670154 23.670154 0 0 1-23.630769-23.630769v-23.709539c0-13.075692 10.555077-23.630769 23.630769-23.630769h23.670154z m-71.010462-71.010461c13.075692 0 23.670154 10.633846 23.670154 23.670154v23.670154a23.670154 23.670154 0 0 1-23.670154 23.670153h-23.670153a23.670154 23.670154 0 0 1-23.670154-23.630769v-23.709538c0-13.075692 10.594462-23.630769 23.670154-23.630769h23.670153z m142.020924 0c13.075692 0 23.670154 10.633846 23.670153 23.670154v23.670154a23.670154 23.670154 0 0 1-23.630769 23.670153h-23.709538a23.670154 23.670154 0 0 1-23.63077-23.630769v-23.709538c0-13.075692 10.555077-23.630769 23.63077-23.630769h23.670154z m-71.010462-71.010462c13.075692 0 23.670154 10.633846 23.670154 23.670154v23.670154a23.670154 23.670154 0 0 1-23.630769 23.670154h-23.709539a23.670154 23.670154 0 0 1-23.630769-23.630769v-23.709539c0-13.075692 10.555077-23.630769 23.630769-23.630769h23.670154z" fill="#FF5C00" p-id="25027"></path><path d="M832.512 392.270769a23.670154 23.670154 0 0 1 23.670154 23.630769v23.670154c0 13.075692-10.594462 23.670154-23.630769 23.670154h-23.709539a23.670154 23.670154 0 0 1-23.630769-23.630769v-23.709539a23.670154 23.670154 0 0 1 23.630769-23.630769h23.670154z m-71.010462-71.049846a23.670154 23.670154 0 0 1 23.670154 23.670154v23.670154c0 13.075692-10.594462 23.670154-23.670154 23.670154h-23.670153a23.670154 23.670154 0 0 1-23.670154-23.63077v-23.709538a23.670154 23.670154 0 0 1 23.670154-23.630769h23.670153z m142.020924 0a23.670154 23.670154 0 0 1 23.670153 23.670154v23.670154c0 13.075692-10.594462 23.670154-23.630769 23.670154h-23.709538a23.670154 23.670154 0 0 1-23.63077-23.63077v-23.709538a23.670154 23.670154 0 0 1 23.63077-23.630769h23.670154z m-71.010462-71.010461a23.670154 23.670154 0 0 1 23.670154 23.670153v23.670154c0 13.075692-10.594462 23.670154-23.630769 23.670154h-23.709539a23.670154 23.670154 0 0 1-23.630769-23.630769v-23.709539a23.670154 23.670154 0 0 1 23.630769-23.670153h23.670154z" fill="#FFCEA5" p-id="25028"></path><path d="M595.810462 534.291692a71.010462 71.010462 0 1 0 142.020923 0 71.010462 71.010462 0 0 0-142.020923 0zM382.739692 463.241846a23.670154 23.670154 0 0 1 23.670154 23.670154v23.670154h23.670154a23.670154 23.670154 0 0 1 0 47.379692h-23.670154v23.630769a23.670154 23.670154 0 1 1-47.340308 0v-23.630769h-23.670153a23.670154 23.670154 0 1 1 0-47.379692h23.630769v-23.630769a23.670154 23.670154 0 0 1 23.709538-23.709539z" fill="#FF5C00" p-id="25029"></path><path d="M595.810462 510.582154a71.010462 71.010462 0 1 0 142.020923 0 71.010462 71.010462 0 0 0-142.020923 0z" fill="#FFECDB" p-id="25030"></path><path d="M666.781538 439.571692a71.010462 71.010462 0 1 1 0 142.060308 71.010462 71.010462 0 0 1 0-142.060308z m0 23.670154a47.340308 47.340308 0 1 0 0 94.72 47.340308 47.340308 0 0 0 0-94.72z" fill="#FFD3A5" p-id="25031"></path><path d="M382.739692 439.571692a23.670154 23.670154 0 0 1 23.670154 23.670154v23.670154h23.670154a23.670154 23.670154 0 0 1 0 47.379692h-23.670154v23.63077a23.670154 23.670154 0 1 1-47.340308 0v-23.63077h-23.670153a23.670154 23.670154 0 0 1 0-47.379692h23.630769v-23.630769c0-13.115077 10.633846-23.709538 23.709538-23.709539z" fill="#FFE3B6" p-id="25032"></path><path d="M406.449231 344.891077h23.630769c15.793231 0 23.670154 7.876923 23.670154 23.670154 0 15.753846-7.876923 23.670154-23.630769 23.670154h-23.709539c-15.753846 0-23.630769-7.876923-23.630769-23.63077 0-15.793231 7.876923-23.709538 23.630769-23.709538zM595.810462 344.891077h23.630769c15.793231 0 23.709538 7.876923 23.709538 23.670154 0 15.753846-7.876923 23.670154-23.670154 23.670154h-23.670153c-15.793231 0-23.670154-7.876923-23.670154-23.63077 0-15.793231 7.876923-23.709538 23.630769-23.709538z" fill="#FF5C00" p-id="25033"></path><path d="M406.449231 321.220923h23.630769c15.793231 0 23.670154 7.876923 23.670154 23.670154 0 15.753846-7.876923 23.670154-23.630769 23.670154h-23.709539c-15.753846 0-23.630769-7.876923-23.630769-23.630769 0-15.832615 7.876923-23.709538 23.630769-23.709539zM595.810462 321.220923h23.630769c15.793231 0 23.709538 7.876923 23.709538 23.670154 0 15.753846-7.876923 23.670154-23.670154 23.670154h-23.670153c-15.793231 0-23.670154-7.876923-23.670154-23.630769 0-15.832615 7.876923-23.709538 23.630769-23.709539z" fill="#FFFFFF" p-id="25034"></path></svg>