<?xml version="1.0" standalone="no"?><!DOCTYPE svg PUBLIC "-//W3C//DTD SVG 1.1//EN" "http://www.w3.org/Graphics/SVG/1.1/DTD/svg11.dtd"><svg t="1607583128494" class="icon" viewBox="0 0 1024 1024" version="1.1" xmlns="http://www.w3.org/2000/svg" p-id="78821" xmlns:xlink="http://www.w3.org/1999/xlink" width="200" height="200"><defs><style type="text/css"></style></defs><path d="M738.986667 218.453333L716.8 279.722667a131.242667 131.242667 0 0 1 55.637333 38.570666l49.493334-42.325333a196.608 196.608 0 0 0-82.944-57.514667zM865.792 367.616l-63.658667 11.776a131.754667 131.754667 0 0 1-5.290666 67.413333l61.098666 21.845334a193.706667 193.706667 0 0 0 7.850667-101.034667z" fill="#FFA742" p-id="78822"></path><path d="M802.133333 379.392l64-11.776a194.218667 194.218667 0 0 0-43.52-91.648l-49.493333 42.325333a131.242667 131.242667 0 0 0-56.32-38.570666l22.186667-61.269334a193.706667 193.706667 0 0 0-70.144-10.922666l-10.752 234.837333 24.576-6.485333a27.818667 27.818667 0 0 1 26.794666 7.168l100.010667 100.010666a194.389333 194.389333 0 0 0 48.298667-74.410666l-61.098667-21.845334a131.754667 131.754667 0 0 0 5.461333-67.413333z" fill="#F6716F" p-id="78823"></path><path d="M665.6 273.066667l-7.68 170.666666 24.746667-7.850666a27.818667 27.818667 0 0 1 26.794666 7.168l54.272 54.272A129.365333 129.365333 0 0 0 802.133333 379.392a129.024 129.024 0 0 0-29.013333-61.098667A129.024 129.024 0 0 0 665.6 273.066667z" fill="#FFC670" p-id="78824"></path><path d="M862.208 595.968l-153.6-153.6a27.818667 27.818667 0 0 0-25.941333-6.485333l-24.405334 6.485333 12.970667-285.354667A24.234667 24.234667 0 0 0 648.533333 131.754667l-349.866666-16.042667A24.064 24.064 0 0 0 273.066667 138.752l-2.901334 65.024 290.133334-25.429333a24.064 24.064 0 0 1 26.112 21.845333l22.357333 256-136.533333 36.352A27.818667 27.818667 0 0 0 453.802667 512l-60.074667 223.914667 175.616 175.616 239.957333-64.170667 60.074667-224.426667a27.648 27.648 0 0 0-7.168-26.965333z" fill="#D8E3F0" p-id="78825"></path><path d="M453.802667 512a27.818667 27.818667 0 0 1 19.797333-19.626667l136.533333-36.352-22.357333-256a24.064 24.064 0 0 0-26.112-21.845333l-290.133333 25.429333-94.549334 8.192A24.064 24.064 0 0 0 153.6 238.933333l51.2 576.853334a24.064 24.064 0 0 0 26.112 22.016l243.882667-21.333334-80.554667-80.554666z" fill="#FCFEFF" p-id="78826"></path><path d="M839.509333 573.269333L698.026667 431.786667l-193.536 51.2a27.989333 27.989333 0 0 0-12.458667 46.592l119.466667 119.466666a56.490667 56.490667 0 0 0 54.101333 14.506667l162.133333-43.52a27.818667 27.818667 0 0 0 11.776-46.762667z" fill="#FCFEFF" p-id="78827"></path><path d="M341.333333 648.533333l77.141334-6.656 34.133333-130.389333a27.818667 27.818667 0 0 1 19.797333-19.626667l54.272-13.994666a76.117333 76.117333 0 0 0-17.066666-21.504l-127.317334-106.837334-106.666666 127.317334a74.24 74.24 0 0 0 5.290666 102.4 72.192 72.192 0 0 0 73.216 13.994666 12.117333 12.117333 0 0 1 14.336 17.066667A138.581333 138.581333 0 0 1 341.333333 648.533333z" fill="#F6716F" p-id="78828"></path><path d="M215.552 252.074667a17.066667 17.066667 0 0 0-15.530667 18.432l1.536 18.432a17.066667 17.066667 0 0 0 17.066667 15.530666h1.536a17.066667 17.066667 0 0 0 15.530667-18.602666l-1.706667-18.261334a17.066667 17.066667 0 0 0-18.432-15.530666z" fill="#3D3D63" p-id="78829"></path><path d="M874.325333 583.850667l-41.130666-41.130667a212.48 212.48 0 0 0-146.432-352.256l1.365333-32.768A41.130667 41.130667 0 0 0 648.533333 114.688l-349.354666-16.042667A41.130667 41.130667 0 0 0 256 137.898667L253.781333 187.733333l-79.701333 6.997334A41.130667 41.130667 0 0 0 136.533333 238.933333l51.2 577.706667a41.472 41.472 0 0 0 44.714667 37.546667l235.861333-20.650667L546.133333 912.213333a45.226667 45.226667 0 0 0 20.138667 11.605334 44.544 44.544 0 0 0 23.210667 0l208.896-55.978667A44.544 44.544 0 0 0 829.952 836.266667l55.978667-208.725334a45.397333 45.397333 0 0 0-11.605334-43.690666z m-65.024-65.024l-22.016-22.016a153.6 153.6 0 0 0 18.432-28.501334l29.354667 10.410667a184.490667 184.490667 0 0 1-25.770667 40.106667zM682.666667 290.133333a113.493333 113.493333 0 0 1 80.896 182.784l-41.642667-41.642666a45.226667 45.226667 0 0 0-43.349333-11.605334h-1.877334z m164.010666 156.672l-29.013333-10.410666a155.989333 155.989333 0 0 0 3.072-43.861334l30.378667-5.461333a174.250667 174.250667 0 0 1-4.949334 59.392z m-1.024-92.330666l-30.72 5.632a150.869333 150.869333 0 0 0-18.432-38.912L819.2 300.544a177.834667 177.834667 0 0 1 25.941333 53.589333z m-96.085333-113.152a181.76 181.76 0 0 1 48.810667 34.133333l-23.893334 20.309333a149.333333 149.333333 0 0 0-35.498666-24.405333zM716.8 229.546667l-10.410667 29.354666a142.677333 142.677333 0 0 0-22.698666-2.901333l1.365333-30.72a175.616 175.616 0 0 1 31.744 4.266667zM290.133333 139.434667a7.168 7.168 0 0 1 7.509334-6.826667l349.696 17.066667a6.997333 6.997333 0 0 1 6.826666 7.338666l-12.629333 273.066667-17.066667 4.608-20.48-234.837333a41.472 41.472 0 0 0-44.714666-37.546667l-271.189334 22.698667z m-61.269333 681.301333a7.168 7.168 0 0 1-7.68-6.314667L170.666667 236.714667a7.168 7.168 0 0 1 6.485333-7.68l385.194667-34.133334a6.997333 6.997333 0 0 1 7.509333 6.485334l21.162667 240.981333-57.002667 15.189333a98.474667 98.474667 0 0 0-14.165333-15.018666L392.533333 336.213333a17.066667 17.066667 0 0 0-24.064 2.048l-106.837333 127.146667a91.989333 91.989333 0 0 0 6.997333 126.805333 90.112 90.112 0 0 0 78.336 20.821334 98.133333 98.133333 0 0 1-17.066666 23.04 17.066667 17.066667 0 0 0-3.754667 19.456A17.066667 17.066667 0 0 0 341.333333 665.6h1.536l52.736-4.608-14.165333 55.808a45.056 45.056 0 0 0 11.093333 42.496L436.394667 802.133333z m176.64-194.901333l-27.818667 2.389333a110.762667 110.762667 0 0 0 5.290667-10.069333 29.354667 29.354667 0 0 0-4.266667-32.768 28.842667 28.842667 0 0 0-31.232-8.021334 55.466667 55.466667 0 0 1-55.978666-10.581333 57.685333 57.685333 0 0 1-3.413334-79.36l95.744-114.176 112.810667 94.72-27.477333 7.338667a44.885333 44.885333 0 0 0-31.744 31.744z m391.509333 201.386666a10.922667 10.922667 0 0 1-7.68 7.68L580.266667 890.88a10.922667 10.922667 0 0 1-10.24-3.413333l-152.746667-153.6a10.410667 10.410667 0 0 1-2.901333-10.410667l55.978666-208.896a10.922667 10.922667 0 0 1 7.68-7.68l208.725334-54.613333a11.776 11.776 0 0 1 5.461333 0 11.264 11.264 0 0 1 4.949333 2.901333l153.6 153.6a10.581333 10.581333 0 0 1 2.901334 10.410667z" fill="#3D3D63" p-id="78830"></path><path d="M631.466667 644.778667l-88.917334-88.746667A17.066667 17.066667 0 1 0 517.973333 580.266667l88.917334 88.746666a19.626667 19.626667 0 0 1 4.949333 18.602667l-32.597333 121.344a17.066667 17.066667 0 0 0 12.117333 20.992 18.602667 18.602667 0 0 0 4.437333 0 17.066667 17.066667 0 0 0 17.066667-12.629333l32.597333-121.344a53.248 53.248 0 0 0-13.994666-51.2zM791.722667 629.248a17.066667 17.066667 0 0 0-20.821334-11.946667l-79.018666 20.992a17.066667 17.066667 0 0 0-11.946667 20.992 17.066667 17.066667 0 0 0 17.066667 12.629334 19.626667 19.626667 0 0 0 4.437333 0l78.848-21.162667a17.066667 17.066667 0 0 0 11.434667-21.504zM519.850667 766.122667a43.178667 43.178667 0 0 0 10.24 38.058666c8.874667 9.045333 18.773333 6.485333 22.016-5.802666a43.178667 43.178667 0 0 0-10.24-38.058667c-8.874667-9.386667-18.773333-6.314667-22.016 5.802667zM507.392 642.048a43.178667 43.178667 0 0 0-10.24-38.058667c-8.874667-8.874667-18.773333-6.314667-22.016 5.802667a43.178667 43.178667 0 0 0 10.24 38.058667c9.557333 9.045333 18.773333 6.485333 22.016-5.802667zM529.066667 720.213333a43.178667 43.178667 0 0 0-10.24-38.058666c-8.874667-8.874667-18.773333-6.314667-22.016 5.802666a43.178667 43.178667 0 0 0 10.24 38.058667c9.557333 9.045333 19.456 6.485333 22.016-5.802667zM682.666667 567.808a12.117333 12.117333 0 0 0 5.12-21.674667 43.349333 43.349333 0 0 0-38.058667-10.24 11.946667 11.946667 0 0 0-5.802667 22.016 43.178667 43.178667 0 0 0 38.741334 9.898667zM785.066667 681.301333a43.349333 43.349333 0 0 0-27.818667 27.989334c-3.242667 12.117333 4.096 19.285333 17.066667 16.042666A43.52 43.52 0 0 0 802.133333 697.344c3.072-12.117333-4.266667-19.285333-17.066666-16.042667zM668.672 794.453333a43.52 43.52 0 0 0-27.818667 27.818667c-3.242667 12.117333 4.096 19.285333 17.066667 16.042667a43.349333 43.349333 0 0 0 27.989333-27.818667c2.389333-12.288-4.949333-19.285333-17.237333-16.042667z" fill="#3D3D63" p-id="78831"></path></svg>