<?xml version="1.0" standalone="no"?><!DOCTYPE svg PUBLIC "-//W3C//DTD SVG 1.1//EN" "http://www.w3.org/Graphics/SVG/1.1/DTD/svg11.dtd"><svg t="1607584576859" class="icon" viewBox="0 0 1024 1024" version="1.1" xmlns="http://www.w3.org/2000/svg" p-id="154196" xmlns:xlink="http://www.w3.org/1999/xlink" width="200" height="200"><defs><style type="text/css"></style></defs><path d="M318.6 702.2c-18.2-18.2-47.8-18.2-66 0-18.2 18.2-18.2 47.8 0 66l81.8 81.8c18.2 18.2 47.8 18.2 66 0 18.2-18.2 18.2-47.8 0-66l-81.8-81.8zM387.4 484.5L280.5 590.7c-17.5 17.4-17.6 45.7-0.2 63.2l159.3 159.3c17.4 17.4 45.6 17.4 63 0l328.6-328.6H387.4z" fill="#51BFFA" p-id="154197"></path><path d="M326.6 710.2c18.2 18.2 18.2 47.8 0 66s-47.8 18.2-66 0l36.9 36.9c18.2 18.2 47.8 18.2 66 0s18.2-47.8 0-66l-36.9-36.9zM683.5 484.5L428.8 739.2c-17.4 17.4-45.6 17.4-63 0l36.9 36.9c17.4 17.4 45.6 17.4 63 0l291.7-291.7h-73.9z" fill="#3896F1" p-id="154198"></path><path d="M646.5 631.3c-3.5 0-7.1-1.4-9.8-4.1-5.4-5.4-5.4-14.2 0-19.6l11.9-11.9c5.4-5.4 14.2-5.4 19.6 0 5.4 5.4 5.4 14.2 0 19.6l-11.9 11.9c-2.7 2.7-6.2 4.1-9.8 4.1z" fill="#14428D" p-id="154199"></path><path d="M99.7 909.5l-27.1 27.1c-5.4 5.4-5.4 14.2 0 19.6 2.7 2.7 6.3 4.1 9.8 4.1s7.1-1.4 9.8-4.1l27.1-27.1c5.4-5.4 5.4-14.2 0-19.6-5.4-5.4-14.2-5.4-19.6 0zM128.1 881.1l-5.2 5.2c-5.4 5.4-5.4 14.2 0 19.6 2.7 2.7 6.3 4.1 9.8 4.1s7.1-1.4 9.8-4.1l5.2-5.2c5.4-5.4 5.4-14.2 0-19.6-5.4-5.4-14.2-5.4-19.6 0zM951.3 188.4L831.2 68.3c-5.4-5.4-14.2-5.4-19.6 0s-5.4 14.2 0 19.6l54.9 54.9-146.7 146.6-71-71-113.2-113.2c-5.4-5.4-14.2-5.4-19.6 0-5.4 5.4-5.4 14.2 0 19.6l75.7 75.7c-13.4 2-26.2 8-36.1 17.9L232 542.1c-12.4 12.4-19.3 29-19.3 46.6s6.8 34.1 19.3 46.6l4 4c-11 2.4-21.5 7.8-30 16.3-11.4 11.4-17.7 26.6-17.7 42.8 0 16.2 6.3 31.4 17.7 42.8l31.1 31.1-77.2 77.2c-5.4 5.4-5.4 14.2 0 19.6 2.7 2.7 6.3 4.1 9.8 4.1s7.1-1.4 9.8-4.1l77.2-77.2 31.1 31.1c11.4 11.4 26.6 17.7 42.8 17.7 16.2 0 31.4-6.3 42.8-17.7 8.5-8.5 14-19 16.3-30.1l4 4c12.4 12.4 29 19.3 46.6 19.3s34.1-6.8 46.6-19.3l132.2-132.2c5.4-5.4 5.4-14.2 0-19.6-5.4-5.4-14.2-5.4-19.6 0L467.1 777.2c-14.9 14.8-39.1 14.9-53.9 0L251.6 615.6c-14.9-14.9-14.9-39.1 0-53.9l84.9-84.9c0.3 3 1.6 6 4 8.4l73.9 73.9c2.7 2.7 6.3 4.1 9.8 4.1s7.1-1.4 9.8-4.1c5.4-5.4 5.4-14.2 0-19.6l-73.9-73.9c-2.3-2.3-5.3-3.7-8.4-4l58.7-58.7c0.3 3 1.6 6 4 8.4l73.9 73.9c2.7 2.7 6.3 4.1 9.8 4.1s7.1-1.4 9.8-4.1c5.4-5.4 5.4-14.2 0-19.6l-73.9-74c-2.3-2.3-5.3-3.7-8.4-4l67.9-67.9c0.3 3 1.6 6 4 8.4l73.9 73.9c2.7 2.7 6.3 4.1 9.8 4.1s7.1-1.4 9.8-4.1c5.4-5.4 5.4-14.2 0-19.6l-73.9-73.9c-2.3-2.3-5.3-3.7-8.4-4l66.5-66.5c14.8-14.9 39-14.9 53.9 0l161.6 161.6c14.9 14.9 14.9 39.1 0 53.9L684.5 559.9c-5.4 5.4-5.4 14.2 0 19.6 5.4 5.4 14.2 5.4 19.6 0l106.4-106.4c9.8-9.8 16.1-22.2 18.4-35.6l75.2 75.2c2.7 2.7 6.3 4.1 9.8 4.1s7.1-1.4 9.8-4.1c5.4-5.4 5.4-14.2 0-19.6L810.4 380l-71-71 146.7-146.7 45.6 45.6c2.7 2.7 6.3 4.1 9.8 4.1 3.5 0 7.1-1.4 9.8-4.1 5.4-5.4 5.4-14.1 0-19.5zM248.7 665.5c8.4 0 16.8 3.2 23.2 9.6l81.8 81.8c12.8 12.8 12.8 33.6 0 46.4s-33.6 12.8-46.4 0l-81.8-81.8c-12.8-12.8-12.8-33.6 0-46.4 6.4-6.4 14.8-9.6 23.2-9.6z" fill="#14428D" p-id="154200"></path></svg>